<?xml version="1.0" encoding="UTF-8"?>
<svg xmlns="http://www.w3.org/2000/svg" viewBox="0 0 512 512" width="512" height="512"><path fill="#000" d="M125,42h262v1h-262zM121,43h270v1h-270zM119,44h274v1h-274zM117,45h278v1h-278zM115,46h282v1h-282zM114,47h284v1h-284zM113,48h286v1h-286zM112,49h288v1h-288zM111,50h290v1h-290zM110,51h292v1h-292zM109,52h294v1h-294zM108,53h296v1h-296zM107,54h298v1h-298zM106,55h300v1h-300zM105,56h302v1h-302zM104,57h304v1h-304zM103,58h306v1h-306zM102,59h308v1h-308zM101,60h310v1h-310zM100,61h312v1h-312zM99,62h314v1h-314zM98,63h316v1h-316zM97,64h318v1h-318zM96,65h320v1h-320zM95,66h322v1h-322zM94,67h324v1h-324zM93,68h326v1h-326zM92,69h328v1h-328zM91,70h330v1h-330zM90,71h332v1h-332zM89,72h334v1h-334zM88,73h336v1h-336zM87,74h338v1h-338zM86,75h340v1h-340zM85,76h342v1h-342zM84,77h344v1h-344zM83,78h346v1h-346zM82,79h348v1h-348zM81,80h350v1h-350zM80,81h352v1h-352zM79,82h354v1h-354zM78,83h356v1h-356zM77,84h358v1h-358zM76,85h360v1h-360zM75,86h61v1h-61zM376,86h61v1h-61zM74,87h61v1h-61zM377,87h61v1h-61zM73,88h61v1h-61zM378,88h61v1h-61zM72,89h61v1h-61zM379,89h61v1h-61zM71,90h61v1h-61zM380,90h61v1h-61zM70,91h61v1h-61zM381,91h61v1h-61zM69,92h61v1h-61zM382,92h61v1h-61zM68,93h61v1h-61zM383,93h61v1h-61zM67,94h61v1h-61zM384,94h61v1h-61zM66,95h61v1h-61zM385,95h61v1h-61zM65,96h61v1h-61zM386,96h61v1h-61zM64,97h61v1h-61zM387,97h61v1h-61zM63,98h61v1h-61zM388,98h61v1h-61zM62,99h61v1h-61zM389,99h61v1h-61zM61,100h61v1h-61zM390,100h61v1h-61zM60,101h61v1h-61zM391,101h61v1h-61zM59,102h62v1h-62zM391,102h62v1h-62zM58,103h63v1h-63zM391,103h63v1h-63zM57,104h64v1h-64zM391,104h64v1h-64zM56,105h65v1h-65zM391,105h65v1h-65zM55,106h402v1h-402zM54,107h404v1h-404zM53,108h406v1h-406zM52,109h408v1h-408zM51,110h410v1h-410zM50,111h412v1h-412zM49,112h414v1h-414zM48,113h416v1h-416zM47,114h418v1h-418zM46,115h420v1h-420zM46,116h420v1h-420zM45,117h422v1h-422zM45,118h423v1h-423zM44,119h424v1h-424zM44,120h424v1h-424zM43,121h426v1h-426zM43,122h426v1h-426zM43,123h426v1h-426zM43,124h426v1h-426zM42,125h428v1h-428zM42,126h428v1h-428zM42,127h428v1h-428zM42,128h428v1h-428zM42,129h428v1h-428zM42,130h428v1h-428zM42,131h428v1h-428zM42,132h428v1h-428zM42,133h428v1h-428zM42,134h428v1h-428zM42,135h428v1h-428zM42,136h428v1h-428zM42,137h428v1h-428zM42,138h428v1h-428zM42,139h428v1h-428zM42,140h428v1h-428zM42,141h428v1h-428zM42,142h428v1h-428zM42,143h428v1h-428zM42,144h428v1h-428zM42,145h428v1h-428zM42,146h428v1h-428zM42,147h428v1h-428zM42,148h428v1h-428zM42,149h428v1h-428zM42,150h428v1h-428zM42,151h428v1h-428zM42,152h428v1h-428zM42,153h428v1h-428zM42,154h428v1h-428zM42,155h428v1h-428zM42,156h428v1h-428zM42,157h428v1h-428zM42,158h428v1h-428zM42,159h428v1h-428zM42,160h428v1h-428zM42,161h428v1h-428zM42,162h428v1h-428zM42,163h428v1h-428zM42,164h428v1h-428zM42,165h428v1h-428zM42,166h428v1h-428zM42,167h428v1h-428zM42,168h428v1h-428zM42,169h428v1h-428zM42,170h428v1h-428zM42,171h428v1h-428zM42,172h428v1h-428zM42,173h428v1h-428zM42,174h428v1h-428zM42,175h428v1h-428zM42,176h428v1h-428zM42,177h428v1h-428zM42,178h428v1h-428zM42,179h428v1h-428zM42,180h428v1h-428zM42,181h428v1h-428zM42,182h428v1h-428zM42,183h428v1h-428zM42,184h428v1h-428zM42,185h428v1h-428zM42,186h428v1h-428zM42,187h428v1h-428zM42,188h428v1h-428zM42,189h428v1h-428zM42,190h428v1h-428zM42,191h428v1h-428zM42,192h428v1h-428zM42,193h428v1h-428zM42,194h428v1h-428zM42,195h428v1h-428zM42,196h428v1h-428zM42,197h428v1h-428zM42,198h428v1h-428zM42,199h428v1h-428zM42,200h428v1h-428zM42,201h428v1h-428zM42,202h428v1h-428zM42,203h428v1h-428zM42,204h428v1h-428zM42,205h428v1h-428zM42,206h428v1h-428zM42,207h428v1h-428zM42,208h428v1h-428zM42,209h428v1h-428zM42,210h428v1h-428zM42,211h428v1h-428zM42,212h428v1h-428zM42,213h428v1h-428zM42,214h172v1h-172zM298,214h172v1h-172zM42,215h172v1h-172zM298,215h172v1h-172zM42,216h172v1h-172zM298,216h172v1h-172zM42,217h172v1h-172zM298,217h172v1h-172zM42,218h172v1h-172zM298,218h172v1h-172zM42,219h172v1h-172zM298,219h172v1h-172zM42,220h172v1h-172zM298,220h172v1h-172zM42,221h172v1h-172zM298,221h172v1h-172zM42,222h172v1h-172zM298,222h172v1h-172zM42,223h172v1h-172zM298,223h172v1h-172zM42,224h172v1h-172zM298,224h172v1h-172zM42,225h172v1h-172zM298,225h172v1h-172zM42,226h172v1h-172zM298,226h172v1h-172zM42,227h172v1h-172zM298,227h172v1h-172zM42,228h172v1h-172zM298,228h172v1h-172zM42,229h172v1h-172zM298,229h172v1h-172zM42,230h172v1h-172zM298,230h172v1h-172zM42,231h172v1h-172zM298,231h172v1h-172zM42,232h172v1h-172zM298,232h172v1h-172zM42,233h172v1h-172zM298,233h172v1h-172zM42,234h172v1h-172zM298,234h172v1h-172zM42,235h172v1h-172zM298,235h172v1h-172zM42,236h172v1h-172zM298,236h172v1h-172zM42,237h172v1h-172zM298,237h172v1h-172zM42,238h172v1h-172zM298,238h172v1h-172zM42,239h172v1h-172zM298,239h172v1h-172zM42,240h172v1h-172zM298,240h172v1h-172zM42,241h172v1h-172zM298,241h172v1h-172zM42,242h172v1h-172zM298,242h172v1h-172zM42,243h172v1h-172zM298,243h172v1h-172zM42,244h172v1h-172zM298,244h172v1h-172zM42,245h172v1h-172zM298,245h172v1h-172zM42,246h172v1h-172zM298,246h172v1h-172zM42,247h172v1h-172zM298,247h172v1h-172zM42,248h172v1h-172zM298,248h172v1h-172zM42,249h172v1h-172zM298,249h172v1h-172zM42,250h172v1h-172zM298,250h172v1h-172zM42,251h172v1h-172zM298,251h172v1h-172zM42,252h172v1h-172zM298,252h172v1h-172zM42,253h172v1h-172zM298,253h172v1h-172zM42,254h172v1h-172zM298,254h172v1h-172zM42,255h172v1h-172zM298,255h172v1h-172zM42,256h172v1h-172zM298,256h172v1h-172zM42,257h172v1h-172zM298,257h172v1h-172zM42,258h172v1h-172zM298,258h172v1h-172zM42,259h172v1h-172zM298,259h172v1h-172zM42,260h172v1h-172zM298,260h172v1h-172zM42,261h172v1h-172zM298,261h172v1h-172zM42,262h172v1h-172zM298,262h172v1h-172zM42,263h172v1h-172zM298,263h172v1h-172zM42,264h172v1h-172zM298,264h172v1h-172zM42,265h172v1h-172zM298,265h172v1h-172zM42,266h172v1h-172zM298,266h172v1h-172zM42,267h172v1h-172zM298,267h172v1h-172zM42,268h172v1h-172zM298,268h172v1h-172zM42,269h172v1h-172zM298,269h172v1h-172zM42,270h172v1h-172zM298,270h172v1h-172zM42,271h172v1h-172zM298,271h172v1h-172zM42,272h172v1h-172zM298,272h172v1h-172zM42,273h172v1h-172zM298,273h172v1h-172zM42,274h172v1h-172zM298,274h172v1h-172zM42,275h172v1h-172zM298,275h172v1h-172zM42,276h172v1h-172zM298,276h172v1h-172zM42,277h171v1h-171zM299,277h171v1h-171zM42,278h113v1h-113zM357,278h113v1h-113zM42,279h113v1h-113zM357,279h113v1h-113zM42,280h113v1h-113zM357,280h113v1h-113zM42,281h113v1h-113zM357,281h113v1h-113zM42,282h113v1h-113zM357,282h113v1h-113zM42,283h114v1h-114zM356,283h114v1h-114zM42,284h115v1h-115zM355,284h115v1h-115zM42,285h116v1h-116zM354,285h116v1h-116zM42,286h117v1h-117zM353,286h117v1h-117zM42,287h118v1h-118zM352,287h118v1h-118zM42,288h119v1h-119zM351,288h119v1h-119zM42,289h120v1h-120zM350,289h120v1h-120zM42,290h121v1h-121zM349,290h121v1h-121zM42,291h122v1h-122zM348,291h122v1h-122zM42,292h123v1h-123zM347,292h123v1h-123zM42,293h124v1h-124zM346,293h124v1h-124zM42,294h125v1h-125zM345,294h125v1h-125zM42,295h126v1h-126zM344,295h126v1h-126zM42,296h127v1h-127zM343,296h127v1h-127zM42,297h128v1h-128zM342,297h128v1h-128zM42,298h129v1h-129zM341,298h129v1h-129zM42,299h130v1h-130zM340,299h130v1h-130zM42,300h131v1h-131zM339,300h131v1h-131zM42,301h132v1h-132zM338,301h132v1h-132zM42,302h133v1h-133zM337,302h133v1h-133zM42,303h134v1h-134zM336,303h134v1h-134zM42,304h135v1h-135zM335,304h135v1h-135zM42,305h136v1h-136zM334,305h136v1h-136zM42,306h137v1h-137zM333,306h137v1h-137zM42,307h138v1h-138zM332,307h138v1h-138zM42,308h139v1h-139zM331,308h139v1h-139zM42,309h140v1h-140zM330,309h140v1h-140zM42,310h141v1h-141zM329,310h141v1h-141zM42,311h142v1h-142zM328,311h142v1h-142zM42,312h143v1h-143zM327,312h143v1h-143zM42,313h144v1h-144zM326,313h144v1h-144zM42,314h145v1h-145zM325,314h145v1h-145zM42,315h146v1h-146zM324,315h146v1h-146zM42,316h147v1h-147zM323,316h147v1h-147zM42,317h148v1h-148zM322,317h148v1h-148zM42,318h149v1h-149zM321,318h149v1h-149zM42,319h150v1h-150zM320,319h150v1h-150zM42,320h151v1h-151zM319,320h151v1h-151zM42,321h152v1h-152zM318,321h152v1h-152zM42,322h153v1h-153zM317,322h153v1h-153zM42,323h154v1h-154zM316,323h154v1h-154zM42,324h155v1h-155zM315,324h155v1h-155zM42,325h156v1h-156zM314,325h156v1h-156zM42,326h157v1h-157zM313,326h157v1h-157zM42,327h158v1h-158zM312,327h158v1h-158zM42,328h159v1h-159zM311,328h159v1h-159zM42,329h160v1h-160zM310,329h160v1h-160zM42,330h161v1h-161zM309,330h161v1h-161zM42,331h162v1h-162zM308,331h162v1h-162zM42,332h163v1h-163zM307,332h163v1h-163zM42,333h164v1h-164zM306,333h164v1h-164zM42,334h165v1h-165zM305,334h165v1h-165zM42,335h166v1h-166zM304,335h166v1h-166zM42,336h167v1h-167zM303,336h167v1h-167zM42,337h168v1h-168zM302,337h168v1h-168zM42,338h169v1h-169zM301,338h169v1h-169zM42,339h170v1h-170zM300,339h170v1h-170zM42,340h171v1h-171zM299,340h171v1h-171zM42,341h172v1h-172zM298,341h172v1h-172zM42,342h173v1h-173zM297,342h173v1h-173zM42,343h174v1h-174zM296,343h174v1h-174zM42,344h175v1h-175zM295,344h175v1h-175zM42,345h176v1h-176zM294,345h176v1h-176zM42,346h177v1h-177zM293,346h177v1h-177zM42,347h178v1h-178zM292,347h178v1h-178zM42,348h179v1h-179zM291,348h179v1h-179zM42,349h180v1h-180zM290,349h180v1h-180zM42,350h181v1h-181zM289,350h181v1h-181zM42,351h182v1h-182zM288,351h182v1h-182zM42,352h183v1h-183zM287,352h183v1h-183zM42,353h184v1h-184zM286,353h184v1h-184zM42,354h185v1h-185zM285,354h185v1h-185zM42,355h186v1h-186zM284,355h186v1h-186zM42,356h187v1h-187zM283,356h187v1h-187zM42,357h188v1h-188zM282,357h188v1h-188zM42,358h189v1h-189zM281,358h189v1h-189zM42,359h190v1h-190zM280,359h190v1h-190zM42,360h191v1h-191zM279,360h191v1h-191zM42,361h192v1h-192zM278,361h192v1h-192zM42,362h193v1h-193zM277,362h193v1h-193zM42,363h194v1h-194zM276,363h194v1h-194zM42,364h195v1h-195zM275,364h195v1h-195zM42,365h196v1h-196zM274,365h196v1h-196zM42,366h197v1h-197zM273,366h197v1h-197zM42,367h198v1h-198zM272,367h198v1h-198zM42,368h199v1h-199zM271,368h199v1h-199zM42,369h200v1h-200zM270,369h200v1h-200zM42,370h201v1h-201zM269,370h201v1h-201zM42,371h202v1h-202zM268,371h202v1h-202zM42,372h203v1h-203zM267,372h203v1h-203zM42,373h204v1h-204zM266,373h204v1h-204zM42,374h205v1h-205zM265,374h205v1h-205zM42,375h206v1h-206zM264,375h206v1h-206zM42,376h207v1h-207zM263,376h207v1h-207zM42,377h208v1h-208zM262,377h208v1h-208zM42,378h209v1h-209zM261,378h209v1h-209zM42,379h210v1h-210zM260,379h210v1h-210zM42,380h211v1h-211zM259,380h211v1h-211zM42,381h428v1h-428zM42,382h428v1h-428zM42,383h428v1h-428zM42,384h428v1h-428zM42,385h428v1h-428zM42,386h428v1h-428zM42,387h428v1h-428zM42,388h428v1h-428zM42,389h428v1h-428zM42,390h428v1h-428zM42,391h428v1h-428zM42,392h428v1h-428zM42,393h428v1h-428zM42,394h428v1h-428zM42,395h428v1h-428zM42,396h428v1h-428zM42,397h428v1h-428zM42,398h428v1h-428zM42,399h428v1h-428zM42,400h428v1h-428zM42,401h428v1h-428zM42,402h428v1h-428zM42,403h428v1h-428zM42,404h428v1h-428zM42,405h428v1h-428zM42,406h428v1h-428zM42,407h428v1h-428zM42,408h428v1h-428zM42,409h427v1h-427zM43,410h426v1h-426zM43,411h426v1h-426zM43,412h426v1h-426zM43,413h426v1h-426zM43,414h426v1h-426zM44,415h424v1h-424zM44,416h424v1h-424zM44,417h424v1h-424zM44,418h424v1h-424zM45,419h422v1h-422zM45,420h422v1h-422zM45,421h422v1h-422zM46,422h420v1h-420zM46,423h420v1h-420zM47,424h418v1h-418zM47,425h418v1h-418zM48,426h416v1h-416zM49,427h414v1h-414zM49,428h414v1h-414zM50,429h412v1h-412zM51,430h411v1h-411zM51,431h410v1h-410zM52,432h408v1h-408zM53,433h406v1h-406zM54,434h404v1h-404zM55,435h402v1h-402zM56,436h400v1h-400zM57,437h398v1h-398zM58,438h396v1h-396zM59,439h394v1h-394zM61,440h390v1h-390zM62,441h388v1h-388zM64,442h384v1h-384zM66,443h380v1h-380zM68,444h376v1h-376zM70,445h372v1h-372zM73,446h366v1h-366zM77,447h358v1h-358z"/></svg>