<svg xmlns="http://www.w3.org/2000/svg" viewBox="0 0 512 512" width="512" height="512"><path fill="#000" d="M200,0h112v1h-112zM200,1h112v1h-112zM200,2h112v1h-112zM198,3h116v1h-116zM196,4h120v1h-120zM194,5h124v1h-124zM192,6h128v1h-128zM191,7h130v1h-130zM189,8h134v1h-134zM188,9h136v1h-136zM187,10h138v1h-138zM186,11h140v1h-140zM185,12h142v1h-142zM184,13h144v1h-144zM183,14h146v1h-146zM182,15h148v1h-148zM182,16h148v1h-148zM181,17h150v1h-150zM180,18h152v1h-152zM180,19h152v1h-152zM179,20h154v1h-154zM179,21h154v1h-154zM178,22h156v1h-156zM178,23h156v1h-156zM177,24h158v1h-158zM177,25h158v1h-158zM176,26h160v1h-160zM176,27h160v1h-160zM176,28h160v1h-160zM175,29h162v1h-162zM175,30h162v1h-162zM175,31h162v1h-162zM175,32h162v1h-162zM175,33h162v1h-162zM174,34h164v1h-164zM174,35h164v1h-164zM174,36h164v1h-164zM174,37h164v1h-164zM174,38h164v1h-164zM174,39h164v1h-164zM173,40h41v1h-41zM298,40h41v1h-41zM173,41h41v1h-41zM298,41h41v1h-41zM173,42h40v1h-40zM299,42h40v1h-40zM173,43h40v1h-40zM299,43h40v1h-40zM173,44h40v1h-40zM299,44h40v1h-40zM173,45h40v1h-40zM299,45h40v1h-40zM172,46h41v1h-41zM299,46h41v1h-41zM172,47h41v1h-41zM299,47h41v1h-41zM172,48h40v1h-40zM300,48h40v1h-40zM172,49h40v1h-40zM300,49h40v1h-40zM172,50h40v1h-40zM300,50h40v1h-40zM172,51h40v1h-40zM300,51h40v1h-40zM171,52h41v1h-41zM300,52h41v1h-41zM171,53h41v1h-41zM300,53h41v1h-41zM171,54h40v1h-40zM301,54h40v1h-40zM171,55h40v1h-40zM301,55h40v1h-40zM171,56h40v1h-40zM301,56h40v1h-40zM171,57h40v1h-40zM301,57h40v1h-40zM170,58h41v1h-41zM301,58h41v1h-41zM170,59h41v1h-41zM301,59h41v1h-41zM170,60h40v1h-40zM302,60h40v1h-40zM170,61h40v1h-40zM302,61h40v1h-40zM170,62h40v1h-40zM302,62h40v1h-40zM169,63h41v1h-41zM302,63h41v1h-41zM169,64h41v1h-41zM302,64h41v1h-41zM169,65h41v1h-41zM302,65h41v1h-41zM168,66h41v1h-41zM303,66h41v1h-41zM168,67h41v1h-41zM303,67h41v1h-41zM168,68h41v1h-41zM303,68h41v1h-41zM167,69h42v1h-42zM303,69h42v1h-42zM167,70h42v1h-42zM303,70h42v1h-42zM166,71h42v1h-42zM304,71h42v1h-42zM82,72h16v1h-16zM165,72h43v1h-43zM304,72h43v1h-43zM414,72h16v1h-16zM78,73h24v1h-24zM165,73h43v1h-43zM304,73h43v1h-43zM410,73h24v1h-24zM75,74h30v1h-30zM164,74h44v1h-44zM304,74h44v1h-44zM407,74h30v1h-30zM73,75h34v1h-34zM163,75h44v1h-44zM305,75h44v1h-44zM405,75h34v1h-34zM71,76h39v1h-39zM162,76h45v1h-45zM305,76h45v1h-45zM402,76h39v1h-39zM69,77h44v1h-44zM161,77h46v1h-46zM305,77h46v1h-46zM399,77h44v1h-44zM68,78h47v1h-47zM160,78h46v1h-46zM306,78h46v1h-46zM397,78h47v1h-47zM66,79h52v1h-52zM159,79h47v1h-47zM306,79h47v1h-47zM394,79h52v1h-52zM65,80h56v1h-56zM157,80h49v1h-49zM306,80h49v1h-49zM391,80h56v1h-56zM64,81h59v1h-59zM156,81h49v1h-49zM307,81h49v1h-49zM389,81h59v1h-59zM63,82h63v1h-63zM154,82h51v1h-51zM307,82h51v1h-51zM386,82h63v1h-63zM62,83h67v1h-67zM152,83h52v1h-52zM308,83h52v1h-52zM383,83h67v1h-67zM61,84h71v1h-71zM149,84h55v1h-55zM308,84h55v1h-55zM380,84h71v1h-71zM60,85h76v1h-76zM145,85h59v1h-59zM308,85h59v1h-59zM376,85h76v1h-76zM59,86h144v1h-144zM309,86h144v1h-144zM58,87h145v1h-145zM309,87h145v1h-145zM57,88h145v1h-145zM310,88h145v1h-145zM57,89h145v1h-145zM310,89h145v1h-145zM56,90h145v1h-145zM311,90h145v1h-145zM56,91h144v1h-144zM312,91h144v1h-144zM55,92h145v1h-145zM312,92h145v1h-145zM54,93h145v1h-145zM313,93h145v1h-145zM54,94h144v1h-144zM313,94h145v1h-145zM53,95h145v1h-145zM314,95h145v1h-145zM53,96h144v1h-144zM315,96h144v1h-144zM52,97h144v1h-144zM316,97h144v1h-144zM51,98h145v1h-145zM316,98h145v1h-145zM51,99h144v1h-144zM317,99h144v1h-144zM50,100h144v1h-144zM318,100h144v1h-144zM50,101h143v1h-143zM319,101h143v1h-143zM49,102h143v1h-143zM320,102h143v1h-143zM49,103h142v1h-142zM321,103h142v1h-142zM48,104h142v1h-142zM322,104h142v1h-142zM47,105h142v1h-142zM323,105h142v1h-142zM47,106h141v1h-141zM324,106h141v1h-141zM46,107h141v1h-141zM325,107h141v1h-141zM46,108h140v1h-140zM326,108h140v1h-140zM45,109h140v1h-140zM327,109h140v1h-140zM45,110h139v1h-139zM328,110h139v1h-139zM44,111h138v1h-138zM330,111h138v1h-138zM43,112h138v1h-138zM331,112h138v1h-138zM43,113h46v1h-46zM96,113h84v1h-84zM332,113h85v1h-85zM423,113h46v1h-46zM42,114h46v1h-46zM98,114h80v1h-80zM334,114h80v1h-80zM424,114h46v1h-46zM42,115h46v1h-46zM101,115h76v1h-76zM336,115h75v1h-75zM424,115h46v1h-46zM41,116h46v1h-46zM103,116h72v1h-72zM337,116h72v1h-72zM425,116h46v1h-46zM40,117h46v1h-46zM106,117h67v1h-67zM339,117h67v1h-67zM426,117h46v1h-46zM40,118h46v1h-46zM109,118h62v1h-62zM341,118h62v1h-62zM426,118h46v1h-46zM39,119h46v1h-46zM111,119h58v1h-58zM343,119h58v1h-58zM427,119h46v1h-46zM39,120h46v1h-46zM114,120h53v1h-53zM346,120h52v1h-52zM427,120h46v1h-46zM38,121h46v1h-46zM117,121h47v1h-47zM348,121h47v1h-47zM428,121h46v1h-46zM38,122h46v1h-46zM120,122h41v1h-41zM351,122h41v1h-41zM428,122h46v1h-46zM37,123h46v1h-46zM123,123h34v1h-34zM355,123h34v1h-34zM429,123h46v1h-46zM36,124h46v1h-46zM128,124h25v1h-25zM359,124h25v1h-25zM430,124h46v1h-46zM36,125h46v1h-46zM137,125h7v1h-7zM368,125h7v1h-7zM430,125h46v1h-46zM35,126h46v1h-46zM431,126h46v1h-46zM35,127h46v1h-46zM431,127h46v1h-46zM34,128h46v1h-46zM432,128h46v1h-46zM34,129h45v1h-45zM433,129h45v1h-45zM33,130h46v1h-46zM433,130h46v1h-46zM32,131h46v1h-46zM434,131h46v1h-46zM32,132h46v1h-46zM434,132h46v1h-46zM31,133h46v1h-46zM435,133h46v1h-46zM31,134h46v1h-46zM435,134h46v1h-46zM30,135h46v1h-46zM436,135h46v1h-46zM30,136h45v1h-45zM437,136h45v1h-45zM29,137h46v1h-46zM437,137h46v1h-46zM28,138h46v1h-46zM438,138h46v1h-46zM28,139h46v1h-46zM438,139h46v1h-46zM27,140h46v1h-46zM439,140h46v1h-46zM27,141h46v1h-46zM439,141h46v1h-46zM26,142h46v1h-46zM440,142h46v1h-46zM25,143h46v1h-46zM441,143h46v1h-46zM25,144h46v1h-46zM441,144h46v1h-46zM24,145h46v1h-46zM442,145h46v1h-46zM24,146h46v1h-46zM442,146h46v1h-46zM23,147h46v1h-46zM443,147h46v1h-46zM23,148h46v1h-46zM443,148h46v1h-46zM22,149h46v1h-46zM444,149h46v1h-46zM21,150h46v1h-46zM445,150h46v1h-46zM21,151h46v1h-46zM445,151h46v1h-46zM20,152h46v1h-46zM446,152h46v1h-46zM20,153h46v1h-46zM446,153h46v1h-46zM19,154h46v1h-46zM447,154h46v1h-46zM19,155h45v1h-45zM448,155h45v1h-45zM18,156h46v1h-46zM448,156h46v1h-46zM17,157h46v1h-46zM254,157h4v1h-4zM449,157h46v1h-46zM17,158h46v1h-46zM242,158h28v1h-28zM449,158h46v1h-46zM16,159h46v1h-46zM236,159h40v1h-40zM450,159h46v1h-46zM16,160h46v1h-46zM232,160h48v1h-48zM450,160h46v1h-46zM15,161h46v1h-46zM228,161h56v1h-56zM451,161h46v1h-46zM14,162h46v1h-46zM225,162h62v1h-62zM452,162h45v1h-45zM14,163h46v1h-46zM222,163h68v1h-68zM452,163h46v1h-46zM13,164h46v1h-46zM219,164h74v1h-74zM453,164h46v1h-46zM13,165h46v1h-46zM217,165h78v1h-78zM453,165h46v1h-46zM12,166h46v1h-46zM215,166h82v1h-82zM454,166h46v1h-46zM12,167h46v1h-46zM213,167h86v1h-86zM454,167h46v1h-46zM11,168h46v1h-46zM211,168h90v1h-90zM455,168h46v1h-46zM11,169h45v1h-45zM209,169h94v1h-94zM456,169h45v1h-45zM11,170h45v1h-45zM207,170h98v1h-98zM456,170h45v1h-45zM10,171h45v1h-45zM205,171h102v1h-102zM457,171h45v1h-45zM10,172h45v1h-45zM204,172h104v1h-104zM457,172h45v1h-45zM10,173h44v1h-44zM202,173h108v1h-108zM458,173h44v1h-44zM9,174h45v1h-45zM201,174h110v1h-110zM458,174h45v1h-45zM9,175h44v1h-44zM199,175h114v1h-114zM459,175h44v1h-44zM9,176h43v1h-43zM198,176h116v1h-116zM460,176h43v1h-43zM9,177h43v1h-43zM196,177h120v1h-120zM460,177h43v1h-43zM8,178h43v1h-43zM195,178h122v1h-122zM461,178h43v1h-43zM8,179h43v1h-43zM194,179h124v1h-124zM461,179h43v1h-43zM8,180h42v1h-42zM193,180h126v1h-126zM462,180h42v1h-42zM8,181h41v1h-41zM192,181h128v1h-128zM463,181h41v1h-41zM8,182h41v1h-41zM190,182h132v1h-132zM463,182h41v1h-41zM8,183h41v1h-41zM189,183h134v1h-134zM463,183h41v1h-41zM8,184h41v1h-41zM188,184h136v1h-136zM463,184h41v1h-41zM8,185h41v1h-41zM187,185h138v1h-138zM463,185h41v1h-41zM8,186h42v1h-42zM186,186h140v1h-140zM462,186h42v1h-42zM8,187h44v1h-44zM185,187h142v1h-142zM461,187h43v1h-43zM8,188h45v1h-45zM184,188h144v1h-144zM459,188h45v1h-45zM8,189h46v1h-46zM183,189h146v1h-146zM458,189h46v1h-46zM8,190h47v1h-47zM182,190h148v1h-148zM457,190h47v1h-47zM9,191h47v1h-47zM182,191h148v1h-148zM456,191h47v1h-47zM9,192h49v1h-49zM181,192h150v1h-150zM454,192h49v1h-49zM9,193h50v1h-50zM180,193h152v1h-152zM453,193h50v1h-50zM9,194h51v1h-51zM179,194h154v1h-154zM452,194h51v1h-51zM10,195h51v1h-51zM178,195h156v1h-156zM451,195h51v1h-51zM10,196h52v1h-52zM177,196h158v1h-158zM450,196h52v1h-52zM10,197h54v1h-54zM177,197h73v1h-73zM262,197h73v1h-73zM448,197h54v1h-54zM11,198h54v1h-54zM176,198h68v1h-68zM268,198h68v1h-68zM447,198h54v1h-54zM11,199h55v1h-55zM175,199h65v1h-65zM272,199h65v1h-65zM446,199h55v1h-55zM11,200h56v1h-56zM175,200h62v1h-62zM275,200h62v1h-62zM445,200h56v1h-56zM12,201h57v1h-57zM174,201h60v1h-60zM278,201h60v1h-60zM443,201h57v1h-57zM12,202h58v1h-58zM173,202h59v1h-59zM280,202h59v1h-59zM442,202h58v1h-58zM13,203h58v1h-58zM173,203h57v1h-57zM282,203h57v1h-57zM441,203h58v1h-58zM13,204h59v1h-59zM172,204h56v1h-56zM284,204h56v1h-56zM440,204h59v1h-59zM14,205h59v1h-59zM171,205h55v1h-55zM286,205h55v1h-55zM439,205h59v1h-59zM15,206h59v1h-59zM171,206h54v1h-54zM288,206h53v1h-53zM438,206h59v1h-59zM15,207h60v1h-60zM170,207h53v1h-53zM289,207h53v1h-53zM437,207h60v1h-60zM16,208h60v1h-60zM170,208h52v1h-52zM290,208h52v1h-52zM436,208h60v1h-60zM17,209h60v1h-60zM169,209h51v1h-51zM292,209h51v1h-51zM435,209h60v1h-60zM18,210h60v1h-60zM169,210h50v1h-50zM293,210h50v1h-50zM434,210h60v1h-60zM19,211h60v1h-60zM168,211h50v1h-50zM294,211h50v1h-50zM433,211h60v1h-60zM20,212h59v1h-59zM168,212h49v1h-49zM295,212h49v1h-49zM433,212h59v1h-59zM21,213h59v1h-59zM167,213h49v1h-49zM296,213h49v1h-49zM432,213h59v1h-59zM22,214h59v1h-59zM167,214h47v1h-47zM298,214h47v1h-47zM431,214h59v1h-59zM23,215h59v1h-59zM166,215h48v1h-48zM298,215h48v1h-48zM430,215h59v1h-59zM24,216h58v1h-58zM166,216h47v1h-47zM299,216h47v1h-47zM430,216h58v1h-58zM25,217h58v1h-58zM165,217h47v1h-47zM300,217h47v1h-47zM429,217h58v1h-58zM27,218h57v1h-57zM165,218h46v1h-46zM301,218h46v1h-46zM428,218h57v1h-57zM28,219h56v1h-56zM164,219h46v1h-46zM302,219h46v1h-46zM428,219h56v1h-56zM29,220h56v1h-56zM164,220h45v1h-45zM303,220h45v1h-45zM427,220h56v1h-56zM30,221h56v1h-56zM164,221h45v1h-45zM303,221h45v1h-45zM426,221h56v1h-56zM31,222h55v1h-55zM163,222h45v1h-45zM304,222h45v1h-45zM426,222h55v1h-55zM33,223h54v1h-54zM163,223h44v1h-44zM305,223h44v1h-44zM425,223h54v1h-54zM34,224h53v1h-53zM163,224h43v1h-43zM306,224h43v1h-43zM425,224h53v1h-53zM35,225h53v1h-53zM162,225h44v1h-44zM306,225h44v1h-44zM424,225h53v1h-53zM36,226h52v1h-52zM162,226h43v1h-43zM307,226h43v1h-43zM424,226h52v1h-52zM37,227h52v1h-52zM162,227h43v1h-43zM307,227h43v1h-43zM423,227h52v1h-52zM39,228h50v1h-50zM161,228h43v1h-43zM308,228h43v1h-43zM423,228h50v1h-50zM40,229h49v1h-49zM161,229h43v1h-43zM308,229h43v1h-43zM423,229h49v1h-49zM41,230h49v1h-49zM161,230h42v1h-42zM309,230h42v1h-42zM422,230h49v1h-49zM42,231h48v1h-48zM161,231h42v1h-42zM309,231h42v1h-42zM422,231h48v1h-48zM44,232h47v1h-47zM160,232h42v1h-42zM310,232h42v1h-42zM421,232h47v1h-47zM45,233h46v1h-46zM160,233h42v1h-42zM310,233h42v1h-42zM421,233h46v1h-46zM46,234h45v1h-45zM160,234h41v1h-41zM311,234h41v1h-41zM421,234h45v1h-45zM47,235h45v1h-45zM160,235h41v1h-41zM311,235h41v1h-41zM420,235h45v1h-45zM48,236h44v1h-44zM159,236h42v1h-42zM311,236h42v1h-42zM420,236h44v1h-44zM48,237h44v1h-44zM159,237h41v1h-41zM312,237h41v1h-41zM420,237h44v1h-44zM49,238h43v1h-43zM159,238h41v1h-41zM312,238h41v1h-41zM420,238h43v1h-43zM50,239h43v1h-43zM159,239h41v1h-41zM312,239h41v1h-41zM419,239h43v1h-43zM51,240h42v1h-42zM159,240h40v1h-40zM313,240h40v1h-40zM419,240h42v1h-42zM51,241h42v1h-42zM159,241h40v1h-40zM313,241h40v1h-40zM419,241h42v1h-42zM52,242h41v1h-41zM158,242h41v1h-41zM313,242h41v1h-41zM419,242h41v1h-41zM52,243h41v1h-41zM158,243h41v1h-41zM313,243h41v1h-41zM419,243h41v1h-41zM53,244h41v1h-41zM158,244h40v1h-40zM314,244h40v1h-40zM418,244h41v1h-41zM53,245h41v1h-41zM158,245h40v1h-40zM314,245h40v1h-40zM418,245h41v1h-41zM53,246h41v1h-41zM158,246h40v1h-40zM314,246h40v1h-40zM418,246h41v1h-41zM54,247h40v1h-40zM158,247h40v1h-40zM314,247h40v1h-40zM418,247h40v1h-40zM54,248h40v1h-40zM158,248h40v1h-40zM314,248h40v1h-40zM418,248h40v1h-40zM54,249h40v1h-40zM158,249h40v1h-40zM314,249h40v1h-40zM418,249h40v1h-40zM54,250h40v1h-40zM158,250h39v1h-39zM315,250h39v1h-39zM418,250h40v1h-40zM54,251h40v1h-40zM158,251h39v1h-39zM315,251h39v1h-39zM418,251h40v1h-40zM55,252h39v1h-39zM158,252h39v1h-39zM315,252h39v1h-39zM417,252h40v1h-40zM55,253h40v1h-40zM158,253h39v1h-39zM315,253h39v1h-39zM417,253h40v1h-40zM55,254h40v1h-40zM157,254h40v1h-40zM315,254h40v1h-40zM417,254h40v1h-40zM55,255h40v1h-40zM157,255h40v1h-40zM315,255h40v1h-40zM417,255h40v1h-40zM55,256h40v1h-40zM157,256h40v1h-40zM315,256h40v1h-40zM417,256h40v1h-40zM55,257h40v1h-40zM157,257h40v1h-40zM315,257h40v1h-40zM417,257h40v1h-40zM55,258h40v1h-40zM158,258h39v1h-39zM315,258h39v1h-39zM417,258h40v1h-40zM55,259h39v1h-39zM158,259h39v1h-39zM315,259h39v1h-39zM417,259h40v1h-40zM54,260h40v1h-40zM158,260h39v1h-39zM315,260h39v1h-39zM418,260h40v1h-40zM54,261h40v1h-40zM158,261h39v1h-39zM315,261h39v1h-39zM418,261h40v1h-40zM54,262h40v1h-40zM158,262h40v1h-40zM314,262h40v1h-40zM418,262h40v1h-40zM54,263h40v1h-40zM158,263h40v1h-40zM314,263h40v1h-40zM418,263h40v1h-40zM54,264h40v1h-40zM158,264h40v1h-40zM314,264h40v1h-40zM418,264h40v1h-40zM53,265h41v1h-41zM158,265h40v1h-40zM314,265h40v1h-40zM418,265h41v1h-41zM53,266h41v1h-41zM158,266h40v1h-40zM314,266h40v1h-40zM418,266h41v1h-41zM53,267h41v1h-41zM158,267h40v1h-40zM314,267h40v1h-40zM418,267h41v1h-41zM52,268h41v1h-41zM158,268h41v1h-41zM313,268h41v1h-41zM419,268h41v1h-41zM52,269h41v1h-41zM158,269h41v1h-41zM313,269h41v1h-41zM419,269h41v1h-41zM51,270h42v1h-42zM159,270h40v1h-40zM313,270h40v1h-40zM419,270h42v1h-42zM51,271h42v1h-42zM159,271h40v1h-40zM313,271h40v1h-40zM419,271h42v1h-42zM50,272h43v1h-43zM159,272h41v1h-41zM312,272h41v1h-41zM419,272h43v1h-43zM49,273h43v1h-43zM159,273h41v1h-41zM312,273h41v1h-41zM420,273h43v1h-43zM48,274h44v1h-44zM159,274h41v1h-41zM312,274h41v1h-41zM420,274h44v1h-44zM48,275h44v1h-44zM159,275h42v1h-42zM311,275h42v1h-42zM420,275h44v1h-44zM47,276h45v1h-45zM160,276h41v1h-41zM311,276h41v1h-41zM420,276h45v1h-45zM46,277h45v1h-45zM160,277h41v1h-41zM311,277h41v1h-41zM421,277h45v1h-45zM45,278h46v1h-46zM160,278h42v1h-42zM310,278h42v1h-42zM421,278h46v1h-46zM44,279h47v1h-47zM160,279h42v1h-42zM310,279h42v1h-42zM421,279h47v1h-47zM42,280h48v1h-48zM161,280h42v1h-42zM309,280h42v1h-42zM422,280h48v1h-48zM41,281h49v1h-49zM161,281h42v1h-42zM309,281h42v1h-42zM422,281h49v1h-49zM40,282h49v1h-49zM161,282h43v1h-43zM308,282h43v1h-43zM423,282h49v1h-49zM39,283h50v1h-50zM161,283h43v1h-43zM308,283h43v1h-43zM423,283h50v1h-50zM37,284h52v1h-52zM162,284h43v1h-43zM307,284h43v1h-43zM423,284h52v1h-52zM36,285h52v1h-52zM162,285h43v1h-43zM307,285h43v1h-43zM424,285h52v1h-52zM35,286h53v1h-53zM162,286h44v1h-44zM306,286h44v1h-44zM424,286h53v1h-53zM34,287h53v1h-53zM163,287h43v1h-43zM306,287h43v1h-43zM425,287h53v1h-53zM33,288h54v1h-54zM163,288h44v1h-44zM305,288h44v1h-44zM425,288h54v1h-54zM31,289h55v1h-55zM163,289h45v1h-45zM304,289h45v1h-45zM426,289h55v1h-55zM30,290h56v1h-56zM164,290h45v1h-45zM303,290h45v1h-45zM426,290h56v1h-56zM29,291h56v1h-56zM164,291h45v1h-45zM303,291h45v1h-45zM427,291h56v1h-56zM28,292h56v1h-56zM164,292h46v1h-46zM302,292h46v1h-46zM428,292h56v1h-56zM27,293h57v1h-57zM165,293h46v1h-46zM301,293h46v1h-46zM428,293h57v1h-57zM25,294h58v1h-58zM165,294h47v1h-47zM300,294h47v1h-47zM429,294h58v1h-58zM24,295h58v1h-58zM166,295h47v1h-47zM299,295h47v1h-47zM430,295h58v1h-58zM23,296h59v1h-59zM166,296h48v1h-48zM298,296h48v1h-48zM430,296h59v1h-59zM22,297h59v1h-59zM167,297h47v1h-47zM298,297h47v1h-47zM431,297h59v1h-59zM21,298h59v1h-59zM167,298h49v1h-49zM296,298h49v1h-49zM432,298h59v1h-59zM20,299h59v1h-59zM168,299h49v1h-49zM295,299h49v1h-49zM433,299h59v1h-59zM19,300h60v1h-60zM168,300h50v1h-50zM294,300h50v1h-50zM433,300h60v1h-60zM18,301h60v1h-60zM169,301h50v1h-50zM293,301h50v1h-50zM434,301h60v1h-60zM17,302h60v1h-60zM169,302h51v1h-51zM292,302h51v1h-51zM435,302h60v1h-60zM16,303h60v1h-60zM170,303h52v1h-52zM290,303h52v1h-52zM436,303h60v1h-60zM15,304h60v1h-60zM170,304h53v1h-53zM289,304h53v1h-53zM437,304h60v1h-60zM15,305h59v1h-59zM171,305h54v1h-54zM288,305h53v1h-53zM438,305h59v1h-59zM14,306h59v1h-59zM171,306h55v1h-55zM286,306h55v1h-55zM439,306h59v1h-59zM13,307h59v1h-59zM172,307h56v1h-56zM284,307h56v1h-56zM440,307h59v1h-59zM13,308h58v1h-58zM173,308h57v1h-57zM282,308h57v1h-57zM441,308h58v1h-58zM12,309h58v1h-58zM173,309h59v1h-59zM280,309h59v1h-59zM442,309h58v1h-58zM12,310h57v1h-57zM174,310h60v1h-60zM278,310h60v1h-60zM443,310h57v1h-57zM11,311h56v1h-56zM175,311h62v1h-62zM275,311h62v1h-62zM445,311h56v1h-56zM11,312h55v1h-55zM175,312h65v1h-65zM272,312h65v1h-65zM446,312h55v1h-55zM11,313h54v1h-54zM176,313h68v1h-68zM268,313h68v1h-68zM447,313h54v1h-54zM10,314h54v1h-54zM177,314h73v1h-73zM262,314h73v1h-73zM448,314h54v1h-54zM10,315h52v1h-52zM177,315h158v1h-158zM450,315h52v1h-52zM10,316h51v1h-51zM178,316h156v1h-156zM451,316h51v1h-51zM9,317h51v1h-51zM179,317h154v1h-154zM452,317h51v1h-51zM9,318h50v1h-50zM180,318h152v1h-152zM453,318h50v1h-50zM9,319h49v1h-49zM181,319h150v1h-150zM454,319h49v1h-49zM9,320h47v1h-47zM182,320h148v1h-148zM456,320h47v1h-47zM8,321h47v1h-47zM182,321h148v1h-148zM457,321h47v1h-47zM8,322h46v1h-46zM183,322h146v1h-146zM458,322h46v1h-46zM8,323h45v1h-45zM184,323h144v1h-144zM459,323h45v1h-45zM8,324h44v1h-44zM185,324h142v1h-142zM461,324h43v1h-43zM8,325h42v1h-42zM186,325h140v1h-140zM462,325h42v1h-42zM8,326h41v1h-41zM187,326h138v1h-138zM463,326h41v1h-41zM8,327h41v1h-41zM188,327h136v1h-136zM463,327h41v1h-41zM8,328h41v1h-41zM189,328h134v1h-134zM463,328h41v1h-41zM8,329h41v1h-41zM190,329h132v1h-132zM463,329h41v1h-41zM8,330h41v1h-41zM192,330h128v1h-128zM463,330h41v1h-41zM8,331h42v1h-42zM193,331h126v1h-126zM462,331h42v1h-42zM8,332h43v1h-43zM194,332h124v1h-124zM461,332h43v1h-43zM8,333h43v1h-43zM195,333h122v1h-122zM461,333h43v1h-43zM9,334h43v1h-43zM196,334h120v1h-120zM460,334h43v1h-43zM9,335h43v1h-43zM198,335h116v1h-116zM460,335h43v1h-43zM9,336h44v1h-44zM199,336h114v1h-114zM459,336h44v1h-44zM9,337h45v1h-45zM201,337h110v1h-110zM458,337h45v1h-45zM10,338h44v1h-44zM202,338h108v1h-108zM458,338h44v1h-44zM10,339h45v1h-45zM204,339h104v1h-104zM457,339h45v1h-45zM10,340h45v1h-45zM205,340h102v1h-102zM457,340h45v1h-45zM11,341h45v1h-45zM207,341h98v1h-98zM456,341h45v1h-45zM11,342h45v1h-45zM209,342h94v1h-94zM456,342h45v1h-45zM11,343h46v1h-46zM211,343h90v1h-90zM455,343h46v1h-46zM12,344h46v1h-46zM213,344h86v1h-86zM454,344h46v1h-46zM12,345h46v1h-46zM215,345h82v1h-82zM454,345h46v1h-46zM13,346h46v1h-46zM217,346h78v1h-78zM453,346h46v1h-46zM13,347h46v1h-46zM219,347h74v1h-74zM453,347h46v1h-46zM14,348h46v1h-46zM222,348h68v1h-68zM452,348h46v1h-46zM15,349h45v1h-45zM225,349h62v1h-62zM452,349h45v1h-45zM15,350h46v1h-46zM228,350h56v1h-56zM451,350h46v1h-46zM16,351h46v1h-46zM232,351h48v1h-48zM450,351h46v1h-46zM16,352h46v1h-46zM236,352h40v1h-40zM450,352h46v1h-46zM17,353h46v1h-46zM242,353h28v1h-28zM449,353h46v1h-46zM17,354h46v1h-46zM254,354h3v1h-3zM449,354h46v1h-46zM18,355h46v1h-46zM448,355h46v1h-46zM19,356h45v1h-45zM448,356h45v1h-45zM19,357h46v1h-46zM447,357h46v1h-46zM20,358h46v1h-46zM446,358h46v1h-46zM20,359h46v1h-46zM446,359h46v1h-46zM21,360h46v1h-46zM445,360h46v1h-46zM21,361h46v1h-46zM445,361h46v1h-46zM22,362h46v1h-46zM444,362h46v1h-46zM23,363h46v1h-46zM443,363h46v1h-46zM23,364h46v1h-46zM443,364h46v1h-46zM24,365h46v1h-46zM442,365h46v1h-46zM24,366h46v1h-46zM442,366h46v1h-46zM25,367h46v1h-46zM441,367h46v1h-46zM25,368h46v1h-46zM441,368h46v1h-46zM26,369h46v1h-46zM440,369h46v1h-46zM27,370h46v1h-46zM439,370h46v1h-46zM27,371h46v1h-46zM439,371h46v1h-46zM28,372h46v1h-46zM438,372h46v1h-46zM28,373h46v1h-46zM438,373h46v1h-46zM29,374h46v1h-46zM437,374h46v1h-46zM30,375h45v1h-45zM437,375h45v1h-45zM30,376h46v1h-46zM436,376h46v1h-46zM31,377h46v1h-46zM435,377h46v1h-46zM31,378h46v1h-46zM435,378h46v1h-46zM32,379h46v1h-46zM434,379h46v1h-46zM32,380h46v1h-46zM434,380h46v1h-46zM33,381h46v1h-46zM433,381h46v1h-46zM34,382h45v1h-45zM432,382h46v1h-46zM34,383h46v1h-46zM432,383h46v1h-46zM35,384h46v1h-46zM431,384h46v1h-46zM35,385h46v1h-46zM431,385h46v1h-46zM36,386h46v1h-46zM137,386h7v1h-7zM368,386h7v1h-7zM430,386h46v1h-46zM36,387h46v1h-46zM128,387h25v1h-25zM359,387h25v1h-25zM430,387h46v1h-46zM37,388h46v1h-46zM123,388h34v1h-34zM355,388h34v1h-34zM429,388h46v1h-46zM38,389h46v1h-46zM120,389h41v1h-41zM351,389h41v1h-41zM428,389h46v1h-46zM38,390h46v1h-46zM117,390h47v1h-47zM348,390h47v1h-47zM428,390h46v1h-46zM39,391h46v1h-46zM114,391h53v1h-53zM346,391h52v1h-52zM427,391h46v1h-46zM39,392h46v1h-46zM111,392h58v1h-58zM343,392h58v1h-58zM427,392h46v1h-46zM40,393h46v1h-46zM109,393h62v1h-62zM341,393h62v1h-62zM426,393h46v1h-46zM40,394h46v1h-46zM106,394h67v1h-67zM339,394h67v1h-67zM426,394h46v1h-46zM41,395h46v1h-46zM103,395h72v1h-72zM337,395h72v1h-72zM425,395h46v1h-46zM42,396h46v1h-46zM101,396h76v1h-76zM335,396h76v1h-76zM424,396h46v1h-46zM42,397h46v1h-46zM98,397h80v1h-80zM334,397h80v1h-80zM424,397h46v1h-46zM43,398h46v1h-46zM96,398h84v1h-84zM332,398h85v1h-85zM423,398h46v1h-46zM43,399h138v1h-138zM331,399h138v1h-138zM44,400h138v1h-138zM330,400h138v1h-138zM45,401h139v1h-139zM328,401h139v1h-139zM45,402h140v1h-140zM327,402h140v1h-140zM46,403h140v1h-140zM326,403h140v1h-140zM46,404h141v1h-141zM325,404h141v1h-141zM47,405h141v1h-141zM324,405h141v1h-141zM47,406h142v1h-142zM323,406h142v1h-142zM48,407h142v1h-142zM322,407h142v1h-142zM49,408h142v1h-142zM321,408h142v1h-142zM49,409h143v1h-143zM320,409h143v1h-143zM50,410h143v1h-143zM319,410h143v1h-143zM50,411h144v1h-144zM318,411h144v1h-144zM51,412h144v1h-144zM317,412h144v1h-144zM51,413h145v1h-145zM316,413h145v1h-145zM52,414h144v1h-144zM316,414h144v1h-144zM53,415h144v1h-144zM315,415h144v1h-144zM53,416h145v1h-145zM314,416h145v1h-145zM54,417h145v1h-145zM313,417h145v1h-145zM54,418h145v1h-145zM313,418h145v1h-145zM55,419h145v1h-145zM312,419h145v1h-145zM56,420h144v1h-144zM312,420h144v1h-144zM56,421h145v1h-145zM311,421h145v1h-145zM57,422h145v1h-145zM310,422h145v1h-145zM57,423h145v1h-145zM310,423h145v1h-145zM58,424h145v1h-145zM309,424h145v1h-145zM59,425h144v1h-144zM309,425h144v1h-144zM60,426h76v1h-76zM145,426h59v1h-59zM308,426h59v1h-59zM376,426h76v1h-76zM61,427h71v1h-71zM149,427h55v1h-55zM308,427h55v1h-55zM380,427h71v1h-71zM62,428h67v1h-67zM152,428h52v1h-52zM308,428h52v1h-52zM383,428h67v1h-67zM63,429h63v1h-63zM154,429h51v1h-51zM307,429h51v1h-51zM386,429h63v1h-63zM64,430h59v1h-59zM156,430h49v1h-49zM307,430h49v1h-49zM389,430h59v1h-59zM65,431h56v1h-56zM157,431h49v1h-49zM306,431h49v1h-49zM391,431h56v1h-56zM66,432h52v1h-52zM159,432h47v1h-47zM306,432h47v1h-47zM394,432h52v1h-52zM68,433h47v1h-47zM160,433h46v1h-46zM306,433h46v1h-46zM397,433h47v1h-47zM69,434h44v1h-44zM161,434h46v1h-46zM305,434h46v1h-46zM399,434h44v1h-44zM71,435h39v1h-39zM162,435h45v1h-45zM305,435h45v1h-45zM402,435h39v1h-39zM73,436h34v1h-34zM163,436h44v1h-44zM305,436h44v1h-44zM405,436h34v1h-34zM75,437h30v1h-30zM164,437h44v1h-44zM304,437h44v1h-44zM407,437h30v1h-30zM78,438h24v1h-24zM165,438h43v1h-43zM304,438h43v1h-43zM410,438h24v1h-24zM82,439h16v1h-16zM165,439h43v1h-43zM304,439h43v1h-43zM414,439h16v1h-16zM166,440h42v1h-42zM304,440h42v1h-42zM167,441h42v1h-42zM303,441h42v1h-42zM167,442h42v1h-42zM303,442h42v1h-42zM168,443h41v1h-41zM303,443h41v1h-41zM168,444h41v1h-41zM303,444h41v1h-41zM168,445h41v1h-41zM303,445h41v1h-41zM169,446h41v1h-41zM302,446h41v1h-41zM169,447h41v1h-41zM302,447h41v1h-41zM169,448h41v1h-41zM302,448h41v1h-41zM170,449h40v1h-40zM302,449h40v1h-40zM170,450h40v1h-40zM302,450h40v1h-40zM170,451h40v1h-40zM302,451h40v1h-40zM170,452h41v1h-41zM301,452h41v1h-41zM170,453h41v1h-41zM301,453h41v1h-41zM171,454h40v1h-40zM301,454h40v1h-40zM171,455h40v1h-40zM301,455h40v1h-40zM171,456h40v1h-40zM301,456h40v1h-40zM171,457h40v1h-40zM301,457h40v1h-40zM171,458h41v1h-41zM300,458h41v1h-41zM171,459h41v1h-41zM300,459h41v1h-41zM172,460h40v1h-40zM300,460h40v1h-40zM172,461h40v1h-40zM300,461h40v1h-40zM172,462h40v1h-40zM300,462h40v1h-40zM172,463h40v1h-40zM300,463h40v1h-40zM172,464h41v1h-41zM299,464h41v1h-41zM172,465h41v1h-41zM299,465h41v1h-41zM173,466h40v1h-40zM299,466h40v1h-40zM173,467h40v1h-40zM299,467h40v1h-40zM173,468h40v1h-40zM299,468h40v1h-40zM173,469h40v1h-40zM299,469h40v1h-40zM173,470h41v1h-41zM298,470h41v1h-41zM173,471h41v1h-41zM298,471h41v1h-41zM174,472h164v1h-164zM174,473h164v1h-164zM174,474h164v1h-164zM174,475h164v1h-164zM174,476h164v1h-164zM174,477h164v1h-164zM175,478h162v1h-162zM175,479h162v1h-162zM175,480h162v1h-162zM175,481h162v1h-162zM175,482h162v1h-162zM176,483h160v1h-160zM176,484h160v1h-160zM176,485h160v1h-160zM177,486h158v1h-158zM177,487h158v1h-158zM178,488h156v1h-156zM178,489h156v1h-156zM179,490h154v1h-154zM179,491h154v1h-154zM180,492h152v1h-152zM180,493h152v1h-152zM181,494h150v1h-150zM182,495h148v1h-148zM182,496h148v1h-148zM183,497h146v1h-146zM184,498h144v1h-144zM185,499h142v1h-142zM186,500h140v1h-140zM187,501h138v1h-138zM188,502h136v1h-136zM189,503h134v1h-134zM191,504h130v1h-130zM192,505h128v1h-128zM194,506h124v1h-124zM196,507h120v1h-120zM198,508h116v1h-116zM200,509h112v1h-112zM200,510h112v1h-112zM200,511h112v1h-112z"/></svg>