<?xml version="1.0" encoding="UTF-8"?>
<svg xmlns="http://www.w3.org/2000/svg" viewBox="0 0 512 512" width="512" height="512"><path fill="#000" d="M348,0h19v1h-19zM348,1h19v1h-19zM348,2h19v1h-19zM347,3h21v1h-21zM346,4h23v1h-23zM345,5h25v1h-25zM344,6h27v1h-27zM343,7h29v1h-29zM343,8h30v1h-30zM342,9h32v1h-32zM342,10h33v1h-33zM342,11h34v1h-34zM341,12h36v1h-36zM341,13h37v1h-37zM341,14h38v1h-38zM341,15h39v1h-39zM341,16h40v1h-40zM341,17h41v1h-41zM341,18h41v1h-41zM341,19h42v1h-42zM341,20h43v1h-43zM341,21h44v1h-44zM341,22h45v1h-45zM341,23h46v1h-46zM341,24h47v1h-47zM341,25h48v1h-48zM341,26h49v1h-49zM341,27h50v1h-50zM341,28h51v1h-51zM341,29h52v1h-52zM341,30h53v1h-53zM341,31h54v1h-54zM341,32h55v1h-55zM341,33h56v1h-56zM341,34h57v1h-57zM341,35h58v1h-58zM341,36h59v1h-59zM341,37h60v1h-60zM341,38h61v1h-61zM341,39h62v1h-62zM341,40h63v1h-63zM341,41h64v1h-64zM341,42h65v1h-65zM341,43h66v1h-66zM341,44h67v1h-67zM341,45h67v1h-67zM341,46h68v1h-68zM341,47h69v1h-69zM341,48h70v1h-70zM341,49h71v1h-71zM341,50h72v1h-72zM341,51h73v1h-73zM341,52h74v1h-74zM341,53h75v1h-75zM341,54h76v1h-76zM341,55h77v1h-77zM341,56h78v1h-78zM341,57h79v1h-79zM341,58h80v1h-80zM341,59h81v1h-81zM341,60h82v1h-82zM341,61h83v1h-83zM341,62h84v1h-84zM341,63h85v1h-85zM341,64h86v1h-86zM341,65h87v1h-87zM341,66h88v1h-88zM341,67h89v1h-89zM341,68h90v1h-90zM341,69h91v1h-91zM341,70h92v1h-92zM341,71h93v1h-93zM341,72h93v1h-93zM341,73h94v1h-94zM341,74h95v1h-95zM341,75h96v1h-96zM341,76h97v1h-97zM341,77h98v1h-98zM341,78h99v1h-99zM341,79h100v1h-100zM341,80h101v1h-101zM341,81h102v1h-102zM341,82h103v1h-103zM341,83h104v1h-104zM341,84h105v1h-105zM56,85h77v1h-77zM322,85h125v1h-125zM50,86h86v1h-86zM311,86h137v1h-137zM46,87h92v1h-92zM303,87h146v1h-146zM43,88h97v1h-97zM298,88h152v1h-152zM40,89h101v1h-101zM293,89h158v1h-158zM38,90h104v1h-104zM289,90h163v1h-163zM36,91h108v1h-108zM284,91h169v1h-169zM34,92h110v1h-110zM281,92h173v1h-173zM32,93h113v1h-113zM277,93h178v1h-178zM30,94h116v1h-116zM274,94h182v1h-182zM29,95h118v1h-118zM271,95h186v1h-186zM27,96h120v1h-120zM268,96h190v1h-190zM26,97h122v1h-122zM265,97h194v1h-194zM25,98h123v1h-123zM262,98h198v1h-198zM23,99h125v1h-125zM260,99h200v1h-200zM22,100h127v1h-127zM257,100h204v1h-204zM21,101h128v1h-128zM255,101h207v1h-207zM20,102h129v1h-129zM252,102h211v1h-211zM19,103h130v1h-130zM250,103h214v1h-214zM18,104h132v1h-132zM248,104h217v1h-217zM17,105h133v1h-133zM246,105h220v1h-220zM16,106h134v1h-134zM244,106h223v1h-223zM15,107h135v1h-135zM242,107h226v1h-226zM14,108h136v1h-136zM240,108h229v1h-229zM14,109h135v1h-135zM238,109h232v1h-232zM13,110h136v1h-136zM236,110h235v1h-235zM12,111h137v1h-137zM234,111h238v1h-238zM11,112h138v1h-138zM233,112h240v1h-240zM11,113h138v1h-138zM231,113h243v1h-243zM10,114h138v1h-138zM229,114h246v1h-246zM9,115h139v1h-139zM228,115h248v1h-248zM9,116h138v1h-138zM226,116h251v1h-251zM8,117h139v1h-139zM224,117h254v1h-254zM8,118h138v1h-138zM223,118h256v1h-256zM7,119h138v1h-138zM221,119h259v1h-259zM6,120h139v1h-139zM220,120h261v1h-261zM6,121h138v1h-138zM218,121h264v1h-264zM6,122h137v1h-137zM217,122h266v1h-266zM5,123h137v1h-137zM216,123h268v1h-268zM5,124h135v1h-135zM214,124h271v1h-271zM4,125h135v1h-135zM213,125h273v1h-273zM4,126h133v1h-133zM211,126h275v1h-275zM3,127h131v1h-131zM210,127h277v1h-277zM3,128h59v1h-59zM209,128h279v1h-279zM3,129h54v1h-54zM208,129h281v1h-281zM0,130h55v1h-55zM206,130h284v1h-284zM0,131h53v1h-53zM205,131h286v1h-286zM0,132h52v1h-52zM204,132h288v1h-288zM0,133h50v1h-50zM203,133h290v1h-290zM0,134h49v1h-49zM201,134h293v1h-293zM0,135h48v1h-48zM200,135h295v1h-295zM0,136h47v1h-47zM199,136h297v1h-297zM0,137h47v1h-47zM198,137h299v1h-299zM0,138h46v1h-46zM197,138h301v1h-301zM0,139h45v1h-45zM196,139h303v1h-303zM0,140h45v1h-45zM195,140h305v1h-305zM0,141h45v1h-45zM194,141h307v1h-307zM0,142h44v1h-44zM192,142h310v1h-310zM0,143h44v1h-44zM191,143h312v1h-312zM0,144h44v1h-44zM190,144h314v1h-314zM0,145h43v1h-43zM189,145h316v1h-316zM0,146h43v1h-43zM188,146h318v1h-318zM0,147h43v1h-43zM187,147h320v1h-320zM0,148h43v1h-43zM186,148h322v1h-322zM0,149h43v1h-43zM185,149h324v1h-324zM0,150h43v1h-43zM184,150h325v1h-325zM0,151h43v1h-43zM184,151h328v1h-328zM0,152h43v1h-43zM183,152h329v1h-329zM0,153h43v1h-43zM182,153h330v1h-330zM0,154h43v1h-43zM181,154h331v1h-331zM0,155h43v1h-43zM180,155h332v1h-332zM0,156h43v1h-43zM179,156h333v1h-333zM0,157h43v1h-43zM178,157h334v1h-334zM0,158h43v1h-43zM177,158h335v1h-335zM0,159h43v1h-43zM176,159h336v1h-336zM0,160h43v1h-43zM176,160h336v1h-336zM0,161h43v1h-43zM175,161h337v1h-337zM0,162h43v1h-43zM174,162h338v1h-338zM0,163h43v1h-43zM173,163h339v1h-339zM0,164h43v1h-43zM172,164h340v1h-340zM0,165h43v1h-43zM172,165h340v1h-340zM0,166h43v1h-43zM171,166h341v1h-341zM0,167h43v1h-43zM170,167h342v1h-342zM0,168h43v1h-43zM169,168h343v1h-343zM0,169h43v1h-43zM169,169h340v1h-340zM0,170h43v1h-43zM168,170h341v1h-341zM0,171h43v1h-43zM167,171h341v1h-341zM0,172h43v1h-43zM166,172h341v1h-341zM0,173h43v1h-43zM166,173h340v1h-340zM0,174h43v1h-43zM165,174h340v1h-340zM0,175h43v1h-43zM164,175h340v1h-340zM0,176h43v1h-43zM164,176h339v1h-339zM0,177h43v1h-43zM163,177h339v1h-339zM0,178h43v1h-43zM162,178h339v1h-339zM0,179h43v1h-43zM162,179h338v1h-338zM0,180h43v1h-43zM161,180h338v1h-338zM0,181h43v1h-43zM160,181h338v1h-338zM0,182h43v1h-43zM160,182h337v1h-337zM0,183h43v1h-43zM159,183h337v1h-337zM0,184h43v1h-43zM158,184h337v1h-337zM0,185h43v1h-43zM158,185h336v1h-336zM0,186h43v1h-43zM157,186h336v1h-336zM0,187h43v1h-43zM157,187h335v1h-335zM0,188h43v1h-43zM156,188h335v1h-335zM0,189h43v1h-43zM155,189h335v1h-335zM0,190h43v1h-43zM155,190h334v1h-334zM0,191h43v1h-43zM154,191h334v1h-334zM0,192h43v1h-43zM154,192h333v1h-333zM0,193h43v1h-43zM153,193h333v1h-333zM0,194h43v1h-43zM153,194h332v1h-332zM0,195h43v1h-43zM152,195h333v1h-333zM0,196h43v1h-43zM152,196h332v1h-332zM0,197h43v1h-43zM151,197h332v1h-332zM0,198h43v1h-43zM151,198h331v1h-331zM0,199h43v1h-43zM150,199h331v1h-331zM0,200h43v1h-43zM150,200h330v1h-330zM0,201h43v1h-43zM149,201h330v1h-330zM0,202h43v1h-43zM149,202h329v1h-329zM0,203h43v1h-43zM148,203h329v1h-329zM0,204h43v1h-43zM148,204h328v1h-328zM0,205h43v1h-43zM147,205h328v1h-328zM0,206h43v1h-43zM147,206h327v1h-327zM0,207h43v1h-43zM146,207h327v1h-327zM0,208h43v1h-43zM146,208h326v1h-326zM0,209h43v1h-43zM145,209h326v1h-326zM0,210h43v1h-43zM145,210h325v1h-325zM0,211h43v1h-43zM144,211h325v1h-325zM0,212h43v1h-43zM144,212h324v1h-324zM0,213h43v1h-43zM144,213h323v1h-323zM0,214h43v1h-43zM143,214h323v1h-323zM0,215h43v1h-43zM143,215h322v1h-322zM0,216h43v1h-43zM142,216h322v1h-322zM0,217h43v1h-43zM142,217h321v1h-321zM0,218h43v1h-43zM142,218h320v1h-320zM0,219h43v1h-43zM141,219h320v1h-320zM0,220h43v1h-43zM141,220h319v1h-319zM0,221h43v1h-43zM140,221h319v1h-319zM0,222h43v1h-43zM140,222h319v1h-319zM0,223h43v1h-43zM140,223h318v1h-318zM0,224h43v1h-43zM139,224h318v1h-318zM0,225h43v1h-43zM139,225h317v1h-317zM0,226h43v1h-43zM139,226h316v1h-316zM0,227h43v1h-43zM138,227h316v1h-316zM0,228h43v1h-43zM138,228h315v1h-315zM0,229h43v1h-43zM138,229h314v1h-314zM0,230h43v1h-43zM137,230h314v1h-314zM0,231h43v1h-43zM137,231h313v1h-313zM0,232h43v1h-43zM137,232h312v1h-312zM0,233h43v1h-43zM136,233h312v1h-312zM0,234h43v1h-43zM136,234h311v1h-311zM0,235h43v1h-43zM136,235h167v1h-167zM341,235h105v1h-105zM0,236h43v1h-43zM136,236h157v1h-157zM341,236h104v1h-104zM0,237h43v1h-43zM135,237h152v1h-152zM341,237h103v1h-103zM0,238h43v1h-43zM135,238h146v1h-146zM341,238h102v1h-102zM0,239h43v1h-43zM135,239h141v1h-141zM341,239h101v1h-101zM0,240h43v1h-43zM134,240h138v1h-138zM341,240h100v1h-100zM0,241h43v1h-43zM134,241h134v1h-134zM341,241h99v1h-99zM0,242h43v1h-43zM134,242h131v1h-131zM341,242h98v1h-98zM0,243h43v1h-43zM134,243h128v1h-128zM341,243h97v1h-97zM0,244h43v1h-43zM133,244h126v1h-126zM341,244h96v1h-96zM0,245h43v1h-43zM133,245h123v1h-123zM341,245h95v1h-95zM0,246h43v1h-43zM133,246h120v1h-120zM341,246h94v1h-94zM0,247h43v1h-43zM133,247h118v1h-118zM341,247h93v1h-93zM0,248h43v1h-43zM133,248h115v1h-115zM341,248h93v1h-93zM0,249h43v1h-43zM132,249h114v1h-114zM341,249h92v1h-92zM0,250h43v1h-43zM132,250h112v1h-112zM341,250h91v1h-91zM0,251h43v1h-43zM132,251h109v1h-109zM341,251h90v1h-90zM0,252h43v1h-43zM132,252h107v1h-107zM341,252h89v1h-89zM0,253h43v1h-43zM131,253h106v1h-106zM341,253h88v1h-88zM0,254h43v1h-43zM131,254h104v1h-104zM341,254h87v1h-87zM0,255h43v1h-43zM131,255h102v1h-102zM341,255h86v1h-86zM0,256h43v1h-43zM131,256h101v1h-101zM341,256h85v1h-85zM485,256h12v1h-12zM0,257h43v1h-43zM131,257h99v1h-99zM341,257h84v1h-84zM482,257h17v1h-17zM0,258h43v1h-43zM131,258h97v1h-97zM341,258h83v1h-83zM480,258h21v1h-21zM0,259h43v1h-43zM130,259h96v1h-96zM341,259h82v1h-82zM478,259h25v1h-25zM0,260h43v1h-43zM130,260h95v1h-95zM341,260h81v1h-81zM477,260h27v1h-27zM0,261h43v1h-43zM130,261h93v1h-93zM341,261h80v1h-80zM476,261h29v1h-29zM0,262h43v1h-43zM130,262h91v1h-91zM341,262h79v1h-79zM475,262h31v1h-31zM0,263h43v1h-43zM130,263h90v1h-90zM341,263h78v1h-78zM474,263h33v1h-33zM0,264h43v1h-43zM130,264h88v1h-88zM341,264h77v1h-77zM473,264h35v1h-35zM0,265h43v1h-43zM130,265h87v1h-87zM341,265h76v1h-76zM472,265h37v1h-37zM0,266h43v1h-43zM129,266h86v1h-86zM341,266h75v1h-75zM472,266h37v1h-37zM0,267h43v1h-43zM129,267h85v1h-85zM341,267h74v1h-74zM471,267h41v1h-41zM0,268h43v1h-43zM129,268h84v1h-84zM341,268h73v1h-73zM471,268h41v1h-41zM0,269h43v1h-43zM129,269h82v1h-82zM341,269h72v1h-72zM470,269h42v1h-42zM0,270h43v1h-43zM129,270h81v1h-81zM341,270h71v1h-71zM470,270h42v1h-42zM0,271h43v1h-43zM129,271h80v1h-80zM341,271h70v1h-70zM470,271h42v1h-42zM0,272h43v1h-43zM129,272h78v1h-78zM341,272h69v1h-69zM470,272h42v1h-42zM0,273h43v1h-43zM129,273h77v1h-77zM341,273h68v1h-68zM469,273h43v1h-43zM0,274h43v1h-43zM129,274h76v1h-76zM341,274h67v1h-67zM469,274h43v1h-43zM0,275h43v1h-43zM128,275h76v1h-76zM341,275h67v1h-67zM469,275h43v1h-43zM0,276h43v1h-43zM128,276h74v1h-74zM341,276h66v1h-66zM469,276h43v1h-43zM0,277h43v1h-43zM128,277h73v1h-73zM341,277h65v1h-65zM469,277h43v1h-43zM0,278h43v1h-43zM128,278h72v1h-72zM341,278h64v1h-64zM469,278h43v1h-43zM0,279h43v1h-43zM128,279h71v1h-71zM341,279h63v1h-63zM469,279h43v1h-43zM0,280h43v1h-43zM128,280h70v1h-70zM341,280h62v1h-62zM469,280h43v1h-43zM0,281h43v1h-43zM128,281h69v1h-69zM341,281h61v1h-61zM469,281h43v1h-43zM0,282h43v1h-43zM128,282h68v1h-68zM341,282h60v1h-60zM469,282h43v1h-43zM0,283h43v1h-43zM128,283h67v1h-67zM341,283h59v1h-59zM469,283h43v1h-43zM0,284h43v1h-43zM128,284h66v1h-66zM341,284h58v1h-58zM469,284h43v1h-43zM0,285h43v1h-43zM128,285h65v1h-65zM341,285h57v1h-57zM469,285h43v1h-43zM0,286h43v1h-43zM128,286h64v1h-64zM341,286h56v1h-56zM469,286h43v1h-43zM0,287h43v1h-43zM128,287h63v1h-63zM341,287h55v1h-55zM469,287h43v1h-43zM0,288h43v1h-43zM128,288h62v1h-62zM341,288h54v1h-54zM469,288h43v1h-43zM0,289h43v1h-43zM128,289h61v1h-61zM341,289h53v1h-53zM469,289h43v1h-43zM0,290h43v1h-43zM128,290h60v1h-60zM341,290h52v1h-52zM469,290h43v1h-43zM0,291h43v1h-43zM128,291h59v1h-59zM341,291h51v1h-51zM469,291h43v1h-43zM0,292h43v1h-43zM128,292h58v1h-58zM341,292h50v1h-50zM469,292h43v1h-43zM0,293h43v1h-43zM128,293h57v1h-57zM341,293h49v1h-49zM469,293h43v1h-43zM0,294h43v1h-43zM128,294h56v1h-56zM341,294h48v1h-48zM469,294h43v1h-43zM0,295h43v1h-43zM128,295h55v1h-55zM341,295h47v1h-47zM469,295h43v1h-43zM0,296h43v1h-43zM128,296h54v1h-54zM341,296h46v1h-46zM469,296h43v1h-43zM0,297h43v1h-43zM128,297h54v1h-54zM341,297h45v1h-45zM469,297h43v1h-43zM0,298h43v1h-43zM128,298h53v1h-53zM341,298h44v1h-44zM469,298h43v1h-43zM0,299h43v1h-43zM128,299h52v1h-52zM341,299h43v1h-43zM469,299h43v1h-43zM0,300h43v1h-43zM128,300h51v1h-51zM341,300h42v1h-42zM469,300h43v1h-43zM0,301h43v1h-43zM128,301h50v1h-50zM341,301h41v1h-41zM469,301h43v1h-43zM0,302h43v1h-43zM128,302h50v1h-50zM341,302h41v1h-41zM469,302h43v1h-43zM0,303h43v1h-43zM128,303h49v1h-49zM341,303h40v1h-40zM469,303h43v1h-43zM0,304h43v1h-43zM128,304h48v1h-48zM341,304h39v1h-39zM469,304h43v1h-43zM0,305h43v1h-43zM128,305h47v1h-47zM341,305h38v1h-38zM469,305h43v1h-43zM0,306h43v1h-43zM128,306h47v1h-47zM341,306h37v1h-37zM469,306h43v1h-43zM0,307h43v1h-43zM128,307h46v1h-46zM341,307h36v1h-36zM469,307h43v1h-43zM0,308h43v1h-43zM128,308h45v1h-45zM342,308h34v1h-34zM469,308h43v1h-43zM0,309h43v1h-43zM128,309h44v1h-44zM342,309h33v1h-33zM469,309h43v1h-43zM0,310h43v1h-43zM128,310h44v1h-44zM342,310h32v1h-32zM469,310h43v1h-43zM0,311h43v1h-43zM128,311h43v1h-43zM343,311h30v1h-30zM469,311h43v1h-43zM0,312h43v1h-43zM128,312h42v1h-42zM343,312h29v1h-29zM469,312h43v1h-43zM0,313h43v1h-43zM128,313h42v1h-42zM344,313h27v1h-27zM469,313h43v1h-43zM0,314h43v1h-43zM128,314h41v1h-41zM345,314h25v1h-25zM469,314h43v1h-43zM0,315h43v1h-43zM128,315h40v1h-40zM346,315h23v1h-23zM469,315h43v1h-43zM0,316h43v1h-43zM128,316h40v1h-40zM347,316h21v1h-21zM469,316h43v1h-43zM0,317h43v1h-43zM128,317h39v1h-39zM348,317h18v1h-18zM469,317h43v1h-43zM0,318h43v1h-43zM128,318h38v1h-38zM350,318h15v1h-15zM469,318h43v1h-43zM0,319h43v1h-43zM128,319h38v1h-38zM352,319h10v1h-10zM469,319h43v1h-43zM0,320h43v1h-43zM128,320h37v1h-37zM469,320h43v1h-43zM0,321h43v1h-43zM128,321h37v1h-37zM469,321h43v1h-43zM0,322h43v1h-43zM128,322h36v1h-36zM469,322h43v1h-43zM0,323h43v1h-43zM128,323h36v1h-36zM469,323h43v1h-43zM0,324h43v1h-43zM128,324h35v1h-35zM469,324h43v1h-43zM0,325h43v1h-43zM128,325h34v1h-34zM469,325h43v1h-43zM0,326h43v1h-43zM128,326h34v1h-34zM469,326h43v1h-43zM0,327h43v1h-43zM128,327h33v1h-33zM469,327h43v1h-43zM0,328h43v1h-43zM128,328h33v1h-33zM469,328h43v1h-43zM0,329h43v1h-43zM128,329h32v1h-32zM469,329h43v1h-43zM0,330h43v1h-43zM129,330h31v1h-31zM469,330h43v1h-43zM0,331h43v1h-43zM129,331h30v1h-30zM469,331h43v1h-43zM0,332h43v1h-43zM129,332h30v1h-30zM469,332h43v1h-43zM0,333h43v1h-43zM130,333h28v1h-28zM469,333h43v1h-43zM0,334h43v1h-43zM131,334h26v1h-26zM469,334h43v1h-43zM0,335h43v1h-43zM131,335h26v1h-26zM469,335h43v1h-43zM0,336h43v1h-43zM132,336h24v1h-24zM469,336h43v1h-43zM0,337h43v1h-43zM133,337h22v1h-22zM469,337h43v1h-43zM0,338h43v1h-43zM135,338h18v1h-18zM469,338h43v1h-43zM0,339h43v1h-43zM136,339h16v1h-16zM469,339h43v1h-43zM0,340h43v1h-43zM139,340h10v1h-10zM469,340h43v1h-43zM0,341h43v1h-43zM469,341h43v1h-43zM0,342h43v1h-43zM469,342h43v1h-43zM0,343h43v1h-43zM469,343h43v1h-43zM0,344h43v1h-43zM469,344h43v1h-43zM0,345h43v1h-43zM469,345h43v1h-43zM0,346h43v1h-43zM469,346h43v1h-43zM0,347h43v1h-43zM469,347h43v1h-43zM0,348h43v1h-43zM469,348h43v1h-43zM0,349h43v1h-43zM469,349h43v1h-43zM0,350h43v1h-43zM469,350h43v1h-43zM0,351h43v1h-43zM469,351h43v1h-43zM0,352h43v1h-43zM469,352h43v1h-43zM0,353h43v1h-43zM469,353h43v1h-43zM0,354h43v1h-43zM469,354h43v1h-43zM0,355h43v1h-43zM469,355h43v1h-43zM0,356h43v1h-43zM469,356h43v1h-43zM0,357h43v1h-43zM469,357h43v1h-43zM0,358h43v1h-43zM469,358h43v1h-43zM0,359h43v1h-43zM469,359h43v1h-43zM0,360h43v1h-43zM469,360h43v1h-43zM0,361h43v1h-43zM469,361h43v1h-43zM0,362h43v1h-43zM469,362h43v1h-43zM0,363h43v1h-43zM469,363h43v1h-43zM0,364h43v1h-43zM469,364h43v1h-43zM0,365h43v1h-43zM469,365h43v1h-43zM0,366h43v1h-43zM469,366h43v1h-43zM0,367h43v1h-43zM469,367h43v1h-43zM0,368h43v1h-43zM469,368h43v1h-43zM0,369h43v1h-43zM469,369h43v1h-43zM0,370h43v1h-43zM469,370h43v1h-43zM0,371h43v1h-43zM469,371h43v1h-43zM0,372h43v1h-43zM469,372h43v1h-43zM0,373h43v1h-43zM469,373h43v1h-43zM0,374h43v1h-43zM469,374h43v1h-43zM0,375h43v1h-43zM469,375h43v1h-43zM0,376h43v1h-43zM469,376h43v1h-43zM0,377h43v1h-43zM469,377h43v1h-43zM0,378h43v1h-43zM469,378h43v1h-43zM0,379h43v1h-43zM469,379h43v1h-43zM0,380h43v1h-43zM469,380h43v1h-43zM0,381h43v1h-43zM469,381h43v1h-43zM0,382h43v1h-43zM469,382h43v1h-43zM0,383h43v1h-43zM469,383h43v1h-43zM0,384h43v1h-43zM469,384h43v1h-43zM0,385h43v1h-43zM469,385h43v1h-43zM0,386h43v1h-43zM469,386h43v1h-43zM0,387h43v1h-43zM469,387h43v1h-43zM0,388h43v1h-43zM469,388h43v1h-43zM0,389h43v1h-43zM469,389h43v1h-43zM0,390h43v1h-43zM469,390h43v1h-43zM0,391h43v1h-43zM469,391h43v1h-43zM0,392h43v1h-43zM469,392h43v1h-43zM0,393h43v1h-43zM469,393h43v1h-43zM0,394h43v1h-43zM469,394h43v1h-43zM0,395h43v1h-43zM469,395h43v1h-43zM0,396h43v1h-43zM469,396h43v1h-43zM0,397h43v1h-43zM469,397h43v1h-43zM0,398h43v1h-43zM469,398h43v1h-43zM0,399h43v1h-43zM469,399h43v1h-43zM0,400h43v1h-43zM469,400h43v1h-43zM0,401h43v1h-43zM469,401h43v1h-43zM0,402h43v1h-43zM469,402h43v1h-43zM0,403h43v1h-43zM469,403h43v1h-43zM0,404h43v1h-43zM469,404h43v1h-43zM0,405h43v1h-43zM469,405h43v1h-43zM0,406h43v1h-43zM469,406h43v1h-43zM0,407h43v1h-43zM469,407h43v1h-43zM0,408h43v1h-43zM469,408h43v1h-43zM0,409h43v1h-43zM469,409h43v1h-43zM0,410h43v1h-43zM469,410h43v1h-43zM0,411h43v1h-43zM469,411h43v1h-43zM0,412h43v1h-43zM469,412h43v1h-43zM0,413h43v1h-43zM469,413h43v1h-43zM0,414h43v1h-43zM469,414h43v1h-43zM0,415h43v1h-43zM469,415h43v1h-43zM0,416h43v1h-43zM469,416h43v1h-43zM0,417h43v1h-43zM469,417h43v1h-43zM0,418h43v1h-43zM469,418h43v1h-43zM0,419h43v1h-43zM469,419h43v1h-43zM0,420h43v1h-43zM469,420h43v1h-43zM0,421h43v1h-43zM469,421h43v1h-43zM0,422h43v1h-43zM469,422h43v1h-43zM0,423h43v1h-43zM469,423h43v1h-43zM0,424h43v1h-43zM469,424h43v1h-43zM0,425h43v1h-43zM469,425h43v1h-43zM0,426h43v1h-43zM469,426h43v1h-43zM0,427h43v1h-43zM469,427h43v1h-43zM0,428h43v1h-43zM469,428h43v1h-43zM0,429h43v1h-43zM469,429h43v1h-43zM0,430h43v1h-43zM469,430h43v1h-43zM0,431h43v1h-43zM469,431h43v1h-43zM0,432h43v1h-43zM469,432h43v1h-43zM0,433h43v1h-43zM469,433h43v1h-43zM0,434h43v1h-43zM469,434h43v1h-43zM0,435h43v1h-43zM469,435h43v1h-43zM0,436h43v1h-43zM469,436h43v1h-43zM0,437h43v1h-43zM469,437h43v1h-43zM0,438h43v1h-43zM469,438h43v1h-43zM0,439h43v1h-43zM469,439h43v1h-43zM0,440h43v1h-43zM469,440h43v1h-43zM0,441h43v1h-43zM469,441h43v1h-43zM0,442h43v1h-43zM469,442h43v1h-43zM0,443h43v1h-43zM469,443h43v1h-43zM0,444h43v1h-43zM469,444h43v1h-43zM0,445h43v1h-43zM469,445h43v1h-43zM0,446h43v1h-43zM469,446h43v1h-43zM0,447h43v1h-43zM469,447h43v1h-43zM0,448h43v1h-43zM469,448h43v1h-43zM0,449h43v1h-43zM469,449h43v1h-43zM0,450h43v1h-43zM469,450h43v1h-43zM0,451h43v1h-43zM469,451h43v1h-43zM0,452h44v1h-44zM468,452h44v1h-44zM0,453h44v1h-44zM468,453h44v1h-44zM0,454h44v1h-44zM468,454h44v1h-44zM0,455h44v1h-44zM468,455h44v1h-44zM0,456h45v1h-45zM467,456h45v1h-45zM0,457h45v1h-45zM467,457h45v1h-45zM0,458h46v1h-46zM466,458h46v1h-46zM0,459h46v1h-46zM466,459h46v1h-46zM0,460h47v1h-47zM465,460h47v1h-47zM0,461h48v1h-48zM464,461h48v1h-48zM0,462h49v1h-49zM463,462h49v1h-49zM0,463h50v1h-50zM462,463h50v1h-50zM0,464h51v1h-51zM461,464h51v1h-51zM0,465h52v1h-52zM460,465h52v1h-52zM0,466h54v1h-54zM458,466h54v1h-54zM3,467h53v1h-53zM456,467h53v1h-53zM3,468h57v1h-57zM452,468h57v1h-57zM3,469h506v1h-506zM4,470h504v1h-504zM4,471h504v1h-504zM4,472h504v1h-504zM5,473h502v1h-502zM5,474h502v1h-502zM6,475h500v1h-500zM6,476h500v1h-500zM7,477h498v1h-498zM7,478h498v1h-498zM8,479h496v1h-496zM9,480h495v1h-495zM9,481h494v1h-494zM10,482h492v1h-492zM10,483h492v1h-492zM11,484h490v1h-490zM12,485h488v1h-488zM13,486h486v1h-486zM13,487h486v1h-486zM14,488h484v1h-484zM15,489h482v1h-482zM16,490h480v1h-480zM17,491h478v1h-478zM18,492h476v1h-476zM19,493h474v1h-474zM20,494h472v1h-472zM21,495h470v1h-470zM22,496h468v1h-468zM23,497h466v1h-466zM24,498h464v1h-464zM26,499h460v1h-460zM27,500h458v1h-458zM28,501h456v1h-456zM30,502h452v1h-452zM32,503h449v1h-449zM33,504h446v1h-446zM35,505h442v1h-442zM37,506h438v1h-438zM40,507h433v1h-433zM42,508h428v1h-428zM45,509h422v1h-422zM45,510h422v1h-422zM45,511h422v1h-422z"/></svg>