<?xml version="1.0" encoding="UTF-8"?>
<svg xmlns="http://www.w3.org/2000/svg" viewBox="0 0 512 512" width="512" height="512"><path fill="#000" d="M311,21h25v1h-25zM292,22h63v1h-63zM281,23h85v1h-85zM272,24h103v1h-103zM265,25h118v1h-118zM258,26h131v1h-131zM253,27h142v1h-142zM247,28h153v1h-153zM242,29h163v1h-163zM238,30h172v1h-172zM233,31h181v1h-181zM229,32h189v1h-189zM226,33h196v1h-196zM222,34h203v1h-203zM218,35h211v1h-211zM215,36h217v1h-217zM212,37h223v1h-223zM209,38h229v1h-229zM206,39h235v1h-235zM203,40h241v1h-241zM201,41h246v1h-246zM198,42h251v1h-251zM196,43h256v1h-256zM193,44h261v1h-261zM191,45h265v1h-265zM189,46h270v1h-270zM186,47h275v1h-275zM184,48h279v1h-279zM182,49h283v1h-283zM180,50h287v1h-287zM178,51h291v1h-291zM176,52h295v1h-295zM175,53h298v1h-298zM173,54h301v1h-301zM171,55h305v1h-305zM170,56h308v1h-308zM168,57h311v1h-311zM166,58h315v1h-315zM165,59h317v1h-317zM163,60h321v1h-321zM162,61h323v1h-323zM161,62h326v1h-326zM159,63h329v1h-329zM158,64h331v1h-331zM157,65h333v1h-333zM156,66h336v1h-336zM155,67h338v1h-338zM153,68h341v1h-341zM152,69h343v1h-343zM151,70h345v1h-345zM150,71h347v1h-347zM149,72h349v1h-349zM148,73h351v1h-351zM147,74h353v1h-353zM147,75h354v1h-354zM146,76h356v1h-356zM145,77h357v1h-357zM144,78h359v1h-359zM143,79h361v1h-361zM143,80h362v1h-362zM142,81h363v1h-363zM141,82h365v1h-365zM141,83h365v1h-365zM140,84h367v1h-367zM140,85h368v1h-368zM139,86h369v1h-369zM139,87h370v1h-370zM138,88h371v1h-371zM138,89h371v1h-371zM137,90h375v1h-375zM137,91h375v1h-375zM137,92h375v1h-375zM136,93h376v1h-376zM136,94h376v1h-376zM136,95h376v1h-376zM136,96h376v1h-376zM135,97h377v1h-377zM135,98h377v1h-377zM135,99h377v1h-377zM135,100h377v1h-377zM135,101h377v1h-377zM135,102h377v1h-377zM135,103h377v1h-377zM135,104h377v1h-377zM135,105h377v1h-377zM135,106h377v1h-377zM135,107h377v1h-377zM135,108h377v1h-377zM135,109h377v1h-377zM136,110h376v1h-376zM136,111h376v1h-376zM136,112h376v1h-376zM136,113h376v1h-376zM137,114h375v1h-375zM137,115h375v1h-375zM137,116h375v1h-375zM138,117h374v1h-374zM138,118h371v1h-371zM138,119h371v1h-371zM139,120h369v1h-369zM139,121h369v1h-369zM140,122h367v1h-367zM140,123h367v1h-367zM141,124h365v1h-365zM142,125h364v1h-364zM142,126h363v1h-363zM143,127h361v1h-361zM144,128h359v1h-359zM145,129h358v1h-358zM145,130h357v1h-357zM146,131h355v1h-355zM135,132h1v1h-1zM147,132h353v1h-353zM511,132h1v1h-1zM135,133h2v1h-2zM148,133h351v1h-351zM510,133h2v1h-2zM135,134h3v1h-3zM149,134h349v1h-349zM510,134h2v1h-2zM135,135h3v1h-3zM150,135h348v1h-348zM509,135h3v1h-3zM135,136h4v1h-4zM151,136h346v1h-346zM508,136h4v1h-4zM135,137h5v1h-5zM152,137h343v1h-343zM507,137h5v1h-5zM135,138h6v1h-6zM153,138h341v1h-341zM506,138h6v1h-6zM135,139h7v1h-7zM154,139h339v1h-339zM505,139h7v1h-7zM135,140h8v1h-8zM155,140h337v1h-337zM505,140h7v1h-7zM125,141h1v1h-1zM135,141h9v1h-9zM156,141h335v1h-335zM504,141h8v1h-8zM123,142h3v1h-3zM135,142h10v1h-10zM157,142h333v1h-333zM503,142h9v1h-9zM121,143h5v1h-5zM135,143h11v1h-11zM159,143h330v1h-330zM501,143h11v1h-11zM120,144h6v1h-6zM135,144h12v1h-12zM160,144h327v1h-327zM500,144h12v1h-12zM118,145h8v1h-8zM135,145h13v1h-13zM161,145h325v1h-325zM499,145h13v1h-13zM117,146h9v1h-9zM135,146h14v1h-14zM163,146h322v1h-322zM498,146h14v1h-14zM116,147h10v1h-10zM135,147h15v1h-15zM164,147h319v1h-319zM497,147h15v1h-15zM114,148h12v1h-12zM135,148h16v1h-16zM166,148h316v1h-316zM496,148h16v1h-16zM113,149h13v1h-13zM135,149h18v1h-18zM167,149h313v1h-313zM495,149h17v1h-17zM112,150h14v1h-14zM135,150h19v1h-19zM169,150h310v1h-310zM493,150h19v1h-19zM111,151h15v1h-15zM135,151h20v1h-20zM170,151h307v1h-307zM492,151h20v1h-20zM110,152h16v1h-16zM135,152h21v1h-21zM172,152h303v1h-303zM491,152h21v1h-21zM108,153h18v1h-18zM135,153h23v1h-23zM174,153h300v1h-300zM489,153h23v1h-23zM107,154h19v1h-19zM135,154h24v1h-24zM176,154h296v1h-296zM488,154h24v1h-24zM106,155h20v1h-20zM135,155h26v1h-26zM177,155h293v1h-293zM486,155h26v1h-26zM105,156h21v1h-21zM135,156h27v1h-27zM179,156h289v1h-289zM485,156h27v1h-27zM104,157h23v1h-23zM135,157h29v1h-29zM181,157h285v1h-285zM483,157h29v1h-29zM103,158h24v1h-24zM135,158h30v1h-30zM183,158h281v1h-281zM482,158h30v1h-30zM102,159h25v1h-25zM135,159h32v1h-32zM185,159h277v1h-277zM480,159h32v1h-32zM102,160h25v1h-25zM136,160h33v1h-33zM187,160h273v1h-273zM478,160h34v1h-34zM101,161h26v1h-26zM136,161h35v1h-35zM190,161h268v1h-268zM477,161h35v1h-35zM100,162h27v1h-27zM136,162h36v1h-36zM192,162h263v1h-263zM475,162h37v1h-37zM99,163h29v1h-29zM136,163h38v1h-38zM194,163h259v1h-259zM473,163h39v1h-39zM98,164h30v1h-30zM137,164h39v1h-39zM197,164h254v1h-254zM471,164h41v1h-41zM98,165h30v1h-30zM137,165h41v1h-41zM199,165h249v1h-249zM469,165h43v1h-43zM97,166h31v1h-31zM137,166h43v1h-43zM202,166h243v1h-243zM467,166h45v1h-45zM96,167h33v1h-33zM138,167h44v1h-44zM204,167h239v1h-239zM465,167h44v1h-44zM96,168h33v1h-33zM138,168h46v1h-46zM207,168h233v1h-233zM463,168h46v1h-46zM95,169h34v1h-34zM139,169h47v1h-47zM210,169h227v1h-227zM461,169h47v1h-47zM95,170h35v1h-35zM139,170h50v1h-50zM213,170h221v1h-221zM458,170h50v1h-50zM94,171h36v1h-36zM140,171h51v1h-51zM216,171h215v1h-215zM457,171h50v1h-50zM94,172h37v1h-37zM140,172h51v1h-51zM220,172h207v1h-207zM457,172h50v1h-50zM93,173h38v1h-38zM141,173h50v1h-50zM223,173h201v1h-201zM457,173h49v1h-49zM93,174h39v1h-39zM142,174h49v1h-49zM227,174h193v1h-193zM457,174h49v1h-49zM92,175h40v1h-40zM142,175h49v1h-49zM199,175h3v1h-3zM231,175h185v1h-185zM446,175h2v1h-2zM457,175h48v1h-48zM92,176h41v1h-41zM143,176h48v1h-48zM199,176h5v1h-5zM235,176h177v1h-177zM443,176h5v1h-5zM457,176h47v1h-47zM92,177h41v1h-41zM144,177h47v1h-47zM199,177h8v1h-8zM239,177h169v1h-169zM440,177h8v1h-8zM457,177h47v1h-47zM91,178h43v1h-43zM144,178h47v1h-47zM199,178h11v1h-11zM244,178h159v1h-159zM437,178h11v1h-11zM457,178h46v1h-46zM91,179h44v1h-44zM145,179h46v1h-46zM199,179h15v1h-15zM249,179h149v1h-149zM434,179h14v1h-14zM457,179h45v1h-45zM91,180h44v1h-44zM146,180h45v1h-45zM199,180h18v1h-18zM254,180h138v1h-138zM430,180h18v1h-18zM457,180h44v1h-44zM91,181h45v1h-45zM147,181h44v1h-44zM199,181h21v1h-21zM261,181h125v1h-125zM427,181h21v1h-21zM457,181h44v1h-44zM90,182h47v1h-47zM148,182h43v1h-43zM199,182h25v1h-25zM267,182h112v1h-112zM423,182h25v1h-25zM457,182h43v1h-43zM90,183h47v1h-47zM149,183h42v1h-42zM199,183h29v1h-29zM275,183h96v1h-96zM419,183h29v1h-29zM457,183h42v1h-42zM90,184h48v1h-48zM149,184h42v1h-42zM199,184h33v1h-33zM285,184h76v1h-76zM415,184h33v1h-33zM457,184h41v1h-41zM90,185h49v1h-49zM150,185h41v1h-41zM199,185h37v1h-37zM298,185h50v1h-50zM411,185h37v1h-37zM457,185h40v1h-40zM90,186h50v1h-50zM151,186h40v1h-40zM199,186h42v1h-42zM406,186h42v1h-42zM457,186h39v1h-39zM90,187h51v1h-51zM152,187h39v1h-39zM199,187h47v1h-47zM402,187h46v1h-46zM457,187h38v1h-38zM90,188h52v1h-52zM154,188h37v1h-37zM199,188h52v1h-52zM396,188h52v1h-52zM457,188h37v1h-37zM90,189h52v1h-52zM155,189h36v1h-36zM199,189h56v1h-56zM392,189h56v1h-56zM457,189h36v1h-36zM90,190h53v1h-53zM156,190h35v1h-35zM199,190h56v1h-56zM392,190h56v1h-56zM457,190h34v1h-34zM90,191h54v1h-54zM157,191h34v1h-34zM199,191h56v1h-56zM264,191h7v1h-7zM376,191h8v1h-8zM392,191h56v1h-56zM457,191h33v1h-33zM90,192h55v1h-55zM158,192h33v1h-33zM199,192h56v1h-56zM264,192h15v1h-15zM368,192h16v1h-16zM392,192h56v1h-56zM457,192h32v1h-32zM90,193h56v1h-56zM160,193h31v1h-31zM199,193h56v1h-56zM264,193h26v1h-26zM357,193h27v1h-27zM392,193h56v1h-56zM457,193h31v1h-31zM90,194h57v1h-57zM161,194h30v1h-30zM199,194h56v1h-56zM264,194h45v1h-45zM338,194h46v1h-46zM392,194h56v1h-56zM457,194h29v1h-29zM90,195h59v1h-59zM162,195h29v1h-29zM199,195h56v1h-56zM264,195h55v1h-55zM328,195h56v1h-56zM392,195h56v1h-56zM457,195h28v1h-28zM91,196h59v1h-59zM164,196h27v1h-27zM199,196h56v1h-56zM264,196h55v1h-55zM328,196h56v1h-56zM392,196h56v1h-56zM457,196h27v1h-27zM91,197h60v1h-60zM165,197h26v1h-26zM199,197h56v1h-56zM264,197h55v1h-55zM328,197h56v1h-56zM392,197h56v1h-56zM457,197h25v1h-25zM91,198h61v1h-61zM167,198h24v1h-24zM199,198h56v1h-56zM264,198h55v1h-55zM328,198h56v1h-56zM392,198h56v1h-56zM457,198h24v1h-24zM91,199h62v1h-62zM168,199h23v1h-23zM199,199h56v1h-56zM264,199h55v1h-55zM328,199h56v1h-56zM392,199h56v1h-56zM457,199h22v1h-22zM92,200h63v1h-63zM170,200h21v1h-21zM199,200h56v1h-56zM264,200h55v1h-55zM328,200h56v1h-56zM392,200h56v1h-56zM457,200h20v1h-20zM92,201h64v1h-64zM171,201h20v1h-20zM199,201h56v1h-56zM264,201h55v1h-55zM328,201h56v1h-56zM392,201h56v1h-56zM457,201h19v1h-19zM93,202h64v1h-64zM173,202h18v1h-18zM199,202h56v1h-56zM264,202h55v1h-55zM328,202h56v1h-56zM392,202h56v1h-56zM457,202h17v1h-17zM93,203h66v1h-66zM175,203h16v1h-16zM199,203h56v1h-56zM264,203h55v1h-55zM328,203h56v1h-56zM392,203h56v1h-56zM457,203h15v1h-15zM93,204h67v1h-67zM177,204h14v1h-14zM199,204h56v1h-56zM264,204h55v1h-55zM328,204h56v1h-56zM392,204h56v1h-56zM457,204h14v1h-14zM94,205h68v1h-68zM179,205h12v1h-12zM199,205h56v1h-56zM264,205h55v1h-55zM328,205h56v1h-56zM392,205h56v1h-56zM457,205h12v1h-12zM94,206h69v1h-69zM181,206h10v1h-10zM199,206h56v1h-56zM264,206h55v1h-55zM328,206h56v1h-56zM392,206h56v1h-56zM457,206h10v1h-10zM95,207h70v1h-70zM182,207h9v1h-9zM199,207h56v1h-56zM264,207h55v1h-55zM328,207h56v1h-56zM392,207h56v1h-56zM457,207h8v1h-8zM95,208h71v1h-71zM185,208h6v1h-6zM199,208h56v1h-56zM264,208h55v1h-55zM328,208h56v1h-56zM392,208h56v1h-56zM457,208h6v1h-6zM96,209h72v1h-72zM187,209h4v1h-4zM199,209h56v1h-56zM264,209h55v1h-55zM328,209h56v1h-56zM392,209h56v1h-56zM457,209h4v1h-4zM97,210h73v1h-73zM189,210h2v1h-2zM199,210h56v1h-56zM264,210h55v1h-55zM328,210h56v1h-56zM392,210h56v1h-56zM457,210h1v1h-1zM97,211h75v1h-75zM199,211h56v1h-56zM264,211h55v1h-55zM328,211h56v1h-56zM392,211h56v1h-56zM98,212h75v1h-75zM199,212h56v1h-56zM264,212h55v1h-55zM328,212h56v1h-56zM392,212h56v1h-56zM99,213h76v1h-76zM199,213h56v1h-56zM264,213h55v1h-55zM328,213h56v1h-56zM392,213h56v1h-56zM99,214h78v1h-78zM199,214h56v1h-56zM264,214h55v1h-55zM328,214h56v1h-56zM392,214h56v1h-56zM100,215h79v1h-79zM201,215h54v1h-54zM264,215h55v1h-55zM328,215h56v1h-56zM392,215h54v1h-54zM101,216h80v1h-80zM204,216h51v1h-51zM264,216h55v1h-55zM328,216h56v1h-56zM392,216h52v1h-52zM90,217h1v1h-1zM102,217h82v1h-82zM206,217h49v1h-49zM264,217h55v1h-55zM328,217h56v1h-56zM392,217h49v1h-49zM466,217h1v1h-1zM90,218h2v1h-2zM103,218h83v1h-83zM209,218h46v1h-46zM264,218h55v1h-55zM328,218h56v1h-56zM392,218h46v1h-46zM465,218h2v1h-2zM90,219h2v1h-2zM104,219h84v1h-84zM212,219h43v1h-43zM264,219h55v1h-55zM328,219h56v1h-56zM392,219h43v1h-43zM465,219h2v1h-2zM90,220h3v1h-3zM105,220h85v1h-85zM216,220h39v1h-39zM264,220h55v1h-55zM328,220h56v1h-56zM392,220h40v1h-40zM464,220h3v1h-3zM90,221h4v1h-4zM106,221h87v1h-87zM219,221h36v1h-36zM264,221h55v1h-55zM328,221h56v1h-56zM392,221h36v1h-36zM463,221h4v1h-4zM90,222h5v1h-5zM107,222h89v1h-89zM222,222h33v1h-33zM264,222h55v1h-55zM328,222h56v1h-56zM392,222h33v1h-33zM462,222h5v1h-5zM90,223h6v1h-6zM108,223h90v1h-90zM226,223h29v1h-29zM264,223h55v1h-55zM328,223h56v1h-56zM392,223h29v1h-29zM461,223h6v1h-6zM90,224h7v1h-7zM109,224h92v1h-92zM230,224h25v1h-25zM264,224h55v1h-55zM328,224h56v1h-56zM392,224h25v1h-25zM447,224h1v1h-1zM460,224h7v1h-7zM90,225h8v1h-8zM110,225h93v1h-93zM234,225h21v1h-21zM264,225h55v1h-55zM328,225h56v1h-56zM392,225h21v1h-21zM444,225h3v1h-3zM459,225h8v1h-8zM80,226h1v1h-1zM90,226h9v1h-9zM111,226h95v1h-95zM238,226h17v1h-17zM264,226h55v1h-55zM328,226h56v1h-56zM392,226h17v1h-17zM441,226h5v1h-5zM459,226h8v1h-8zM79,227h2v1h-2zM90,227h10v1h-10zM112,227h97v1h-97zM243,227h12v1h-12zM264,227h55v1h-55zM328,227h56v1h-56zM392,227h12v1h-12zM438,227h7v1h-7zM458,227h9v1h-9zM77,228h4v1h-4zM90,228h11v1h-11zM114,228h99v1h-99zM248,228h7v1h-7zM264,228h55v1h-55zM328,228h56v1h-56zM392,228h8v1h-8zM435,228h8v1h-8zM457,228h10v1h-10zM76,229h5v1h-5zM90,229h12v1h-12zM115,229h101v1h-101zM253,229h2v1h-2zM264,229h55v1h-55zM328,229h56v1h-56zM392,229h2v1h-2zM431,229h11v1h-11zM455,229h12v1h-12zM74,230h7v1h-7zM90,230h13v1h-13zM116,230h103v1h-103zM264,230h55v1h-55zM328,230h56v1h-56zM428,230h13v1h-13zM454,230h13v1h-13zM73,231h8v1h-8zM90,231h14v1h-14zM118,231h105v1h-105zM266,231h53v1h-53zM328,231h54v1h-54zM424,231h15v1h-15zM453,231h14v1h-14zM71,232h10v1h-10zM90,232h15v1h-15zM119,232h108v1h-108zM273,232h46v1h-46zM328,232h46v1h-46zM421,232h17v1h-17zM452,232h15v1h-15zM70,233h11v1h-11zM90,233h16v1h-16zM120,233h111v1h-111zM282,233h37v1h-37zM328,233h37v1h-37zM417,233h20v1h-20zM451,233h16v1h-16zM69,234h12v1h-12zM90,234h18v1h-18zM122,234h113v1h-113zM294,234h25v1h-25zM328,234h25v1h-25zM412,234h23v1h-23zM450,234h17v1h-17zM67,235h14v1h-14zM90,235h19v1h-19zM124,235h115v1h-115zM317,235h2v1h-2zM329,235h1v1h-1zM408,235h26v1h-26zM448,235h19v1h-19zM66,236h15v1h-15zM90,236h20v1h-20zM125,236h119v1h-119zM403,236h29v1h-29zM447,236h20v1h-20zM65,237h16v1h-16zM90,237h21v1h-21zM127,237h122v1h-122zM398,237h32v1h-32zM446,237h21v1h-21zM64,238h17v1h-17zM90,238h23v1h-23zM129,238h126v1h-126zM392,238h37v1h-37zM444,238h23v1h-23zM63,239h18v1h-18zM90,239h24v1h-24zM130,239h131v1h-131zM386,239h41v1h-41zM443,239h24v1h-24zM62,240h19v1h-19zM90,240h26v1h-26zM132,240h135v1h-135zM379,240h46v1h-46zM441,240h26v1h-26zM61,241h20v1h-20zM90,241h27v1h-27zM134,241h141v1h-141zM371,241h52v1h-52zM440,241h27v1h-27zM60,242h21v1h-21zM90,242h29v1h-29zM136,242h149v1h-149zM362,242h59v1h-59zM438,242h29v1h-29zM59,243h23v1h-23zM90,243h30v1h-30zM138,243h160v1h-160zM349,243h70v1h-70zM437,243h30v1h-30zM58,244h24v1h-24zM90,244h32v1h-32zM140,244h277v1h-277zM435,244h32v1h-32zM57,245h25v1h-25zM91,245h33v1h-33zM142,245h273v1h-273zM433,245h33v1h-33zM56,246h26v1h-26zM91,246h34v1h-34zM144,246h269v1h-269zM432,246h34v1h-34zM55,247h27v1h-27zM91,247h36v1h-36zM147,247h263v1h-263zM430,247h36v1h-36zM54,248h28v1h-28zM91,248h38v1h-38zM149,248h259v1h-259zM428,248h38v1h-38zM54,249h29v1h-29zM92,249h39v1h-39zM152,249h254v1h-254zM426,249h39v1h-39zM53,250h30v1h-30zM92,250h41v1h-41zM154,250h249v1h-249zM424,250h41v1h-41zM52,251h31v1h-31zM92,251h43v1h-43zM157,251h243v1h-243zM422,251h43v1h-43zM52,252h32v1h-32zM93,252h44v1h-44zM159,252h239v1h-239zM420,252h44v1h-44zM51,253h33v1h-33zM93,253h46v1h-46zM162,253h233v1h-233zM418,253h46v1h-46zM50,254h34v1h-34zM94,254h47v1h-47zM165,254h227v1h-227zM416,254h47v1h-47zM50,255h35v1h-35zM94,255h50v1h-50zM168,255h221v1h-221zM413,255h50v1h-50zM49,256h36v1h-36zM95,256h50v1h-50zM171,256h215v1h-215zM412,256h50v1h-50zM49,257h37v1h-37zM95,257h51v1h-51zM175,257h207v1h-207zM412,257h50v1h-50zM48,258h38v1h-38zM96,258h50v1h-50zM178,258h201v1h-201zM412,258h49v1h-49zM48,259h38v1h-38zM96,259h50v1h-50zM182,259h193v1h-193zM412,259h49v1h-49zM48,260h39v1h-39zM97,260h49v1h-49zM154,260h2v1h-2zM186,260h185v1h-185zM401,260h2v1h-2zM412,260h48v1h-48zM47,261h41v1h-41zM98,261h48v1h-48zM154,261h5v1h-5zM190,261h177v1h-177zM398,261h5v1h-5zM412,261h47v1h-47zM47,262h41v1h-41zM98,262h48v1h-48zM154,262h8v1h-8zM194,262h169v1h-169zM395,262h8v1h-8zM412,262h47v1h-47zM46,263h43v1h-43zM99,263h47v1h-47zM154,263h11v1h-11zM199,263h159v1h-159zM392,263h11v1h-11zM412,263h46v1h-46zM46,264h43v1h-43zM100,264h46v1h-46zM154,264h14v1h-14zM204,264h149v1h-149zM389,264h14v1h-14zM412,264h45v1h-45zM46,265h44v1h-44zM101,265h45v1h-45zM154,265h18v1h-18zM210,265h137v1h-137zM385,265h18v1h-18zM412,265h44v1h-44zM46,266h45v1h-45zM102,266h44v1h-44zM154,266h21v1h-21zM216,266h125v1h-125zM382,266h21v1h-21zM412,266h44v1h-44zM45,267h46v1h-46zM102,267h44v1h-44zM154,267h25v1h-25zM222,267h112v1h-112zM378,267h25v1h-25zM412,267h43v1h-43zM45,268h47v1h-47zM103,268h43v1h-43zM154,268h29v1h-29zM230,268h96v1h-96zM374,268h29v1h-29zM412,268h42v1h-42zM45,269h48v1h-48zM104,269h42v1h-42zM154,269h33v1h-33zM240,269h76v1h-76zM370,269h33v1h-33zM412,269h41v1h-41zM45,270h48v1h-48zM105,270h41v1h-41zM154,270h37v1h-37zM253,270h50v1h-50zM366,270h37v1h-37zM412,270h40v1h-40zM45,271h49v1h-49zM106,271h40v1h-40zM154,271h42v1h-42zM362,271h41v1h-41zM412,271h39v1h-39zM45,272h50v1h-50zM107,272h39v1h-39zM154,272h47v1h-47zM356,272h47v1h-47zM412,272h38v1h-38zM45,273h51v1h-51zM108,273h38v1h-38zM154,273h52v1h-52zM351,273h52v1h-52zM412,273h37v1h-37zM45,274h52v1h-52zM110,274h36v1h-36zM154,274h56v1h-56zM347,274h56v1h-56zM412,274h36v1h-36zM45,275h53v1h-53zM111,275h35v1h-35zM154,275h56v1h-56zM347,275h56v1h-56zM412,275h34v1h-34zM45,276h54v1h-54zM112,276h34v1h-34zM154,276h56v1h-56zM218,276h8v1h-8zM332,276h7v1h-7zM347,276h56v1h-56zM412,276h33v1h-33zM45,277h55v1h-55zM113,277h33v1h-33zM154,277h56v1h-56zM218,277h16v1h-16zM323,277h16v1h-16zM347,277h56v1h-56zM412,277h32v1h-32zM45,278h56v1h-56zM114,278h32v1h-32zM154,278h56v1h-56zM218,278h27v1h-27zM313,278h26v1h-26zM347,278h56v1h-56zM412,278h31v1h-31zM45,279h57v1h-57zM116,279h30v1h-30zM154,279h56v1h-56zM218,279h45v1h-45zM294,279h45v1h-45zM347,279h56v1h-56zM412,279h29v1h-29zM45,280h58v1h-58zM117,280h29v1h-29zM154,280h56v1h-56zM218,280h56v1h-56zM283,280h56v1h-56zM347,280h56v1h-56zM412,280h28v1h-28zM46,281h58v1h-58zM119,281h27v1h-27zM154,281h56v1h-56zM218,281h56v1h-56zM283,281h56v1h-56zM347,281h56v1h-56zM412,281h27v1h-27zM46,282h59v1h-59zM120,282h26v1h-26zM154,282h56v1h-56zM218,282h56v1h-56zM283,282h56v1h-56zM347,282h56v1h-56zM412,282h25v1h-25zM46,283h60v1h-60zM122,283h24v1h-24zM154,283h56v1h-56zM218,283h56v1h-56zM283,283h56v1h-56zM347,283h56v1h-56zM412,283h24v1h-24zM47,284h61v1h-61zM123,284h23v1h-23zM154,284h56v1h-56zM218,284h56v1h-56zM283,284h56v1h-56zM347,284h56v1h-56zM412,284h22v1h-22zM47,285h62v1h-62zM125,285h21v1h-21zM154,285h56v1h-56zM218,285h56v1h-56zM283,285h56v1h-56zM347,285h56v1h-56zM412,285h20v1h-20zM47,286h63v1h-63zM126,286h20v1h-20zM154,286h56v1h-56zM218,286h56v1h-56zM283,286h56v1h-56zM347,286h56v1h-56zM412,286h19v1h-19zM48,287h64v1h-64zM128,287h18v1h-18zM154,287h56v1h-56zM218,287h56v1h-56zM283,287h56v1h-56zM347,287h56v1h-56zM412,287h17v1h-17zM48,288h65v1h-65zM130,288h16v1h-16zM154,288h56v1h-56zM218,288h56v1h-56zM283,288h56v1h-56zM347,288h56v1h-56zM412,288h15v1h-15zM49,289h66v1h-66zM132,289h14v1h-14zM154,289h56v1h-56zM218,289h56v1h-56zM283,289h56v1h-56zM347,289h56v1h-56zM412,289h14v1h-14zM49,290h67v1h-67zM133,290h13v1h-13zM154,290h56v1h-56zM218,290h56v1h-56zM283,290h56v1h-56zM347,290h56v1h-56zM412,290h12v1h-12zM50,291h68v1h-68zM135,291h11v1h-11zM154,291h56v1h-56zM218,291h56v1h-56zM283,291h56v1h-56zM347,291h56v1h-56zM412,291h10v1h-10zM50,292h69v1h-69zM137,292h9v1h-9zM154,292h56v1h-56zM218,292h56v1h-56zM283,292h56v1h-56zM347,292h56v1h-56zM412,292h8v1h-8zM51,293h70v1h-70zM139,293h7v1h-7zM154,293h56v1h-56zM218,293h56v1h-56zM283,293h56v1h-56zM347,293h56v1h-56zM412,293h6v1h-6zM51,294h72v1h-72zM141,294h5v1h-5zM154,294h56v1h-56zM218,294h56v1h-56zM283,294h56v1h-56zM347,294h56v1h-56zM412,294h4v1h-4zM52,295h72v1h-72zM144,295h2v1h-2zM154,295h56v1h-56zM218,295h56v1h-56zM283,295h56v1h-56zM347,295h56v1h-56zM412,295h1v1h-1zM53,296h73v1h-73zM154,296h56v1h-56zM218,296h56v1h-56zM283,296h56v1h-56zM347,296h56v1h-56zM53,297h75v1h-75zM154,297h56v1h-56zM218,297h56v1h-56zM283,297h56v1h-56zM347,297h56v1h-56zM54,298h76v1h-76zM154,298h56v1h-56zM218,298h56v1h-56zM283,298h56v1h-56zM347,298h56v1h-56zM55,299h77v1h-77zM154,299h56v1h-56zM218,299h56v1h-56zM283,299h56v1h-56zM347,299h56v1h-56zM56,300h78v1h-78zM156,300h54v1h-54zM218,300h56v1h-56zM283,300h56v1h-56zM347,300h54v1h-54zM45,301h1v1h-1zM57,301h79v1h-79zM158,301h52v1h-52zM218,301h56v1h-56zM283,301h56v1h-56zM347,301h52v1h-52zM45,302h2v1h-2zM58,302h80v1h-80zM161,302h49v1h-49zM218,302h56v1h-56zM283,302h56v1h-56zM347,302h49v1h-49zM45,303h2v1h-2zM59,303h81v1h-81zM164,303h46v1h-46zM218,303h56v1h-56zM283,303h56v1h-56zM347,303h46v1h-46zM45,304h3v1h-3zM60,304h83v1h-83zM167,304h43v1h-43zM218,304h56v1h-56zM283,304h56v1h-56zM347,304h43v1h-43zM45,305h4v1h-4zM61,305h84v1h-84zM170,305h40v1h-40zM218,305h56v1h-56zM283,305h56v1h-56zM347,305h40v1h-40zM45,306h5v1h-5zM62,306h85v1h-85zM174,306h36v1h-36zM218,306h56v1h-56zM283,306h56v1h-56zM347,306h36v1h-36zM45,307h6v1h-6zM63,307h87v1h-87zM177,307h33v1h-33zM218,307h56v1h-56zM283,307h56v1h-56zM347,307h33v1h-33zM408,307h1v1h-1zM45,308h7v1h-7zM64,308h89v1h-89zM181,308h29v1h-29zM218,308h56v1h-56zM283,308h56v1h-56zM347,308h29v1h-29zM405,308h3v1h-3zM421,308h1v1h-1zM45,309h8v1h-8zM65,309h90v1h-90zM185,309h25v1h-25zM218,309h56v1h-56zM283,309h56v1h-56zM347,309h26v1h-26zM402,309h5v1h-5zM420,309h2v1h-2zM45,310h9v1h-9zM66,310h92v1h-92zM189,310h21v1h-21zM218,310h56v1h-56zM283,310h56v1h-56zM347,310h22v1h-22zM399,310h7v1h-7zM419,310h3v1h-3zM35,311h1v1h-1zM45,311h10v1h-10zM67,311h94v1h-94zM193,311h17v1h-17zM218,311h56v1h-56zM283,311h56v1h-56zM347,311h17v1h-17zM397,311h8v1h-8zM418,311h4v1h-4zM33,312h3v1h-3zM45,312h11v1h-11zM69,312h95v1h-95zM198,312h12v1h-12zM218,312h56v1h-56zM283,312h56v1h-56zM347,312h13v1h-13zM394,312h9v1h-9zM417,312h5v1h-5zM32,313h4v1h-4zM45,313h12v1h-12zM70,313h97v1h-97zM202,313h8v1h-8zM218,313h56v1h-56zM283,313h56v1h-56zM347,313h8v1h-8zM391,313h11v1h-11zM415,313h7v1h-7zM30,314h6v1h-6zM45,314h13v1h-13zM71,314h99v1h-99zM208,314h2v1h-2zM218,314h56v1h-56zM283,314h56v1h-56zM347,314h2v1h-2zM387,314h14v1h-14zM414,314h8v1h-8zM29,315h7v1h-7zM45,315h14v1h-14zM73,315h101v1h-101zM218,315h56v1h-56zM283,315h56v1h-56zM384,315h15v1h-15zM413,315h9v1h-9zM27,316h9v1h-9zM45,316h15v1h-15zM74,316h103v1h-103zM220,316h54v1h-54zM283,316h54v1h-54zM380,316h18v1h-18zM412,316h10v1h-10zM26,317h10v1h-10zM45,317h16v1h-16zM76,317h105v1h-105zM228,317h46v1h-46zM283,317h46v1h-46zM377,317h19v1h-19zM411,317h11v1h-11zM24,318h12v1h-12zM45,318h18v1h-18zM77,318h108v1h-108zM237,318h37v1h-37zM283,318h37v1h-37zM373,318h22v1h-22zM409,318h13v1h-13zM23,319h13v1h-13zM45,319h19v1h-19zM79,319h110v1h-110zM248,319h26v1h-26zM283,319h26v1h-26zM369,319h24v1h-24zM408,319h14v1h-14zM22,320h14v1h-14zM45,320h20v1h-20zM81,320h112v1h-112zM270,320h4v1h-4zM283,320h4v1h-4zM364,320h28v1h-28zM407,320h15v1h-15zM21,321h15v1h-15zM45,321h22v1h-22zM82,321h116v1h-116zM359,321h31v1h-31zM406,321h16v1h-16zM20,322h16v1h-16zM45,322h23v1h-23zM84,322h119v1h-119zM355,322h33v1h-33zM404,322h18v1h-18zM18,323h18v1h-18zM45,323h25v1h-25zM86,323h122v1h-122zM349,323h38v1h-38zM403,323h19v1h-19zM17,324h19v1h-19zM45,324h26v1h-26zM88,324h126v1h-126zM343,324h42v1h-42zM401,324h21v1h-21zM16,325h20v1h-20zM45,325h27v1h-27zM89,325h132v1h-132zM336,325h47v1h-47zM400,325h22v1h-22zM15,326h21v1h-21zM45,326h29v1h-29zM91,326h138v1h-138zM328,326h53v1h-53zM398,326h24v1h-24zM14,327h22v1h-22zM45,327h31v1h-31zM93,327h145v1h-145zM319,327h60v1h-60zM396,327h26v1h-26zM13,328h24v1h-24zM45,328h32v1h-32zM95,328h155v1h-155zM306,328h71v1h-71zM395,328h27v1h-27zM12,329h25v1h-25zM45,329h34v1h-34zM98,329h277v1h-277zM393,329h29v1h-29zM12,330h25v1h-25zM46,330h35v1h-35zM100,330h273v1h-273zM391,330h31v1h-31zM11,331h26v1h-26zM46,331h37v1h-37zM102,331h268v1h-268zM390,331h31v1h-31zM10,332h27v1h-27zM46,332h39v1h-39zM104,332h264v1h-264zM388,332h33v1h-33zM9,333h28v1h-28zM46,333h40v1h-40zM107,333h259v1h-259zM386,333h35v1h-35zM8,334h30v1h-30zM47,334h41v1h-41zM109,334h254v1h-254zM384,334h37v1h-37zM8,335h30v1h-30zM47,335h43v1h-43zM112,335h249v1h-249zM382,335h38v1h-38zM7,336h31v1h-31zM47,336h45v1h-45zM114,336h244v1h-244zM380,336h40v1h-40zM6,337h33v1h-33zM48,337h47v1h-47zM117,337h238v1h-238zM378,337h42v1h-42zM6,338h33v1h-33zM48,338h49v1h-49zM120,338h233v1h-233zM376,338h43v1h-43zM5,339h34v1h-34zM49,339h50v1h-50zM123,339h227v1h-227zM373,339h46v1h-46zM5,340h35v1h-35zM49,340h52v1h-52zM126,340h221v1h-221zM371,340h47v1h-47zM4,341h36v1h-36zM50,341h51v1h-51zM129,341h214v1h-214zM369,341h49v1h-49zM4,342h36v1h-36zM50,342h51v1h-51zM133,342h207v1h-207zM367,342h50v1h-50zM3,343h38v1h-38zM51,343h50v1h-50zM136,343h201v1h-201zM367,343h50v1h-50zM3,344h38v1h-38zM51,344h50v1h-50zM109,344h2v1h-2zM140,344h193v1h-193zM367,344h49v1h-49zM0,345h42v1h-42zM52,345h49v1h-49zM109,345h5v1h-5zM144,345h185v1h-185zM367,345h48v1h-48zM0,346h42v1h-42zM53,346h48v1h-48zM109,346h8v1h-8zM147,346h178v1h-178zM356,346h2v1h-2zM367,346h48v1h-48zM0,347h43v1h-43zM53,347h48v1h-48zM109,347h11v1h-11zM152,347h169v1h-169zM353,347h5v1h-5zM367,347h47v1h-47zM0,348h44v1h-44zM54,348h47v1h-47zM109,348h14v1h-14zM156,348h160v1h-160zM349,348h9v1h-9zM367,348h46v1h-46zM0,349h44v1h-44zM55,349h46v1h-46zM109,349h17v1h-17zM161,349h150v1h-150zM346,349h12v1h-12zM367,349h45v1h-45zM0,350h45v1h-45zM56,350h45v1h-45zM109,350h21v1h-21zM166,350h140v1h-140zM343,350h15v1h-15zM367,350h45v1h-45zM0,351h46v1h-46zM56,351h45v1h-45zM109,351h24v1h-24zM172,351h128v1h-128zM340,351h18v1h-18zM367,351h44v1h-44zM0,352h46v1h-46zM57,352h44v1h-44zM109,352h28v1h-28zM178,352h115v1h-115zM336,352h22v1h-22zM367,352h43v1h-43zM0,353h47v1h-47zM58,353h43v1h-43zM109,353h32v1h-32zM186,353h99v1h-99zM332,353h26v1h-26zM367,353h42v1h-42zM0,354h48v1h-48zM59,354h42v1h-42zM109,354h35v1h-35zM194,354h82v1h-82zM328,354h30v1h-30zM367,354h41v1h-41zM0,355h49v1h-49zM60,355h41v1h-41zM109,355h40v1h-40zM205,355h60v1h-60zM324,355h34v1h-34zM367,355h40v1h-40zM0,356h49v1h-49zM61,356h40v1h-40zM109,356h44v1h-44zM225,356h16v1h-16zM319,356h39v1h-39zM367,356h39v1h-39zM0,357h50v1h-50zM62,357h39v1h-39zM109,357h49v1h-49zM314,357h44v1h-44zM367,357h38v1h-38zM0,358h51v1h-51zM63,358h38v1h-38zM109,358h54v1h-54zM309,358h49v1h-49zM367,358h37v1h-37zM0,359h52v1h-52zM64,359h37v1h-37zM109,359h56v1h-56zM304,359h54v1h-54zM367,359h36v1h-36zM0,360h53v1h-53zM66,360h35v1h-35zM109,360h56v1h-56zM302,360h56v1h-56zM367,360h35v1h-35zM0,361h54v1h-54zM67,361h34v1h-34zM109,361h56v1h-56zM174,361h8v1h-8zM290,361h4v1h-4zM302,361h56v1h-56zM367,361h34v1h-34zM0,362h55v1h-55zM68,362h33v1h-33zM109,362h56v1h-56zM174,362h15v1h-15zM282,362h12v1h-12zM302,362h56v1h-56zM367,362h32v1h-32zM0,363h56v1h-56zM69,363h32v1h-32zM109,363h56v1h-56zM174,363h25v1h-25zM271,363h23v1h-23zM302,363h56v1h-56zM367,363h31v1h-31zM0,364h57v1h-57zM71,364h30v1h-30zM109,364h56v1h-56zM174,364h39v1h-39zM256,364h38v1h-38zM302,364h56v1h-56zM367,364h30v1h-30zM0,365h58v1h-58zM72,365h29v1h-29zM109,365h56v1h-56zM174,365h55v1h-55zM238,365h56v1h-56zM302,365h56v1h-56zM367,365h28v1h-28zM0,366h59v1h-59zM73,366h28v1h-28zM109,366h56v1h-56zM174,366h55v1h-55zM238,366h56v1h-56zM302,366h56v1h-56zM367,366h27v1h-27zM0,367h60v1h-60zM75,367h26v1h-26zM109,367h56v1h-56zM174,367h55v1h-55zM238,367h56v1h-56zM302,367h56v1h-56zM367,367h26v1h-26zM0,368h61v1h-61zM76,368h25v1h-25zM109,368h56v1h-56zM174,368h55v1h-55zM238,368h56v1h-56zM302,368h56v1h-56zM367,368h24v1h-24zM0,369h63v1h-63zM78,369h23v1h-23zM109,369h56v1h-56zM174,369h55v1h-55zM238,369h56v1h-56zM302,369h56v1h-56zM367,369h23v1h-23zM0,370h64v1h-64zM80,370h21v1h-21zM109,370h56v1h-56zM174,370h55v1h-55zM238,370h56v1h-56zM302,370h56v1h-56zM367,370h21v1h-21zM0,371h65v1h-65zM81,371h20v1h-20zM109,371h56v1h-56zM174,371h55v1h-55zM238,371h56v1h-56zM302,371h56v1h-56zM367,371h19v1h-19zM0,372h67v1h-67zM83,372h18v1h-18zM109,372h56v1h-56zM174,372h55v1h-55zM238,372h56v1h-56zM302,372h56v1h-56zM367,372h18v1h-18zM3,373h65v1h-65zM85,373h16v1h-16zM109,373h56v1h-56zM174,373h55v1h-55zM238,373h56v1h-56zM302,373h56v1h-56zM367,373h16v1h-16zM3,374h66v1h-66zM86,374h15v1h-15zM109,374h56v1h-56zM174,374h55v1h-55zM238,374h56v1h-56zM302,374h56v1h-56zM367,374h14v1h-14zM4,375h67v1h-67zM88,375h13v1h-13zM109,375h56v1h-56zM174,375h55v1h-55zM238,375h56v1h-56zM302,375h56v1h-56zM367,375h12v1h-12zM4,376h68v1h-68zM90,376h11v1h-11zM109,376h56v1h-56zM174,376h55v1h-55zM238,376h56v1h-56zM302,376h56v1h-56zM367,376h10v1h-10zM5,377h69v1h-69zM92,377h9v1h-9zM109,377h56v1h-56zM174,377h55v1h-55zM238,377h56v1h-56zM302,377h56v1h-56zM367,377h8v1h-8zM5,378h71v1h-71zM94,378h7v1h-7zM109,378h56v1h-56zM174,378h55v1h-55zM238,378h56v1h-56zM302,378h56v1h-56zM367,378h6v1h-6zM6,379h71v1h-71zM96,379h5v1h-5zM109,379h56v1h-56zM174,379h55v1h-55zM238,379h56v1h-56zM302,379h56v1h-56zM367,379h3v1h-3zM6,380h73v1h-73zM98,380h3v1h-3zM109,380h56v1h-56zM174,380h55v1h-55zM238,380h56v1h-56zM302,380h56v1h-56zM367,380h1v1h-1zM7,381h74v1h-74zM109,381h56v1h-56zM174,381h55v1h-55zM238,381h56v1h-56zM302,381h56v1h-56zM8,382h75v1h-75zM109,382h56v1h-56zM174,382h55v1h-55zM238,382h56v1h-56zM302,382h56v1h-56zM8,383h77v1h-77zM109,383h56v1h-56zM174,383h55v1h-55zM238,383h56v1h-56zM302,383h56v1h-56zM9,384h78v1h-78zM109,384h56v1h-56zM174,384h55v1h-55zM238,384h56v1h-56zM302,384h56v1h-56zM10,385h79v1h-79zM111,385h54v1h-54zM174,385h55v1h-55zM238,385h56v1h-56zM302,385h54v1h-54zM11,386h80v1h-80zM113,386h52v1h-52zM174,386h55v1h-55zM238,386h56v1h-56zM302,386h51v1h-51zM0,387h1v1h-1zM12,387h81v1h-81zM116,387h49v1h-49zM174,387h55v1h-55zM238,387h56v1h-56zM302,387h49v1h-49zM376,387h1v1h-1zM0,388h2v1h-2zM12,388h83v1h-83zM119,388h46v1h-46zM174,388h55v1h-55zM238,388h56v1h-56zM302,388h46v1h-46zM375,388h2v1h-2zM0,389h2v1h-2zM13,389h84v1h-84zM122,389h43v1h-43zM174,389h55v1h-55zM238,389h56v1h-56zM302,389h43v1h-43zM374,389h3v1h-3zM0,390h3v1h-3zM14,390h85v1h-85zM125,390h40v1h-40zM174,390h55v1h-55zM238,390h56v1h-56zM302,390h40v1h-40zM374,390h3v1h-3zM0,391h4v1h-4zM15,391h87v1h-87zM128,391h37v1h-37zM174,391h55v1h-55zM238,391h56v1h-56zM302,391h36v1h-36zM373,391h4v1h-4zM0,392h5v1h-5zM16,392h89v1h-89zM132,392h33v1h-33zM174,392h55v1h-55zM238,392h56v1h-56zM302,392h33v1h-33zM372,392h5v1h-5zM0,393h6v1h-6zM17,393h90v1h-90zM135,393h30v1h-30zM174,393h55v1h-55zM238,393h56v1h-56zM302,393h29v1h-29zM371,393h6v1h-6zM0,394h6v1h-6zM18,394h92v1h-92zM139,394h26v1h-26zM174,394h55v1h-55zM238,394h56v1h-56zM302,394h25v1h-25zM370,394h7v1h-7zM0,395h7v1h-7zM20,395h93v1h-93zM143,395h22v1h-22zM174,395h55v1h-55zM238,395h56v1h-56zM302,395h21v1h-21zM355,395h2v1h-2zM369,395h8v1h-8zM0,396h8v1h-8zM21,396h94v1h-94zM148,396h17v1h-17zM174,396h55v1h-55zM238,396h56v1h-56zM302,396h17v1h-17zM352,396h4v1h-4zM368,396h9v1h-9zM0,397h9v1h-9zM22,397h96v1h-96zM152,397h13v1h-13zM174,397h55v1h-55zM238,397h56v1h-56zM302,397h13v1h-13zM349,397h6v1h-6zM367,397h10v1h-10zM0,398h10v1h-10zM23,398h99v1h-99zM157,398h8v1h-8zM174,398h55v1h-55zM238,398h56v1h-56zM302,398h8v1h-8zM346,398h7v1h-7zM366,398h11v1h-11zM0,399h11v1h-11zM25,399h100v1h-100zM162,399h3v1h-3zM174,399h55v1h-55zM238,399h56v1h-56zM302,399h2v1h-2zM343,399h9v1h-9zM365,399h12v1h-12zM0,400h12v1h-12zM26,400h102v1h-102zM174,400h55v1h-55zM238,400h56v1h-56zM339,400h12v1h-12zM364,400h13v1h-13zM0,401h14v1h-14zM27,401h105v1h-105zM175,401h54v1h-54zM238,401h54v1h-54zM336,401h13v1h-13zM363,401h14v1h-14zM0,402h15v1h-15zM29,402h106v1h-106zM182,402h47v1h-47zM238,402h46v1h-46zM332,402h16v1h-16zM362,402h15v1h-15zM0,403h16v1h-16zM30,403h109v1h-109zM192,403h37v1h-37zM238,403h38v1h-38zM328,403h18v1h-18zM361,403h16v1h-16zM0,404h17v1h-17zM32,404h111v1h-111zM202,404h27v1h-27zM238,404h26v1h-26zM324,404h21v1h-21zM360,404h17v1h-17zM0,405h18v1h-18zM33,405h115v1h-115zM224,405h5v1h-5zM238,405h5v1h-5zM319,405h24v1h-24zM358,405h19v1h-19zM0,406h20v1h-20zM35,406h117v1h-117zM315,406h27v1h-27zM357,406h20v1h-20zM0,407h21v1h-21zM36,407h121v1h-121zM310,407h30v1h-30zM356,407h21v1h-21zM0,408h22v1h-22zM38,408h125v1h-125zM304,408h35v1h-35zM354,408h23v1h-23zM0,409h24v1h-24zM40,409h129v1h-129zM298,409h39v1h-39zM353,409h24v1h-24zM0,410h25v1h-25zM42,410h134v1h-134zM291,410h44v1h-44zM351,410h26v1h-26zM0,411h27v1h-27zM44,411h139v1h-139zM284,411h49v1h-49zM350,411h27v1h-27zM0,412h28v1h-28zM46,412h146v1h-146zM274,412h57v1h-57zM348,412h29v1h-29zM0,413h30v1h-30zM48,413h157v1h-157zM261,413h68v1h-68zM347,413h30v1h-30zM0,414h32v1h-32zM50,414h277v1h-277zM345,414h32v1h-32zM0,415h33v1h-33zM52,415h273v1h-273zM343,415h33v1h-33zM0,416h35v1h-35zM54,416h269v1h-269zM342,416h34v1h-34zM0,417h37v1h-37zM56,417h264v1h-264zM340,417h36v1h-36zM0,418h39v1h-39zM59,418h259v1h-259zM338,418h38v1h-38zM0,419h41v1h-41zM61,419h255v1h-255zM336,419h39v1h-39zM0,420h42v1h-42zM64,420h249v1h-249zM334,420h41v1h-41zM0,421h45v1h-45zM66,421h244v1h-244zM332,421h43v1h-43zM3,422h44v1h-44zM69,422h239v1h-239zM330,422h44v1h-44zM3,423h46v1h-46zM72,423h233v1h-233zM328,423h46v1h-46zM3,424h48v1h-48zM75,424h227v1h-227zM326,424h47v1h-47zM4,425h49v1h-49zM78,425h221v1h-221zM323,425h50v1h-50zM4,426h51v1h-51zM81,426h215v1h-215zM322,426h50v1h-50zM5,427h50v1h-50zM84,427h208v1h-208zM321,427h51v1h-51zM6,428h49v1h-49zM88,428h201v1h-201zM321,428h50v1h-50zM6,429h49v1h-49zM91,429h194v1h-194zM321,429h50v1h-50zM7,430h48v1h-48zM64,430h2v1h-2zM95,430h186v1h-186zM311,430h2v1h-2zM321,430h49v1h-49zM7,431h48v1h-48zM64,431h5v1h-5zM99,431h178v1h-178zM308,431h5v1h-5zM321,431h48v1h-48zM8,432h48v1h-48zM64,432h8v1h-8zM104,432h169v1h-169zM305,432h8v1h-8zM321,432h48v1h-48zM9,433h47v1h-47zM64,433h11v1h-11zM108,433h160v1h-160zM302,433h11v1h-11zM321,433h47v1h-47zM10,434h46v1h-46zM64,434h14v1h-14zM113,434h150v1h-150zM299,434h14v1h-14zM321,434h46v1h-46zM10,435h46v1h-46zM64,435h17v1h-17zM119,435h138v1h-138zM295,435h18v1h-18zM321,435h45v1h-45zM11,436h45v1h-45zM64,436h21v1h-21zM125,436h126v1h-126zM292,436h21v1h-21zM321,436h44v1h-44zM12,437h44v1h-44zM64,437h24v1h-24zM131,437h114v1h-114zM288,437h25v1h-25zM321,437h44v1h-44zM13,438h43v1h-43zM64,438h28v1h-28zM139,438h98v1h-98zM285,438h28v1h-28zM321,438h43v1h-43zM14,439h42v1h-42zM64,439h32v1h-32zM149,439h78v1h-78zM280,439h33v1h-33zM321,439h42v1h-42zM15,440h41v1h-41zM64,440h36v1h-36zM161,440h54v1h-54zM276,440h37v1h-37zM321,440h41v1h-41zM16,441h40v1h-40zM64,441h41v1h-41zM272,441h41v1h-41zM321,441h40v1h-40zM17,442h39v1h-39zM64,442h46v1h-46zM267,442h46v1h-46zM321,442h39v1h-39zM18,443h38v1h-38zM64,443h51v1h-51zM261,443h52v1h-52zM321,443h38v1h-38zM19,444h37v1h-37zM64,444h56v1h-56zM257,444h56v1h-56zM321,444h36v1h-36zM20,445h36v1h-36zM64,445h56v1h-56zM257,445h56v1h-56zM321,445h35v1h-35zM22,446h34v1h-34zM64,446h56v1h-56zM128,446h7v1h-7zM242,446h7v1h-7zM257,446h56v1h-56zM321,446h34v1h-34zM23,447h33v1h-33zM64,447h56v1h-56zM128,447h15v1h-15zM234,447h15v1h-15zM257,447h56v1h-56zM321,447h33v1h-33zM24,448h32v1h-32zM64,448h56v1h-56zM128,448h26v1h-26zM223,448h26v1h-26zM257,448h56v1h-56zM321,448h32v1h-32zM25,449h31v1h-31zM64,449h56v1h-56zM128,449h42v1h-42zM206,449h43v1h-43zM257,449h56v1h-56zM321,449h30v1h-30zM27,450h29v1h-29zM64,450h56v1h-56zM128,450h56v1h-56zM193,450h56v1h-56zM257,450h56v1h-56zM321,450h29v1h-29zM28,451h28v1h-28zM64,451h56v1h-56zM128,451h56v1h-56zM193,451h56v1h-56zM257,451h56v1h-56zM321,451h27v1h-27zM30,452h26v1h-26zM64,452h56v1h-56zM128,452h56v1h-56zM193,452h56v1h-56zM257,452h56v1h-56zM321,452h26v1h-26zM31,453h25v1h-25zM64,453h56v1h-56zM128,453h56v1h-56zM193,453h56v1h-56zM257,453h56v1h-56zM321,453h25v1h-25zM33,454h23v1h-23zM64,454h56v1h-56zM128,454h56v1h-56zM193,454h56v1h-56zM257,454h56v1h-56zM321,454h23v1h-23zM34,455h22v1h-22zM64,455h56v1h-56zM128,455h56v1h-56zM193,455h56v1h-56zM257,455h56v1h-56zM321,455h21v1h-21zM36,456h20v1h-20zM64,456h56v1h-56zM128,456h56v1h-56zM193,456h56v1h-56zM257,456h56v1h-56zM321,456h20v1h-20zM38,457h18v1h-18zM64,457h56v1h-56zM128,457h56v1h-56zM193,457h56v1h-56zM257,457h56v1h-56zM321,457h18v1h-18zM39,458h17v1h-17zM64,458h56v1h-56zM128,458h56v1h-56zM193,458h56v1h-56zM257,458h56v1h-56zM321,458h16v1h-16zM41,459h15v1h-15zM64,459h56v1h-56zM128,459h56v1h-56zM193,459h56v1h-56zM257,459h56v1h-56zM321,459h14v1h-14zM43,460h13v1h-13zM64,460h56v1h-56zM128,460h56v1h-56zM193,460h56v1h-56zM257,460h56v1h-56zM321,460h13v1h-13zM45,461h11v1h-11zM64,461h56v1h-56zM128,461h56v1h-56zM193,461h56v1h-56zM257,461h56v1h-56zM321,461h11v1h-11zM47,462h9v1h-9zM64,462h56v1h-56zM128,462h56v1h-56zM193,462h56v1h-56zM257,462h56v1h-56zM321,462h9v1h-9zM49,463h7v1h-7zM64,463h56v1h-56zM128,463h56v1h-56zM193,463h56v1h-56zM257,463h56v1h-56zM321,463h7v1h-7zM51,464h5v1h-5zM64,464h56v1h-56zM128,464h56v1h-56zM193,464h56v1h-56zM257,464h56v1h-56zM321,464h5v1h-5zM53,465h3v1h-3zM64,465h56v1h-56zM128,465h56v1h-56zM193,465h56v1h-56zM257,465h56v1h-56zM321,465h2v1h-2zM64,466h56v1h-56zM128,466h56v1h-56zM193,466h56v1h-56zM257,466h56v1h-56zM64,467h56v1h-56zM128,467h56v1h-56zM193,467h56v1h-56zM257,467h56v1h-56zM64,468h56v1h-56zM128,468h56v1h-56zM193,468h56v1h-56zM257,468h56v1h-56zM64,469h56v1h-56zM128,469h56v1h-56zM193,469h56v1h-56zM257,469h56v1h-56zM65,470h55v1h-55zM128,470h56v1h-56zM193,470h56v1h-56zM257,470h54v1h-54zM68,471h52v1h-52zM128,471h56v1h-56zM193,471h56v1h-56zM257,471h52v1h-52zM71,472h49v1h-49zM128,472h56v1h-56zM193,472h56v1h-56zM257,472h49v1h-49zM74,473h46v1h-46zM128,473h56v1h-56zM193,473h56v1h-56zM257,473h46v1h-46zM77,474h43v1h-43zM128,474h56v1h-56zM193,474h56v1h-56zM257,474h43v1h-43zM80,475h40v1h-40zM128,475h56v1h-56zM193,475h56v1h-56zM257,475h40v1h-40zM83,476h37v1h-37zM128,476h56v1h-56zM193,476h56v1h-56zM257,476h36v1h-36zM87,477h33v1h-33zM128,477h56v1h-56zM193,477h56v1h-56zM257,477h33v1h-33zM90,478h30v1h-30zM128,478h56v1h-56zM193,478h56v1h-56zM257,478h29v1h-29zM94,479h26v1h-26zM128,479h56v1h-56zM193,479h56v1h-56zM257,479h26v1h-26zM98,480h22v1h-22zM128,480h56v1h-56zM193,480h56v1h-56zM257,480h22v1h-22zM102,481h18v1h-18zM128,481h56v1h-56zM193,481h56v1h-56zM257,481h17v1h-17zM107,482h13v1h-13zM128,482h56v1h-56zM193,482h56v1h-56zM257,482h13v1h-13zM112,483h8v1h-8zM128,483h56v1h-56zM193,483h56v1h-56zM257,483h8v1h-8zM117,484h3v1h-3zM128,484h56v1h-56zM193,484h56v1h-56zM257,484h3v1h-3zM128,485h56v1h-56zM193,485h56v1h-56zM129,486h55v1h-55zM193,486h55v1h-55zM137,487h47v1h-47zM193,487h47v1h-47zM146,488h38v1h-38zM193,488h38v1h-38zM156,489h28v1h-28zM193,489h27v1h-27zM177,490h7v1h-7zM193,490h7v1h-7z"/></svg>