<?xml version="1.0" encoding="UTF-8"?>
<svg xmlns="http://www.w3.org/2000/svg" viewBox="0 0 512 512" width="512" height="512"><path fill="#000" d="M93,10h5v1h-5zM170,10h4v1h-4zM247,10h4v1h-4zM324,10h4v1h-4zM92,11h7v1h-7zM168,11h8v1h-8zM245,11h8v1h-8zM322,11h8v1h-8zM91,12h9v1h-9zM167,12h10v1h-10zM244,12h10v1h-10zM321,12h10v1h-10zM90,13h11v1h-11zM167,13h11v1h-11zM243,13h11v1h-11zM320,13h11v1h-11zM90,14h11v1h-11zM166,14h12v1h-12zM243,14h12v1h-12zM320,14h12v1h-12zM89,15h12v1h-12zM166,15h12v1h-12zM243,15h12v1h-12zM320,15h12v1h-12zM89,16h13v1h-13zM166,16h12v1h-12zM243,16h12v1h-12zM320,16h12v1h-12zM89,17h13v1h-13zM166,17h12v1h-12zM243,17h12v1h-12zM320,17h12v1h-12zM89,18h13v1h-13zM166,18h12v1h-12zM243,18h12v1h-12zM320,18h12v1h-12zM89,19h13v1h-13zM166,19h12v1h-12zM243,19h12v1h-12zM320,19h12v1h-12zM89,20h13v1h-13zM166,20h12v1h-12zM243,20h12v1h-12zM320,20h12v1h-12zM89,21h13v1h-13zM166,21h12v1h-12zM243,21h12v1h-12zM320,21h12v1h-12zM89,22h13v1h-13zM166,22h12v1h-12zM243,22h12v1h-12zM320,22h12v1h-12zM89,23h13v1h-13zM166,23h12v1h-12zM243,23h12v1h-12zM320,23h12v1h-12zM89,24h13v1h-13zM166,24h12v1h-12zM243,24h12v1h-12zM320,24h12v1h-12zM89,25h13v1h-13zM166,25h12v1h-12zM243,25h12v1h-12zM320,25h12v1h-12zM89,26h13v1h-13zM166,26h12v1h-12zM243,26h12v1h-12zM320,26h12v1h-12zM89,27h13v1h-13zM166,27h12v1h-12zM243,27h12v1h-12zM320,27h12v1h-12zM89,28h13v1h-13zM166,28h12v1h-12zM243,28h12v1h-12zM320,28h12v1h-12zM89,29h13v1h-13zM166,29h12v1h-12zM243,29h12v1h-12zM320,29h12v1h-12zM89,30h13v1h-13zM166,30h12v1h-12zM243,30h12v1h-12zM320,30h12v1h-12zM89,31h13v1h-13zM166,31h12v1h-12zM243,31h12v1h-12zM320,31h12v1h-12zM89,32h13v1h-13zM166,32h12v1h-12zM243,32h12v1h-12zM320,32h12v1h-12zM89,33h13v1h-13zM166,33h12v1h-12zM243,33h12v1h-12zM320,33h12v1h-12zM89,34h13v1h-13zM166,34h12v1h-12zM243,34h12v1h-12zM320,34h12v1h-12zM89,35h13v1h-13zM166,35h12v1h-12zM243,35h12v1h-12zM320,35h12v1h-12zM41,36h339v1h-339zM39,37h343v1h-343zM38,38h345v1h-345zM37,39h347v1h-347zM37,40h348v1h-348zM36,41h349v1h-349zM36,42h349v1h-349zM36,43h349v1h-349zM36,44h349v1h-349zM36,45h349v1h-349zM36,46h349v1h-349zM36,47h349v1h-349zM36,48h349v1h-349zM36,49h349v1h-349zM36,50h349v1h-349zM36,51h349v1h-349zM36,52h349v1h-349zM36,53h349v1h-349zM36,54h349v1h-349zM36,55h349v1h-349zM36,56h349v1h-349zM36,57h349v1h-349zM36,58h349v1h-349zM36,59h349v1h-349zM36,60h349v1h-349zM36,61h349v1h-349zM36,62h349v1h-349zM36,63h349v1h-349zM36,64h349v1h-349zM36,65h349v1h-349zM36,66h349v1h-349zM36,67h349v1h-349zM36,68h349v1h-349zM36,69h349v1h-349zM36,70h349v1h-349zM36,71h349v1h-349zM36,72h349v1h-349zM36,73h349v1h-349zM36,74h349v1h-349zM36,75h349v1h-349zM36,76h349v1h-349zM36,77h349v1h-349zM36,78h349v1h-349zM36,79h349v1h-349zM36,80h349v1h-349zM36,81h349v1h-349zM36,82h349v1h-349zM36,83h349v1h-349zM36,84h349v1h-349zM36,85h349v1h-349zM36,86h349v1h-349zM36,87h349v1h-349zM36,88h45v1h-45zM316,88h69v1h-69zM36,89h43v1h-43zM318,89h67v1h-67zM36,90h42v1h-42zM319,90h66v1h-66zM36,91h42v1h-42zM320,91h65v1h-65zM36,92h42v1h-42zM320,92h65v1h-65zM36,93h42v1h-42zM320,93h65v1h-65zM36,94h42v1h-42zM320,94h65v1h-65zM36,95h42v1h-42zM320,95h65v1h-65zM36,96h42v1h-42zM319,96h66v1h-66zM36,97h43v1h-43zM319,97h66v1h-66zM36,98h45v1h-45zM317,98h68v1h-68zM36,99h349v1h-349zM36,100h349v1h-349zM36,101h349v1h-349zM36,102h349v1h-349zM36,103h349v1h-349zM36,104h349v1h-349zM36,105h349v1h-349zM36,106h349v1h-349zM36,107h349v1h-349zM36,108h349v1h-349zM36,109h349v1h-349zM36,110h349v1h-349zM36,111h349v1h-349zM36,112h349v1h-349zM36,113h349v1h-349zM36,114h349v1h-349zM36,115h349v1h-349zM36,116h349v1h-349zM36,117h349v1h-349zM36,118h349v1h-349zM36,119h349v1h-349zM36,120h349v1h-349zM36,121h349v1h-349zM36,122h349v1h-349zM36,123h349v1h-349zM36,124h349v1h-349zM36,125h349v1h-349zM36,126h349v1h-349zM36,127h349v1h-349zM36,128h349v1h-349zM36,129h349v1h-349zM36,130h349v1h-349zM36,131h349v1h-349zM36,132h349v1h-349zM36,133h349v1h-349zM36,134h349v1h-349zM36,135h349v1h-349zM36,136h349v1h-349zM36,137h349v1h-349zM36,138h349v1h-349zM36,139h349v1h-349zM36,140h349v1h-349zM36,141h349v1h-349zM36,142h349v1h-349zM36,143h349v1h-349zM36,144h349v1h-349zM36,145h349v1h-349zM36,146h349v1h-349zM36,147h349v1h-349zM36,148h349v1h-349zM36,149h349v1h-349zM36,150h349v1h-349zM36,151h349v1h-349zM36,152h349v1h-349zM36,153h349v1h-349zM36,154h349v1h-349zM36,155h349v1h-349zM36,156h349v1h-349zM36,157h349v1h-349zM36,158h349v1h-349zM36,159h349v1h-349zM36,160h349v1h-349zM36,161h44v1h-44zM318,161h67v1h-67zM36,162h43v1h-43zM319,162h66v1h-66zM36,163h42v1h-42zM320,163h65v1h-65zM36,164h42v1h-42zM320,164h65v1h-65zM36,165h42v1h-42zM320,165h65v1h-65zM36,166h42v1h-42zM320,166h65v1h-65zM36,167h42v1h-42zM320,167h65v1h-65zM36,168h42v1h-42zM320,168h65v1h-65zM36,169h43v1h-43zM319,169h66v1h-66zM36,170h44v1h-44zM318,170h67v1h-67zM36,171h349v1h-349zM36,172h349v1h-349zM36,173h349v1h-349zM36,174h349v1h-349zM36,175h349v1h-349zM36,176h349v1h-349zM36,177h349v1h-349zM36,178h349v1h-349zM36,179h349v1h-349zM36,180h349v1h-349zM36,181h349v1h-349zM36,182h349v1h-349zM36,183h349v1h-349zM36,184h349v1h-349zM36,185h349v1h-349zM36,186h349v1h-349zM36,187h349v1h-349zM36,188h349v1h-349zM36,189h349v1h-349zM36,190h349v1h-349zM36,191h349v1h-349zM36,192h349v1h-349zM36,193h349v1h-349zM36,194h349v1h-349zM36,195h349v1h-349zM36,196h349v1h-349zM36,197h349v1h-349zM36,198h349v1h-349zM36,199h349v1h-349zM36,200h349v1h-349zM36,201h349v1h-349zM36,202h349v1h-349zM36,203h349v1h-349zM36,204h349v1h-349zM36,205h349v1h-349zM36,206h349v1h-349zM36,207h349v1h-349zM36,208h349v1h-349zM36,209h349v1h-349zM36,210h349v1h-349zM36,211h349v1h-349zM36,212h349v1h-349zM36,213h349v1h-349zM36,214h349v1h-349zM36,215h349v1h-349zM36,216h349v1h-349zM36,217h349v1h-349zM36,218h349v1h-349zM36,219h349v1h-349zM36,220h349v1h-349zM36,221h349v1h-349zM36,222h349v1h-349zM36,223h349v1h-349zM36,224h349v1h-349zM396,224h2v1h-2zM36,225h349v1h-349zM396,225h2v1h-2zM36,226h349v1h-349zM396,226h3v1h-3zM36,227h349v1h-349zM396,227h3v1h-3zM36,228h349v1h-349zM396,228h4v1h-4zM36,229h349v1h-349zM396,229h4v1h-4zM36,230h349v1h-349zM396,230h5v1h-5zM36,231h349v1h-349zM396,231h6v1h-6zM36,232h349v1h-349zM396,232h6v1h-6zM36,233h45v1h-45zM316,233h69v1h-69zM396,233h7v1h-7zM36,234h43v1h-43zM318,234h67v1h-67zM396,234h7v1h-7zM36,235h42v1h-42zM319,235h66v1h-66zM396,235h8v1h-8zM36,236h42v1h-42zM320,236h65v1h-65zM396,236h9v1h-9zM36,237h42v1h-42zM320,237h65v1h-65zM396,237h9v1h-9zM36,238h42v1h-42zM320,238h65v1h-65zM396,238h10v1h-10zM36,239h42v1h-42zM320,239h65v1h-65zM396,239h10v1h-10zM36,240h42v1h-42zM320,240h65v1h-65zM396,240h11v1h-11zM36,241h42v1h-42zM319,241h66v1h-66zM396,241h11v1h-11zM36,242h43v1h-43zM319,242h66v1h-66zM396,242h12v1h-12zM36,243h44v1h-44zM317,243h68v1h-68zM396,243h13v1h-13zM36,244h349v1h-349zM396,244h13v1h-13zM36,245h349v1h-349zM396,245h14v1h-14zM36,246h349v1h-349zM396,246h14v1h-14zM36,247h349v1h-349zM396,247h15v1h-15zM36,248h349v1h-349zM396,248h15v1h-15zM36,249h349v1h-349zM396,249h16v1h-16zM36,250h349v1h-349zM396,250h17v1h-17zM36,251h349v1h-349zM396,251h17v1h-17zM36,252h349v1h-349zM396,252h18v1h-18zM36,253h349v1h-349zM396,253h18v1h-18zM36,254h349v1h-349zM396,254h19v1h-19zM36,255h349v1h-349zM396,255h19v1h-19zM36,256h349v1h-349zM396,256h20v1h-20zM36,257h349v1h-349zM396,257h21v1h-21zM36,258h349v1h-349zM396,258h21v1h-21zM36,259h349v1h-349zM396,259h22v1h-22zM36,260h349v1h-349zM396,260h22v1h-22zM36,261h349v1h-349zM396,261h23v1h-23zM36,262h349v1h-349zM396,262h24v1h-24zM36,263h349v1h-349zM396,263h24v1h-24zM36,264h349v1h-349zM396,264h25v1h-25zM36,265h349v1h-349zM396,265h25v1h-25zM36,266h231v1h-231zM276,266h109v1h-109zM396,266h26v1h-26zM36,267h223v1h-223zM284,267h101v1h-101zM396,267h26v1h-26zM36,268h218v1h-218zM289,268h96v1h-96zM396,268h27v1h-27zM36,269h214v1h-214zM292,269h93v1h-93zM396,269h28v1h-28zM36,270h211v1h-211zM295,270h90v1h-90zM396,270h28v1h-28zM36,271h208v1h-208zM298,271h87v1h-87zM396,271h29v1h-29zM36,272h206v1h-206zM300,272h85v1h-85zM396,272h29v1h-29zM36,273h204v1h-204zM303,273h82v1h-82zM396,273h30v1h-30zM36,274h202v1h-202zM305,274h80v1h-80zM396,274h30v1h-30zM36,275h200v1h-200zM307,275h78v1h-78zM396,275h31v1h-31zM36,276h198v1h-198zM308,276h77v1h-77zM396,276h32v1h-32zM36,277h197v1h-197zM264,277h14v1h-14zM310,277h75v1h-75zM396,277h32v1h-32zM36,278h195v1h-195zM258,278h26v1h-26zM311,278h74v1h-74zM396,278h33v1h-33zM36,279h194v1h-194zM254,279h34v1h-34zM313,279h72v1h-72zM396,279h33v1h-33zM36,280h192v1h-192zM251,280h40v1h-40zM314,280h71v1h-71zM396,280h34v1h-34zM36,281h191v1h-191zM249,281h45v1h-45zM316,281h69v1h-69zM396,281h34v1h-34zM36,282h190v1h-190zM246,282h50v1h-50zM317,282h68v1h-68zM396,282h35v1h-35zM36,283h188v1h-188zM244,283h54v1h-54zM318,283h67v1h-67zM396,283h36v1h-36zM36,284h187v1h-187zM242,284h59v1h-59zM319,284h66v1h-66zM396,284h36v1h-36zM36,285h186v1h-186zM240,285h62v1h-62zM320,285h65v1h-65zM396,285h37v1h-37zM36,286h185v1h-185zM239,286h65v1h-65zM321,286h64v1h-64zM396,286h37v1h-37zM36,287h184v1h-184zM237,287h69v1h-69zM322,287h63v1h-63zM396,287h38v1h-38zM36,288h183v1h-183zM236,288h71v1h-71zM323,288h62v1h-62zM396,288h39v1h-39zM36,289h182v1h-182zM234,289h74v1h-74zM324,289h61v1h-61zM396,289h39v1h-39zM36,290h181v1h-181zM233,290h77v1h-77zM325,290h60v1h-60zM396,290h40v1h-40zM36,291h180v1h-180zM232,291h37v1h-37zM274,291h37v1h-37zM326,291h59v1h-59zM396,291h40v1h-40zM36,292h180v1h-180zM231,292h36v1h-36zM275,292h37v1h-37zM327,292h58v1h-58zM396,292h41v1h-41zM36,293h179v1h-179zM229,293h38v1h-38zM276,293h37v1h-37zM328,293h57v1h-57zM396,293h41v1h-41zM36,294h178v1h-178zM228,294h38v1h-38zM276,294h38v1h-38zM329,294h56v1h-56zM396,294h42v1h-42zM36,295h177v1h-177zM227,295h39v1h-39zM277,295h38v1h-38zM329,295h56v1h-56zM396,295h43v1h-43zM36,296h176v1h-176zM226,296h38v1h-38zM279,296h37v1h-37zM330,296h55v1h-55zM396,296h43v1h-43zM36,297h176v1h-176zM226,297h34v1h-34zM282,297h35v1h-35zM331,297h54v1h-54zM396,297h44v1h-44zM36,298h175v1h-175zM225,298h32v1h-32zM285,298h33v1h-33zM331,298h54v1h-54zM396,298h44v1h-44zM36,299h174v1h-174zM224,299h31v1h-31zM287,299h32v1h-32zM332,299h53v1h-53zM396,299h45v1h-45zM36,300h174v1h-174zM223,300h30v1h-30zM289,300h31v1h-31zM333,300h52v1h-52zM396,300h45v1h-45zM36,301h173v1h-173zM222,301h30v1h-30zM291,301h29v1h-29zM333,301h52v1h-52zM396,301h46v1h-46zM36,302h173v1h-173zM221,302h29v1h-29zM292,302h29v1h-29zM334,302h51v1h-51zM396,302h47v1h-47zM36,303h172v1h-172zM221,303h28v1h-28zM293,303h29v1h-29zM335,303h50v1h-50zM396,303h47v1h-47zM36,304h171v1h-171zM220,304h28v1h-28zM294,304h29v1h-29zM335,304h50v1h-50zM396,304h48v1h-48zM36,305h171v1h-171zM219,305h28v1h-28zM295,305h28v1h-28zM336,305h49v1h-49zM396,305h48v1h-48zM36,306h44v1h-44zM219,306h27v1h-27zM296,306h28v1h-28zM336,306h49v1h-49zM396,306h49v1h-49zM36,307h43v1h-43zM218,307h27v1h-27zM264,307h2v1h-2zM277,307h1v1h-1zM297,307h27v1h-27zM337,307h48v1h-48zM396,307h49v1h-49zM36,308h42v1h-42zM218,308h27v1h-27zM261,308h5v1h-5zM277,308h4v1h-4zM298,308h27v1h-27zM337,308h48v1h-48zM396,308h50v1h-50zM36,309h42v1h-42zM217,309h27v1h-27zM259,309h7v1h-7zM277,309h6v1h-6zM298,309h28v1h-28zM338,309h47v1h-47zM396,309h51v1h-51zM36,310h42v1h-42zM216,310h27v1h-27zM258,310h8v1h-8zM277,310h8v1h-8zM299,310h27v1h-27zM338,310h47v1h-47zM396,310h51v1h-51zM36,311h42v1h-42zM216,311h27v1h-27zM256,311h10v1h-10zM277,311h9v1h-9zM300,311h27v1h-27zM338,311h47v1h-47zM396,311h52v1h-52zM36,312h42v1h-42zM216,312h27v1h-27zM255,312h11v1h-11zM277,312h10v1h-10zM300,312h27v1h-27zM339,312h46v1h-46zM396,312h52v1h-52zM36,313h42v1h-42zM215,313h27v1h-27zM254,313h12v1h-12zM277,313h11v1h-11zM300,313h28v1h-28zM339,313h46v1h-46zM396,313h53v1h-53zM36,314h43v1h-43zM215,314h27v1h-27zM254,314h12v1h-12zM277,314h12v1h-12zM301,314h27v1h-27zM340,314h45v1h-45zM396,314h54v1h-54zM36,315h44v1h-44zM214,315h28v1h-28zM253,315h13v1h-13zM277,315h13v1h-13zM301,315h27v1h-27zM340,315h45v1h-45zM396,315h54v1h-54zM36,316h46v1h-46zM214,316h27v1h-27zM253,316h13v1h-13zM277,316h13v1h-13zM301,316h28v1h-28zM340,316h45v1h-45zM396,316h55v1h-55zM36,317h166v1h-166zM213,317h28v1h-28zM252,317h14v1h-14zM277,317h13v1h-13zM301,317h28v1h-28zM341,317h44v1h-44zM396,317h55v1h-55zM36,318h166v1h-166zM213,318h28v1h-28zM252,318h14v1h-14zM277,318h14v1h-14zM301,318h28v1h-28zM341,318h44v1h-44zM396,318h56v1h-56zM36,319h165v1h-165zM213,319h28v1h-28zM252,319h14v1h-14zM277,319h14v1h-14zM301,319h29v1h-29zM341,319h44v1h-44zM396,319h56v1h-56zM36,320h165v1h-165zM212,320h29v1h-29zM252,320h14v1h-14zM277,320h14v1h-14zM301,320h29v1h-29zM341,320h44v1h-44zM396,320h57v1h-57zM36,321h165v1h-165zM212,321h29v1h-29zM252,321h14v1h-14zM277,321h14v1h-14zM301,321h30v1h-30zM342,321h43v1h-43zM396,321h58v1h-58zM36,322h165v1h-165zM212,322h29v1h-29zM252,322h14v1h-14zM277,322h14v1h-14zM301,322h30v1h-30zM342,322h43v1h-43zM396,322h58v1h-58zM36,323h164v1h-164zM211,323h30v1h-30zM253,323h13v1h-13zM277,323h15v1h-15zM300,323h31v1h-31zM342,323h43v1h-43zM396,323h59v1h-59zM36,324h164v1h-164zM211,324h31v1h-31zM253,324h13v1h-13zM277,324h16v1h-16zM299,324h32v1h-32zM342,324h43v1h-43zM396,324h59v1h-59zM36,325h164v1h-164zM211,325h31v1h-31zM254,325h12v1h-12zM277,325h55v1h-55zM343,325h42v1h-42zM396,325h60v1h-60zM36,326h164v1h-164zM211,326h31v1h-31zM254,326h12v1h-12zM277,326h55v1h-55zM343,326h42v1h-42zM396,326h60v1h-60zM36,327h164v1h-164zM211,327h32v1h-32zM255,327h11v1h-11zM277,327h55v1h-55zM343,327h42v1h-42zM396,327h61v1h-61zM36,328h164v1h-164zM210,328h33v1h-33zM256,328h10v1h-10zM277,328h55v1h-55zM343,328h42v1h-42zM396,328h62v1h-62zM36,329h163v1h-163zM210,329h34v1h-34zM258,329h8v1h-8zM277,329h55v1h-55zM343,329h42v1h-42zM396,329h62v1h-62zM36,330h163v1h-163zM210,330h34v1h-34zM259,330h7v1h-7zM277,330h55v1h-55zM343,330h42v1h-42zM396,330h63v1h-63zM36,331h163v1h-163zM210,331h35v1h-35zM261,331h5v1h-5zM277,331h56v1h-56zM343,331h42v1h-42zM396,331h63v1h-63zM36,332h163v1h-163zM210,332h35v1h-35zM264,332h2v1h-2zM277,332h56v1h-56zM343,332h42v1h-42zM396,332h64v1h-64zM36,333h163v1h-163zM210,333h36v1h-36zM277,333h56v1h-56zM344,333h41v1h-41zM396,333h65v1h-65zM36,334h163v1h-163zM210,334h37v1h-37zM280,334h53v1h-53zM344,334h41v1h-41zM396,334h65v1h-65zM36,335h163v1h-163zM210,335h38v1h-38zM283,335h50v1h-50zM344,335h41v1h-41zM396,335h66v1h-66zM36,336h163v1h-163zM210,336h39v1h-39zM286,336h47v1h-47zM344,336h41v1h-41zM396,336h66v1h-66zM36,337h163v1h-163zM210,337h40v1h-40zM288,337h45v1h-45zM344,337h41v1h-41zM396,337h67v1h-67zM36,338h163v1h-163zM210,338h42v1h-42zM290,338h43v1h-43zM344,338h41v1h-41zM396,338h67v1h-67zM36,339h163v1h-163zM210,339h43v1h-43zM291,339h42v1h-42zM344,339h41v1h-41zM396,339h68v1h-68zM36,340h163v1h-163zM210,340h45v1h-45zM293,340h40v1h-40zM344,340h41v1h-41zM396,340h69v1h-69zM36,341h163v1h-163zM210,341h47v1h-47zM294,341h39v1h-39zM344,341h41v1h-41zM396,341h69v1h-69zM36,342h163v1h-163zM210,342h50v1h-50zM295,342h38v1h-38zM344,342h41v1h-41zM396,342h70v1h-70zM36,343h163v1h-163zM210,343h54v1h-54zM296,343h37v1h-37zM344,343h41v1h-41zM396,343h70v1h-70zM36,344h163v1h-163zM210,344h56v1h-56zM297,344h36v1h-36zM344,344h41v1h-41zM396,344h71v1h-71zM36,345h163v1h-163zM210,345h56v1h-56zM277,345h2v1h-2zM297,345h36v1h-36zM343,345h42v1h-42zM396,345h71v1h-71zM36,346h163v1h-163zM210,346h56v1h-56zM277,346h5v1h-5zM298,346h35v1h-35zM343,346h42v1h-42zM396,346h72v1h-72zM36,347h163v1h-163zM210,347h56v1h-56zM277,347h7v1h-7zM299,347h33v1h-33zM343,347h42v1h-42zM396,347h73v1h-73zM36,348h163v1h-163zM210,348h56v1h-56zM277,348h8v1h-8zM299,348h33v1h-33zM343,348h42v1h-42zM396,348h73v1h-73zM36,349h164v1h-164zM210,349h56v1h-56zM277,349h10v1h-10zM300,349h32v1h-32zM343,349h42v1h-42zM396,349h74v1h-74zM36,350h164v1h-164zM211,350h55v1h-55zM277,350h11v1h-11zM300,350h32v1h-32zM343,350h42v1h-42zM396,350h74v1h-74zM36,351h164v1h-164zM211,351h55v1h-55zM277,351h11v1h-11zM300,351h32v1h-32zM343,351h42v1h-42zM396,351h75v1h-75zM36,352h164v1h-164zM211,352h55v1h-55zM277,352h12v1h-12zM301,352h30v1h-30zM342,352h43v1h-43zM396,352h75v1h-75zM36,353h164v1h-164zM211,353h32v1h-32zM250,353h16v1h-16zM277,353h13v1h-13zM301,353h30v1h-30zM342,353h43v1h-43zM396,353h76v1h-76zM36,354h164v1h-164zM212,354h30v1h-30zM251,354h15v1h-15zM277,354h13v1h-13zM301,354h30v1h-30zM342,354h43v1h-43zM396,354h77v1h-77zM36,355h165v1h-165zM212,355h30v1h-30zM251,355h15v1h-15zM277,355h13v1h-13zM301,355h30v1h-30zM342,355h43v1h-43zM396,355h77v1h-77zM36,356h165v1h-165zM212,356h29v1h-29zM252,356h14v1h-14zM277,356h14v1h-14zM301,356h29v1h-29zM342,356h43v1h-43zM396,356h78v1h-78zM36,357h165v1h-165zM212,357h29v1h-29zM252,357h14v1h-14zM277,357h14v1h-14zM301,357h29v1h-29zM341,357h44v1h-44zM396,357h78v1h-78zM36,358h166v1h-166zM213,358h28v1h-28zM252,358h14v1h-14zM277,358h14v1h-14zM301,358h29v1h-29zM341,358h44v1h-44zM396,358h79v1h-79zM36,359h166v1h-166zM213,359h28v1h-28zM252,359h14v1h-14zM277,359h13v1h-13zM301,359h28v1h-28zM341,359h44v1h-44zM396,359h79v1h-79zM36,360h166v1h-166zM214,360h27v1h-27zM252,360h14v1h-14zM277,360h13v1h-13zM301,360h28v1h-28zM340,360h45v1h-45zM396,360h80v1h-80zM36,361h166v1h-166zM214,361h27v1h-27zM253,361h13v1h-13zM277,361h13v1h-13zM301,361h28v1h-28zM340,361h45v1h-45zM396,361h80v1h-80zM36,362h167v1h-167zM214,362h28v1h-28zM253,362h13v1h-13zM277,362h12v1h-12zM301,362h27v1h-27zM340,362h45v1h-45zM396,362h80v1h-80zM36,363h167v1h-167zM215,363h27v1h-27zM254,363h12v1h-12zM277,363h12v1h-12zM301,363h27v1h-27zM339,363h46v1h-46zM396,363h79v1h-79zM36,364h167v1h-167zM215,364h27v1h-27zM255,364h11v1h-11zM277,364h11v1h-11zM300,364h27v1h-27zM339,364h46v1h-46zM396,364h79v1h-79zM36,365h168v1h-168zM216,365h27v1h-27zM256,365h10v1h-10zM277,365h10v1h-10zM300,365h27v1h-27zM339,365h46v1h-46zM396,365h78v1h-78zM36,366h168v1h-168zM216,366h27v1h-27zM257,366h9v1h-9zM277,366h9v1h-9zM299,366h27v1h-27zM338,366h47v1h-47zM396,366h77v1h-77zM36,367h169v1h-169zM217,367h27v1h-27zM258,367h8v1h-8zM277,367h7v1h-7zM299,367h27v1h-27zM338,367h47v1h-47zM396,367h76v1h-76zM36,368h169v1h-169zM217,368h27v1h-27zM260,368h6v1h-6zM277,368h6v1h-6zM298,368h27v1h-27zM337,368h48v1h-48zM396,368h74v1h-74zM36,369h170v1h-170zM218,369h27v1h-27zM262,369h4v1h-4zM277,369h3v1h-3zM298,369h27v1h-27zM337,369h48v1h-48zM396,369h72v1h-72zM36,370h170v1h-170zM218,370h28v1h-28zM297,370h27v1h-27zM336,370h49v1h-49zM396,370h71v1h-71zM36,371h171v1h-171zM219,371h27v1h-27zM296,371h28v1h-28zM336,371h49v1h-49zM396,371h69v1h-69zM36,372h171v1h-171zM220,372h27v1h-27zM295,372h28v1h-28zM335,372h50v1h-50zM396,372h67v1h-67zM36,373h172v1h-172zM220,373h28v1h-28zM294,373h28v1h-28zM335,373h50v1h-50zM396,373h65v1h-65zM36,374h172v1h-172zM221,374h29v1h-29zM293,374h29v1h-29zM334,374h51v1h-51zM396,374h64v1h-64zM36,375h173v1h-173zM222,375h29v1h-29zM292,375h29v1h-29zM334,375h51v1h-51zM396,375h62v1h-62zM36,376h173v1h-173zM222,376h30v1h-30zM290,376h30v1h-30zM333,376h52v1h-52zM396,376h60v1h-60zM36,377h174v1h-174zM223,377h31v1h-31zM289,377h30v1h-30zM333,377h52v1h-52zM396,377h58v1h-58zM36,378h45v1h-45zM224,378h32v1h-32zM287,378h31v1h-31zM332,378h53v1h-53zM396,378h57v1h-57zM36,379h43v1h-43zM225,379h33v1h-33zM284,379h34v1h-34zM331,379h54v1h-54zM396,379h55v1h-55zM36,380h42v1h-42zM226,380h35v1h-35zM281,380h36v1h-36zM331,380h54v1h-54zM396,380h53v1h-53zM36,381h42v1h-42zM227,381h39v1h-39zM277,381h39v1h-39zM330,381h55v1h-55zM396,381h51v1h-51zM36,382h42v1h-42zM228,382h38v1h-38zM277,382h38v1h-38zM329,382h56v1h-56zM396,382h50v1h-50zM36,383h42v1h-42zM229,383h37v1h-37zM276,383h38v1h-38zM328,383h57v1h-57zM396,383h48v1h-48zM36,384h42v1h-42zM230,384h37v1h-37zM276,384h37v1h-37zM328,384h57v1h-57zM396,384h46v1h-46zM36,385h42v1h-42zM231,385h37v1h-37zM275,385h37v1h-37zM327,385h58v1h-58zM396,385h45v1h-45zM36,386h42v1h-42zM232,386h78v1h-78zM326,386h59v1h-59zM396,386h43v1h-43zM36,387h43v1h-43zM233,387h76v1h-76zM325,387h60v1h-60zM396,387h41v1h-41zM36,388h44v1h-44zM235,388h73v1h-73zM324,388h61v1h-61zM396,388h39v1h-39zM36,389h183v1h-183zM236,389h70v1h-70zM323,389h62v1h-62zM396,389h38v1h-38zM36,390h184v1h-184zM238,390h67v1h-67zM322,390h63v1h-63zM396,390h36v1h-36zM36,391h185v1h-185zM239,391h64v1h-64zM321,391h64v1h-64zM396,391h34v1h-34zM36,392h187v1h-187zM241,392h61v1h-61zM320,392h65v1h-65zM396,392h32v1h-32zM36,393h188v1h-188zM243,393h57v1h-57zM319,393h66v1h-66zM396,393h31v1h-31zM36,394h189v1h-189zM245,394h53v1h-53zM318,394h67v1h-67zM396,394h29v1h-29zM36,395h190v1h-190zM247,395h49v1h-49zM316,395h69v1h-69zM396,395h27v1h-27zM36,396h191v1h-191zM249,396h44v1h-44zM315,396h70v1h-70zM396,396h25v1h-25zM36,397h193v1h-193zM252,397h38v1h-38zM314,397h71v1h-71zM396,397h24v1h-24zM36,398h194v1h-194zM255,398h32v1h-32zM312,398h73v1h-73zM396,398h22v1h-22zM36,399h196v1h-196zM260,399h23v1h-23zM311,399h74v1h-74zM396,399h20v1h-20zM36,400h197v1h-197zM268,400h6v1h-6zM309,400h76v1h-76zM396,400h19v1h-19zM36,401h199v1h-199zM308,401h77v1h-77zM396,401h17v1h-17zM36,402h201v1h-201zM306,402h79v1h-79zM396,402h15v1h-15zM36,403h203v1h-203zM304,403h81v1h-81zM396,403h13v1h-13zM36,404h205v1h-205zM302,404h83v1h-83zM396,404h12v1h-12zM36,405h207v1h-207zM300,405h85v1h-85zM396,405h10v1h-10zM36,406h209v1h-209zM297,406h88v1h-88zM396,406h8v1h-8zM36,407h212v1h-212zM294,407h91v1h-91zM396,407h6v1h-6zM36,408h215v1h-215zM291,408h94v1h-94zM396,408h5v1h-5zM36,409h219v1h-219zM287,409h98v1h-98zM396,409h3v1h-3zM36,410h224v1h-224zM282,410h103v1h-103zM396,410h1v1h-1zM36,411h349v1h-349zM36,412h349v1h-349zM36,413h349v1h-349zM36,414h349v1h-349zM36,415h349v1h-349zM36,416h349v1h-349zM36,417h349v1h-349zM36,418h349v1h-349zM36,419h349v1h-349zM36,420h349v1h-349zM36,421h349v1h-349zM36,422h349v1h-349zM36,423h349v1h-349zM36,424h349v1h-349zM36,425h349v1h-349zM36,426h349v1h-349zM36,427h349v1h-349zM36,428h349v1h-349zM36,429h349v1h-349zM36,430h349v1h-349zM36,431h349v1h-349zM36,432h349v1h-349zM36,433h349v1h-349zM36,434h349v1h-349zM36,435h349v1h-349zM36,436h349v1h-349zM36,437h349v1h-349zM36,438h349v1h-349zM36,439h349v1h-349zM36,440h349v1h-349zM36,441h349v1h-349zM36,442h349v1h-349zM36,443h349v1h-349zM36,444h349v1h-349zM36,445h349v1h-349zM36,446h349v1h-349zM36,447h349v1h-349zM36,448h349v1h-349zM36,449h349v1h-349zM36,450h349v1h-349zM36,451h349v1h-349zM36,452h349v1h-349zM36,453h349v1h-349zM36,454h349v1h-349zM36,455h349v1h-349zM36,456h349v1h-349zM36,457h349v1h-349zM36,458h349v1h-349zM37,459h347v1h-347zM37,460h347v1h-347zM38,461h345v1h-345zM39,462h343v1h-343zM219,475h66v1h-66zM219,476h64v1h-64zM220,477h61v1h-61zM220,478h59v1h-59zM221,479h57v1h-57zM221,480h55v1h-55zM222,481h52v1h-52zM223,482h50v1h-50zM223,483h48v1h-48zM224,484h45v1h-45zM224,485h43v1h-43zM225,486h41v1h-41zM225,487h39v1h-39zM226,488h36v1h-36zM227,489h33v1h-33zM227,490h32v1h-32zM228,491h29v1h-29zM228,492h27v1h-27zM229,493h24v1h-24zM230,494h22v1h-22zM230,495h20v1h-20zM231,496h17v1h-17zM231,497h16v1h-16zM232,498h13v1h-13zM232,499h11v1h-11zM233,500h8v1h-8zM235,501h4v1h-4z"/></svg>