<?xml version="1.0" encoding="UTF-8"?>
<svg xmlns="http://www.w3.org/2000/svg" viewBox="0 0 512 512" width="512" height="512"><path fill="#000" d="M244,26h22v1h-22zM238,27h34v1h-34zM234,28h42v1h-42zM231,29h48v1h-48zM228,30h54v1h-54zM225,31h60v1h-60zM223,32h64v1h-64zM221,33h68v1h-68zM219,34h72v1h-72zM217,35h76v1h-76zM215,36h80v1h-80zM213,37h84v1h-84zM212,38h86v1h-86zM210,39h90v1h-90zM209,40h92v1h-92zM207,41h96v1h-96zM206,42h98v1h-98zM205,43h100v1h-100zM203,44h104v1h-104zM202,45h106v1h-106zM201,46h108v1h-108zM200,47h110v1h-110zM199,48h112v1h-112zM198,49h114v1h-114zM196,50h118v1h-118zM195,51h120v1h-120zM194,52h122v1h-122zM193,53h124v1h-124zM192,54h126v1h-126zM191,55h128v1h-128zM189,56h132v1h-132zM188,57h134v1h-134zM187,58h136v1h-136zM186,59h138v1h-138zM185,60h140v1h-140zM184,61h142v1h-142zM182,62h146v1h-146zM181,63h148v1h-148zM180,64h150v1h-150zM179,65h152v1h-152zM178,66h154v1h-154zM177,67h156v1h-156zM175,68h160v1h-160zM174,69h162v1h-162zM173,70h164v1h-164zM172,71h166v1h-166zM171,72h168v1h-168zM170,73h170v1h-170zM168,74h174v1h-174zM167,75h176v1h-176zM166,76h178v1h-178zM165,77h180v1h-180zM164,78h182v1h-182zM163,79h184v1h-184zM161,80h188v1h-188zM160,81h190v1h-190zM159,82h192v1h-192zM158,83h194v1h-194zM157,84h196v1h-196zM156,85h198v1h-198zM154,86h202v1h-202zM153,87h204v1h-204zM152,88h206v1h-206zM151,89h208v1h-208zM150,90h210v1h-210zM149,91h212v1h-212zM147,92h216v1h-216zM146,93h218v1h-218zM145,94h220v1h-220zM144,95h222v1h-222zM143,96h224v1h-224zM142,97h226v1h-226zM140,98h230v1h-230zM139,99h232v1h-232zM138,100h234v1h-234zM137,101h236v1h-236zM136,102h238v1h-238zM135,103h240v1h-240zM133,104h244v1h-244zM132,105h246v1h-246zM131,106h248v1h-248zM130,107h250v1h-250zM129,108h252v1h-252zM128,109h254v1h-254zM126,110h258v1h-258zM125,111h260v1h-260zM124,112h262v1h-262zM123,113h264v1h-264zM122,114h266v1h-266zM121,115h268v1h-268zM119,116h272v1h-272zM118,117h274v1h-274zM117,118h276v1h-276zM116,119h278v1h-278zM115,120h280v1h-280zM114,121h282v1h-282zM112,122h286v1h-286zM111,123h288v1h-288zM110,124h290v1h-290zM109,125h292v1h-292zM108,126h294v1h-294zM107,127h296v1h-296zM105,128h300v1h-300zM104,129h302v1h-302zM103,130h304v1h-304zM102,131h306v1h-306zM101,132h308v1h-308zM100,133h310v1h-310zM98,134h314v1h-314zM97,135h316v1h-316zM96,136h318v1h-318zM95,137h320v1h-320zM94,138h322v1h-322zM93,139h324v1h-324zM91,140h328v1h-328zM90,141h330v1h-330zM89,142h332v1h-332zM88,143h334v1h-334zM87,144h336v1h-336zM86,145h338v1h-338zM84,146h342v1h-342zM83,147h344v1h-344zM82,148h346v1h-346zM81,149h348v1h-348zM80,150h350v1h-350zM79,151h352v1h-352zM77,152h356v1h-356zM76,153h358v1h-358zM75,154h360v1h-360zM74,155h362v1h-362zM73,156h364v1h-364zM72,157h366v1h-366zM70,158h370v1h-370zM69,159h372v1h-372zM68,160h374v1h-374zM67,161h376v1h-376zM66,162h378v1h-378zM65,163h380v1h-380zM63,164h384v1h-384zM62,165h386v1h-386zM61,166h388v1h-388zM60,167h390v1h-390zM59,168h392v1h-392zM58,169h394v1h-394zM56,170h398v1h-398zM55,171h400v1h-400zM54,172h402v1h-402zM53,173h404v1h-404zM52,174h406v1h-406zM51,175h408v1h-408zM49,176h412v1h-412zM48,177h414v1h-414zM47,178h416v1h-416zM46,179h418v1h-418zM45,180h420v1h-420zM44,181h422v1h-422zM42,182h426v1h-426zM41,183h428v1h-428zM40,184h430v1h-430zM39,185h432v1h-432zM38,186h434v1h-434zM37,187h436v1h-436zM36,188h438v1h-438zM35,189h440v1h-440zM34,190h442v1h-442zM34,191h442v1h-442zM33,192h444v1h-444zM32,193h446v1h-446zM31,194h448v1h-448zM30,195h450v1h-450zM30,196h450v1h-450zM29,197h452v1h-452zM28,198h454v1h-454zM28,199h454v1h-454zM27,200h456v1h-456zM26,201h458v1h-458zM26,202h458v1h-458zM25,203h460v1h-460zM25,204h460v1h-460zM24,205h462v1h-462zM24,206h462v1h-462zM23,207h464v1h-464zM23,208h464v1h-464zM22,209h466v1h-466zM22,210h466v1h-466zM21,211h468v1h-468zM21,212h468v1h-468zM20,213h470v1h-470zM20,214h470v1h-470zM20,215h470v1h-470zM19,216h472v1h-472zM19,217h472v1h-472zM19,218h472v1h-472zM18,219h474v1h-474zM18,220h474v1h-474zM18,221h474v1h-474zM17,222h476v1h-476zM17,223h476v1h-476zM17,224h476v1h-476zM17,225h476v1h-476zM16,226h478v1h-478zM16,227h478v1h-478zM16,228h478v1h-478zM16,229h478v1h-478zM16,230h478v1h-478zM15,231h479v1h-479zM15,232h480v1h-480zM15,233h480v1h-480zM15,234h480v1h-480zM15,235h480v1h-480zM15,236h480v1h-480zM15,237h480v1h-480zM15,238h480v1h-480zM15,239h480v1h-480zM15,240h480v1h-480zM15,241h480v1h-480zM15,242h480v1h-480zM15,243h480v1h-480zM15,244h480v1h-480zM15,245h480v1h-480zM15,246h480v1h-480zM15,247h480v1h-480zM15,248h480v1h-480zM15,249h480v1h-480zM15,250h480v1h-480zM15,251h480v1h-480zM15,252h480v1h-480zM15,253h480v1h-480zM15,254h480v1h-480zM15,255h480v1h-480zM15,256h480v1h-480zM15,257h480v1h-480zM15,258h480v1h-480zM15,259h480v1h-480zM15,260h480v1h-480zM15,261h480v1h-480zM15,262h480v1h-480zM15,263h480v1h-480zM15,264h480v1h-480zM15,265h480v1h-480zM15,266h480v1h-480zM15,267h480v1h-480zM15,268h480v1h-480zM15,269h480v1h-480zM15,270h480v1h-480zM15,271h480v1h-480zM15,272h480v1h-480zM15,273h480v1h-480zM15,274h480v1h-480zM15,275h480v1h-480zM15,276h480v1h-480zM15,277h480v1h-480zM15,278h480v1h-480zM15,279h480v1h-480zM15,280h480v1h-480zM15,281h480v1h-480zM15,282h480v1h-480zM15,283h480v1h-480zM15,284h480v1h-480zM15,285h480v1h-480zM15,286h480v1h-480zM15,287h480v1h-480zM15,288h480v1h-480zM15,289h480v1h-480zM15,290h480v1h-480zM15,291h480v1h-480zM15,292h480v1h-480zM15,293h480v1h-480zM15,294h187v1h-187zM308,294h187v1h-187zM15,295h180v1h-180zM315,295h180v1h-180zM15,296h176v1h-176zM319,296h176v1h-176zM15,297h173v1h-173zM322,297h173v1h-173zM15,298h171v1h-171zM324,298h171v1h-171zM15,299h168v1h-168zM327,299h168v1h-168zM15,300h166v1h-166zM329,300h166v1h-166zM15,301h165v1h-165zM330,301h165v1h-165zM15,302h163v1h-163zM332,302h163v1h-163zM15,303h161v1h-161zM334,303h161v1h-161zM15,304h160v1h-160zM335,304h160v1h-160zM15,305h159v1h-159zM336,305h159v1h-159zM15,306h157v1h-157zM338,306h157v1h-157zM15,307h156v1h-156zM339,307h156v1h-156zM15,308h155v1h-155zM340,308h155v1h-155zM15,309h154v1h-154zM341,309h154v1h-154zM15,310h153v1h-153zM342,310h153v1h-153zM15,311h152v1h-152zM343,311h152v1h-152zM15,312h151v1h-151zM344,312h151v1h-151zM15,313h150v1h-150zM345,313h150v1h-150zM15,314h149v1h-149zM346,314h149v1h-149zM15,315h148v1h-148zM347,315h148v1h-148zM15,316h148v1h-148zM347,316h148v1h-148zM15,317h147v1h-147zM348,317h147v1h-147zM15,318h146v1h-146zM349,318h146v1h-146zM15,319h145v1h-145zM350,319h145v1h-145zM15,320h145v1h-145zM350,320h145v1h-145zM15,321h144v1h-144zM351,321h144v1h-144zM15,322h144v1h-144zM351,322h144v1h-144zM15,323h143v1h-143zM352,323h143v1h-143zM15,324h143v1h-143zM352,324h143v1h-143zM15,325h142v1h-142zM353,325h142v1h-142zM15,326h142v1h-142zM353,326h142v1h-142zM15,327h141v1h-141zM354,327h141v1h-141zM15,328h141v1h-141zM354,328h141v1h-141zM15,329h140v1h-140zM355,329h140v1h-140zM15,330h140v1h-140zM355,330h140v1h-140zM15,331h140v1h-140zM355,331h140v1h-140zM15,332h139v1h-139zM356,332h139v1h-139zM15,333h139v1h-139zM356,333h139v1h-139zM15,334h139v1h-139zM356,334h139v1h-139zM15,335h138v1h-138zM357,335h138v1h-138zM15,336h138v1h-138zM357,336h138v1h-138zM15,337h138v1h-138zM357,337h138v1h-138zM15,338h138v1h-138zM357,338h138v1h-138zM15,339h137v1h-137zM358,339h137v1h-137zM15,340h137v1h-137zM358,340h137v1h-137zM15,341h137v1h-137zM358,341h137v1h-137zM15,342h137v1h-137zM358,342h137v1h-137zM15,343h137v1h-137zM358,343h137v1h-137zM15,344h137v1h-137zM358,344h137v1h-137zM15,345h137v1h-137zM358,345h137v1h-137zM15,346h137v1h-137zM358,346h137v1h-137zM15,347h136v1h-136zM358,347h137v1h-137zM15,348h136v1h-136zM358,348h137v1h-137zM15,349h136v1h-136zM358,349h137v1h-137zM15,350h136v1h-136zM358,350h137v1h-137zM15,351h136v1h-136zM358,351h137v1h-137zM15,352h136v1h-136zM358,352h137v1h-137zM15,353h137v1h-137zM358,353h137v1h-137zM15,354h137v1h-137zM358,354h137v1h-137zM15,355h137v1h-137zM358,355h137v1h-137zM15,356h137v1h-137zM358,356h137v1h-137zM15,357h137v1h-137zM358,357h137v1h-137zM15,358h137v1h-137zM358,358h137v1h-137zM15,359h137v1h-137zM358,359h137v1h-137zM15,360h137v1h-137zM358,360h137v1h-137zM15,361h138v1h-138zM357,361h138v1h-138zM15,362h138v1h-138zM357,362h138v1h-138zM15,363h138v1h-138zM357,363h138v1h-138zM15,364h138v1h-138zM357,364h138v1h-138zM15,365h139v1h-139zM356,365h139v1h-139zM15,366h139v1h-139zM356,366h139v1h-139zM15,367h139v1h-139zM356,367h139v1h-139zM15,368h140v1h-140zM355,368h140v1h-140zM15,369h140v1h-140zM355,369h140v1h-140zM15,370h140v1h-140zM355,370h140v1h-140zM15,371h141v1h-141zM354,371h141v1h-141zM15,372h141v1h-141zM354,372h141v1h-141zM15,373h142v1h-142zM353,373h142v1h-142zM15,374h142v1h-142zM353,374h142v1h-142zM15,375h143v1h-143zM352,375h143v1h-143zM15,376h143v1h-143zM352,376h143v1h-143zM15,377h144v1h-144zM351,377h144v1h-144zM15,378h144v1h-144zM351,378h144v1h-144zM15,379h145v1h-145zM350,379h145v1h-145zM15,380h146v1h-146zM349,380h146v1h-146zM15,381h146v1h-146zM349,381h146v1h-146zM15,382h147v1h-147zM348,382h147v1h-147zM15,383h148v1h-148zM347,383h148v1h-148zM15,384h149v1h-149zM346,384h149v1h-149zM15,385h149v1h-149zM346,385h149v1h-149zM15,386h150v1h-150zM345,386h150v1h-150zM15,387h151v1h-151zM344,387h151v1h-151zM15,388h152v1h-152zM343,388h152v1h-152zM15,389h153v1h-153zM342,389h153v1h-153zM15,390h154v1h-154zM341,390h154v1h-154zM15,391h155v1h-155zM340,391h155v1h-155zM15,392h156v1h-156zM339,392h156v1h-156zM15,393h158v1h-158zM337,393h158v1h-158zM15,394h159v1h-159zM336,394h159v1h-159zM15,395h160v1h-160zM335,395h160v1h-160zM15,396h162v1h-162zM333,396h162v1h-162zM15,397h163v1h-163zM332,397h163v1h-163zM15,398h165v1h-165zM330,398h165v1h-165zM15,399h167v1h-167zM328,399h167v1h-167zM15,400h169v1h-169zM326,400h169v1h-169zM15,401h171v1h-171zM324,401h171v1h-171zM15,402h174v1h-174zM321,402h174v1h-174zM15,403h177v1h-177zM317,403h178v1h-178zM15,404h182v1h-182zM313,404h182v1h-182zM15,405h480v1h-480zM15,406h480v1h-480zM15,407h480v1h-480zM15,408h480v1h-480zM15,409h480v1h-480zM15,410h480v1h-480zM15,411h480v1h-480zM15,412h480v1h-480zM15,413h480v1h-480zM15,414h480v1h-480zM15,415h480v1h-480zM15,416h480v1h-480zM15,417h479v1h-479zM16,418h478v1h-478zM16,419h478v1h-478zM16,420h478v1h-478zM16,421h478v1h-478zM16,422h478v1h-478zM17,423h476v1h-476zM17,424h476v1h-476zM17,425h476v1h-476zM17,426h476v1h-476zM18,427h474v1h-474zM18,428h474v1h-474zM18,429h474v1h-474zM18,430h473v1h-473zM19,431h472v1h-472zM19,432h472v1h-472zM19,433h471v1h-471zM20,434h470v1h-470zM20,435h470v1h-470zM21,436h468v1h-468zM21,437h468v1h-468zM22,438h466v1h-466zM22,439h466v1h-466zM22,440h465v1h-465zM23,441h464v1h-464zM23,442h463v1h-463zM24,443h462v1h-462zM25,444h460v1h-460zM25,445h460v1h-460zM26,446h458v1h-458zM26,447h458v1h-458zM27,448h456v1h-456zM28,449h454v1h-454zM28,450h454v1h-454zM29,451h452v1h-452zM30,452h450v1h-450zM30,453h450v1h-450zM31,454h448v1h-448zM32,455h446v1h-446zM33,456h444v1h-444zM33,457h444v1h-444zM34,458h442v1h-442zM35,459h440v1h-440zM36,460h438v1h-438zM37,461h436v1h-436zM38,462h434v1h-434zM39,463h432v1h-432zM40,464h430v1h-430zM41,465h428v1h-428zM42,466h426v1h-426zM43,467h424v1h-424zM45,468h420v1h-420zM46,469h418v1h-418zM47,470h416v1h-416zM49,471h412v1h-412zM50,472h410v1h-410zM52,473h406v1h-406zM53,474h404v1h-404zM55,475h400v1h-400zM57,476h396v1h-396zM59,477h392v1h-392zM61,478h388v1h-388zM63,479h384v1h-384zM65,480h380v1h-380zM68,481h374v1h-374zM71,482h368v1h-368zM74,483h362v1h-362zM78,484h354v1h-354zM84,485h342v1h-342z"/></svg>