<?xml version="1.0" encoding="UTF-8"?>
<svg xmlns="http://www.w3.org/2000/svg" viewBox="0 0 512 512" width="512" height="512"><path fill="#000" d="M242,25h19v1h-19zM236,26h31v1h-31zM231,27h41v1h-41zM228,28h47v1h-47zM225,29h53v1h-53zM222,30h59v1h-59zM220,31h63v1h-63zM217,32h68v1h-68zM215,33h73v1h-73zM213,34h76v1h-76zM212,35h79v1h-79zM210,36h83v1h-83zM208,37h87v1h-87zM207,38h89v1h-89zM205,39h93v1h-93zM204,40h95v1h-95zM203,41h97v1h-97zM201,42h101v1h-101zM200,43h103v1h-103zM199,44h105v1h-105zM198,45h107v1h-107zM197,46h109v1h-109zM195,47h112v1h-112zM194,48h115v1h-115zM193,49h117v1h-117zM192,50h119v1h-119zM191,51h121v1h-121zM190,52h123v1h-123zM188,53h126v1h-126zM187,54h129v1h-129zM186,55h131v1h-131zM185,56h133v1h-133zM184,57h135v1h-135zM182,58h61v1h-61zM260,58h60v1h-60zM181,59h57v1h-57zM264,59h57v1h-57zM180,60h55v1h-55zM268,60h55v1h-55zM179,61h54v1h-54zM270,61h54v1h-54zM178,62h53v1h-53zM272,62h53v1h-53zM177,63h52v1h-52zM274,63h52v1h-52zM176,64h51v1h-51zM276,64h51v1h-51zM174,65h51v1h-51zM278,65h50v1h-50zM173,66h51v1h-51zM279,66h51v1h-51zM172,67h50v1h-50zM280,67h51v1h-51zM171,68h50v1h-50zM282,68h50v1h-50zM170,69h50v1h-50zM283,69h50v1h-50zM169,70h50v1h-50zM284,70h50v1h-50zM167,71h51v1h-51zM285,71h50v1h-50zM166,72h50v1h-50zM286,72h51v1h-51zM165,73h50v1h-50zM288,73h50v1h-50zM164,74h50v1h-50zM289,74h50v1h-50zM163,75h50v1h-50zM290,75h50v1h-50zM162,76h50v1h-50zM291,76h50v1h-50zM160,77h51v1h-51zM292,77h50v1h-50zM159,78h50v1h-50zM293,78h51v1h-51zM158,79h50v1h-50zM295,79h50v1h-50zM157,80h50v1h-50zM296,80h50v1h-50zM156,81h50v1h-50zM297,81h50v1h-50zM155,82h50v1h-50zM298,82h50v1h-50zM153,83h51v1h-51zM299,83h50v1h-50zM152,84h50v1h-50zM300,84h51v1h-51zM151,85h50v1h-50zM302,85h50v1h-50zM150,86h50v1h-50zM303,86h50v1h-50zM149,87h50v1h-50zM304,87h50v1h-50zM148,88h50v1h-50zM305,88h50v1h-50zM146,89h51v1h-51zM306,89h50v1h-50zM145,90h50v1h-50zM307,90h51v1h-51zM144,91h50v1h-50zM309,91h50v1h-50zM143,92h50v1h-50zM310,92h50v1h-50zM142,93h50v1h-50zM311,93h50v1h-50zM141,94h50v1h-50zM312,94h50v1h-50zM139,95h51v1h-51zM313,95h50v1h-50zM138,96h50v1h-50zM314,96h51v1h-51zM137,97h50v1h-50zM316,97h50v1h-50zM136,98h50v1h-50zM317,98h50v1h-50zM135,99h50v1h-50zM318,99h50v1h-50zM134,100h50v1h-50zM319,100h50v1h-50zM132,101h51v1h-51zM320,101h50v1h-50zM131,102h50v1h-50zM321,102h51v1h-51zM130,103h50v1h-50zM323,103h50v1h-50zM129,104h50v1h-50zM324,104h50v1h-50zM128,105h50v1h-50zM325,105h50v1h-50zM127,106h50v1h-50zM326,106h50v1h-50zM125,107h51v1h-51zM327,107h50v1h-50zM124,108h50v1h-50zM328,108h51v1h-51zM123,109h50v1h-50zM330,109h50v1h-50zM122,110h50v1h-50zM331,110h50v1h-50zM121,111h50v1h-50zM332,111h50v1h-50zM120,112h50v1h-50zM333,112h50v1h-50zM118,113h51v1h-51zM334,113h50v1h-50zM117,114h50v1h-50zM335,114h51v1h-51zM116,115h50v1h-50zM337,115h50v1h-50zM115,116h50v1h-50zM338,116h50v1h-50zM114,117h50v1h-50zM339,117h50v1h-50zM113,118h50v1h-50zM340,118h50v1h-50zM111,119h51v1h-51zM341,119h50v1h-50zM110,120h50v1h-50zM342,120h51v1h-51zM109,121h50v1h-50zM344,121h50v1h-50zM108,122h50v1h-50zM345,122h50v1h-50zM107,123h50v1h-50zM346,123h50v1h-50zM106,124h50v1h-50zM347,124h50v1h-50zM104,125h51v1h-51zM348,125h50v1h-50zM103,126h50v1h-50zM349,126h51v1h-51zM102,127h50v1h-50zM351,127h50v1h-50zM101,128h50v1h-50zM352,128h50v1h-50zM100,129h50v1h-50zM353,129h50v1h-50zM99,130h50v1h-50zM354,130h50v1h-50zM97,131h51v1h-51zM355,131h50v1h-50zM96,132h50v1h-50zM356,132h51v1h-51zM95,133h50v1h-50zM358,133h50v1h-50zM94,134h50v1h-50zM359,134h50v1h-50zM93,135h50v1h-50zM360,135h50v1h-50zM92,136h50v1h-50zM361,136h50v1h-50zM90,137h51v1h-51zM362,137h50v1h-50zM89,138h50v1h-50zM363,138h51v1h-51zM88,139h50v1h-50zM365,139h50v1h-50zM87,140h50v1h-50zM366,140h50v1h-50zM86,141h50v1h-50zM367,141h50v1h-50zM85,142h50v1h-50zM368,142h50v1h-50zM83,143h51v1h-51zM369,143h50v1h-50zM82,144h50v1h-50zM370,144h51v1h-51zM81,145h50v1h-50zM372,145h50v1h-50zM80,146h50v1h-50zM373,146h50v1h-50zM79,147h50v1h-50zM374,147h50v1h-50zM78,148h50v1h-50zM375,148h50v1h-50zM76,149h51v1h-51zM376,149h50v1h-50zM75,150h50v1h-50zM377,150h51v1h-51zM74,151h50v1h-50zM379,151h50v1h-50zM73,152h50v1h-50zM380,152h50v1h-50zM72,153h50v1h-50zM381,153h50v1h-50zM71,154h50v1h-50zM382,154h50v1h-50zM69,155h51v1h-51zM383,155h50v1h-50zM68,156h50v1h-50zM384,156h51v1h-51zM67,157h50v1h-50zM386,157h50v1h-50zM66,158h50v1h-50zM387,158h50v1h-50zM65,159h50v1h-50zM388,159h50v1h-50zM64,160h50v1h-50zM389,160h50v1h-50zM62,161h51v1h-51zM390,161h50v1h-50zM61,162h50v1h-50zM391,162h51v1h-51zM60,163h50v1h-50zM393,163h50v1h-50zM59,164h50v1h-50zM394,164h50v1h-50zM58,165h50v1h-50zM395,165h50v1h-50zM57,166h50v1h-50zM396,166h50v1h-50zM55,167h51v1h-51zM397,167h50v1h-50zM54,168h50v1h-50zM398,168h51v1h-51zM53,169h50v1h-50zM400,169h50v1h-50zM52,170h50v1h-50zM401,170h50v1h-50zM51,171h50v1h-50zM402,171h50v1h-50zM50,172h50v1h-50zM403,172h50v1h-50zM48,173h51v1h-51zM404,173h50v1h-50zM47,174h50v1h-50zM405,174h51v1h-51zM46,175h50v1h-50zM407,175h50v1h-50zM45,176h50v1h-50zM408,176h50v1h-50zM44,177h50v1h-50zM409,177h50v1h-50zM43,178h50v1h-50zM410,178h50v1h-50zM41,179h51v1h-51zM411,179h50v1h-50zM40,180h50v1h-50zM412,180h51v1h-51zM39,181h50v1h-50zM413,181h51v1h-51zM38,182h50v1h-50zM415,182h50v1h-50zM37,183h50v1h-50zM416,183h50v1h-50zM36,184h50v1h-50zM417,184h50v1h-50zM35,185h50v1h-50zM418,185h50v1h-50zM34,186h49v1h-49zM419,186h50v1h-50zM33,187h49v1h-49zM420,187h50v1h-50zM32,188h49v1h-49zM422,188h49v1h-49zM31,189h49v1h-49zM423,189h49v1h-49zM30,190h49v1h-49zM424,190h49v1h-49zM29,191h49v1h-49zM425,191h49v1h-49zM28,192h48v1h-48zM426,192h48v1h-48zM28,193h47v1h-47zM428,193h47v1h-47zM27,194h47v1h-47zM429,194h47v1h-47zM26,195h47v1h-47zM430,195h47v1h-47zM25,196h47v1h-47zM431,196h46v1h-46zM25,197h46v1h-46zM432,197h46v1h-46zM24,198h45v1h-45zM433,198h46v1h-46zM23,199h45v1h-45zM435,199h44v1h-44zM23,200h44v1h-44zM436,200h44v1h-44zM22,201h44v1h-44zM437,201h44v1h-44zM22,202h43v1h-43zM438,202h43v1h-43zM21,203h43v1h-43zM439,203h43v1h-43zM21,204h41v1h-41zM440,204h42v1h-42zM20,205h41v1h-41zM441,205h42v1h-42zM20,206h40v1h-40zM443,206h40v1h-40zM19,207h40v1h-40zM444,207h40v1h-40zM19,208h39v1h-39zM445,208h39v1h-39zM18,209h39v1h-39zM446,209h39v1h-39zM18,210h38v1h-38zM447,210h38v1h-38zM17,211h38v1h-38zM448,211h38v1h-38zM17,212h37v1h-37zM448,212h38v1h-38zM16,213h38v1h-38zM449,213h37v1h-37zM16,214h37v1h-37zM450,214h37v1h-37zM16,215h36v1h-36zM451,215h36v1h-36zM15,216h36v1h-36zM451,216h36v1h-36zM15,217h36v1h-36zM452,217h36v1h-36zM15,218h35v1h-35zM453,218h35v1h-35zM14,219h36v1h-36zM453,219h35v1h-35zM14,220h35v1h-35zM454,220h35v1h-35zM14,221h35v1h-35zM454,221h35v1h-35zM14,222h34v1h-34zM455,222h34v1h-34zM13,223h35v1h-35zM455,223h34v1h-34zM13,224h34v1h-34zM455,224h35v1h-35zM13,225h34v1h-34zM456,225h34v1h-34zM13,226h34v1h-34zM456,226h34v1h-34zM12,227h34v1h-34zM457,227h33v1h-33zM12,228h34v1h-34zM457,228h34v1h-34zM12,229h34v1h-34zM457,229h34v1h-34zM12,230h33v1h-33zM457,230h34v1h-34zM12,231h33v1h-33zM458,231h33v1h-33zM12,232h33v1h-33zM458,232h33v1h-33zM12,233h33v1h-33zM458,233h33v1h-33zM11,234h33v1h-33zM458,234h33v1h-33zM11,235h33v1h-33zM458,235h33v1h-33zM11,236h33v1h-33zM459,236h33v1h-33zM11,237h33v1h-33zM459,237h33v1h-33zM11,238h33v1h-33zM459,238h33v1h-33zM11,239h33v1h-33zM459,239h33v1h-33zM11,240h33v1h-33zM459,240h33v1h-33zM11,241h33v1h-33zM459,241h33v1h-33zM11,242h33v1h-33zM459,242h33v1h-33zM11,243h33v1h-33zM459,243h33v1h-33zM11,244h33v1h-33zM459,244h33v1h-33zM11,245h33v1h-33zM459,245h33v1h-33zM11,246h33v1h-33zM459,246h33v1h-33zM11,247h33v1h-33zM459,247h33v1h-33zM11,248h33v1h-33zM459,248h33v1h-33zM11,249h33v1h-33zM459,249h33v1h-33zM11,250h33v1h-33zM459,250h33v1h-33zM11,251h33v1h-33zM459,251h33v1h-33zM11,252h33v1h-33zM459,252h33v1h-33zM11,253h33v1h-33zM459,253h33v1h-33zM11,254h33v1h-33zM459,254h33v1h-33zM11,255h33v1h-33zM459,255h33v1h-33zM11,256h33v1h-33zM459,256h33v1h-33zM11,257h33v1h-33zM459,257h33v1h-33zM11,258h33v1h-33zM459,258h33v1h-33zM11,259h33v1h-33zM459,259h33v1h-33zM11,260h33v1h-33zM459,260h33v1h-33zM11,261h33v1h-33zM459,261h33v1h-33zM11,262h33v1h-33zM459,262h33v1h-33zM11,263h33v1h-33zM459,263h33v1h-33zM11,264h33v1h-33zM459,264h33v1h-33zM11,265h33v1h-33zM459,265h33v1h-33zM11,266h33v1h-33zM459,266h33v1h-33zM11,267h33v1h-33zM459,267h33v1h-33zM11,268h33v1h-33zM459,268h33v1h-33zM11,269h33v1h-33zM459,269h33v1h-33zM11,270h33v1h-33zM459,270h33v1h-33zM11,271h33v1h-33zM459,271h33v1h-33zM11,272h33v1h-33zM459,272h33v1h-33zM11,273h33v1h-33zM459,273h33v1h-33zM11,274h33v1h-33zM459,274h33v1h-33zM11,275h33v1h-33zM459,275h33v1h-33zM11,276h33v1h-33zM459,276h33v1h-33zM11,277h33v1h-33zM459,277h33v1h-33zM11,278h33v1h-33zM459,278h33v1h-33zM11,279h33v1h-33zM459,279h33v1h-33zM11,280h33v1h-33zM459,280h33v1h-33zM11,281h33v1h-33zM459,281h33v1h-33zM11,282h33v1h-33zM459,282h33v1h-33zM11,283h33v1h-33zM459,283h33v1h-33zM11,284h33v1h-33zM459,284h33v1h-33zM11,285h33v1h-33zM459,285h33v1h-33zM11,286h33v1h-33zM459,286h33v1h-33zM11,287h33v1h-33zM459,287h33v1h-33zM11,288h33v1h-33zM459,288h33v1h-33zM11,289h33v1h-33zM459,289h33v1h-33zM11,290h33v1h-33zM459,290h33v1h-33zM11,291h33v1h-33zM459,291h33v1h-33zM11,292h33v1h-33zM459,292h33v1h-33zM11,293h33v1h-33zM194,293h115v1h-115zM459,293h33v1h-33zM11,294h33v1h-33zM189,294h125v1h-125zM459,294h33v1h-33zM11,295h33v1h-33zM186,295h131v1h-131zM459,295h33v1h-33zM11,296h33v1h-33zM183,296h137v1h-137zM459,296h33v1h-33zM11,297h33v1h-33zM181,297h141v1h-141zM459,297h33v1h-33zM11,298h33v1h-33zM178,298h146v1h-146zM459,298h33v1h-33zM11,299h33v1h-33zM176,299h150v1h-150zM459,299h33v1h-33zM11,300h33v1h-33zM175,300h153v1h-153zM459,300h33v1h-33zM11,301h33v1h-33zM173,301h157v1h-157zM459,301h33v1h-33zM11,302h33v1h-33zM172,302h159v1h-159zM459,302h33v1h-33zM11,303h33v1h-33zM170,303h163v1h-163zM459,303h33v1h-33zM11,304h33v1h-33zM169,304h165v1h-165zM459,304h33v1h-33zM11,305h33v1h-33zM168,305h167v1h-167zM459,305h33v1h-33zM11,306h33v1h-33zM166,306h170v1h-170zM459,306h33v1h-33zM11,307h33v1h-33zM165,307h172v1h-172zM459,307h33v1h-33zM11,308h33v1h-33zM164,308h175v1h-175zM459,308h33v1h-33zM11,309h33v1h-33zM163,309h177v1h-177zM459,309h33v1h-33zM11,310h33v1h-33zM162,310h179v1h-179zM459,310h33v1h-33zM11,311h33v1h-33zM161,311h180v1h-180zM459,311h33v1h-33zM11,312h33v1h-33zM160,312h182v1h-182zM459,312h33v1h-33zM11,313h33v1h-33zM160,313h183v1h-183zM459,313h33v1h-33zM11,314h33v1h-33zM159,314h185v1h-185zM459,314h33v1h-33zM11,315h33v1h-33zM158,315h187v1h-187zM459,315h33v1h-33zM11,316h33v1h-33zM157,316h188v1h-188zM459,316h33v1h-33zM11,317h33v1h-33zM157,317h189v1h-189zM459,317h33v1h-33zM11,318h33v1h-33zM156,318h191v1h-191zM459,318h33v1h-33zM11,319h33v1h-33zM155,319h192v1h-192zM459,319h33v1h-33zM11,320h33v1h-33zM155,320h193v1h-193zM459,320h33v1h-33zM11,321h33v1h-33zM154,321h195v1h-195zM459,321h33v1h-33zM11,322h33v1h-33zM154,322h195v1h-195zM459,322h33v1h-33zM11,323h33v1h-33zM153,323h197v1h-197zM459,323h33v1h-33zM11,324h33v1h-33zM153,324h197v1h-197zM459,324h33v1h-33zM11,325h33v1h-33zM152,325h49v1h-49zM302,325h49v1h-49zM459,325h33v1h-33zM11,326h33v1h-33zM152,326h44v1h-44zM307,326h44v1h-44zM459,326h33v1h-33zM11,327h33v1h-33zM151,327h43v1h-43zM309,327h42v1h-42zM459,327h33v1h-33zM11,328h33v1h-33zM151,328h41v1h-41zM311,328h41v1h-41zM459,328h33v1h-33zM11,329h33v1h-33zM151,329h39v1h-39zM313,329h39v1h-39zM459,329h33v1h-33zM11,330h33v1h-33zM150,330h39v1h-39zM314,330h39v1h-39zM459,330h33v1h-33zM11,331h33v1h-33zM150,331h38v1h-38zM315,331h38v1h-38zM459,331h33v1h-33zM11,332h33v1h-33zM149,332h37v1h-37zM316,332h37v1h-37zM459,332h33v1h-33zM11,333h33v1h-33zM149,333h37v1h-37zM317,333h37v1h-37zM459,333h33v1h-33zM11,334h33v1h-33zM149,334h36v1h-36zM318,334h36v1h-36zM459,334h33v1h-33zM11,335h33v1h-33zM149,335h35v1h-35zM319,335h35v1h-35zM459,335h33v1h-33zM11,336h33v1h-33zM148,336h35v1h-35zM319,336h35v1h-35zM459,336h33v1h-33zM11,337h33v1h-33zM148,337h35v1h-35zM320,337h35v1h-35zM459,337h33v1h-33zM11,338h33v1h-33zM148,338h34v1h-34zM321,338h34v1h-34zM459,338h33v1h-33zM11,339h33v1h-33zM148,339h34v1h-34zM321,339h34v1h-34zM459,339h33v1h-33zM11,340h33v1h-33zM148,340h33v1h-33zM321,340h34v1h-34zM459,340h33v1h-33zM11,341h33v1h-33zM148,341h33v1h-33zM322,341h33v1h-33zM459,341h33v1h-33zM11,342h33v1h-33zM147,342h34v1h-34zM322,342h33v1h-33zM459,342h33v1h-33zM11,343h33v1h-33zM147,343h33v1h-33zM322,343h33v1h-33zM459,343h33v1h-33zM11,344h33v1h-33zM147,344h33v1h-33zM323,344h33v1h-33zM459,344h33v1h-33zM11,345h33v1h-33zM147,345h33v1h-33zM323,345h33v1h-33zM459,345h33v1h-33zM11,346h33v1h-33zM147,346h33v1h-33zM323,346h33v1h-33zM459,346h33v1h-33zM11,347h33v1h-33zM147,347h33v1h-33zM323,347h33v1h-33zM459,347h33v1h-33zM11,348h33v1h-33zM147,348h33v1h-33zM323,348h33v1h-33zM459,348h33v1h-33zM11,349h33v1h-33zM147,349h33v1h-33zM323,349h33v1h-33zM459,349h33v1h-33zM11,350h33v1h-33zM147,350h33v1h-33zM323,350h33v1h-33zM459,350h33v1h-33zM11,351h33v1h-33zM147,351h33v1h-33zM323,351h33v1h-33zM459,351h33v1h-33zM11,352h33v1h-33zM147,352h33v1h-33zM323,352h33v1h-33zM459,352h33v1h-33zM11,353h33v1h-33zM147,353h33v1h-33zM323,353h33v1h-33zM459,353h33v1h-33zM11,354h33v1h-33zM147,354h33v1h-33zM322,354h33v1h-33zM459,354h33v1h-33zM11,355h33v1h-33zM147,355h34v1h-34zM322,355h33v1h-33zM459,355h33v1h-33zM11,356h33v1h-33zM148,356h33v1h-33zM322,356h33v1h-33zM459,356h33v1h-33zM11,357h33v1h-33zM148,357h33v1h-33zM321,357h34v1h-34zM459,357h33v1h-33zM11,358h33v1h-33zM148,358h34v1h-34zM321,358h34v1h-34zM459,358h33v1h-33zM11,359h33v1h-33zM148,359h34v1h-34zM321,359h34v1h-34zM459,359h33v1h-33zM11,360h33v1h-33zM148,360h35v1h-35zM320,360h35v1h-35zM459,360h33v1h-33zM11,361h33v1h-33zM148,361h35v1h-35zM319,361h35v1h-35zM459,361h33v1h-33zM11,362h33v1h-33zM149,362h35v1h-35zM319,362h35v1h-35zM459,362h33v1h-33zM11,363h33v1h-33zM149,363h36v1h-36zM318,363h36v1h-36zM459,363h33v1h-33zM11,364h33v1h-33zM149,364h37v1h-37zM317,364h37v1h-37zM459,364h33v1h-33zM11,365h33v1h-33zM149,365h38v1h-38zM316,365h37v1h-37zM459,365h33v1h-33zM11,366h33v1h-33zM150,366h38v1h-38zM315,366h38v1h-38zM459,366h33v1h-33zM11,367h33v1h-33zM150,367h39v1h-39zM314,367h39v1h-39zM459,367h33v1h-33zM11,368h33v1h-33zM151,368h39v1h-39zM313,368h39v1h-39zM459,368h33v1h-33zM11,369h33v1h-33zM151,369h41v1h-41zM311,369h41v1h-41zM459,369h33v1h-33zM11,370h33v1h-33zM151,370h43v1h-43zM309,370h42v1h-42zM459,370h33v1h-33zM11,371h33v1h-33zM152,371h44v1h-44zM307,371h44v1h-44zM459,371h33v1h-33zM11,372h33v1h-33zM152,372h49v1h-49zM301,372h50v1h-50zM459,372h33v1h-33zM11,373h33v1h-33zM153,373h197v1h-197zM459,373h33v1h-33zM11,374h33v1h-33zM153,374h197v1h-197zM459,374h33v1h-33zM11,375h33v1h-33zM154,375h195v1h-195zM459,375h33v1h-33zM11,376h33v1h-33zM154,376h195v1h-195zM459,376h33v1h-33zM11,377h33v1h-33zM155,377h193v1h-193zM459,377h33v1h-33zM11,378h33v1h-33zM155,378h192v1h-192zM459,378h33v1h-33zM11,379h33v1h-33zM156,379h191v1h-191zM459,379h33v1h-33zM11,380h33v1h-33zM157,380h189v1h-189zM459,380h33v1h-33zM11,381h33v1h-33zM157,381h188v1h-188zM459,381h33v1h-33zM11,382h33v1h-33zM158,382h187v1h-187zM459,382h33v1h-33zM11,383h33v1h-33zM159,383h185v1h-185zM459,383h33v1h-33zM11,384h33v1h-33zM160,384h183v1h-183zM459,384h33v1h-33zM11,385h33v1h-33zM161,385h181v1h-181zM459,385h33v1h-33zM11,386h33v1h-33zM161,386h180v1h-180zM459,386h33v1h-33zM11,387h33v1h-33zM162,387h178v1h-178zM459,387h33v1h-33zM11,388h33v1h-33zM163,388h177v1h-177zM459,388h33v1h-33zM11,389h33v1h-33zM164,389h175v1h-175zM459,389h33v1h-33zM11,390h33v1h-33zM165,390h172v1h-172zM459,390h33v1h-33zM11,391h33v1h-33zM166,391h170v1h-170zM459,391h33v1h-33zM11,392h33v1h-33zM168,392h167v1h-167zM459,392h33v1h-33zM11,393h33v1h-33zM169,393h165v1h-165zM459,393h33v1h-33zM11,394h33v1h-33zM170,394h163v1h-163zM459,394h33v1h-33zM11,395h33v1h-33zM172,395h159v1h-159zM459,395h33v1h-33zM11,396h33v1h-33zM173,396h157v1h-157zM459,396h33v1h-33zM11,397h33v1h-33zM175,397h153v1h-153zM459,397h33v1h-33zM11,398h33v1h-33zM176,398h150v1h-150zM459,398h33v1h-33zM11,399h33v1h-33zM178,399h146v1h-146zM459,399h33v1h-33zM11,400h33v1h-33zM181,400h141v1h-141zM459,400h33v1h-33zM11,401h33v1h-33zM183,401h137v1h-137zM459,401h33v1h-33zM11,402h33v1h-33zM186,402h131v1h-131zM459,402h33v1h-33zM11,403h33v1h-33zM189,403h125v1h-125zM459,403h33v1h-33zM11,404h33v1h-33zM194,404h115v1h-115zM459,404h33v1h-33zM11,405h33v1h-33zM459,405h33v1h-33zM11,406h33v1h-33zM459,406h33v1h-33zM11,407h33v1h-33zM459,407h33v1h-33zM11,408h33v1h-33zM459,408h33v1h-33zM11,409h33v1h-33zM459,409h33v1h-33zM11,410h33v1h-33zM459,410h33v1h-33zM11,411h33v1h-33zM459,411h32v1h-32zM11,412h33v1h-33zM458,412h33v1h-33zM11,413h34v1h-34zM458,413h33v1h-33zM12,414h33v1h-33zM458,414h33v1h-33zM12,415h33v1h-33zM458,415h33v1h-33zM12,416h33v1h-33zM458,416h33v1h-33zM12,417h33v1h-33zM457,417h34v1h-34zM12,418h34v1h-34zM457,418h34v1h-34zM12,419h34v1h-34zM457,419h33v1h-33zM13,420h33v1h-33zM456,420h34v1h-34zM13,421h34v1h-34zM456,421h34v1h-34zM13,422h34v1h-34zM456,422h34v1h-34zM13,423h35v1h-35zM455,423h35v1h-35zM13,424h35v1h-35zM455,424h34v1h-34zM14,425h34v1h-34zM454,425h35v1h-35zM14,426h35v1h-35zM454,426h35v1h-35zM14,427h35v1h-35zM453,427h36v1h-36zM15,428h35v1h-35zM453,428h35v1h-35zM15,429h36v1h-36zM452,429h36v1h-36zM15,430h36v1h-36zM452,430h36v1h-36zM16,431h36v1h-36zM451,431h36v1h-36zM16,432h37v1h-37zM450,432h37v1h-37zM16,433h37v1h-37zM449,433h38v1h-38zM17,434h37v1h-37zM449,434h37v1h-37zM17,435h38v1h-38zM448,435h38v1h-38zM17,436h39v1h-39zM447,436h38v1h-38zM18,437h39v1h-39zM446,437h39v1h-39zM18,438h40v1h-40zM445,438h39v1h-39zM19,439h40v1h-40zM444,439h40v1h-40zM19,440h41v1h-41zM443,440h40v1h-40zM20,441h41v1h-41zM442,441h41v1h-41zM20,442h42v1h-42zM441,442h41v1h-41zM21,443h42v1h-42zM439,443h43v1h-43zM21,444h44v1h-44zM438,444h43v1h-43zM22,445h44v1h-44zM436,445h45v1h-45zM23,446h45v1h-45zM435,446h45v1h-45zM23,447h47v1h-47zM433,447h47v1h-47zM24,448h48v1h-48zM431,448h48v1h-48zM24,449h51v1h-51zM428,449h50v1h-50zM25,450h52v1h-52zM425,450h53v1h-53zM26,451h55v1h-55zM422,451h55v1h-55zM27,452h62v1h-62zM413,452h63v1h-63zM27,453h448v1h-448zM28,454h447v1h-447zM29,455h445v1h-445zM30,456h443v1h-443zM31,457h441v1h-441zM31,458h440v1h-440zM32,459h438v1h-438zM33,460h437v1h-437zM34,461h435v1h-435zM35,462h433v1h-433zM36,463h430v1h-430zM37,464h428v1h-428zM39,465h425v1h-425zM40,466h423v1h-423zM41,467h421v1h-421zM42,468h419v1h-419zM43,469h416v1h-416zM45,470h413v1h-413zM46,471h411v1h-411zM48,472h407v1h-407zM49,473h404v1h-404zM51,474h401v1h-401zM53,475h397v1h-397zM55,476h393v1h-393zM57,477h389v1h-389zM59,478h385v1h-385zM61,479h381v1h-381zM64,480h375v1h-375zM67,481h369v1h-369zM70,482h363v1h-363zM74,483h355v1h-355zM80,484h343v1h-343z"/></svg>