<svg xmlns="http://www.w3.org/2000/svg" viewBox="0 0 512 512" width="512" height="512"><path fill="#000" d="M237,0h38v1h-38zM237,1h38v1h-38zM237,2h38v1h-38zM234,3h44v1h-44zM232,4h48v1h-48zM229,5h54v1h-54zM227,6h58v1h-58zM226,7h61v1h-61zM224,8h64v1h-64zM222,9h68v1h-68zM221,10h70v1h-70zM219,11h74v1h-74zM218,12h76v1h-76zM217,13h79v1h-79zM215,14h82v1h-82zM214,15h84v1h-84zM213,16h86v1h-86zM212,17h88v1h-88zM210,18h92v1h-92zM209,19h94v1h-94zM208,20h96v1h-96zM207,21h98v1h-98zM206,22h100v1h-100zM205,23h103v1h-103zM203,24h106v1h-106zM202,25h108v1h-108zM201,26h110v1h-110zM200,27h112v1h-112zM199,28h115v1h-115zM197,29h118v1h-118zM196,30h120v1h-120zM195,31h122v1h-122zM194,32h124v1h-124zM193,33h126v1h-126zM191,34h130v1h-130zM190,35h132v1h-132zM189,36h134v1h-134zM188,37h136v1h-136zM187,38h138v1h-138zM185,39h142v1h-142zM184,40h144v1h-144zM183,41h146v1h-146zM182,42h148v1h-148zM181,43h71v1h-71zM260,43h71v1h-71zM179,44h69v1h-69zM264,44h69v1h-69zM178,45h68v1h-68zM266,45h68v1h-68zM177,46h68v1h-68zM267,46h68v1h-68zM176,47h67v1h-67zM269,47h67v1h-67zM175,48h67v1h-67zM270,48h67v1h-67zM174,49h67v1h-67zM271,49h67v1h-67zM172,50h68v1h-68zM272,50h68v1h-68zM171,51h68v1h-68zM273,51h68v1h-68zM170,52h67v1h-67zM275,52h67v1h-67zM169,53h67v1h-67zM276,53h67v1h-67zM168,54h67v1h-67zM277,54h67v1h-67zM166,55h68v1h-68zM278,55h68v1h-68zM165,56h68v1h-68zM279,56h68v1h-68zM164,57h68v1h-68zM281,57h67v1h-67zM163,58h67v1h-67zM282,58h67v1h-67zM162,59h67v1h-67zM283,59h67v1h-67zM160,60h68v1h-68zM284,60h68v1h-68zM159,61h68v1h-68zM285,61h68v1h-68zM158,62h68v1h-68zM287,62h67v1h-67zM157,63h67v1h-67zM288,63h67v1h-67zM156,64h67v1h-67zM289,64h67v1h-67zM155,65h67v1h-67zM290,65h68v1h-68zM153,66h68v1h-68zM291,66h68v1h-68zM152,67h68v1h-68zM292,67h68v1h-68zM151,68h67v1h-67zM294,68h67v1h-67zM150,69h67v1h-67zM295,69h67v1h-67zM149,70h67v1h-67zM296,70h67v1h-67zM147,71h68v1h-68zM297,71h68v1h-68zM146,72h68v1h-68zM298,72h68v1h-68zM145,73h67v1h-67zM300,73h67v1h-67zM144,74h67v1h-67zM301,74h67v1h-67zM143,75h67v1h-67zM302,75h67v1h-67zM141,76h68v1h-68zM303,76h68v1h-68zM140,77h68v1h-68zM304,77h68v1h-68zM139,78h68v1h-68zM306,78h67v1h-67zM138,79h67v1h-67zM307,79h67v1h-67zM137,80h67v1h-67zM308,80h67v1h-67zM135,81h68v1h-68zM309,81h68v1h-68zM134,82h68v1h-68zM310,82h68v1h-68zM133,83h68v1h-68zM311,83h68v1h-68zM132,84h67v1h-67zM313,84h67v1h-67zM131,85h67v1h-67zM314,85h67v1h-67zM130,86h67v1h-67zM315,86h68v1h-68zM128,87h68v1h-68zM316,87h68v1h-68zM127,88h68v1h-68zM317,88h68v1h-68zM126,89h67v1h-67zM319,89h67v1h-67zM125,90h67v1h-67zM320,90h67v1h-67zM124,91h67v1h-67zM321,91h67v1h-67zM122,92h68v1h-68zM322,92h68v1h-68zM121,93h68v1h-68zM323,93h68v1h-68zM120,94h67v1h-67zM325,94h67v1h-67zM119,95h67v1h-67zM326,95h67v1h-67zM118,96h67v1h-67zM327,96h67v1h-67zM116,97h68v1h-68zM328,97h68v1h-68zM115,98h68v1h-68zM329,98h68v1h-68zM114,99h68v1h-68zM331,99h67v1h-67zM113,100h67v1h-67zM332,100h67v1h-67zM112,101h67v1h-67zM333,101h67v1h-67zM111,102h67v1h-67zM334,102h68v1h-68zM109,103h68v1h-68zM335,103h68v1h-68zM108,104h68v1h-68zM336,104h68v1h-68zM107,105h67v1h-67zM338,105h67v1h-67zM106,106h67v1h-67zM339,106h67v1h-67zM105,107h67v1h-67zM340,107h68v1h-68zM103,108h68v1h-68zM341,108h68v1h-68zM102,109h68v1h-68zM342,109h68v1h-68zM101,110h67v1h-67zM344,110h67v1h-67zM100,111h67v1h-67zM345,111h67v1h-67zM99,112h67v1h-67zM346,112h67v1h-67zM97,113h68v1h-68zM347,113h68v1h-68zM96,114h68v1h-68zM348,114h68v1h-68zM95,115h67v1h-67zM350,115h67v1h-67zM94,116h67v1h-67zM351,116h67v1h-67zM93,117h67v1h-67zM352,117h67v1h-67zM91,118h68v1h-68zM353,118h68v1h-68zM90,119h68v1h-68zM354,119h68v1h-68zM89,120h68v1h-68zM356,120h67v1h-67zM88,121h67v1h-67zM357,121h67v1h-67zM87,122h67v1h-67zM358,122h67v1h-67zM86,123h67v1h-67zM359,123h68v1h-68zM84,124h68v1h-68zM360,124h68v1h-68zM83,125h68v1h-68zM361,125h68v1h-68zM82,126h67v1h-67zM363,126h67v1h-67zM81,127h67v1h-67zM364,127h67v1h-67zM80,128h67v1h-67zM365,128h67v1h-67zM78,129h68v1h-68zM366,129h68v1h-68zM77,130h68v1h-68zM367,130h68v1h-68zM76,131h67v1h-67zM369,131h67v1h-67zM75,132h67v1h-67zM370,132h67v1h-67zM74,133h67v1h-67zM371,133h67v1h-67zM72,134h68v1h-68zM372,134h68v1h-68zM71,135h68v1h-68zM373,135h68v1h-68zM70,136h68v1h-68zM375,136h67v1h-67zM69,137h67v1h-67zM376,137h67v1h-67zM68,138h67v1h-67zM377,138h67v1h-67zM66,139h68v1h-68zM378,139h68v1h-68zM65,140h68v1h-68zM379,140h68v1h-68zM64,141h68v1h-68zM381,141h67v1h-67zM63,142h67v1h-67zM382,142h67v1h-67zM62,143h67v1h-67zM383,143h67v1h-67zM61,144h67v1h-67zM384,144h68v1h-68zM59,145h68v1h-68zM385,145h68v1h-68zM58,146h68v1h-68zM386,146h68v1h-68zM57,147h67v1h-67zM388,147h67v1h-67zM56,148h67v1h-67zM389,148h67v1h-67zM55,149h67v1h-67zM390,149h67v1h-67zM53,150h68v1h-68zM391,150h68v1h-68zM52,151h68v1h-68zM392,151h68v1h-68zM51,152h67v1h-67zM394,152h67v1h-67zM50,153h67v1h-67zM395,153h67v1h-67zM49,154h67v1h-67zM396,154h67v1h-67zM47,155h68v1h-68zM397,155h68v1h-68zM46,156h68v1h-68zM398,156h68v1h-68zM45,157h68v1h-68zM400,157h67v1h-67zM44,158h67v1h-67zM401,158h67v1h-67zM43,159h67v1h-67zM402,159h67v1h-67zM42,160h67v1h-67zM403,160h68v1h-68zM40,161h68v1h-68zM404,161h68v1h-68zM39,162h68v1h-68zM405,162h68v1h-68zM38,163h67v1h-67zM407,163h67v1h-67zM37,164h67v1h-67zM408,164h67v1h-67zM36,165h67v1h-67zM409,165h68v1h-68zM34,166h68v1h-68zM410,166h68v1h-68zM33,167h68v1h-68zM411,167h68v1h-68zM32,168h67v1h-67zM413,168h67v1h-67zM31,169h67v1h-67zM414,169h67v1h-67zM30,170h67v1h-67zM415,170h67v1h-67zM28,171h68v1h-68zM416,171h68v1h-68zM27,172h68v1h-68zM417,172h68v1h-68zM26,173h67v1h-67zM419,173h67v1h-67zM25,174h67v1h-67zM420,174h67v1h-67zM24,175h67v1h-67zM421,175h67v1h-67zM22,176h68v1h-68zM422,176h68v1h-68zM21,177h68v1h-68zM423,177h68v1h-68zM20,178h68v1h-68zM425,178h67v1h-67zM19,179h67v1h-67zM426,179h67v1h-67zM18,180h67v1h-67zM427,180h67v1h-67zM17,181h67v1h-67zM428,181h67v1h-67zM16,182h67v1h-67zM429,182h67v1h-67zM15,183h67v1h-67zM430,183h67v1h-67zM15,184h65v1h-65zM432,184h65v1h-65zM14,185h65v1h-65zM433,185h65v1h-65zM13,186h65v1h-65zM434,186h65v1h-65zM12,187h65v1h-65zM435,187h65v1h-65zM12,188h64v1h-64zM436,188h64v1h-64zM11,189h63v1h-63zM438,189h63v1h-63zM10,190h63v1h-63zM439,190h63v1h-63zM10,191h62v1h-62zM440,191h62v1h-62zM9,192h62v1h-62zM441,192h62v1h-62zM8,193h62v1h-62zM442,193h62v1h-62zM8,194h60v1h-60zM444,194h60v1h-60zM7,195h60v1h-60zM445,195h60v1h-60zM7,196h59v1h-59zM446,196h59v1h-59zM6,197h59v1h-59zM447,197h59v1h-59zM6,198h58v1h-58zM448,198h58v1h-58zM5,199h58v1h-58zM450,199h57v1h-57zM5,200h56v1h-56zM451,200h56v1h-56zM4,201h56v1h-56zM452,201h55v1h-55zM4,202h55v1h-55zM453,202h55v1h-55zM4,203h54v1h-54zM454,203h54v1h-54zM3,204h54v1h-54zM455,204h54v1h-54zM3,205h52v1h-52zM457,205h52v1h-52zM3,206h51v1h-51zM458,206h51v1h-51zM0,207h53v1h-53zM459,207h53v1h-53zM0,208h52v1h-52zM460,208h52v1h-52zM0,209h51v1h-51zM461,209h51v1h-51zM0,210h50v1h-50zM462,210h50v1h-50zM0,211h49v1h-49zM463,211h49v1h-49zM0,212h48v1h-48zM464,212h48v1h-48zM0,213h47v1h-47zM465,213h47v1h-47zM0,214h46v1h-46zM466,214h46v1h-46zM0,215h46v1h-46zM466,215h46v1h-46zM0,216h45v1h-45zM467,216h45v1h-45zM0,217h45v1h-45zM467,217h45v1h-45zM0,218h44v1h-44zM468,218h44v1h-44zM0,219h44v1h-44zM468,219h44v1h-44zM0,220h44v1h-44zM468,220h44v1h-44zM0,221h44v1h-44zM468,221h44v1h-44zM0,222h43v1h-43zM469,222h43v1h-43zM0,223h43v1h-43zM469,223h43v1h-43zM0,224h43v1h-43zM469,224h43v1h-43zM0,225h43v1h-43zM469,225h43v1h-43zM0,226h43v1h-43zM469,226h43v1h-43zM0,227h43v1h-43zM469,227h43v1h-43zM0,228h43v1h-43zM469,228h43v1h-43zM0,229h43v1h-43zM469,229h43v1h-43zM0,230h43v1h-43zM469,230h43v1h-43zM0,231h43v1h-43zM469,231h43v1h-43zM0,232h43v1h-43zM469,232h43v1h-43zM0,233h43v1h-43zM469,233h43v1h-43zM0,234h43v1h-43zM469,234h43v1h-43zM0,235h43v1h-43zM469,235h43v1h-43zM0,236h43v1h-43zM469,236h43v1h-43zM0,237h43v1h-43zM469,237h43v1h-43zM0,238h43v1h-43zM469,238h43v1h-43zM0,239h43v1h-43zM469,239h43v1h-43zM0,240h43v1h-43zM469,240h43v1h-43zM0,241h43v1h-43zM469,241h43v1h-43zM0,242h43v1h-43zM469,242h43v1h-43zM0,243h43v1h-43zM469,243h43v1h-43zM0,244h43v1h-43zM469,244h43v1h-43zM0,245h43v1h-43zM469,245h43v1h-43zM0,246h43v1h-43zM469,246h43v1h-43zM0,247h43v1h-43zM469,247h43v1h-43zM0,248h43v1h-43zM469,248h43v1h-43zM0,249h43v1h-43zM469,249h43v1h-43zM0,250h43v1h-43zM469,250h43v1h-43zM0,251h43v1h-43zM469,251h43v1h-43zM0,252h43v1h-43zM469,252h43v1h-43zM0,253h43v1h-43zM469,253h43v1h-43zM0,254h43v1h-43zM469,254h43v1h-43zM0,255h43v1h-43zM469,255h43v1h-43zM0,256h43v1h-43zM469,256h43v1h-43zM0,257h43v1h-43zM469,257h43v1h-43zM0,258h43v1h-43zM469,258h43v1h-43zM0,259h43v1h-43zM469,259h43v1h-43zM0,260h43v1h-43zM469,260h43v1h-43zM0,261h43v1h-43zM469,261h43v1h-43zM0,262h43v1h-43zM469,262h43v1h-43zM0,263h43v1h-43zM469,263h43v1h-43zM0,264h43v1h-43zM469,264h43v1h-43zM0,265h43v1h-43zM469,265h43v1h-43zM0,266h43v1h-43zM469,266h43v1h-43zM0,267h43v1h-43zM469,267h43v1h-43zM0,268h43v1h-43zM469,268h43v1h-43zM0,269h43v1h-43zM469,269h43v1h-43zM0,270h43v1h-43zM469,270h43v1h-43zM0,271h43v1h-43zM469,271h43v1h-43zM0,272h43v1h-43zM469,272h43v1h-43zM0,273h43v1h-43zM469,273h43v1h-43zM0,274h43v1h-43zM469,274h43v1h-43zM0,275h43v1h-43zM469,275h43v1h-43zM0,276h43v1h-43zM469,276h43v1h-43zM0,277h43v1h-43zM469,277h43v1h-43zM0,278h43v1h-43zM469,278h43v1h-43zM0,279h43v1h-43zM469,279h43v1h-43zM0,280h43v1h-43zM469,280h43v1h-43zM0,281h43v1h-43zM469,281h43v1h-43zM0,282h43v1h-43zM469,282h43v1h-43zM0,283h43v1h-43zM469,283h43v1h-43zM0,284h43v1h-43zM469,284h43v1h-43zM0,285h43v1h-43zM469,285h43v1h-43zM0,286h43v1h-43zM469,286h43v1h-43zM0,287h43v1h-43zM469,287h43v1h-43zM0,288h43v1h-43zM469,288h43v1h-43zM0,289h43v1h-43zM469,289h43v1h-43zM0,290h43v1h-43zM469,290h43v1h-43zM0,291h43v1h-43zM469,291h43v1h-43zM0,292h43v1h-43zM469,292h43v1h-43zM0,293h43v1h-43zM469,293h43v1h-43zM0,294h43v1h-43zM469,294h43v1h-43zM0,295h43v1h-43zM469,295h43v1h-43zM0,296h43v1h-43zM469,296h43v1h-43zM0,297h43v1h-43zM469,297h43v1h-43zM0,298h43v1h-43zM469,298h43v1h-43zM0,299h43v1h-43zM469,299h43v1h-43zM0,300h43v1h-43zM469,300h43v1h-43zM0,301h43v1h-43zM469,301h43v1h-43zM0,302h43v1h-43zM469,302h43v1h-43zM0,303h43v1h-43zM469,303h43v1h-43zM0,304h43v1h-43zM469,304h43v1h-43zM0,305h43v1h-43zM469,305h43v1h-43zM0,306h43v1h-43zM469,306h43v1h-43zM0,307h43v1h-43zM469,307h43v1h-43zM0,308h43v1h-43zM469,308h43v1h-43zM0,309h43v1h-43zM469,309h43v1h-43zM0,310h43v1h-43zM469,310h43v1h-43zM0,311h43v1h-43zM469,311h43v1h-43zM0,312h43v1h-43zM469,312h43v1h-43zM0,313h43v1h-43zM469,313h43v1h-43zM0,314h43v1h-43zM469,314h43v1h-43zM0,315h43v1h-43zM469,315h43v1h-43zM0,316h43v1h-43zM469,316h43v1h-43zM0,317h43v1h-43zM469,317h43v1h-43zM0,318h43v1h-43zM469,318h43v1h-43zM0,319h43v1h-43zM469,319h43v1h-43zM0,320h43v1h-43zM469,320h43v1h-43zM0,321h43v1h-43zM469,321h43v1h-43zM0,322h43v1h-43zM469,322h43v1h-43zM0,323h43v1h-43zM469,323h43v1h-43zM0,324h43v1h-43zM469,324h43v1h-43zM0,325h43v1h-43zM469,325h43v1h-43zM0,326h43v1h-43zM469,326h43v1h-43zM0,327h43v1h-43zM469,327h43v1h-43zM0,328h43v1h-43zM469,328h43v1h-43zM0,329h43v1h-43zM469,329h43v1h-43zM0,330h43v1h-43zM469,330h43v1h-43zM0,331h43v1h-43zM469,331h43v1h-43zM0,332h43v1h-43zM469,332h43v1h-43zM0,333h43v1h-43zM469,333h43v1h-43zM0,334h43v1h-43zM469,334h43v1h-43zM0,335h43v1h-43zM469,335h43v1h-43zM0,336h43v1h-43zM469,336h43v1h-43zM0,337h43v1h-43zM469,337h43v1h-43zM0,338h43v1h-43zM469,338h43v1h-43zM0,339h43v1h-43zM469,339h43v1h-43zM0,340h43v1h-43zM469,340h43v1h-43zM0,341h43v1h-43zM469,341h43v1h-43zM0,342h43v1h-43zM469,342h43v1h-43zM0,343h43v1h-43zM469,343h43v1h-43zM0,344h43v1h-43zM469,344h43v1h-43zM0,345h43v1h-43zM469,345h43v1h-43zM0,346h43v1h-43zM469,346h43v1h-43zM0,347h43v1h-43zM469,347h43v1h-43zM0,348h43v1h-43zM469,348h43v1h-43zM0,349h43v1h-43zM469,349h43v1h-43zM0,350h43v1h-43zM469,350h43v1h-43zM0,351h43v1h-43zM469,351h43v1h-43zM0,352h43v1h-43zM469,352h43v1h-43zM0,353h43v1h-43zM469,353h43v1h-43zM0,354h43v1h-43zM469,354h43v1h-43zM0,355h43v1h-43zM469,355h43v1h-43zM0,356h43v1h-43zM469,356h43v1h-43zM0,357h43v1h-43zM469,357h43v1h-43zM0,358h43v1h-43zM469,358h43v1h-43zM0,359h43v1h-43zM469,359h43v1h-43zM0,360h43v1h-43zM469,360h43v1h-43zM0,361h43v1h-43zM469,361h43v1h-43zM0,362h43v1h-43zM168,362h176v1h-176zM469,362h43v1h-43zM0,363h43v1h-43zM164,363h184v1h-184zM469,363h43v1h-43zM0,364h43v1h-43zM161,364h190v1h-190zM469,364h43v1h-43zM0,365h43v1h-43zM159,365h194v1h-194zM469,365h43v1h-43zM0,366h43v1h-43zM158,366h196v1h-196zM469,366h43v1h-43zM0,367h43v1h-43zM157,367h198v1h-198zM469,367h43v1h-43zM0,368h43v1h-43zM155,368h202v1h-202zM469,368h43v1h-43zM0,369h43v1h-43zM155,369h202v1h-202zM469,369h43v1h-43zM0,370h43v1h-43zM154,370h204v1h-204zM469,370h43v1h-43zM0,371h43v1h-43zM153,371h206v1h-206zM469,371h43v1h-43zM0,372h43v1h-43zM152,372h208v1h-208zM469,372h43v1h-43zM0,373h43v1h-43zM152,373h208v1h-208zM469,373h43v1h-43zM0,374h43v1h-43zM151,374h210v1h-210zM469,374h43v1h-43zM0,375h43v1h-43zM151,375h210v1h-210zM469,375h43v1h-43zM0,376h43v1h-43zM150,376h212v1h-212zM469,376h43v1h-43zM0,377h43v1h-43zM150,377h212v1h-212zM469,377h43v1h-43zM0,378h43v1h-43zM150,378h212v1h-212zM469,378h43v1h-43zM0,379h43v1h-43zM149,379h214v1h-214zM469,379h43v1h-43zM0,380h43v1h-43zM149,380h214v1h-214zM469,380h43v1h-43zM0,381h43v1h-43zM149,381h214v1h-214zM469,381h43v1h-43zM0,382h43v1h-43zM149,382h214v1h-214zM469,382h43v1h-43zM0,383h43v1h-43zM149,383h214v1h-214zM469,383h43v1h-43zM0,384h43v1h-43zM149,384h214v1h-214zM469,384h43v1h-43zM0,385h43v1h-43zM149,385h214v1h-214zM469,385h43v1h-43zM0,386h43v1h-43zM149,386h214v1h-214zM469,386h43v1h-43zM0,387h43v1h-43zM149,387h214v1h-214zM469,387h43v1h-43zM0,388h43v1h-43zM149,388h214v1h-214zM469,388h43v1h-43zM0,389h43v1h-43zM150,389h212v1h-212zM469,389h43v1h-43zM0,390h43v1h-43zM150,390h212v1h-212zM469,390h43v1h-43zM0,391h43v1h-43zM150,391h212v1h-212zM469,391h43v1h-43zM0,392h43v1h-43zM151,392h210v1h-210zM469,392h43v1h-43zM0,393h43v1h-43zM151,393h210v1h-210zM469,393h43v1h-43zM0,394h43v1h-43zM152,394h208v1h-208zM469,394h43v1h-43zM0,395h43v1h-43zM152,395h208v1h-208zM469,395h43v1h-43zM0,396h43v1h-43zM153,396h206v1h-206zM469,396h43v1h-43zM0,397h43v1h-43zM154,397h204v1h-204zM469,397h43v1h-43zM0,398h43v1h-43zM155,398h202v1h-202zM469,398h43v1h-43zM0,399h43v1h-43zM155,399h201v1h-201zM469,399h43v1h-43zM0,400h43v1h-43zM157,400h198v1h-198zM469,400h43v1h-43zM0,401h43v1h-43zM158,401h196v1h-196zM469,401h43v1h-43zM0,402h43v1h-43zM159,402h194v1h-194zM469,402h43v1h-43zM0,403h43v1h-43zM161,403h190v1h-190zM469,403h43v1h-43zM0,404h43v1h-43zM164,404h184v1h-184zM469,404h43v1h-43zM0,405h43v1h-43zM168,405h176v1h-176zM469,405h43v1h-43zM0,406h43v1h-43zM469,406h43v1h-43zM0,407h43v1h-43zM469,407h43v1h-43zM0,408h43v1h-43zM469,408h43v1h-43zM0,409h43v1h-43zM469,409h43v1h-43zM0,410h43v1h-43zM469,410h43v1h-43zM0,411h43v1h-43zM469,411h43v1h-43zM0,412h43v1h-43zM469,412h43v1h-43zM0,413h43v1h-43zM469,413h43v1h-43zM0,414h43v1h-43zM469,414h43v1h-43zM0,415h43v1h-43zM469,415h43v1h-43zM0,416h43v1h-43zM469,416h43v1h-43zM0,417h43v1h-43zM469,417h43v1h-43zM0,418h43v1h-43zM469,418h43v1h-43zM0,419h43v1h-43zM469,419h43v1h-43zM0,420h43v1h-43zM469,420h43v1h-43zM0,421h43v1h-43zM469,421h43v1h-43zM0,422h43v1h-43zM469,422h43v1h-43zM0,423h43v1h-43zM469,423h43v1h-43zM0,424h43v1h-43zM469,424h43v1h-43zM0,425h43v1h-43zM469,425h43v1h-43zM0,426h43v1h-43zM469,426h43v1h-43zM0,427h43v1h-43zM469,427h43v1h-43zM0,428h43v1h-43zM469,428h43v1h-43zM0,429h43v1h-43zM469,429h43v1h-43zM0,430h43v1h-43zM469,430h43v1h-43zM0,431h43v1h-43zM469,431h43v1h-43zM0,432h43v1h-43zM469,432h43v1h-43zM0,433h43v1h-43zM469,433h43v1h-43zM0,434h43v1h-43zM469,434h43v1h-43zM0,435h43v1h-43zM469,435h43v1h-43zM0,436h43v1h-43zM469,436h43v1h-43zM0,437h43v1h-43zM469,437h43v1h-43zM0,438h43v1h-43zM469,438h43v1h-43zM0,439h43v1h-43zM469,439h43v1h-43zM0,440h43v1h-43zM469,440h43v1h-43zM0,441h43v1h-43zM469,441h43v1h-43zM0,442h43v1h-43zM469,442h43v1h-43zM0,443h43v1h-43zM469,443h43v1h-43zM0,444h43v1h-43zM469,444h43v1h-43zM0,445h43v1h-43zM469,445h43v1h-43zM0,446h43v1h-43zM469,446h43v1h-43zM0,447h43v1h-43zM469,447h43v1h-43zM0,448h43v1h-43zM469,448h43v1h-43zM0,449h43v1h-43zM469,449h43v1h-43zM0,450h43v1h-43zM469,450h43v1h-43zM0,451h43v1h-43zM469,451h43v1h-43zM0,452h44v1h-44zM468,452h44v1h-44zM0,453h44v1h-44zM468,453h44v1h-44zM0,454h44v1h-44zM468,454h44v1h-44zM0,455h45v1h-45zM467,455h45v1h-45zM0,456h45v1h-45zM467,456h45v1h-45zM0,457h46v1h-46zM466,457h46v1h-46zM0,458h46v1h-46zM466,458h46v1h-46zM0,459h47v1h-47zM465,459h47v1h-47zM0,460h47v1h-47zM465,460h47v1h-47zM0,461h48v1h-48zM464,461h48v1h-48zM0,462h49v1h-49zM463,462h49v1h-49zM0,463h50v1h-50zM462,463h50v1h-50zM0,464h52v1h-52zM461,464h51v1h-51zM0,465h53v1h-53zM459,465h53v1h-53zM0,466h55v1h-55zM457,466h52v1h-52zM3,467h54v1h-54zM455,467h54v1h-54zM3,468h57v1h-57zM452,468h57v1h-57zM4,469h504v1h-504zM4,470h504v1h-504zM4,471h504v1h-504zM5,472h502v1h-502zM5,473h502v1h-502zM6,474h500v1h-500zM6,475h500v1h-500zM7,476h498v1h-498zM7,477h498v1h-498zM8,478h496v1h-496zM8,479h496v1h-496zM9,480h494v1h-494zM9,481h494v1h-494zM10,482h492v1h-492zM11,483h490v1h-490zM11,484h490v1h-490zM12,485h488v1h-488zM13,486h486v1h-486zM14,487h484v1h-484zM14,488h484v1h-484zM15,489h482v1h-482zM16,490h480v1h-480zM17,491h478v1h-478zM18,492h476v1h-476zM19,493h474v1h-474zM20,494h472v1h-472zM21,495h470v1h-470zM22,496h468v1h-468zM23,497h466v1h-466zM25,498h462v1h-462zM26,499h460v1h-460zM27,500h458v1h-458zM29,501h454v1h-454zM30,502h452v1h-452zM32,503h448v1h-448zM34,504h444v1h-444zM36,505h440v1h-440zM38,506h436v1h-436zM40,507h432v1h-432zM43,508h426v1h-426zM46,509h420v1h-420zM46,510h420v1h-420zM46,511h420v1h-420z"/></svg>