<svg xmlns="http://www.w3.org/2000/svg" viewBox="0 0 512 512" width="512" height="512"><path fill="#000" d="M237,0h38v1h-38zM237,1h38v1h-38zM237,2h38v1h-38zM234,3h44v1h-44zM232,4h48v1h-48zM229,5h54v1h-54zM227,6h58v1h-58zM226,7h61v1h-61zM224,8h64v1h-64zM222,9h68v1h-68zM221,10h70v1h-70zM219,11h74v1h-74zM218,12h76v1h-76zM217,13h79v1h-79zM215,14h82v1h-82zM214,15h84v1h-84zM213,16h86v1h-86zM212,17h88v1h-88zM210,18h92v1h-92zM209,19h94v1h-94zM208,20h96v1h-96zM207,21h98v1h-98zM206,22h100v1h-100zM205,23h103v1h-103zM203,24h106v1h-106zM202,25h108v1h-108zM201,26h110v1h-110zM200,27h112v1h-112zM199,28h115v1h-115zM197,29h118v1h-118zM196,30h120v1h-120zM195,31h122v1h-122zM194,32h124v1h-124zM193,33h126v1h-126zM191,34h130v1h-130zM190,35h132v1h-132zM189,36h134v1h-134zM188,37h136v1h-136zM187,38h138v1h-138zM185,39h142v1h-142zM184,40h144v1h-144zM183,41h146v1h-146zM182,42h148v1h-148zM181,43h150v1h-150zM180,44h153v1h-153zM178,45h156v1h-156zM177,46h158v1h-158zM176,47h160v1h-160zM175,48h162v1h-162zM174,49h164v1h-164zM172,50h168v1h-168zM171,51h170v1h-170zM170,52h172v1h-172zM169,53h174v1h-174zM168,54h176v1h-176zM166,55h180v1h-180zM165,56h182v1h-182zM164,57h184v1h-184zM163,58h186v1h-186zM162,59h188v1h-188zM160,60h192v1h-192zM159,61h194v1h-194zM158,62h196v1h-196zM157,63h198v1h-198zM156,64h200v1h-200zM155,65h203v1h-203zM153,66h206v1h-206zM152,67h208v1h-208zM151,68h210v1h-210zM150,69h212v1h-212zM149,70h214v1h-214zM147,71h218v1h-218zM146,72h220v1h-220zM145,73h222v1h-222zM144,74h224v1h-224zM143,75h226v1h-226zM141,76h230v1h-230zM140,77h232v1h-232zM139,78h234v1h-234zM138,79h236v1h-236zM137,80h238v1h-238zM135,81h242v1h-242zM134,82h244v1h-244zM133,83h246v1h-246zM132,84h248v1h-248zM131,85h250v1h-250zM130,86h253v1h-253zM128,87h256v1h-256zM127,88h258v1h-258zM126,89h260v1h-260zM125,90h262v1h-262zM124,91h264v1h-264zM122,92h268v1h-268zM121,93h270v1h-270zM120,94h272v1h-272zM119,95h274v1h-274zM118,96h276v1h-276zM116,97h280v1h-280zM115,98h282v1h-282zM114,99h284v1h-284zM113,100h286v1h-286zM112,101h288v1h-288zM111,102h291v1h-291zM109,103h294v1h-294zM108,104h296v1h-296zM107,105h298v1h-298zM106,106h300v1h-300zM105,107h303v1h-303zM103,108h306v1h-306zM102,109h308v1h-308zM101,110h310v1h-310zM100,111h312v1h-312zM99,112h314v1h-314zM97,113h318v1h-318zM96,114h320v1h-320zM95,115h322v1h-322zM94,116h324v1h-324zM93,117h326v1h-326zM91,118h330v1h-330zM90,119h332v1h-332zM89,120h334v1h-334zM88,121h336v1h-336zM87,122h338v1h-338zM86,123h341v1h-341zM84,124h344v1h-344zM83,125h346v1h-346zM82,126h348v1h-348zM81,127h350v1h-350zM80,128h352v1h-352zM78,129h356v1h-356zM77,130h358v1h-358zM76,131h360v1h-360zM75,132h362v1h-362zM74,133h364v1h-364zM72,134h368v1h-368zM71,135h370v1h-370zM70,136h372v1h-372zM69,137h374v1h-374zM68,138h376v1h-376zM66,139h380v1h-380zM65,140h382v1h-382zM64,141h384v1h-384zM63,142h386v1h-386zM62,143h388v1h-388zM61,144h391v1h-391zM59,145h394v1h-394zM58,146h396v1h-396zM57,147h398v1h-398zM56,148h400v1h-400zM55,149h402v1h-402zM53,150h406v1h-406zM52,151h408v1h-408zM51,152h410v1h-410zM50,153h412v1h-412zM49,154h414v1h-414zM47,155h418v1h-418zM46,156h420v1h-420zM45,157h422v1h-422zM44,158h424v1h-424zM43,159h426v1h-426zM42,160h429v1h-429zM40,161h432v1h-432zM39,162h434v1h-434zM38,163h436v1h-436zM37,164h438v1h-438zM36,165h441v1h-441zM34,166h444v1h-444zM33,167h446v1h-446zM32,168h448v1h-448zM31,169h450v1h-450zM30,170h452v1h-452zM28,171h456v1h-456zM27,172h458v1h-458zM26,173h460v1h-460zM25,174h462v1h-462zM24,175h464v1h-464zM22,176h468v1h-468zM21,177h470v1h-470zM20,178h472v1h-472zM19,179h474v1h-474zM18,180h476v1h-476zM17,181h478v1h-478zM16,182h480v1h-480zM15,183h482v1h-482zM15,184h482v1h-482zM14,185h484v1h-484zM13,186h486v1h-486zM12,187h488v1h-488zM12,188h488v1h-488zM11,189h490v1h-490zM10,190h492v1h-492zM10,191h492v1h-492zM9,192h494v1h-494zM8,193h496v1h-496zM8,194h496v1h-496zM7,195h498v1h-498zM7,196h498v1h-498zM6,197h500v1h-500zM6,198h500v1h-500zM5,199h502v1h-502zM5,200h502v1h-502zM4,201h503v1h-503zM4,202h504v1h-504zM4,203h504v1h-504zM3,204h506v1h-506zM3,205h506v1h-506zM3,206h506v1h-506zM0,207h512v1h-512zM0,208h512v1h-512zM0,209h512v1h-512zM0,210h512v1h-512zM0,211h512v1h-512zM0,212h512v1h-512zM0,213h512v1h-512zM0,214h512v1h-512zM0,215h512v1h-512zM0,216h512v1h-512zM0,217h512v1h-512zM0,218h512v1h-512zM0,219h512v1h-512zM0,220h512v1h-512zM0,221h512v1h-512zM0,222h512v1h-512zM0,223h512v1h-512zM0,224h512v1h-512zM0,225h512v1h-512zM0,226h512v1h-512zM0,227h512v1h-512zM0,228h512v1h-512zM0,229h512v1h-512zM0,230h512v1h-512zM0,231h512v1h-512zM0,232h512v1h-512zM0,233h512v1h-512zM0,234h512v1h-512zM0,235h512v1h-512zM0,236h512v1h-512zM0,237h512v1h-512zM0,238h512v1h-512zM0,239h512v1h-512zM0,240h512v1h-512zM0,241h512v1h-512zM0,242h512v1h-512zM0,243h512v1h-512zM0,244h512v1h-512zM0,245h512v1h-512zM0,246h512v1h-512zM0,247h512v1h-512zM0,248h512v1h-512zM0,249h512v1h-512zM0,250h512v1h-512zM0,251h512v1h-512zM0,252h512v1h-512zM0,253h512v1h-512zM0,254h512v1h-512zM0,255h512v1h-512zM0,256h512v1h-512zM0,257h512v1h-512zM0,258h512v1h-512zM0,259h512v1h-512zM0,260h512v1h-512zM0,261h512v1h-512zM0,262h512v1h-512zM0,263h512v1h-512zM0,264h512v1h-512zM0,265h512v1h-512zM0,266h512v1h-512zM0,267h512v1h-512zM0,268h512v1h-512zM0,269h512v1h-512zM0,270h512v1h-512zM0,271h512v1h-512zM0,272h512v1h-512zM0,273h512v1h-512zM0,274h512v1h-512zM0,275h512v1h-512zM0,276h512v1h-512zM0,277h512v1h-512zM0,278h512v1h-512zM0,279h512v1h-512zM0,280h512v1h-512zM0,281h512v1h-512zM0,282h512v1h-512zM0,283h512v1h-512zM0,284h512v1h-512zM0,285h512v1h-512zM0,286h512v1h-512zM0,287h512v1h-512zM0,288h512v1h-512zM0,289h512v1h-512zM0,290h512v1h-512zM0,291h512v1h-512zM0,292h512v1h-512zM0,293h512v1h-512zM0,294h512v1h-512zM0,295h512v1h-512zM0,296h512v1h-512zM0,297h512v1h-512zM0,298h512v1h-512zM0,299h512v1h-512zM0,300h512v1h-512zM0,301h512v1h-512zM0,302h512v1h-512zM0,303h512v1h-512zM0,304h512v1h-512zM0,305h512v1h-512zM0,306h512v1h-512zM0,307h512v1h-512zM0,308h512v1h-512zM0,309h512v1h-512zM0,310h512v1h-512zM0,311h512v1h-512zM0,312h512v1h-512zM0,313h512v1h-512zM0,314h512v1h-512zM0,315h512v1h-512zM0,316h512v1h-512zM0,317h512v1h-512zM0,318h512v1h-512zM0,319h512v1h-512zM0,320h512v1h-512zM0,321h512v1h-512zM0,322h512v1h-512zM0,323h512v1h-512zM0,324h512v1h-512zM0,325h512v1h-512zM0,326h512v1h-512zM0,327h512v1h-512zM0,328h512v1h-512zM0,329h512v1h-512zM0,330h512v1h-512zM0,331h512v1h-512zM0,332h512v1h-512zM0,333h512v1h-512zM0,334h512v1h-512zM0,335h512v1h-512zM0,336h512v1h-512zM0,337h512v1h-512zM0,338h512v1h-512zM0,339h512v1h-512zM0,340h512v1h-512zM0,341h512v1h-512zM0,342h512v1h-512zM0,343h512v1h-512zM0,344h512v1h-512zM0,345h512v1h-512zM0,346h512v1h-512zM0,347h512v1h-512zM0,348h512v1h-512zM0,349h512v1h-512zM0,350h512v1h-512zM0,351h512v1h-512zM0,352h512v1h-512zM0,353h512v1h-512zM0,354h512v1h-512zM0,355h512v1h-512zM0,356h512v1h-512zM0,357h512v1h-512zM0,358h512v1h-512zM0,359h512v1h-512zM0,360h512v1h-512zM0,361h512v1h-512zM0,362h512v1h-512zM0,363h166v1h-166zM346,363h166v1h-166zM0,364h163v1h-163zM349,364h163v1h-163zM0,365h161v1h-161zM351,365h161v1h-161zM0,366h159v1h-159zM353,366h159v1h-159zM0,367h158v1h-158zM354,367h158v1h-158zM0,368h157v1h-157zM355,368h157v1h-157zM0,369h156v1h-156zM356,369h156v1h-156zM0,370h155v1h-155zM357,370h155v1h-155zM0,371h154v1h-154zM358,371h154v1h-154zM0,372h153v1h-153zM359,372h153v1h-153zM0,373h153v1h-153zM359,373h153v1h-153zM0,374h152v1h-152zM360,374h152v1h-152zM0,375h152v1h-152zM360,375h152v1h-152zM0,376h151v1h-151zM361,376h151v1h-151zM0,377h151v1h-151zM361,377h151v1h-151zM0,378h150v1h-150zM362,378h150v1h-150zM0,379h150v1h-150zM362,379h150v1h-150zM0,380h150v1h-150zM362,380h150v1h-150zM0,381h150v1h-150zM362,381h150v1h-150zM0,382h150v1h-150zM362,382h150v1h-150zM0,383h150v1h-150zM362,383h150v1h-150zM0,384h150v1h-150zM362,384h150v1h-150zM0,385h150v1h-150zM362,385h150v1h-150zM0,386h150v1h-150zM362,386h150v1h-150zM0,387h150v1h-150zM362,387h150v1h-150zM0,388h150v1h-150zM362,388h150v1h-150zM0,389h150v1h-150zM362,389h150v1h-150zM0,390h151v1h-151zM361,390h151v1h-151zM0,391h151v1h-151zM361,391h151v1h-151zM0,392h152v1h-152zM360,392h152v1h-152zM0,393h152v1h-152zM360,393h152v1h-152zM0,394h153v1h-153zM359,394h153v1h-153zM0,395h153v1h-153zM359,395h153v1h-153zM0,396h154v1h-154zM358,396h154v1h-154zM0,397h155v1h-155zM357,397h155v1h-155zM0,398h156v1h-156zM356,398h156v1h-156zM0,399h157v1h-157zM355,399h157v1h-157zM0,400h158v1h-158zM354,400h158v1h-158zM0,401h159v1h-159zM353,401h159v1h-159zM0,402h161v1h-161zM351,402h161v1h-161zM0,403h163v1h-163zM349,403h163v1h-163zM0,404h166v1h-166zM346,404h166v1h-166zM0,405h512v1h-512zM0,406h512v1h-512zM0,407h512v1h-512zM0,408h512v1h-512zM0,409h512v1h-512zM0,410h512v1h-512zM0,411h512v1h-512zM0,412h512v1h-512zM0,413h512v1h-512zM0,414h512v1h-512zM0,415h512v1h-512zM0,416h512v1h-512zM0,417h512v1h-512zM0,418h512v1h-512zM0,419h512v1h-512zM0,420h512v1h-512zM0,421h512v1h-512zM0,422h512v1h-512zM0,423h512v1h-512zM0,424h512v1h-512zM0,425h512v1h-512zM0,426h512v1h-512zM0,427h512v1h-512zM0,428h512v1h-512zM0,429h512v1h-512zM0,430h512v1h-512zM0,431h512v1h-512zM0,432h512v1h-512zM0,433h512v1h-512zM0,434h512v1h-512zM0,435h512v1h-512zM0,436h512v1h-512zM0,437h512v1h-512zM0,438h512v1h-512zM0,439h512v1h-512zM0,440h512v1h-512zM0,441h512v1h-512zM0,442h512v1h-512zM0,443h512v1h-512zM0,444h512v1h-512zM0,445h512v1h-512zM0,446h512v1h-512zM0,447h512v1h-512zM0,448h512v1h-512zM0,449h512v1h-512zM0,450h512v1h-512zM0,451h512v1h-512zM0,452h512v1h-512zM0,453h512v1h-512zM0,454h512v1h-512zM0,455h512v1h-512zM0,456h512v1h-512zM0,457h512v1h-512zM0,458h512v1h-512zM0,459h512v1h-512zM0,460h512v1h-512zM0,461h512v1h-512zM0,462h512v1h-512zM0,463h512v1h-512zM0,464h512v1h-512zM0,465h512v1h-512zM0,466h509v1h-509zM3,467h506v1h-506zM3,468h506v1h-506zM4,469h504v1h-504zM4,470h504v1h-504zM4,471h504v1h-504zM5,472h502v1h-502zM5,473h502v1h-502zM6,474h500v1h-500zM6,475h500v1h-500zM7,476h498v1h-498zM7,477h498v1h-498zM8,478h496v1h-496zM8,479h496v1h-496zM9,480h494v1h-494zM9,481h494v1h-494zM10,482h492v1h-492zM11,483h490v1h-490zM11,484h490v1h-490zM12,485h488v1h-488zM13,486h486v1h-486zM14,487h484v1h-484zM14,488h484v1h-484zM15,489h482v1h-482zM16,490h480v1h-480zM17,491h478v1h-478zM18,492h476v1h-476zM19,493h474v1h-474zM20,494h472v1h-472zM21,495h470v1h-470zM22,496h468v1h-468zM23,497h466v1h-466zM25,498h462v1h-462zM26,499h460v1h-460zM27,500h458v1h-458zM29,501h454v1h-454zM30,502h452v1h-452zM32,503h448v1h-448zM34,504h444v1h-444zM36,505h440v1h-440zM38,506h436v1h-436zM40,507h432v1h-432zM43,508h426v1h-426zM46,509h420v1h-420zM46,510h420v1h-420zM46,511h420v1h-420z"/></svg>