<svg xmlns="http://www.w3.org/2000/svg" viewBox="0 0 512 512" width="512" height="512"><path fill="#000" d="M246,0h20v1h-20zM246,1h20v1h-20zM246,2h20v1h-20zM244,3h24v1h-24zM243,4h26v1h-26zM242,5h28v1h-28zM241,6h30v1h-30zM240,7h32v1h-32zM239,8h34v1h-34zM239,9h34v1h-34zM238,10h36v1h-36zM238,11h37v1h-37zM237,12h38v1h-38zM237,13h38v1h-38zM236,14h40v1h-40zM236,15h40v1h-40zM236,16h40v1h-40zM236,17h40v1h-40zM236,18h40v1h-40zM236,19h40v1h-40zM236,20h40v1h-40zM236,21h40v1h-40zM236,22h40v1h-40zM236,23h40v1h-40zM236,24h40v1h-40zM236,25h40v1h-40zM236,26h40v1h-40zM236,27h40v1h-40zM236,28h40v1h-40zM236,29h40v1h-40zM236,30h40v1h-40zM236,31h40v1h-40zM236,32h40v1h-40zM236,33h40v1h-40zM236,34h40v1h-40zM236,35h40v1h-40zM236,36h40v1h-40zM236,37h40v1h-40zM236,38h40v1h-40zM236,39h40v1h-40zM236,40h40v1h-40zM236,41h40v1h-40zM236,42h40v1h-40zM236,43h40v1h-40zM236,44h40v1h-40zM236,45h40v1h-40zM236,46h40v1h-40zM236,47h40v1h-40zM236,48h40v1h-40zM236,49h40v1h-40zM236,50h40v1h-40zM236,51h40v1h-40zM236,52h40v1h-40zM236,53h40v1h-40zM236,54h40v1h-40zM236,55h40v1h-40zM236,56h40v1h-40zM236,57h40v1h-40zM236,58h40v1h-40zM236,59h40v1h-40zM236,60h40v1h-40zM236,61h40v1h-40zM236,62h40v1h-40zM236,63h40v1h-40zM236,64h40v1h-40zM236,65h40v1h-40zM236,66h40v1h-40zM236,67h40v1h-40zM236,68h40v1h-40zM236,69h40v1h-40zM236,70h40v1h-40zM236,71h40v1h-40zM236,72h40v1h-40zM236,73h40v1h-40zM236,74h40v1h-40zM236,75h40v1h-40zM236,76h40v1h-40zM236,77h40v1h-40zM236,78h40v1h-40zM236,79h40v1h-40zM236,80h40v1h-40zM236,81h40v1h-40zM236,82h40v1h-40zM236,83h40v1h-40zM236,84h40v1h-40zM236,85h40v1h-40zM236,86h40v1h-40zM236,87h40v1h-40zM236,88h40v1h-40zM236,89h40v1h-40zM236,90h40v1h-40zM236,91h40v1h-40zM236,92h40v1h-40zM236,93h40v1h-40zM236,94h40v1h-40zM236,95h40v1h-40zM236,96h40v1h-40zM236,97h40v1h-40zM236,98h40v1h-40zM236,99h40v1h-40zM236,100h40v1h-40zM236,101h40v1h-40zM236,102h40v1h-40zM236,103h40v1h-40zM236,104h40v1h-40zM236,105h40v1h-40zM236,106h40v1h-40zM236,107h40v1h-40zM236,108h40v1h-40zM236,109h40v1h-40zM236,110h40v1h-40zM236,111h40v1h-40zM236,112h40v1h-40zM236,113h40v1h-40zM236,114h40v1h-40zM236,115h40v1h-40zM236,116h40v1h-40zM236,117h40v1h-40zM236,118h40v1h-40zM236,119h40v1h-40zM236,120h40v1h-40zM236,121h40v1h-40zM236,122h40v1h-40zM236,123h40v1h-40zM236,124h40v1h-40zM236,125h40v1h-40zM236,126h40v1h-40zM236,127h40v1h-40zM236,128h40v1h-40zM236,129h40v1h-40zM236,130h40v1h-40zM236,131h40v1h-40zM236,132h40v1h-40zM236,133h40v1h-40zM236,134h40v1h-40zM236,135h40v1h-40zM236,136h40v1h-40zM236,137h40v1h-40zM236,138h40v1h-40zM236,139h40v1h-40zM236,140h40v1h-40zM236,141h40v1h-40zM236,142h40v1h-40zM236,143h40v1h-40zM236,144h40v1h-40zM236,145h40v1h-40zM236,146h40v1h-40zM236,147h40v1h-40zM236,148h40v1h-40zM236,149h40v1h-40zM236,150h40v1h-40zM236,151h40v1h-40zM236,152h40v1h-40zM236,153h40v1h-40zM236,154h40v1h-40zM236,155h40v1h-40zM236,156h40v1h-40zM236,157h40v1h-40zM236,158h40v1h-40zM236,159h40v1h-40zM236,160h40v1h-40zM236,161h40v1h-40zM236,162h40v1h-40zM236,163h40v1h-40zM236,164h40v1h-40zM236,165h40v1h-40zM236,166h40v1h-40zM236,167h40v1h-40zM236,168h40v1h-40zM236,169h40v1h-40zM236,170h40v1h-40zM236,171h40v1h-40zM236,172h40v1h-40zM236,173h40v1h-40zM236,174h40v1h-40zM236,175h40v1h-40zM236,176h40v1h-40zM236,177h40v1h-40zM236,178h40v1h-40zM236,179h40v1h-40zM236,180h40v1h-40zM236,181h40v1h-40zM236,182h40v1h-40zM236,183h40v1h-40zM236,184h40v1h-40zM236,185h40v1h-40zM236,186h40v1h-40zM236,187h40v1h-40zM236,188h40v1h-40zM236,189h40v1h-40zM236,190h40v1h-40zM236,191h40v1h-40zM236,192h40v1h-40zM236,193h40v1h-40zM236,194h40v1h-40zM236,195h40v1h-40zM236,196h40v1h-40zM236,197h40v1h-40zM236,198h40v1h-40zM236,199h40v1h-40zM236,200h40v1h-40zM236,201h40v1h-40zM236,202h40v1h-40zM236,203h40v1h-40zM236,204h40v1h-40zM236,205h40v1h-40zM236,206h40v1h-40zM236,207h40v1h-40zM236,208h40v1h-40zM236,209h40v1h-40zM236,210h40v1h-40zM236,211h40v1h-40zM236,212h40v1h-40zM236,213h40v1h-40zM236,214h40v1h-40zM236,215h40v1h-40zM236,216h40v1h-40zM236,217h40v1h-40zM236,218h40v1h-40zM236,219h40v1h-40zM236,220h40v1h-40zM236,221h40v1h-40zM236,222h40v1h-40zM236,223h40v1h-40zM236,224h40v1h-40zM236,225h40v1h-40zM236,226h40v1h-40zM236,227h40v1h-40zM236,228h40v1h-40zM236,229h40v1h-40zM236,230h40v1h-40zM236,231h40v1h-40zM236,232h40v1h-40zM236,233h40v1h-40zM236,234h40v1h-40zM236,235h40v1h-40zM236,236h40v1h-40zM236,237h40v1h-40zM236,238h40v1h-40zM236,239h40v1h-40zM236,240h40v1h-40zM236,241h40v1h-40zM236,242h40v1h-40zM236,243h40v1h-40zM236,244h40v1h-40zM236,245h40v1h-40zM236,246h40v1h-40zM236,247h40v1h-40zM236,248h40v1h-40zM236,249h40v1h-40zM236,250h40v1h-40zM236,251h40v1h-40zM236,252h40v1h-40zM236,253h40v1h-40zM236,254h40v1h-40zM236,255h40v1h-40zM236,256h40v1h-40zM236,257h40v1h-40zM236,258h40v1h-40zM236,259h40v1h-40zM236,260h40v1h-40zM236,261h40v1h-40zM236,262h40v1h-40zM236,263h40v1h-40zM236,264h40v1h-40zM236,265h40v1h-40zM236,266h40v1h-40zM236,267h40v1h-40zM236,268h40v1h-40zM236,269h40v1h-40zM236,270h40v1h-40zM236,271h40v1h-40zM236,272h40v1h-40zM236,273h40v1h-40zM236,274h40v1h-40zM236,275h40v1h-40zM236,276h40v1h-40zM236,277h40v1h-40zM236,278h40v1h-40zM236,279h40v1h-40zM236,280h40v1h-40zM236,281h40v1h-40zM142,282h1v1h-1zM236,282h40v1h-40zM369,282h1v1h-1zM137,283h12v1h-12zM236,283h40v1h-40zM363,283h12v1h-12zM134,284h18v1h-18zM236,284h40v1h-40zM360,284h18v1h-18zM132,285h21v1h-21zM236,285h40v1h-40zM359,285h21v1h-21zM131,286h24v1h-24zM236,286h40v1h-40zM357,286h24v1h-24zM130,287h26v1h-26zM236,287h40v1h-40zM356,287h26v1h-26zM128,288h29v1h-29zM236,288h40v1h-40zM355,288h29v1h-29zM128,289h30v1h-30zM236,289h40v1h-40zM354,289h31v1h-31zM127,290h32v1h-32zM236,290h40v1h-40zM353,290h32v1h-32zM126,291h34v1h-34zM236,291h40v1h-40zM352,291h34v1h-34zM125,292h36v1h-36zM236,292h40v1h-40zM351,292h36v1h-36zM125,293h37v1h-37zM236,293h40v1h-40zM350,293h37v1h-37zM124,294h39v1h-39zM236,294h40v1h-40zM349,294h39v1h-39zM124,295h40v1h-40zM236,295h40v1h-40zM348,295h40v1h-40zM124,296h41v1h-41zM236,296h40v1h-40zM347,296h41v1h-41zM123,297h43v1h-43zM236,297h40v1h-40zM346,297h43v1h-43zM123,298h44v1h-44zM236,298h40v1h-40zM345,298h44v1h-44zM123,299h45v1h-45zM236,299h40v1h-40zM344,299h45v1h-45zM123,300h46v1h-46zM236,300h40v1h-40zM343,300h46v1h-46zM123,301h47v1h-47zM236,301h40v1h-40zM342,301h47v1h-47zM122,302h49v1h-49zM236,302h40v1h-40zM341,302h49v1h-49zM123,303h49v1h-49zM236,303h40v1h-40zM340,303h49v1h-49zM123,304h50v1h-50zM236,304h40v1h-40zM339,304h50v1h-50zM123,305h51v1h-51zM236,305h40v1h-40zM338,305h51v1h-51zM123,306h52v1h-52zM236,306h40v1h-40zM337,306h52v1h-52zM123,307h53v1h-53zM236,307h40v1h-40zM336,307h53v1h-53zM123,308h54v1h-54zM236,308h40v1h-40zM335,308h54v1h-54zM124,309h54v1h-54zM236,309h40v1h-40zM334,309h54v1h-54zM124,310h55v1h-55zM236,310h40v1h-40zM333,310h55v1h-55zM124,311h56v1h-56zM236,311h40v1h-40zM332,311h56v1h-56zM125,312h56v1h-56zM236,312h40v1h-40zM331,312h56v1h-56zM126,313h56v1h-56zM236,313h40v1h-40zM330,313h56v1h-56zM126,314h57v1h-57zM236,314h40v1h-40zM329,314h57v1h-57zM127,315h57v1h-57zM236,315h40v1h-40zM328,315h57v1h-57zM128,316h57v1h-57zM236,316h40v1h-40zM327,316h57v1h-57zM129,317h57v1h-57zM236,317h40v1h-40zM326,317h57v1h-57zM130,318h57v1h-57zM236,318h40v1h-40zM325,318h57v1h-57zM131,319h57v1h-57zM236,319h40v1h-40zM324,319h57v1h-57zM132,320h57v1h-57zM236,320h40v1h-40zM323,320h57v1h-57zM133,321h57v1h-57zM236,321h40v1h-40zM322,321h57v1h-57zM134,322h57v1h-57zM236,322h40v1h-40zM321,322h57v1h-57zM135,323h57v1h-57zM236,323h40v1h-40zM320,323h57v1h-57zM136,324h57v1h-57zM236,324h40v1h-40zM319,324h57v1h-57zM137,325h57v1h-57zM236,325h40v1h-40zM318,325h57v1h-57zM138,326h57v1h-57zM236,326h40v1h-40zM317,326h57v1h-57zM139,327h57v1h-57zM236,327h40v1h-40zM316,327h57v1h-57zM140,328h57v1h-57zM236,328h40v1h-40zM315,328h57v1h-57zM141,329h57v1h-57zM236,329h40v1h-40zM314,329h57v1h-57zM142,330h57v1h-57zM236,330h40v1h-40zM313,330h57v1h-57zM143,331h57v1h-57zM236,331h40v1h-40zM312,331h57v1h-57zM144,332h57v1h-57zM236,332h40v1h-40zM311,332h57v1h-57zM145,333h57v1h-57zM236,333h40v1h-40zM310,333h57v1h-57zM146,334h57v1h-57zM236,334h40v1h-40zM309,334h57v1h-57zM147,335h57v1h-57zM236,335h40v1h-40zM308,335h57v1h-57zM148,336h57v1h-57zM236,336h40v1h-40zM307,336h57v1h-57zM149,337h57v1h-57zM236,337h40v1h-40zM306,337h57v1h-57zM150,338h57v1h-57zM236,338h40v1h-40zM305,338h57v1h-57zM151,339h57v1h-57zM236,339h40v1h-40zM304,339h57v1h-57zM152,340h57v1h-57zM236,340h40v1h-40zM303,340h57v1h-57zM153,341h57v1h-57zM236,341h40v1h-40zM302,341h57v1h-57zM154,342h57v1h-57zM236,342h40v1h-40zM301,342h57v1h-57zM155,343h57v1h-57zM236,343h40v1h-40zM300,343h57v1h-57zM156,344h57v1h-57zM236,344h40v1h-40zM299,344h57v1h-57zM157,345h57v1h-57zM236,345h40v1h-40zM298,345h57v1h-57zM158,346h57v1h-57zM236,346h40v1h-40zM297,346h57v1h-57zM159,347h57v1h-57zM236,347h40v1h-40zM296,347h57v1h-57zM160,348h57v1h-57zM236,348h40v1h-40zM295,348h57v1h-57zM161,349h57v1h-57zM236,349h40v1h-40zM294,349h57v1h-57zM162,350h57v1h-57zM236,350h40v1h-40zM293,350h57v1h-57zM163,351h57v1h-57zM236,351h40v1h-40zM292,351h57v1h-57zM164,352h57v1h-57zM236,352h40v1h-40zM291,352h57v1h-57zM165,353h57v1h-57zM236,353h40v1h-40zM290,353h57v1h-57zM166,354h57v1h-57zM236,354h40v1h-40zM289,354h57v1h-57zM167,355h57v1h-57zM236,355h40v1h-40zM288,355h57v1h-57zM168,356h57v1h-57zM236,356h40v1h-40zM287,356h57v1h-57zM169,357h57v1h-57zM236,357h40v1h-40zM286,357h57v1h-57zM170,358h57v1h-57zM236,358h40v1h-40zM285,358h57v1h-57zM171,359h57v1h-57zM236,359h40v1h-40zM284,359h57v1h-57zM172,360h57v1h-57zM236,360h40v1h-40zM283,360h57v1h-57zM173,361h57v1h-57zM236,361h40v1h-40zM282,361h57v1h-57zM174,362h57v1h-57zM236,362h40v1h-40zM281,362h57v1h-57zM175,363h162v1h-162zM176,364h160v1h-160zM177,365h158v1h-158zM178,366h156v1h-156zM179,367h154v1h-154zM180,368h152v1h-152zM181,369h150v1h-150zM182,370h148v1h-148zM183,371h146v1h-146zM184,372h144v1h-144zM185,373h142v1h-142zM186,374h140v1h-140zM187,375h138v1h-138zM188,376h136v1h-136zM189,377h134v1h-134zM190,378h132v1h-132zM191,379h130v1h-130zM192,380h128v1h-128zM193,381h126v1h-126zM194,382h124v1h-124zM195,383h122v1h-122zM196,384h120v1h-120zM197,385h118v1h-118zM198,386h116v1h-116zM199,387h114v1h-114zM200,388h112v1h-112zM201,389h110v1h-110zM202,390h108v1h-108zM203,391h106v1h-106zM204,392h104v1h-104zM205,393h102v1h-102zM206,394h100v1h-100zM207,395h98v1h-98zM14,396h12v1h-12zM208,396h96v1h-96zM486,396h12v1h-12zM12,397h16v1h-16zM209,397h94v1h-94zM484,397h16v1h-16zM10,398h20v1h-20zM210,398h92v1h-92zM482,398h20v1h-20zM8,399h24v1h-24zM211,399h90v1h-90zM480,399h24v1h-24zM7,400h26v1h-26zM212,400h88v1h-88zM479,400h26v1h-26zM6,401h28v1h-28zM213,401h86v1h-86zM478,401h28v1h-28zM5,402h30v1h-30zM214,402h84v1h-84zM477,402h30v1h-30zM4,403h32v1h-32zM215,403h82v1h-82zM476,403h32v1h-32zM3,404h34v1h-34zM216,404h80v1h-80zM475,404h34v1h-34zM3,405h34v1h-34zM217,405h78v1h-78zM475,405h34v1h-34zM0,406h38v1h-38zM218,406h76v1h-76zM474,406h38v1h-38zM0,407h39v1h-39zM219,407h74v1h-74zM474,407h38v1h-38zM0,408h39v1h-39zM220,408h72v1h-72zM473,408h39v1h-39zM0,409h39v1h-39zM221,409h70v1h-70zM473,409h39v1h-39zM0,410h40v1h-40zM222,410h68v1h-68zM472,410h40v1h-40zM0,411h40v1h-40zM223,411h66v1h-66zM472,411h40v1h-40zM0,412h40v1h-40zM224,412h64v1h-64zM472,412h40v1h-40zM0,413h40v1h-40zM225,413h62v1h-62zM472,413h40v1h-40zM0,414h40v1h-40zM226,414h60v1h-60zM472,414h40v1h-40zM0,415h40v1h-40zM227,415h58v1h-58zM472,415h40v1h-40zM0,416h40v1h-40zM228,416h56v1h-56zM472,416h40v1h-40zM0,417h40v1h-40zM229,417h54v1h-54zM472,417h40v1h-40zM0,418h40v1h-40zM230,418h52v1h-52zM472,418h40v1h-40zM0,419h40v1h-40zM231,419h50v1h-50zM472,419h40v1h-40zM0,420h40v1h-40zM232,420h48v1h-48zM472,420h40v1h-40zM0,421h40v1h-40zM233,421h46v1h-46zM472,421h40v1h-40zM0,422h40v1h-40zM234,422h44v1h-44zM472,422h40v1h-40zM0,423h40v1h-40zM235,423h42v1h-42zM472,423h40v1h-40zM0,424h40v1h-40zM236,424h40v1h-40zM472,424h40v1h-40zM0,425h40v1h-40zM237,425h38v1h-38zM472,425h40v1h-40zM0,426h40v1h-40zM238,426h36v1h-36zM472,426h40v1h-40zM0,427h40v1h-40zM239,427h34v1h-34zM472,427h40v1h-40zM0,428h40v1h-40zM240,428h32v1h-32zM472,428h40v1h-40zM0,429h40v1h-40zM241,429h30v1h-30zM472,429h40v1h-40zM0,430h40v1h-40zM242,430h28v1h-28zM472,430h40v1h-40zM0,431h40v1h-40zM243,431h26v1h-26zM472,431h40v1h-40zM0,432h40v1h-40zM244,432h24v1h-24zM472,432h40v1h-40zM0,433h40v1h-40zM246,433h20v1h-20zM472,433h40v1h-40zM0,434h40v1h-40zM248,434h16v1h-16zM472,434h40v1h-40zM0,435h40v1h-40zM250,435h12v1h-12zM472,435h40v1h-40zM0,436h40v1h-40zM472,436h40v1h-40zM0,437h40v1h-40zM472,437h40v1h-40zM0,438h40v1h-40zM472,438h40v1h-40zM0,439h40v1h-40zM472,439h40v1h-40zM0,440h40v1h-40zM472,440h40v1h-40zM0,441h40v1h-40zM472,441h40v1h-40zM0,442h40v1h-40zM472,442h40v1h-40zM0,443h40v1h-40zM472,443h40v1h-40zM0,444h40v1h-40zM472,444h40v1h-40zM0,445h40v1h-40zM472,445h40v1h-40zM0,446h40v1h-40zM472,446h40v1h-40zM0,447h40v1h-40zM472,447h40v1h-40zM0,448h40v1h-40zM472,448h40v1h-40zM0,449h40v1h-40zM472,449h40v1h-40zM0,450h40v1h-40zM472,450h40v1h-40zM0,451h40v1h-40zM472,451h40v1h-40zM0,452h40v1h-40zM472,452h40v1h-40zM0,453h40v1h-40zM472,453h40v1h-40zM0,454h40v1h-40zM472,454h40v1h-40zM0,455h40v1h-40zM472,455h40v1h-40zM0,456h40v1h-40zM472,456h40v1h-40zM0,457h40v1h-40zM472,457h40v1h-40zM0,458h40v1h-40zM472,458h40v1h-40zM0,459h40v1h-40zM472,459h40v1h-40zM0,460h40v1h-40zM472,460h40v1h-40zM0,461h40v1h-40zM472,461h40v1h-40zM0,462h40v1h-40zM472,462h40v1h-40zM0,463h40v1h-40zM472,463h40v1h-40zM0,464h40v1h-40zM472,464h40v1h-40zM0,465h40v1h-40zM472,465h40v1h-40zM0,466h40v1h-40zM472,466h40v1h-40zM0,467h40v1h-40zM472,467h40v1h-40zM0,468h40v1h-40zM472,468h40v1h-40zM0,469h40v1h-40zM472,469h40v1h-40zM0,470h40v1h-40zM472,470h40v1h-40zM0,471h40v1h-40zM472,471h40v1h-40zM0,472h512v1h-512zM0,473h512v1h-512zM0,474h512v1h-512zM0,475h512v1h-512zM0,476h512v1h-512zM0,477h512v1h-512zM0,478h512v1h-512zM0,479h512v1h-512zM0,480h512v1h-512zM0,481h512v1h-512zM0,482h512v1h-512zM0,483h512v1h-512zM0,484h512v1h-512zM0,485h512v1h-512zM0,486h512v1h-512zM0,487h512v1h-512zM0,488h512v1h-512zM0,489h512v1h-512zM0,490h512v1h-512zM0,491h512v1h-512zM0,492h512v1h-512zM0,493h512v1h-512zM0,494h512v1h-512zM0,495h512v1h-512zM0,496h512v1h-512zM0,497h512v1h-512zM0,498h512v1h-512zM0,499h512v1h-512zM0,500h512v1h-512zM0,501h512v1h-512zM3,502h506v1h-506zM3,503h506v1h-506zM4,504h504v1h-504zM5,505h502v1h-502zM6,506h500v1h-500zM7,507h498v1h-498zM8,508h496v1h-496zM10,509h492v1h-492zM10,510h492v1h-492zM10,511h492v1h-492z"/></svg>