<?xml version="1.0" encoding="UTF-8"?>
<svg xmlns="http://www.w3.org/2000/svg" viewBox="0 0 512 512" width="512" height="512"><path fill="#000" d="M218,0h76v1h-76zM218,1h76v1h-76zM218,2h76v1h-76zM212,3h89v1h-89zM206,4h100v1h-100zM201,5h110v1h-110zM197,6h118v1h-118zM193,7h126v1h-126zM189,8h134v1h-134zM185,9h142v1h-142zM182,10h148v1h-148zM179,11h154v1h-154zM176,12h160v1h-160zM173,13h166v1h-166zM170,14h172v1h-172zM167,15h178v1h-178zM165,16h183v1h-183zM162,17h188v1h-188zM160,18h193v1h-193zM157,19h198v1h-198zM155,20h202v1h-202zM152,21h207v1h-207zM150,22h212v1h-212zM148,23h216v1h-216zM146,24h220v1h-220zM144,25h224v1h-224zM142,26h228v1h-228zM140,27h232v1h-232zM138,28h236v1h-236zM136,29h240v1h-240zM134,30h244v1h-244zM132,31h248v1h-248zM131,32h250v1h-250zM129,33h254v1h-254zM127,34h258v1h-258zM125,35h110v1h-110zM277,35h110v1h-110zM124,36h103v1h-103zM285,36h103v1h-103zM122,37h98v1h-98zM292,37h98v1h-98zM120,38h94v1h-94zM298,38h94v1h-94zM119,39h90v1h-90zM303,39h90v1h-90zM117,40h88v1h-88zM307,40h88v1h-88zM116,41h84v1h-84zM312,41h84v1h-84zM114,42h83v1h-83zM315,42h83v1h-83zM113,43h80v1h-80zM319,43h80v1h-80zM111,44h79v1h-79zM322,44h79v1h-79zM110,45h77v1h-77zM325,45h77v1h-77zM108,46h76v1h-76zM328,46h76v1h-76zM107,47h74v1h-74zM331,47h74v1h-74zM106,48h72v1h-72zM334,48h72v1h-72zM104,49h72v1h-72zM336,49h72v1h-72zM103,50h70v1h-70zM339,50h70v1h-70zM102,51h69v1h-69zM341,51h69v1h-69zM100,52h68v1h-68zM344,52h68v1h-68zM99,53h67v1h-67zM346,53h67v1h-67zM98,54h66v1h-66zM348,54h66v1h-66zM97,55h65v1h-65zM350,55h66v1h-66zM95,56h65v1h-65zM353,56h64v1h-64zM94,57h64v1h-64zM354,57h64v1h-64zM93,58h63v1h-63zM356,58h63v1h-63zM92,59h62v1h-62zM358,59h62v1h-62zM90,60h62v1h-62zM360,60h62v1h-62zM89,61h61v1h-61zM362,61h61v1h-61zM88,62h60v1h-60zM364,62h60v1h-60zM87,63h59v1h-59zM366,63h59v1h-59zM86,64h59v1h-59zM367,64h59v1h-59zM85,65h58v1h-58zM369,65h58v1h-58zM83,66h58v1h-58zM371,66h58v1h-58zM82,67h58v1h-58zM372,67h58v1h-58zM81,68h57v1h-57zM374,68h57v1h-57zM80,69h56v1h-56zM376,69h56v1h-56zM79,70h56v1h-56zM377,70h56v1h-56zM78,71h55v1h-55zM379,71h55v1h-55zM77,72h55v1h-55zM380,72h55v1h-55zM76,73h54v1h-54zM382,73h54v1h-54zM75,74h54v1h-54zM383,74h54v1h-54zM74,75h54v1h-54zM384,75h54v1h-54zM73,76h53v1h-53zM386,76h53v1h-53zM72,77h53v1h-53zM387,77h53v1h-53zM71,78h52v1h-52zM389,78h52v1h-52zM70,79h52v1h-52zM390,79h52v1h-52zM69,80h52v1h-52zM391,80h52v1h-52zM68,81h52v1h-52zM393,81h51v1h-51zM67,82h51v1h-51zM394,82h51v1h-51zM66,83h51v1h-51zM395,83h50v1h-50zM66,84h50v1h-50zM396,84h50v1h-50zM65,85h49v1h-49zM398,85h49v1h-49zM64,86h49v1h-49zM399,86h49v1h-49zM63,87h49v1h-49zM400,87h49v1h-49zM62,88h49v1h-49zM401,88h49v1h-49zM61,89h49v1h-49zM402,89h49v1h-49zM60,90h49v1h-49zM403,90h49v1h-49zM60,91h48v1h-48zM404,91h48v1h-48zM59,92h47v1h-47zM406,92h47v1h-47zM58,93h47v1h-47zM407,93h47v1h-47zM57,94h47v1h-47zM408,94h47v1h-47zM56,95h47v1h-47zM409,95h47v1h-47zM55,96h47v1h-47zM410,96h47v1h-47zM55,97h46v1h-46zM411,97h46v1h-46zM54,98h46v1h-46zM412,98h46v1h-46zM53,99h46v1h-46zM413,99h46v1h-46zM52,100h46v1h-46zM414,100h46v1h-46zM52,101h45v1h-45zM415,101h45v1h-45zM51,102h45v1h-45zM416,102h45v1h-45zM50,103h45v1h-45zM417,103h45v1h-45zM49,104h45v1h-45zM418,104h45v1h-45zM49,105h44v1h-44zM419,105h44v1h-44zM48,106h44v1h-44zM420,106h44v1h-44zM47,107h45v1h-45zM420,107h45v1h-45zM47,108h44v1h-44zM421,108h45v1h-45zM46,109h44v1h-44zM422,109h44v1h-44zM45,110h44v1h-44zM423,110h44v1h-44zM44,111h44v1h-44zM424,111h44v1h-44zM44,112h43v1h-43zM425,112h43v1h-43zM43,113h43v1h-43zM426,113h43v1h-43zM42,114h43v1h-43zM427,114h43v1h-43zM42,115h43v1h-43zM427,115h43v1h-43zM41,116h43v1h-43zM428,116h43v1h-43zM40,117h43v1h-43zM429,117h43v1h-43zM40,118h42v1h-42zM430,118h42v1h-42zM39,119h42v1h-42zM431,119h42v1h-42zM38,120h43v1h-43zM431,120h42v1h-42zM38,121h42v1h-42zM432,121h42v1h-42zM37,122h42v1h-42zM433,122h42v1h-42zM37,123h41v1h-41zM434,123h41v1h-41zM36,124h42v1h-42zM434,124h42v1h-42zM35,125h42v1h-42zM435,125h42v1h-42zM35,126h41v1h-41zM436,126h41v1h-41zM34,127h42v1h-42zM436,127h42v1h-42zM34,128h41v1h-41zM437,128h41v1h-41zM33,129h41v1h-41zM438,129h41v1h-41zM33,130h40v1h-40zM439,130h40v1h-40zM32,131h41v1h-41zM439,131h41v1h-41zM31,132h41v1h-41zM440,132h41v1h-41zM31,133h40v1h-40zM441,133h40v1h-40zM30,134h41v1h-41zM441,134h41v1h-41zM30,135h40v1h-40zM442,135h40v1h-40zM29,136h40v1h-40zM443,136h40v1h-40zM29,137h40v1h-40zM443,137h40v1h-40zM28,138h40v1h-40zM444,138h40v1h-40zM28,139h40v1h-40zM444,139h40v1h-40zM27,140h40v1h-40zM445,140h40v1h-40zM27,141h39v1h-39zM446,141h39v1h-39zM26,142h40v1h-40zM446,142h40v1h-40zM26,143h39v1h-39zM447,143h39v1h-39zM25,144h40v1h-40zM447,144h40v1h-40zM25,145h39v1h-39zM448,145h39v1h-39zM24,146h39v1h-39zM449,146h39v1h-39zM24,147h39v1h-39zM449,147h39v1h-39zM23,148h39v1h-39zM450,148h39v1h-39zM23,149h39v1h-39zM450,149h39v1h-39zM22,150h39v1h-39zM451,150h39v1h-39zM22,151h39v1h-39zM451,151h39v1h-39zM21,152h39v1h-39zM452,152h39v1h-39zM21,153h39v1h-39zM338,153h6v1h-6zM452,153h39v1h-39zM21,154h38v1h-38zM335,154h13v1h-13zM453,154h38v1h-38zM20,155h39v1h-39zM332,155h18v1h-18zM453,155h39v1h-39zM20,156h38v1h-38zM330,156h21v1h-21zM454,156h38v1h-38zM19,157h39v1h-39zM327,157h26v1h-26zM454,157h39v1h-39zM19,158h38v1h-38zM325,158h29v1h-29zM455,158h38v1h-38zM18,159h38v1h-38zM322,159h33v1h-33zM455,159h38v1h-38zM18,160h38v1h-38zM320,160h35v1h-35zM456,160h38v1h-38zM18,161h38v1h-38zM317,161h39v1h-39zM456,161h38v1h-38zM17,162h38v1h-38zM315,162h42v1h-42zM457,162h38v1h-38zM17,163h38v1h-38zM312,163h45v1h-45zM457,163h38v1h-38zM17,164h37v1h-37zM310,164h48v1h-48zM458,164h37v1h-37zM16,165h38v1h-38zM307,165h51v1h-51zM458,165h38v1h-38zM16,166h37v1h-37zM305,166h53v1h-53zM459,166h37v1h-37zM15,167h38v1h-38zM302,167h56v1h-56zM459,167h38v1h-38zM15,168h37v1h-37zM300,168h59v1h-59zM460,168h37v1h-37zM15,169h37v1h-37zM297,169h62v1h-62zM460,169h37v1h-37zM14,170h38v1h-38zM295,170h64v1h-64zM460,170h38v1h-38zM14,171h37v1h-37zM292,171h67v1h-67zM461,171h37v1h-37zM14,172h37v1h-37zM290,172h69v1h-69zM461,172h37v1h-37zM13,173h37v1h-37zM287,173h72v1h-72zM462,173h37v1h-37zM13,174h37v1h-37zM285,174h73v1h-73zM462,174h37v1h-37zM13,175h37v1h-37zM282,175h76v1h-76zM462,175h37v1h-37zM12,176h37v1h-37zM280,176h78v1h-78zM463,176h37v1h-37zM12,177h37v1h-37zM277,177h80v1h-80zM463,177h37v1h-37zM12,178h36v1h-36zM275,178h82v1h-82zM464,178h36v1h-36zM11,179h37v1h-37zM272,179h85v1h-85zM464,179h37v1h-37zM11,180h37v1h-37zM270,180h86v1h-86zM464,180h37v1h-37zM11,181h36v1h-36zM267,181h89v1h-89zM465,181h36v1h-36zM10,182h37v1h-37zM265,182h90v1h-90zM465,182h37v1h-37zM10,183h37v1h-37zM262,183h93v1h-93zM465,183h37v1h-37zM10,184h36v1h-36zM260,184h95v1h-95zM466,184h36v1h-36zM9,185h37v1h-37zM257,185h97v1h-97zM466,185h37v1h-37zM9,186h37v1h-37zM255,186h99v1h-99zM466,186h37v1h-37zM9,187h36v1h-36zM252,187h101v1h-101zM467,187h36v1h-36zM9,188h36v1h-36zM250,188h103v1h-103zM467,188h36v1h-36zM8,189h37v1h-37zM247,189h106v1h-106zM467,189h37v1h-37zM8,190h36v1h-36zM245,190h107v1h-107zM468,190h36v1h-36zM8,191h36v1h-36zM242,191h110v1h-110zM468,191h36v1h-36zM8,192h36v1h-36zM240,192h111v1h-111zM468,192h36v1h-36zM7,193h36v1h-36zM237,193h114v1h-114zM469,193h36v1h-36zM7,194h36v1h-36zM235,194h116v1h-116zM469,194h36v1h-36zM7,195h36v1h-36zM232,195h118v1h-118zM469,195h36v1h-36zM7,196h36v1h-36zM230,196h120v1h-120zM469,196h36v1h-36zM6,197h36v1h-36zM227,197h122v1h-122zM470,197h36v1h-36zM6,198h36v1h-36zM225,198h124v1h-124zM470,198h36v1h-36zM6,199h36v1h-36zM222,199h127v1h-127zM470,199h36v1h-36zM6,200h35v1h-35zM220,200h128v1h-128zM471,200h35v1h-35zM5,201h36v1h-36zM217,201h131v1h-131zM471,201h36v1h-36zM5,202h36v1h-36zM215,202h132v1h-132zM471,202h36v1h-36zM5,203h36v1h-36zM212,203h135v1h-135zM471,203h36v1h-36zM5,204h36v1h-36zM211,204h136v1h-136zM471,204h36v1h-36zM5,205h35v1h-35zM209,205h92v1h-92zM307,205h39v1h-39zM472,205h35v1h-35zM4,206h36v1h-36zM208,206h91v1h-91zM307,206h39v1h-39zM472,206h36v1h-36zM4,207h36v1h-36zM207,207h89v1h-89zM307,207h38v1h-38zM472,207h36v1h-36zM4,208h36v1h-36zM206,208h88v1h-88zM307,208h38v1h-38zM472,208h36v1h-36zM4,209h35v1h-35zM205,209h86v1h-86zM307,209h38v1h-38zM473,209h35v1h-35zM4,210h35v1h-35zM205,210h84v1h-84zM307,210h37v1h-37zM473,210h35v1h-35zM3,211h36v1h-36zM204,211h82v1h-82zM306,211h38v1h-38zM473,211h35v1h-35zM3,212h36v1h-36zM203,212h81v1h-81zM306,212h37v1h-37zM473,212h36v1h-36zM3,213h36v1h-36zM203,213h78v1h-78zM305,213h38v1h-38zM473,213h36v1h-36zM3,214h35v1h-35zM203,214h76v1h-76zM305,214h38v1h-38zM474,214h35v1h-35zM3,215h35v1h-35zM202,215h74v1h-74zM305,215h37v1h-37zM474,215h35v1h-35zM3,216h35v1h-35zM202,216h72v1h-72zM304,216h38v1h-38zM474,216h35v1h-35zM3,217h35v1h-35zM201,217h70v1h-70zM304,217h37v1h-37zM474,217h35v1h-35zM0,218h38v1h-38zM201,218h68v1h-68zM303,218h38v1h-38zM474,218h38v1h-38zM0,219h38v1h-38zM201,219h65v1h-65zM303,219h38v1h-38zM474,219h38v1h-38zM0,220h37v1h-37zM200,220h64v1h-64zM303,220h37v1h-37zM475,220h37v1h-37zM0,221h37v1h-37zM200,221h61v1h-61zM302,221h38v1h-38zM475,221h37v1h-37zM0,222h37v1h-37zM199,222h60v1h-60zM302,222h37v1h-37zM475,222h37v1h-37zM0,223h37v1h-37zM199,223h57v1h-57zM301,223h38v1h-38zM475,223h37v1h-37zM0,224h37v1h-37zM199,224h55v1h-55zM301,224h38v1h-38zM475,224h37v1h-37zM0,225h37v1h-37zM198,225h53v1h-53zM301,225h37v1h-37zM475,225h37v1h-37zM0,226h37v1h-37zM198,226h51v1h-51zM300,226h38v1h-38zM475,226h37v1h-37zM0,227h36v1h-36zM197,227h49v1h-49zM300,227h37v1h-37zM476,227h36v1h-36zM0,228h36v1h-36zM197,228h47v1h-47zM299,228h38v1h-38zM476,228h36v1h-36zM0,229h36v1h-36zM197,229h44v1h-44zM299,229h38v1h-38zM476,229h36v1h-36zM0,230h36v1h-36zM196,230h43v1h-43zM299,230h37v1h-37zM476,230h36v1h-36zM0,231h36v1h-36zM196,231h40v1h-40zM298,231h38v1h-38zM476,231h36v1h-36zM0,232h36v1h-36zM195,232h39v1h-39zM298,232h37v1h-37zM476,232h36v1h-36zM0,233h36v1h-36zM195,233h38v1h-38zM297,233h38v1h-38zM476,233h36v1h-36zM0,234h36v1h-36zM195,234h37v1h-37zM297,234h38v1h-38zM476,234h36v1h-36zM0,235h35v1h-35zM194,235h38v1h-38zM297,235h37v1h-37zM477,235h35v1h-35zM0,236h35v1h-35zM194,236h37v1h-37zM296,236h38v1h-38zM477,236h35v1h-35zM0,237h35v1h-35zM193,237h38v1h-38zM296,237h37v1h-37zM477,237h35v1h-35zM0,238h35v1h-35zM193,238h38v1h-38zM295,238h38v1h-38zM477,238h35v1h-35zM0,239h35v1h-35zM193,239h37v1h-37zM295,239h38v1h-38zM477,239h35v1h-35zM0,240h35v1h-35zM192,240h38v1h-38zM295,240h37v1h-37zM477,240h35v1h-35zM0,241h35v1h-35zM192,241h37v1h-37zM294,241h38v1h-38zM477,241h35v1h-35zM0,242h35v1h-35zM191,242h38v1h-38zM294,242h37v1h-37zM477,242h35v1h-35zM0,243h35v1h-35zM191,243h38v1h-38zM293,243h38v1h-38zM477,243h35v1h-35zM0,244h35v1h-35zM191,244h37v1h-37zM293,244h38v1h-38zM477,244h35v1h-35zM0,245h35v1h-35zM190,245h38v1h-38zM293,245h37v1h-37zM477,245h35v1h-35zM0,246h35v1h-35zM190,246h37v1h-37zM292,246h38v1h-38zM477,246h35v1h-35zM0,247h35v1h-35zM189,247h38v1h-38zM292,247h37v1h-37zM477,247h35v1h-35zM0,248h35v1h-35zM189,248h38v1h-38zM291,248h38v1h-38zM477,248h35v1h-35zM0,249h35v1h-35zM189,249h37v1h-37zM291,249h38v1h-38zM477,249h35v1h-35zM0,250h35v1h-35zM188,250h38v1h-38zM291,250h37v1h-37zM477,250h35v1h-35zM0,251h35v1h-35zM188,251h37v1h-37zM290,251h38v1h-38zM477,251h35v1h-35zM0,252h35v1h-35zM187,252h38v1h-38zM290,252h37v1h-37zM477,252h35v1h-35zM0,253h35v1h-35zM187,253h38v1h-38zM289,253h38v1h-38zM477,253h35v1h-35zM0,254h35v1h-35zM187,254h37v1h-37zM289,254h38v1h-38zM477,254h35v1h-35zM0,255h35v1h-35zM186,255h38v1h-38zM289,255h37v1h-37zM477,255h35v1h-35zM0,256h35v1h-35zM186,256h37v1h-37zM288,256h38v1h-38zM477,256h35v1h-35zM0,257h35v1h-35zM185,257h38v1h-38zM288,257h37v1h-37zM477,257h35v1h-35zM0,258h35v1h-35zM185,258h38v1h-38zM287,258h38v1h-38zM477,258h35v1h-35zM0,259h35v1h-35zM185,259h37v1h-37zM287,259h38v1h-38zM477,259h35v1h-35zM0,260h35v1h-35zM184,260h38v1h-38zM287,260h37v1h-37zM477,260h35v1h-35zM0,261h35v1h-35zM184,261h37v1h-37zM286,261h38v1h-38zM477,261h35v1h-35zM0,262h35v1h-35zM183,262h38v1h-38zM286,262h37v1h-37zM477,262h35v1h-35zM0,263h35v1h-35zM183,263h38v1h-38zM285,263h38v1h-38zM477,263h35v1h-35zM0,264h35v1h-35zM183,264h37v1h-37zM285,264h38v1h-38zM477,264h35v1h-35zM0,265h35v1h-35zM182,265h38v1h-38zM285,265h37v1h-37zM477,265h35v1h-35zM0,266h35v1h-35zM182,266h37v1h-37zM284,266h38v1h-38zM477,266h35v1h-35zM0,267h35v1h-35zM181,267h38v1h-38zM284,267h37v1h-37zM477,267h35v1h-35zM0,268h35v1h-35zM181,268h38v1h-38zM283,268h38v1h-38zM477,268h35v1h-35zM0,269h35v1h-35zM181,269h37v1h-37zM283,269h38v1h-38zM477,269h35v1h-35zM0,270h35v1h-35zM180,270h38v1h-38zM283,270h37v1h-37zM477,270h35v1h-35zM0,271h35v1h-35zM180,271h37v1h-37zM282,271h38v1h-38zM477,271h35v1h-35zM0,272h35v1h-35zM179,272h38v1h-38zM282,272h37v1h-37zM477,272h35v1h-35zM0,273h35v1h-35zM179,273h38v1h-38zM281,273h38v1h-38zM477,273h35v1h-35zM0,274h35v1h-35zM179,274h37v1h-37zM281,274h38v1h-38zM477,274h35v1h-35zM0,275h35v1h-35zM178,275h38v1h-38zM281,275h37v1h-37zM477,275h35v1h-35zM0,276h35v1h-35zM178,276h37v1h-37zM280,276h38v1h-38zM476,276h36v1h-36zM0,277h36v1h-36zM177,277h38v1h-38zM280,277h37v1h-37zM476,277h36v1h-36zM0,278h36v1h-36zM177,278h38v1h-38zM279,278h38v1h-38zM476,278h36v1h-36zM0,279h36v1h-36zM177,279h37v1h-37zM278,279h39v1h-39zM476,279h36v1h-36zM0,280h36v1h-36zM176,280h38v1h-38zM276,280h40v1h-40zM476,280h36v1h-36zM0,281h36v1h-36zM176,281h37v1h-37zM273,281h43v1h-43zM476,281h36v1h-36zM0,282h36v1h-36zM175,282h38v1h-38zM271,282h44v1h-44zM476,282h36v1h-36zM0,283h36v1h-36zM175,283h38v1h-38zM268,283h47v1h-47zM476,283h36v1h-36zM0,284h36v1h-36zM175,284h37v1h-37zM266,284h49v1h-49zM476,284h36v1h-36zM0,285h37v1h-37zM174,285h38v1h-38zM263,285h51v1h-51zM475,285h37v1h-37zM0,286h37v1h-37zM174,286h37v1h-37zM261,286h53v1h-53zM475,286h37v1h-37zM0,287h37v1h-37zM173,287h38v1h-38zM258,287h55v1h-55zM475,287h37v1h-37zM0,288h37v1h-37zM173,288h38v1h-38zM256,288h57v1h-57zM475,288h37v1h-37zM0,289h37v1h-37zM173,289h37v1h-37zM253,289h60v1h-60zM475,289h37v1h-37zM0,290h37v1h-37zM172,290h38v1h-38zM251,290h61v1h-61zM475,290h37v1h-37zM0,291h37v1h-37zM172,291h37v1h-37zM248,291h64v1h-64zM475,291h37v1h-37zM0,292h38v1h-38zM171,292h38v1h-38zM246,292h65v1h-65zM474,292h38v1h-38zM0,293h38v1h-38zM171,293h38v1h-38zM243,293h68v1h-68zM474,293h38v1h-38zM3,294h35v1h-35zM171,294h37v1h-37zM241,294h70v1h-70zM474,294h35v1h-35zM3,295h35v1h-35zM170,295h38v1h-38zM238,295h72v1h-72zM474,295h35v1h-35zM3,296h35v1h-35zM170,296h37v1h-37zM236,296h74v1h-74zM474,296h35v1h-35zM3,297h35v1h-35zM169,297h38v1h-38zM233,297h76v1h-76zM474,297h35v1h-35zM3,298h36v1h-36zM169,298h38v1h-38zM231,298h78v1h-78zM473,298h36v1h-36zM3,299h36v1h-36zM169,299h37v1h-37zM228,299h81v1h-81zM473,299h36v1h-36zM3,300h36v1h-36zM168,300h38v1h-38zM226,300h82v1h-82zM473,300h35v1h-35zM4,301h35v1h-35zM168,301h37v1h-37zM223,301h85v1h-85zM473,301h35v1h-35zM4,302h35v1h-35zM167,302h38v1h-38zM221,302h86v1h-86zM473,302h35v1h-35zM4,303h36v1h-36zM167,303h38v1h-38zM218,303h88v1h-88zM472,303h36v1h-36zM4,304h36v1h-36zM167,304h38v1h-38zM216,304h89v1h-89zM472,304h36v1h-36zM4,305h36v1h-36zM166,305h39v1h-39zM213,305h91v1h-91zM472,305h36v1h-36zM5,306h35v1h-35zM166,306h39v1h-39zM211,306h92v1h-92zM472,306h35v1h-35zM5,307h36v1h-36zM165,307h136v1h-136zM471,307h36v1h-36zM5,308h36v1h-36zM165,308h135v1h-135zM471,308h36v1h-36zM5,309h36v1h-36zM165,309h132v1h-132zM471,309h36v1h-36zM5,310h36v1h-36zM164,310h131v1h-131zM471,310h36v1h-36zM6,311h35v1h-35zM164,311h128v1h-128zM470,311h36v1h-36zM6,312h36v1h-36zM163,312h127v1h-127zM470,312h36v1h-36zM6,313h36v1h-36zM163,313h124v1h-124zM470,313h36v1h-36zM6,314h36v1h-36zM163,314h122v1h-122zM470,314h36v1h-36zM7,315h36v1h-36zM162,315h120v1h-120zM469,315h36v1h-36zM7,316h36v1h-36zM162,316h118v1h-118zM469,316h36v1h-36zM7,317h36v1h-36zM161,317h116v1h-116zM469,317h36v1h-36zM7,318h36v1h-36zM161,318h114v1h-114zM469,318h36v1h-36zM8,319h36v1h-36zM161,319h111v1h-111zM468,319h36v1h-36zM8,320h36v1h-36zM160,320h110v1h-110zM468,320h36v1h-36zM8,321h36v1h-36zM160,321h107v1h-107zM468,321h36v1h-36zM8,322h37v1h-37zM159,322h106v1h-106zM467,322h37v1h-37zM9,323h36v1h-36zM159,323h103v1h-103zM467,323h36v1h-36zM9,324h36v1h-36zM159,324h101v1h-101zM467,324h36v1h-36zM9,325h37v1h-37zM158,325h99v1h-99zM466,325h37v1h-37zM9,326h37v1h-37zM158,326h97v1h-97zM466,326h37v1h-37zM10,327h36v1h-36zM157,327h95v1h-95zM466,327h36v1h-36zM10,328h37v1h-37zM157,328h93v1h-93zM465,328h37v1h-37zM10,329h37v1h-37zM157,329h90v1h-90zM465,329h37v1h-37zM11,330h36v1h-36zM156,330h89v1h-89zM465,330h36v1h-36zM11,331h37v1h-37zM156,331h86v1h-86zM464,331h37v1h-37zM11,332h37v1h-37zM155,332h85v1h-85zM464,332h37v1h-37zM12,333h36v1h-36zM155,333h82v1h-82zM464,333h36v1h-36zM12,334h37v1h-37zM155,334h80v1h-80zM463,334h37v1h-37zM12,335h37v1h-37zM154,335h78v1h-78zM463,335h37v1h-37zM13,336h37v1h-37zM154,336h76v1h-76zM462,336h37v1h-37zM13,337h37v1h-37zM154,337h73v1h-73zM462,337h37v1h-37zM13,338h37v1h-37zM153,338h72v1h-72zM462,338h37v1h-37zM14,339h37v1h-37zM153,339h69v1h-69zM461,339h37v1h-37zM14,340h37v1h-37zM153,340h67v1h-67zM461,340h37v1h-37zM14,341h38v1h-38zM153,341h64v1h-64zM460,341h38v1h-38zM15,342h37v1h-37zM153,342h62v1h-62zM460,342h37v1h-37zM15,343h37v1h-37zM153,343h59v1h-59zM460,343h37v1h-37zM15,344h38v1h-38zM154,344h56v1h-56zM459,344h38v1h-38zM16,345h37v1h-37zM154,345h53v1h-53zM459,345h37v1h-37zM16,346h38v1h-38zM154,346h51v1h-51zM458,346h38v1h-38zM17,347h37v1h-37zM154,347h48v1h-48zM458,347h37v1h-37zM17,348h38v1h-38zM155,348h45v1h-45zM457,348h38v1h-38zM17,349h38v1h-38zM155,349h42v1h-42zM457,349h38v1h-38zM18,350h38v1h-38zM156,350h39v1h-39zM456,350h38v1h-38zM18,351h38v1h-38zM157,351h35v1h-35zM456,351h38v1h-38zM18,352h39v1h-39zM157,352h33v1h-33zM455,352h38v1h-38zM19,353h38v1h-38zM158,353h29v1h-29zM455,353h38v1h-38zM19,354h39v1h-39zM159,354h26v1h-26zM454,354h39v1h-39zM20,355h38v1h-38zM161,355h21v1h-21zM454,355h38v1h-38zM20,356h39v1h-39zM162,356h18v1h-18zM453,356h39v1h-39zM21,357h38v1h-38zM164,357h13v1h-13zM453,357h38v1h-38zM21,358h39v1h-39zM168,358h6v1h-6zM452,358h39v1h-39zM22,359h38v1h-38zM452,359h39v1h-39zM22,360h39v1h-39zM451,360h39v1h-39zM22,361h39v1h-39zM451,361h39v1h-39zM23,362h39v1h-39zM450,362h39v1h-39zM23,363h39v1h-39zM450,363h39v1h-39zM24,364h39v1h-39zM449,364h39v1h-39zM24,365h39v1h-39zM449,365h39v1h-39zM25,366h39v1h-39zM448,366h39v1h-39zM25,367h40v1h-40zM447,367h40v1h-40zM26,368h39v1h-39zM447,368h39v1h-39zM26,369h40v1h-40zM446,369h40v1h-40zM27,370h39v1h-39zM446,370h39v1h-39zM27,371h40v1h-40zM445,371h40v1h-40zM28,372h40v1h-40zM444,372h40v1h-40zM28,373h40v1h-40zM444,373h40v1h-40zM29,374h40v1h-40zM443,374h40v1h-40zM29,375h40v1h-40zM443,375h40v1h-40zM30,376h40v1h-40zM442,376h40v1h-40zM30,377h41v1h-41zM441,377h41v1h-41zM31,378h40v1h-40zM441,378h40v1h-40zM31,379h41v1h-41zM440,379h41v1h-41zM32,380h41v1h-41zM439,380h41v1h-41zM33,381h40v1h-40zM439,381h40v1h-40zM33,382h41v1h-41zM438,382h41v1h-41zM34,383h41v1h-41zM437,383h41v1h-41zM34,384h42v1h-42zM436,384h42v1h-42zM35,385h41v1h-41zM436,385h41v1h-41zM35,386h42v1h-42zM435,386h42v1h-42zM36,387h42v1h-42zM434,387h42v1h-42zM37,388h41v1h-41zM434,388h41v1h-41zM37,389h42v1h-42zM433,389h42v1h-42zM38,390h42v1h-42zM432,390h42v1h-42zM38,391h43v1h-43zM431,391h42v1h-42zM39,392h43v1h-43zM430,392h43v1h-43zM40,393h42v1h-42zM430,393h42v1h-42zM40,394h43v1h-43zM429,394h43v1h-43zM41,395h43v1h-43zM428,395h43v1h-43zM42,396h43v1h-43zM427,396h43v1h-43zM42,397h43v1h-43zM427,397h43v1h-43zM43,398h43v1h-43zM426,398h43v1h-43zM44,399h43v1h-43zM425,399h43v1h-43zM44,400h44v1h-44zM424,400h44v1h-44zM45,401h44v1h-44zM423,401h44v1h-44zM46,402h44v1h-44zM422,402h44v1h-44zM47,403h44v1h-44zM421,403h45v1h-45zM47,404h45v1h-45zM420,404h45v1h-45zM48,405h44v1h-44zM420,405h44v1h-44zM49,406h44v1h-44zM419,406h44v1h-44zM49,407h45v1h-45zM418,407h45v1h-45zM50,408h45v1h-45zM417,408h45v1h-45zM51,409h45v1h-45zM416,409h45v1h-45zM52,410h45v1h-45zM415,410h45v1h-45zM52,411h46v1h-46zM414,411h46v1h-46zM53,412h46v1h-46zM413,412h46v1h-46zM54,413h46v1h-46zM412,413h46v1h-46zM55,414h46v1h-46zM411,414h46v1h-46zM56,415h46v1h-46zM410,415h46v1h-46zM56,416h47v1h-47zM409,416h47v1h-47zM57,417h47v1h-47zM408,417h47v1h-47zM58,418h47v1h-47zM407,418h47v1h-47zM59,419h47v1h-47zM406,419h47v1h-47zM60,420h48v1h-48zM404,420h48v1h-48zM60,421h49v1h-49zM403,421h49v1h-49zM61,422h49v1h-49zM402,422h49v1h-49zM62,423h49v1h-49zM401,423h49v1h-49zM63,424h49v1h-49zM400,424h49v1h-49zM64,425h49v1h-49zM399,425h49v1h-49zM65,426h49v1h-49zM398,426h49v1h-49zM66,427h50v1h-50zM396,427h50v1h-50zM66,428h51v1h-51zM395,428h50v1h-50zM67,429h51v1h-51zM394,429h51v1h-51zM68,430h52v1h-52zM393,430h51v1h-51zM69,431h52v1h-52zM391,431h52v1h-52zM70,432h52v1h-52zM390,432h52v1h-52zM71,433h52v1h-52zM389,433h52v1h-52zM72,434h53v1h-53zM387,434h53v1h-53zM73,435h53v1h-53zM386,435h53v1h-53zM74,436h54v1h-54zM384,436h54v1h-54zM75,437h54v1h-54zM383,437h54v1h-54zM76,438h54v1h-54zM382,438h54v1h-54zM77,439h55v1h-55zM380,439h55v1h-55zM78,440h55v1h-55zM379,440h55v1h-55zM79,441h56v1h-56zM377,441h56v1h-56zM80,442h56v1h-56zM376,442h56v1h-56zM81,443h57v1h-57zM374,443h57v1h-57zM82,444h58v1h-58zM372,444h58v1h-58zM84,445h57v1h-57zM371,445h57v1h-57zM85,446h58v1h-58zM369,446h58v1h-58zM86,447h59v1h-59zM367,447h59v1h-59zM87,448h59v1h-59zM366,448h59v1h-59zM88,449h60v1h-60zM364,449h60v1h-60zM89,450h61v1h-61zM362,450h61v1h-61zM90,451h62v1h-62zM360,451h62v1h-62zM92,452h62v1h-62zM358,452h62v1h-62zM93,453h63v1h-63zM356,453h63v1h-63zM94,454h64v1h-64zM354,454h64v1h-64zM95,455h65v1h-65zM352,455h65v1h-65zM97,456h65v1h-65zM350,456h66v1h-66zM98,457h66v1h-66zM348,457h66v1h-66zM99,458h67v1h-67zM346,458h67v1h-67zM100,459h68v1h-68zM344,459h68v1h-68zM102,460h69v1h-69zM341,460h69v1h-69zM103,461h70v1h-70zM339,461h70v1h-70zM104,462h72v1h-72zM336,462h72v1h-72zM106,463h72v1h-72zM334,463h72v1h-72zM107,464h74v1h-74zM331,464h74v1h-74zM109,465h75v1h-75zM328,465h75v1h-75zM110,466h77v1h-77zM325,466h77v1h-77zM111,467h79v1h-79zM322,467h79v1h-79zM113,468h80v1h-80zM319,468h80v1h-80zM114,469h83v1h-83zM315,469h83v1h-83zM116,470h84v1h-84zM311,470h85v1h-85zM117,471h88v1h-88zM307,471h88v1h-88zM119,472h90v1h-90zM303,472h90v1h-90zM121,473h93v1h-93zM298,473h93v1h-93zM122,474h98v1h-98zM292,474h98v1h-98zM124,475h103v1h-103zM285,475h103v1h-103zM125,476h110v1h-110zM277,476h110v1h-110zM127,477h258v1h-258zM129,478h254v1h-254zM131,479h250v1h-250zM132,480h248v1h-248zM134,481h244v1h-244zM136,482h240v1h-240zM138,483h236v1h-236zM140,484h232v1h-232zM142,485h228v1h-228zM144,486h224v1h-224zM146,487h220v1h-220zM148,488h216v1h-216zM150,489h212v1h-212zM152,490h208v1h-208zM155,491h202v1h-202zM157,492h198v1h-198zM160,493h193v1h-193zM162,494h188v1h-188zM165,495h182v1h-182zM167,496h178v1h-178zM170,497h172v1h-172zM173,498h166v1h-166zM176,499h160v1h-160zM179,500h154v1h-154zM182,501h148v1h-148zM185,502h142v1h-142zM189,503h134v1h-134zM193,504h126v1h-126zM197,505h118v1h-118zM201,506h110v1h-110zM206,507h100v1h-100zM212,508h89v1h-89zM218,509h76v1h-76zM218,510h76v1h-76zM218,511h76v1h-76z"/></svg>