<?xml version="1.0" encoding="UTF-8"?>
<svg xmlns="http://www.w3.org/2000/svg" viewBox="0 0 512 512" width="512" height="512"><path fill="#000" d="M218,0h76v1h-76zM218,1h76v1h-76zM218,2h76v1h-76zM212,3h89v1h-89zM206,4h100v1h-100zM201,5h110v1h-110zM197,6h118v1h-118zM193,7h126v1h-126zM189,8h134v1h-134zM185,9h142v1h-142zM182,10h148v1h-148zM179,11h154v1h-154zM176,12h160v1h-160zM173,13h166v1h-166zM170,14h172v1h-172zM167,15h178v1h-178zM165,16h183v1h-183zM162,17h188v1h-188zM160,18h193v1h-193zM157,19h198v1h-198zM155,20h202v1h-202zM152,21h207v1h-207zM150,22h212v1h-212zM148,23h216v1h-216zM146,24h220v1h-220zM144,25h224v1h-224zM142,26h228v1h-228zM140,27h232v1h-232zM138,28h236v1h-236zM136,29h240v1h-240zM134,30h244v1h-244zM132,31h248v1h-248zM131,32h250v1h-250zM129,33h254v1h-254zM127,34h258v1h-258zM125,35h262v1h-262zM124,36h264v1h-264zM122,37h268v1h-268zM120,38h272v1h-272zM119,39h274v1h-274zM117,40h278v1h-278zM116,41h280v1h-280zM114,42h284v1h-284zM113,43h286v1h-286zM111,44h290v1h-290zM110,45h292v1h-292zM108,46h296v1h-296zM107,47h298v1h-298zM106,48h300v1h-300zM104,49h304v1h-304zM103,50h306v1h-306zM102,51h308v1h-308zM100,52h312v1h-312zM99,53h314v1h-314zM98,54h316v1h-316zM97,55h319v1h-319zM95,56h322v1h-322zM94,57h324v1h-324zM93,58h326v1h-326zM92,59h328v1h-328zM90,60h332v1h-332zM89,61h334v1h-334zM88,62h336v1h-336zM87,63h338v1h-338zM86,64h340v1h-340zM85,65h342v1h-342zM83,66h346v1h-346zM82,67h348v1h-348zM81,68h350v1h-350zM80,69h352v1h-352zM79,70h354v1h-354zM78,71h356v1h-356zM77,72h358v1h-358zM76,73h360v1h-360zM75,74h362v1h-362zM74,75h364v1h-364zM73,76h366v1h-366zM72,77h368v1h-368zM71,78h370v1h-370zM70,79h372v1h-372zM69,80h374v1h-374zM68,81h376v1h-376zM67,82h378v1h-378zM66,83h379v1h-379zM66,84h380v1h-380zM65,85h382v1h-382zM64,86h384v1h-384zM63,87h386v1h-386zM62,88h388v1h-388zM61,89h390v1h-390zM60,90h392v1h-392zM60,91h392v1h-392zM59,92h394v1h-394zM58,93h396v1h-396zM57,94h398v1h-398zM56,95h400v1h-400zM55,96h402v1h-402zM55,97h402v1h-402zM54,98h404v1h-404zM53,99h406v1h-406zM52,100h408v1h-408zM52,101h408v1h-408zM51,102h410v1h-410zM50,103h412v1h-412zM49,104h414v1h-414zM49,105h414v1h-414zM48,106h416v1h-416zM47,107h418v1h-418zM47,108h419v1h-419zM46,109h420v1h-420zM45,110h422v1h-422zM44,111h424v1h-424zM44,112h424v1h-424zM43,113h426v1h-426zM42,114h428v1h-428zM42,115h428v1h-428zM41,116h430v1h-430zM40,117h432v1h-432zM40,118h432v1h-432zM39,119h434v1h-434zM38,120h435v1h-435zM38,121h436v1h-436zM37,122h438v1h-438zM37,123h438v1h-438zM36,124h440v1h-440zM35,125h442v1h-442zM35,126h442v1h-442zM34,127h444v1h-444zM34,128h444v1h-444zM33,129h446v1h-446zM33,130h446v1h-446zM32,131h448v1h-448zM31,132h450v1h-450zM31,133h450v1h-450zM30,134h452v1h-452zM30,135h452v1h-452zM29,136h454v1h-454zM29,137h454v1h-454zM28,138h456v1h-456zM28,139h456v1h-456zM27,140h458v1h-458zM27,141h458v1h-458zM26,142h460v1h-460zM26,143h460v1h-460zM25,144h462v1h-462zM25,145h462v1h-462zM24,146h464v1h-464zM24,147h464v1h-464zM23,148h466v1h-466zM23,149h466v1h-466zM22,150h468v1h-468zM22,151h468v1h-468zM21,152h470v1h-470zM21,153h470v1h-470zM21,154h316v1h-316zM345,154h146v1h-146zM20,155h314v1h-314zM348,155h144v1h-144zM20,156h312v1h-312zM349,156h143v1h-143zM19,157h310v1h-310zM351,157h142v1h-142zM19,158h308v1h-308zM352,158h141v1h-141zM18,159h306v1h-306zM353,159h140v1h-140zM18,160h304v1h-304zM354,160h140v1h-140zM18,161h301v1h-301zM354,161h140v1h-140zM17,162h300v1h-300zM355,162h140v1h-140zM17,163h297v1h-297zM356,163h139v1h-139zM17,164h295v1h-295zM356,164h139v1h-139zM16,165h293v1h-293zM356,165h140v1h-140zM16,166h291v1h-291zM357,166h139v1h-139zM15,167h289v1h-289zM357,167h140v1h-140zM15,168h287v1h-287zM357,168h140v1h-140zM15,169h284v1h-284zM358,169h139v1h-139zM14,170h283v1h-283zM358,170h140v1h-140zM14,171h280v1h-280zM358,171h140v1h-140zM14,172h278v1h-278zM358,172h140v1h-140zM13,173h276v1h-276zM358,173h141v1h-141zM13,174h274v1h-274zM358,174h141v1h-141zM13,175h271v1h-271zM357,175h142v1h-142zM12,176h270v1h-270zM357,176h143v1h-143zM12,177h267v1h-267zM357,177h143v1h-143zM12,178h265v1h-265zM356,178h144v1h-144zM11,179h263v1h-263zM356,179h145v1h-145zM11,180h261v1h-261zM355,180h146v1h-146zM11,181h258v1h-258zM355,181h146v1h-146zM10,182h257v1h-257zM355,182h147v1h-147zM10,183h254v1h-254zM354,183h148v1h-148zM10,184h252v1h-252zM354,184h148v1h-148zM9,185h250v1h-250zM353,185h150v1h-150zM9,186h248v1h-248zM353,186h150v1h-150zM9,187h245v1h-245zM353,187h150v1h-150zM9,188h243v1h-243zM352,188h151v1h-151zM8,189h241v1h-241zM352,189h152v1h-152zM8,190h239v1h-239zM351,190h153v1h-153zM8,191h236v1h-236zM351,191h153v1h-153zM8,192h234v1h-234zM351,192h153v1h-153zM7,193h232v1h-232zM350,193h155v1h-155zM7,194h230v1h-230zM350,194h155v1h-155zM7,195h227v1h-227zM349,195h156v1h-156zM7,196h225v1h-225zM349,196h156v1h-156zM6,197h223v1h-223zM349,197h157v1h-157zM6,198h221v1h-221zM348,198h158v1h-158zM6,199h218v1h-218zM348,199h158v1h-158zM6,200h216v1h-216zM347,200h159v1h-159zM5,201h214v1h-214zM347,201h160v1h-160zM5,202h212v1h-212zM347,202h160v1h-160zM5,203h209v1h-209zM346,203h161v1h-161zM5,204h207v1h-207zM346,204h161v1h-161zM5,205h205v1h-205zM345,205h162v1h-162zM4,206h205v1h-205zM345,206h163v1h-163zM4,207h204v1h-204zM345,207h163v1h-163zM4,208h203v1h-203zM344,208h164v1h-164zM4,209h202v1h-202zM344,209h164v1h-164zM4,210h201v1h-201zM343,210h165v1h-165zM3,211h202v1h-202zM343,211h165v1h-165zM3,212h201v1h-201zM343,212h166v1h-166zM3,213h201v1h-201zM342,213h167v1h-167zM3,214h200v1h-200zM342,214h167v1h-167zM3,215h200v1h-200zM341,215h168v1h-168zM3,216h200v1h-200zM341,216h168v1h-168zM3,217h199v1h-199zM341,217h168v1h-168zM0,218h202v1h-202zM340,218h172v1h-172zM0,219h201v1h-201zM340,219h172v1h-172zM0,220h201v1h-201zM339,220h173v1h-173zM0,221h201v1h-201zM339,221h173v1h-173zM0,222h200v1h-200zM339,222h173v1h-173zM0,223h200v1h-200zM338,223h174v1h-174zM0,224h199v1h-199zM338,224h174v1h-174zM0,225h199v1h-199zM337,225h175v1h-175zM0,226h199v1h-199zM337,226h175v1h-175zM0,227h198v1h-198zM337,227h175v1h-175zM0,228h198v1h-198zM336,228h176v1h-176zM0,229h197v1h-197zM336,229h176v1h-176zM0,230h197v1h-197zM335,230h177v1h-177zM0,231h197v1h-197zM335,231h177v1h-177zM0,232h196v1h-196zM335,232h177v1h-177zM0,233h196v1h-196zM334,233h178v1h-178zM0,234h195v1h-195zM334,234h178v1h-178zM0,235h195v1h-195zM333,235h179v1h-179zM0,236h195v1h-195zM333,236h179v1h-179zM0,237h194v1h-194zM333,237h179v1h-179zM0,238h194v1h-194zM332,238h180v1h-180zM0,239h193v1h-193zM332,239h180v1h-180zM0,240h193v1h-193zM331,240h181v1h-181zM0,241h193v1h-193zM331,241h181v1h-181zM0,242h192v1h-192zM331,242h181v1h-181zM0,243h192v1h-192zM330,243h182v1h-182zM0,244h191v1h-191zM330,244h182v1h-182zM0,245h191v1h-191zM329,245h183v1h-183zM0,246h191v1h-191zM329,246h183v1h-183zM0,247h190v1h-190zM329,247h183v1h-183zM0,248h190v1h-190zM328,248h184v1h-184zM0,249h189v1h-189zM328,249h184v1h-184zM0,250h189v1h-189zM327,250h185v1h-185zM0,251h189v1h-189zM327,251h185v1h-185zM0,252h188v1h-188zM327,252h185v1h-185zM0,253h188v1h-188zM326,253h186v1h-186zM0,254h187v1h-187zM326,254h186v1h-186zM0,255h187v1h-187zM325,255h187v1h-187zM0,256h187v1h-187zM325,256h187v1h-187zM0,257h186v1h-186zM325,257h187v1h-187zM0,258h186v1h-186zM324,258h188v1h-188zM0,259h185v1h-185zM324,259h188v1h-188zM0,260h185v1h-185zM323,260h189v1h-189zM0,261h185v1h-185zM323,261h189v1h-189zM0,262h184v1h-184zM323,262h189v1h-189zM0,263h184v1h-184zM322,263h190v1h-190zM0,264h183v1h-183zM322,264h190v1h-190zM0,265h183v1h-183zM321,265h191v1h-191zM0,266h183v1h-183zM321,266h191v1h-191zM0,267h182v1h-182zM321,267h191v1h-191zM0,268h182v1h-182zM320,268h192v1h-192zM0,269h181v1h-181zM320,269h192v1h-192zM0,270h181v1h-181zM319,270h193v1h-193zM0,271h181v1h-181zM319,271h193v1h-193zM0,272h180v1h-180zM319,272h193v1h-193zM0,273h180v1h-180zM318,273h194v1h-194zM0,274h179v1h-179zM318,274h194v1h-194zM0,275h179v1h-179zM317,275h195v1h-195zM0,276h179v1h-179zM317,276h195v1h-195zM0,277h178v1h-178zM317,277h195v1h-195zM0,278h178v1h-178zM316,278h196v1h-196zM0,279h177v1h-177zM316,279h196v1h-196zM0,280h177v1h-177zM315,280h197v1h-197zM0,281h177v1h-177zM315,281h197v1h-197zM0,282h176v1h-176zM315,282h197v1h-197zM0,283h176v1h-176zM314,283h198v1h-198zM0,284h175v1h-175zM314,284h198v1h-198zM0,285h175v1h-175zM313,285h199v1h-199zM0,286h175v1h-175zM313,286h199v1h-199zM0,287h174v1h-174zM313,287h199v1h-199zM0,288h174v1h-174zM312,288h200v1h-200zM0,289h173v1h-173zM312,289h200v1h-200zM0,290h173v1h-173zM311,290h201v1h-201zM0,291h173v1h-173zM311,291h201v1h-201zM0,292h172v1h-172zM311,292h201v1h-201zM0,293h172v1h-172zM310,293h202v1h-202zM3,294h168v1h-168zM310,294h199v1h-199zM3,295h168v1h-168zM309,295h200v1h-200zM3,296h168v1h-168zM309,296h200v1h-200zM3,297h167v1h-167zM309,297h200v1h-200zM3,298h167v1h-167zM308,298h201v1h-201zM3,299h166v1h-166zM308,299h201v1h-201zM3,300h166v1h-166zM307,300h201v1h-201zM4,301h165v1h-165zM307,301h201v1h-201zM4,302h164v1h-164zM306,302h202v1h-202zM4,303h164v1h-164zM305,303h203v1h-203zM4,304h163v1h-163zM304,304h204v1h-204zM4,305h163v1h-163zM303,305h205v1h-205zM5,306h162v1h-162zM302,306h205v1h-205zM5,307h161v1h-161zM300,307h207v1h-207zM5,308h161v1h-161zM298,308h209v1h-209zM5,309h160v1h-160zM295,309h212v1h-212zM5,310h160v1h-160zM293,310h214v1h-214zM6,311h159v1h-159zM290,311h216v1h-216zM6,312h158v1h-158zM288,312h218v1h-218zM6,313h158v1h-158zM285,313h221v1h-221zM6,314h157v1h-157zM283,314h223v1h-223zM7,315h156v1h-156zM280,315h225v1h-225zM7,316h156v1h-156zM278,316h227v1h-227zM7,317h155v1h-155zM275,317h230v1h-230zM7,318h155v1h-155zM273,318h232v1h-232zM8,319h153v1h-153zM270,319h234v1h-234zM8,320h153v1h-153zM268,320h236v1h-236zM8,321h153v1h-153zM265,321h239v1h-239zM8,322h152v1h-152zM263,322h241v1h-241zM9,323h151v1h-151zM260,323h243v1h-243zM9,324h150v1h-150zM258,324h245v1h-245zM9,325h150v1h-150zM255,325h248v1h-248zM9,326h150v1h-150zM253,326h250v1h-250zM10,327h148v1h-148zM250,327h252v1h-252zM10,328h148v1h-148zM248,328h254v1h-254zM10,329h147v1h-147zM245,329h257v1h-257zM11,330h146v1h-146zM243,330h258v1h-258zM11,331h146v1h-146zM240,331h261v1h-261zM11,332h145v1h-145zM238,332h263v1h-263zM12,333h144v1h-144zM235,333h265v1h-265zM12,334h143v1h-143zM233,334h267v1h-267zM12,335h143v1h-143zM230,335h270v1h-270zM13,336h142v1h-142zM228,336h271v1h-271zM13,337h141v1h-141zM225,337h274v1h-274zM13,338h141v1h-141zM223,338h276v1h-276zM14,339h140v1h-140zM220,339h278v1h-278zM14,340h140v1h-140zM218,340h280v1h-280zM14,341h140v1h-140zM215,341h283v1h-283zM15,342h139v1h-139zM213,342h284v1h-284zM15,343h139v1h-139zM210,343h287v1h-287zM15,344h139v1h-139zM208,344h289v1h-289zM16,345h138v1h-138zM205,345h291v1h-291zM16,346h139v1h-139zM203,346h293v1h-293zM17,347h138v1h-138zM200,347h295v1h-295zM17,348h139v1h-139zM198,348h297v1h-297zM17,349h139v1h-139zM195,349h300v1h-300zM18,350h139v1h-139zM193,350h301v1h-301zM18,351h139v1h-139zM190,351h304v1h-304zM18,352h140v1h-140zM188,352h306v1h-306zM19,353h140v1h-140zM185,353h308v1h-308zM19,354h141v1h-141zM183,354h310v1h-310zM20,355h142v1h-142zM180,355h312v1h-312zM20,356h144v1h-144zM178,356h314v1h-314zM21,357h145v1h-145zM175,357h316v1h-316zM21,358h470v1h-470zM22,359h469v1h-469zM22,360h468v1h-468zM22,361h468v1h-468zM23,362h466v1h-466zM23,363h466v1h-466zM24,364h464v1h-464zM24,365h464v1h-464zM25,366h462v1h-462zM25,367h462v1h-462zM26,368h460v1h-460zM26,369h460v1h-460zM27,370h458v1h-458zM27,371h458v1h-458zM28,372h456v1h-456zM28,373h456v1h-456zM29,374h454v1h-454zM29,375h454v1h-454zM30,376h452v1h-452zM30,377h452v1h-452zM31,378h450v1h-450zM31,379h450v1h-450zM32,380h448v1h-448zM33,381h446v1h-446zM33,382h446v1h-446zM34,383h444v1h-444zM34,384h444v1h-444zM35,385h442v1h-442zM35,386h442v1h-442zM36,387h440v1h-440zM37,388h438v1h-438zM37,389h438v1h-438zM38,390h436v1h-436zM38,391h435v1h-435zM39,392h434v1h-434zM40,393h432v1h-432zM40,394h432v1h-432zM41,395h430v1h-430zM42,396h428v1h-428zM42,397h428v1h-428zM43,398h426v1h-426zM44,399h424v1h-424zM44,400h424v1h-424zM45,401h422v1h-422zM46,402h420v1h-420zM47,403h419v1h-419zM47,404h418v1h-418zM48,405h416v1h-416zM49,406h414v1h-414zM49,407h414v1h-414zM50,408h412v1h-412zM51,409h410v1h-410zM52,410h408v1h-408zM52,411h408v1h-408zM53,412h406v1h-406zM54,413h404v1h-404zM55,414h402v1h-402zM56,415h400v1h-400zM56,416h400v1h-400zM57,417h398v1h-398zM58,418h396v1h-396zM59,419h394v1h-394zM60,420h392v1h-392zM60,421h392v1h-392zM61,422h390v1h-390zM62,423h388v1h-388zM63,424h386v1h-386zM64,425h384v1h-384zM65,426h382v1h-382zM66,427h380v1h-380zM66,428h379v1h-379zM67,429h378v1h-378zM68,430h376v1h-376zM69,431h374v1h-374zM70,432h372v1h-372zM71,433h370v1h-370zM72,434h368v1h-368zM73,435h366v1h-366zM74,436h364v1h-364zM75,437h362v1h-362zM76,438h360v1h-360zM77,439h358v1h-358zM78,440h356v1h-356zM79,441h354v1h-354zM80,442h352v1h-352zM81,443h350v1h-350zM82,444h348v1h-348zM84,445h344v1h-344zM85,446h342v1h-342zM86,447h340v1h-340zM87,448h338v1h-338zM88,449h336v1h-336zM89,450h334v1h-334zM90,451h332v1h-332zM92,452h328v1h-328zM93,453h326v1h-326zM94,454h324v1h-324zM95,455h322v1h-322zM97,456h319v1h-319zM98,457h316v1h-316zM99,458h314v1h-314zM100,459h312v1h-312zM102,460h308v1h-308zM103,461h306v1h-306zM104,462h304v1h-304zM106,463h300v1h-300zM107,464h298v1h-298zM109,465h294v1h-294zM110,466h292v1h-292zM111,467h290v1h-290zM113,468h286v1h-286zM114,469h284v1h-284zM116,470h280v1h-280zM117,471h278v1h-278zM119,472h274v1h-274zM121,473h271v1h-271zM122,474h268v1h-268zM124,475h264v1h-264zM125,476h262v1h-262zM127,477h258v1h-258zM129,478h254v1h-254zM131,479h250v1h-250zM132,480h248v1h-248zM134,481h244v1h-244zM136,482h240v1h-240zM138,483h236v1h-236zM140,484h232v1h-232zM142,485h228v1h-228zM144,486h224v1h-224zM146,487h220v1h-220zM148,488h216v1h-216zM150,489h212v1h-212zM152,490h208v1h-208zM155,491h202v1h-202zM157,492h198v1h-198zM160,493h193v1h-193zM162,494h188v1h-188zM165,495h182v1h-182zM167,496h178v1h-178zM170,497h172v1h-172zM173,498h166v1h-166zM176,499h160v1h-160zM179,500h154v1h-154zM182,501h148v1h-148zM185,502h142v1h-142zM189,503h134v1h-134zM193,504h126v1h-126zM197,505h118v1h-118zM201,506h110v1h-110zM206,507h100v1h-100zM212,508h89v1h-89zM218,509h76v1h-76zM218,510h76v1h-76zM218,511h76v1h-76z"/></svg>