<?xml version="1.0" encoding="UTF-8"?>
<svg xmlns="http://www.w3.org/2000/svg" viewBox="0 0 512 512" width="512" height="512"><path fill="#000" d="M58,108h396v1h-396zM56,109h400v1h-400zM54,110h404v1h-404zM52,111h408v1h-408zM51,112h410v1h-410zM50,113h412v1h-412zM49,114h414v1h-414zM48,115h416v1h-416zM47,116h418v1h-418zM47,117h418v1h-418zM46,118h420v1h-420zM46,119h421v1h-421zM45,120h422v1h-422zM45,121h422v1h-422zM44,122h424v1h-424zM44,123h424v1h-424zM44,124h424v1h-424zM44,125h424v1h-424zM44,126h424v1h-424zM44,127h424v1h-424zM44,128h424v1h-424zM44,129h424v1h-424zM44,130h424v1h-424zM44,131h424v1h-424zM44,132h424v1h-424zM44,133h424v1h-424zM45,134h422v1h-422zM45,135h422v1h-422zM46,136h420v1h-420zM46,137h420v1h-420zM47,138h418v1h-418zM47,139h418v1h-418zM48,140h416v1h-416zM49,141h414v1h-414zM50,142h412v1h-412zM51,143h410v1h-410zM52,144h408v1h-408zM54,145h404v1h-404zM56,146h400v1h-400zM58,147h396v1h-396zM58,236h396v1h-396zM56,237h400v1h-400zM54,238h404v1h-404zM52,239h408v1h-408zM51,240h410v1h-410zM50,241h412v1h-412zM49,242h414v1h-414zM48,243h416v1h-416zM47,244h418v1h-418zM47,245h418v1h-418zM46,246h420v1h-420zM46,247h421v1h-421zM45,248h422v1h-422zM45,249h422v1h-422zM44,250h424v1h-424zM44,251h424v1h-424zM44,252h424v1h-424zM44,253h424v1h-424zM44,254h424v1h-424zM44,255h424v1h-424zM44,256h424v1h-424zM44,257h424v1h-424zM44,258h424v1h-424zM44,259h424v1h-424zM44,260h424v1h-424zM44,261h424v1h-424zM45,262h422v1h-422zM45,263h422v1h-422zM46,264h420v1h-420zM46,265h420v1h-420zM47,266h418v1h-418zM47,267h418v1h-418zM48,268h416v1h-416zM49,269h414v1h-414zM50,270h412v1h-412zM51,271h410v1h-410zM52,272h408v1h-408zM54,273h404v1h-404zM56,274h400v1h-400zM58,275h396v1h-396zM58,364h396v1h-396zM56,365h400v1h-400zM54,366h404v1h-404zM52,367h408v1h-408zM51,368h410v1h-410zM50,369h412v1h-412zM49,370h414v1h-414zM48,371h416v1h-416zM47,372h418v1h-418zM47,373h418v1h-418zM46,374h420v1h-420zM46,375h421v1h-421zM45,376h422v1h-422zM45,377h422v1h-422zM44,378h424v1h-424zM44,379h424v1h-424zM44,380h424v1h-424zM44,381h424v1h-424zM44,382h424v1h-424zM44,383h424v1h-424zM44,384h424v1h-424zM44,385h424v1h-424zM44,386h424v1h-424zM44,387h424v1h-424zM44,388h424v1h-424zM44,389h424v1h-424zM45,390h422v1h-422zM45,391h422v1h-422zM46,392h420v1h-420zM46,393h420v1h-420zM47,394h418v1h-418zM47,395h418v1h-418zM48,396h416v1h-416zM49,397h414v1h-414zM50,398h412v1h-412zM51,399h410v1h-410zM52,400h408v1h-408zM54,401h404v1h-404zM56,402h400v1h-400zM58,403h396v1h-396z"/></svg>