<?xml version="1.0" encoding="UTF-8"?>
<svg xmlns="http://www.w3.org/2000/svg" viewBox="0 0 512 512" width="512" height="512"><path fill="#000" d="M25,0h103v1h-103zM137,0h103v1h-103zM306,0h26v1h-26zM25,1h103v1h-103zM137,1h103v1h-103zM306,1h26v1h-26zM25,2h103v1h-103zM137,2h103v1h-103zM306,2h26v1h-26zM23,3h219v1h-219zM303,3h32v1h-32zM21,4h224v1h-224zM301,4h36v1h-36zM19,5h227v1h-227zM298,5h41v1h-41zM17,6h231v1h-231zM296,6h44v1h-44zM16,7h233v1h-233zM293,7h49v1h-49zM15,8h235v1h-235zM290,8h53v1h-53zM14,9h238v1h-238zM287,9h58v1h-58zM13,10h240v1h-240zM285,10h61v1h-61zM11,11h243v1h-243zM282,11h65v1h-65zM10,12h245v1h-245zM279,12h69v1h-69zM10,13h246v1h-246zM277,13h72v1h-72zM9,14h248v1h-248zM274,14h76v1h-76zM8,15h249v1h-249zM271,15h79v1h-79zM7,16h251v1h-251zM269,16h82v1h-82zM7,17h252v1h-252zM266,17h86v1h-86zM6,18h346v1h-346zM5,19h348v1h-348zM5,20h349v1h-349zM4,21h350v1h-350zM4,22h351v1h-351zM3,23h352v1h-352zM3,24h353v1h-353zM0,25h356v1h-356zM0,26h356v1h-356zM0,27h357v1h-357zM0,28h357v1h-357zM0,29h358v1h-358zM0,30h358v1h-358zM0,31h358v1h-358zM0,32h359v1h-359zM0,33h359v1h-359zM0,34h359v1h-359zM0,35h360v1h-360zM0,36h360v1h-360zM0,37h361v1h-361zM0,38h361v1h-361zM0,39h361v1h-361zM0,40h362v1h-362zM0,41h362v1h-362zM0,42h362v1h-362zM0,43h363v1h-363zM0,44h363v1h-363zM0,45h364v1h-364zM0,46h364v1h-364zM0,47h364v1h-364zM0,48h365v1h-365zM0,49h365v1h-365zM0,50h365v1h-365zM0,51h366v1h-366zM0,52h366v1h-366zM0,53h367v1h-367zM0,54h367v1h-367zM0,55h367v1h-367zM0,56h368v1h-368zM0,57h368v1h-368zM0,58h368v1h-368zM0,59h369v1h-369zM0,60h61v1h-61zM93,60h80v1h-80zM204,60h165v1h-165zM0,61h60v1h-60zM93,61h79v1h-79zM205,61h165v1h-165zM0,62h60v1h-60zM93,62h79v1h-79zM205,62h165v1h-165zM0,63h60v1h-60zM93,63h79v1h-79zM205,63h165v1h-165zM0,64h60v1h-60zM93,64h79v1h-79zM205,64h166v1h-166zM0,65h60v1h-60zM93,65h79v1h-79zM205,65h166v1h-166zM0,66h60v1h-60zM93,66h79v1h-79zM205,66h166v1h-166zM0,67h60v1h-60zM93,67h79v1h-79zM205,67h167v1h-167zM0,68h60v1h-60zM93,68h79v1h-79zM205,68h167v1h-167zM0,69h60v1h-60zM93,69h79v1h-79zM205,69h167v1h-167zM0,70h60v1h-60zM93,70h79v1h-79zM205,70h168v1h-168zM0,71h60v1h-60zM93,71h79v1h-79zM205,71h168v1h-168zM0,72h60v1h-60zM93,72h79v1h-79zM205,72h169v1h-169zM0,73h60v1h-60zM93,73h79v1h-79zM205,73h169v1h-169zM0,74h60v1h-60zM93,74h79v1h-79zM205,74h169v1h-169zM0,75h60v1h-60zM93,75h79v1h-79zM205,75h170v1h-170zM0,76h60v1h-60zM93,76h79v1h-79zM205,76h170v1h-170zM0,77h60v1h-60zM93,77h79v1h-79zM205,77h171v1h-171zM0,78h60v1h-60zM93,78h79v1h-79zM205,78h171v1h-171zM0,79h60v1h-60zM93,79h79v1h-79zM205,79h171v1h-171zM0,80h60v1h-60zM93,80h79v1h-79zM205,80h172v1h-172zM0,81h60v1h-60zM93,81h79v1h-79zM205,81h172v1h-172zM0,82h60v1h-60zM93,82h79v1h-79zM205,82h172v1h-172zM0,83h60v1h-60zM93,83h79v1h-79zM205,83h173v1h-173zM0,84h60v1h-60zM93,84h79v1h-79zM205,84h173v1h-173zM0,85h60v1h-60zM93,85h79v1h-79zM205,85h173v1h-173zM0,86h60v1h-60zM93,86h79v1h-79zM205,86h174v1h-174zM0,87h60v1h-60zM93,87h79v1h-79zM205,87h174v1h-174zM0,88h60v1h-60zM93,88h79v1h-79zM205,88h175v1h-175zM0,89h60v1h-60zM93,89h79v1h-79zM205,89h175v1h-175zM0,90h60v1h-60zM93,90h79v1h-79zM205,90h175v1h-175zM0,91h60v1h-60zM93,91h79v1h-79zM205,91h176v1h-176zM0,92h60v1h-60zM93,92h79v1h-79zM205,92h176v1h-176zM0,93h60v1h-60zM93,93h79v1h-79zM205,93h176v1h-176zM0,94h60v1h-60zM93,94h79v1h-79zM205,94h177v1h-177zM0,95h60v1h-60zM93,95h79v1h-79zM205,95h177v1h-177zM0,96h60v1h-60zM93,96h79v1h-79zM205,96h178v1h-178zM0,97h60v1h-60zM93,97h79v1h-79zM205,97h178v1h-178zM0,98h60v1h-60zM93,98h79v1h-79zM205,98h178v1h-178zM0,99h60v1h-60zM93,99h79v1h-79zM205,99h179v1h-179zM0,100h60v1h-60zM93,100h79v1h-79zM205,100h179v1h-179zM0,101h60v1h-60zM93,101h79v1h-79zM205,101h179v1h-179zM0,102h60v1h-60zM93,102h79v1h-79zM205,102h180v1h-180zM0,103h60v1h-60zM93,103h79v1h-79zM205,103h180v1h-180zM0,104h60v1h-60zM93,104h79v1h-79zM205,104h181v1h-181zM0,105h60v1h-60zM93,105h79v1h-79zM205,105h181v1h-181zM0,106h60v1h-60zM93,106h79v1h-79zM205,106h181v1h-181zM0,107h60v1h-60zM93,107h79v1h-79zM205,107h182v1h-182zM0,108h60v1h-60zM93,108h79v1h-79zM205,108h182v1h-182zM0,109h60v1h-60zM93,109h79v1h-79zM205,109h182v1h-182zM0,110h60v1h-60zM93,110h79v1h-79zM205,110h183v1h-183zM0,111h60v1h-60zM93,111h79v1h-79zM205,111h183v1h-183zM0,112h60v1h-60zM93,112h79v1h-79zM205,112h184v1h-184zM0,113h60v1h-60zM93,113h79v1h-79zM205,113h184v1h-184zM0,114h60v1h-60zM93,114h79v1h-79zM205,114h184v1h-184zM0,115h60v1h-60zM93,115h79v1h-79zM205,115h185v1h-185zM0,116h60v1h-60zM93,116h79v1h-79zM205,116h185v1h-185zM0,117h60v1h-60zM93,117h79v1h-79zM205,117h186v1h-186zM0,118h60v1h-60zM93,118h79v1h-79zM205,118h186v1h-186zM0,119h60v1h-60zM93,119h79v1h-79zM205,119h186v1h-186zM0,120h60v1h-60zM93,120h79v1h-79zM205,120h187v1h-187zM0,121h60v1h-60zM93,121h79v1h-79zM205,121h187v1h-187zM0,122h60v1h-60zM93,122h79v1h-79zM205,122h187v1h-187zM0,123h60v1h-60zM93,123h79v1h-79zM205,123h188v1h-188zM0,124h60v1h-60zM93,124h79v1h-79zM205,124h188v1h-188zM0,125h60v1h-60zM93,125h79v1h-79zM205,125h188v1h-188zM0,126h60v1h-60zM93,126h79v1h-79zM205,126h189v1h-189zM0,127h60v1h-60zM93,127h79v1h-79zM205,127h189v1h-189zM0,128h60v1h-60zM93,128h79v1h-79zM205,128h190v1h-190zM0,129h60v1h-60zM93,129h79v1h-79zM205,129h190v1h-190zM0,130h60v1h-60zM93,130h79v1h-79zM205,130h190v1h-190zM0,131h60v1h-60zM93,131h79v1h-79zM205,131h191v1h-191zM0,132h60v1h-60zM93,132h79v1h-79zM205,132h191v1h-191zM0,133h60v1h-60zM93,133h79v1h-79zM205,133h191v1h-191zM0,134h60v1h-60zM93,134h79v1h-79zM205,134h192v1h-192zM0,135h60v1h-60zM93,135h79v1h-79zM205,135h192v1h-192zM0,136h60v1h-60zM93,136h79v1h-79zM205,136h192v1h-192zM0,137h60v1h-60zM93,137h79v1h-79zM205,137h193v1h-193zM0,138h60v1h-60zM93,138h79v1h-79zM205,138h193v1h-193zM0,139h60v1h-60zM93,139h79v1h-79zM205,139h194v1h-194zM0,140h60v1h-60zM93,140h79v1h-79zM205,140h194v1h-194zM0,141h60v1h-60zM93,141h79v1h-79zM205,141h194v1h-194zM0,142h60v1h-60zM93,142h79v1h-79zM205,142h195v1h-195zM0,143h60v1h-60zM93,143h79v1h-79zM205,143h195v1h-195zM0,144h60v1h-60zM93,144h79v1h-79zM205,144h195v1h-195zM0,145h60v1h-60zM93,145h79v1h-79zM205,145h196v1h-196zM0,146h60v1h-60zM93,146h79v1h-79zM205,146h196v1h-196zM0,147h60v1h-60zM93,147h79v1h-79zM205,147h197v1h-197zM0,148h60v1h-60zM93,148h79v1h-79zM205,148h197v1h-197zM0,149h60v1h-60zM93,149h79v1h-79zM205,149h197v1h-197zM0,150h60v1h-60zM93,150h79v1h-79zM205,150h198v1h-198zM0,151h60v1h-60zM93,151h79v1h-79zM205,151h198v1h-198zM0,152h60v1h-60zM93,152h79v1h-79zM205,152h198v1h-198zM0,153h60v1h-60zM93,153h79v1h-79zM205,153h199v1h-199zM0,154h60v1h-60zM93,154h79v1h-79zM205,154h199v1h-199zM0,155h60v1h-60zM93,155h79v1h-79zM205,155h200v1h-200zM0,156h60v1h-60zM93,156h79v1h-79zM205,156h200v1h-200zM0,157h60v1h-60zM93,157h79v1h-79zM205,157h200v1h-200zM0,158h60v1h-60zM93,158h79v1h-79zM205,158h201v1h-201zM0,159h60v1h-60zM93,159h79v1h-79zM205,159h201v1h-201zM0,160h60v1h-60zM93,160h79v1h-79zM205,160h202v1h-202zM0,161h60v1h-60zM93,161h79v1h-79zM205,161h202v1h-202zM0,162h60v1h-60zM93,162h79v1h-79zM205,162h202v1h-202zM0,163h60v1h-60zM93,163h79v1h-79zM205,163h203v1h-203zM0,164h60v1h-60zM93,164h79v1h-79zM205,164h203v1h-203zM0,165h60v1h-60zM93,165h79v1h-79zM205,165h203v1h-203zM0,166h60v1h-60zM93,166h79v1h-79zM205,166h204v1h-204zM0,167h60v1h-60zM93,167h79v1h-79zM205,167h204v1h-204zM0,168h60v1h-60zM93,168h79v1h-79zM205,168h205v1h-205zM0,169h60v1h-60zM93,169h79v1h-79zM205,169h205v1h-205zM0,170h60v1h-60zM93,170h79v1h-79zM205,170h205v1h-205zM0,171h60v1h-60zM93,171h79v1h-79zM205,171h205v1h-205zM0,172h60v1h-60zM93,172h79v1h-79zM205,172h206v1h-206zM0,173h60v1h-60zM93,173h79v1h-79zM205,173h206v1h-206zM0,174h60v1h-60zM93,174h79v1h-79zM205,174h207v1h-207zM0,175h60v1h-60zM93,175h79v1h-79zM205,175h207v1h-207zM0,176h60v1h-60zM93,176h79v1h-79zM205,176h207v1h-207zM0,177h60v1h-60zM93,177h79v1h-79zM205,177h208v1h-208zM0,178h60v1h-60zM93,178h79v1h-79zM205,178h208v1h-208zM0,179h60v1h-60zM93,179h79v1h-79zM205,179h209v1h-209zM0,180h60v1h-60zM93,180h79v1h-79zM205,180h209v1h-209zM0,181h60v1h-60zM93,181h79v1h-79zM205,181h209v1h-209zM0,182h60v1h-60zM93,182h79v1h-79zM205,182h210v1h-210zM0,183h60v1h-60zM93,183h79v1h-79zM205,183h210v1h-210zM0,184h60v1h-60zM93,184h79v1h-79zM205,184h210v1h-210zM0,185h60v1h-60zM93,185h79v1h-79zM205,185h211v1h-211zM0,186h60v1h-60zM93,186h79v1h-79zM205,186h211v1h-211zM0,187h60v1h-60zM93,187h79v1h-79zM205,187h212v1h-212zM0,188h60v1h-60zM93,188h79v1h-79zM205,188h212v1h-212zM0,189h60v1h-60zM93,189h79v1h-79zM205,189h212v1h-212zM0,190h60v1h-60zM93,190h79v1h-79zM205,190h213v1h-213zM0,191h60v1h-60zM93,191h79v1h-79zM205,191h213v1h-213zM0,192h60v1h-60zM93,192h79v1h-79zM205,192h213v1h-213zM0,193h60v1h-60zM93,193h79v1h-79zM205,193h214v1h-214zM0,194h60v1h-60zM93,194h79v1h-79zM205,194h214v1h-214zM0,195h60v1h-60zM93,195h79v1h-79zM205,195h215v1h-215zM0,196h60v1h-60zM93,196h79v1h-79zM205,196h215v1h-215zM0,197h60v1h-60zM93,197h79v1h-79zM205,197h215v1h-215zM0,198h60v1h-60zM93,198h79v1h-79zM205,198h216v1h-216zM0,199h60v1h-60zM93,199h79v1h-79zM205,199h216v1h-216zM0,200h60v1h-60zM93,200h79v1h-79zM205,200h216v1h-216zM0,201h60v1h-60zM93,201h79v1h-79zM205,201h217v1h-217zM0,202h60v1h-60zM93,202h79v1h-79zM205,202h217v1h-217zM0,203h60v1h-60zM93,203h79v1h-79zM205,203h218v1h-218zM0,204h60v1h-60zM93,204h79v1h-79zM205,204h218v1h-218zM0,205h60v1h-60zM93,205h79v1h-79zM205,205h218v1h-218zM0,206h60v1h-60zM93,206h79v1h-79zM205,206h219v1h-219zM0,207h60v1h-60zM93,207h79v1h-79zM205,207h219v1h-219zM0,208h60v1h-60zM93,208h79v1h-79zM205,208h219v1h-219zM0,209h60v1h-60zM93,209h79v1h-79zM205,209h220v1h-220zM0,210h60v1h-60zM93,210h79v1h-79zM205,210h220v1h-220zM0,211h60v1h-60zM93,211h79v1h-79zM205,211h220v1h-220zM0,212h60v1h-60zM93,212h79v1h-79zM205,212h221v1h-221zM0,213h60v1h-60zM93,213h79v1h-79zM205,213h221v1h-221zM0,214h60v1h-60zM93,214h79v1h-79zM205,214h222v1h-222zM0,215h60v1h-60zM93,215h79v1h-79zM205,215h222v1h-222zM0,216h60v1h-60zM93,216h79v1h-79zM205,216h222v1h-222zM0,217h60v1h-60zM93,217h79v1h-79zM205,217h223v1h-223zM0,218h60v1h-60zM93,218h79v1h-79zM205,218h223v1h-223zM0,219h60v1h-60zM93,219h79v1h-79zM205,219h223v1h-223zM0,220h60v1h-60zM93,220h79v1h-79zM205,220h224v1h-224zM0,221h60v1h-60zM93,221h79v1h-79zM205,221h224v1h-224zM0,222h60v1h-60zM93,222h79v1h-79zM205,222h225v1h-225zM0,223h60v1h-60zM93,223h79v1h-79zM205,223h225v1h-225zM0,224h60v1h-60zM93,224h79v1h-79zM205,224h225v1h-225zM0,225h60v1h-60zM93,225h79v1h-79zM205,225h226v1h-226zM0,226h60v1h-60zM93,226h79v1h-79zM205,226h226v1h-226zM0,227h60v1h-60zM93,227h79v1h-79zM205,227h226v1h-226zM0,228h60v1h-60zM93,228h79v1h-79zM205,228h227v1h-227zM0,229h60v1h-60zM93,229h79v1h-79zM205,229h227v1h-227zM0,230h60v1h-60zM93,230h79v1h-79zM205,230h228v1h-228zM0,231h60v1h-60zM93,231h79v1h-79zM205,231h228v1h-228zM0,232h60v1h-60zM93,232h79v1h-79zM205,232h228v1h-228zM0,233h60v1h-60zM93,233h79v1h-79zM205,233h229v1h-229zM0,234h60v1h-60zM93,234h79v1h-79zM205,234h229v1h-229zM0,235h60v1h-60zM93,235h79v1h-79zM205,235h60v1h-60zM270,235h164v1h-164zM0,236h60v1h-60zM93,236h79v1h-79zM205,236h60v1h-60zM270,236h165v1h-165zM0,237h60v1h-60zM93,237h79v1h-79zM205,237h60v1h-60zM270,237h165v1h-165zM0,238h60v1h-60zM93,238h79v1h-79zM205,238h60v1h-60zM271,238h165v1h-165zM0,239h60v1h-60zM93,239h79v1h-79zM205,239h60v1h-60zM271,239h165v1h-165zM0,240h60v1h-60zM93,240h79v1h-79zM205,240h60v1h-60zM272,240h164v1h-164zM0,241h60v1h-60zM93,241h79v1h-79zM205,241h60v1h-60zM272,241h165v1h-165zM0,242h60v1h-60zM93,242h79v1h-79zM205,242h60v1h-60zM272,242h165v1h-165zM0,243h60v1h-60zM93,243h79v1h-79zM205,243h60v1h-60zM273,243h164v1h-164zM0,244h60v1h-60zM93,244h79v1h-79zM205,244h60v1h-60zM273,244h165v1h-165zM0,245h60v1h-60zM93,245h79v1h-79zM205,245h60v1h-60zM273,245h165v1h-165zM0,246h60v1h-60zM93,246h79v1h-79zM205,246h60v1h-60zM274,246h165v1h-165zM0,247h60v1h-60zM93,247h79v1h-79zM205,247h60v1h-60zM274,247h165v1h-165zM0,248h60v1h-60zM93,248h79v1h-79zM205,248h60v1h-60zM275,248h164v1h-164zM0,249h60v1h-60zM93,249h79v1h-79zM205,249h60v1h-60zM275,249h165v1h-165zM0,250h60v1h-60zM93,250h79v1h-79zM205,250h60v1h-60zM275,250h165v1h-165zM0,251h60v1h-60zM93,251h79v1h-79zM205,251h60v1h-60zM276,251h164v1h-164zM0,252h60v1h-60zM93,252h79v1h-79zM205,252h60v1h-60zM276,252h165v1h-165zM0,253h60v1h-60zM93,253h79v1h-79zM205,253h60v1h-60zM276,253h165v1h-165zM0,254h60v1h-60zM93,254h79v1h-79zM205,254h60v1h-60zM277,254h164v1h-164zM0,255h60v1h-60zM93,255h79v1h-79zM205,255h60v1h-60zM277,255h165v1h-165zM0,256h60v1h-60zM93,256h79v1h-79zM205,256h60v1h-60zM278,256h164v1h-164zM0,257h60v1h-60zM93,257h79v1h-79zM205,257h60v1h-60zM278,257h165v1h-165zM0,258h60v1h-60zM93,258h79v1h-79zM205,258h60v1h-60zM278,258h165v1h-165zM0,259h60v1h-60zM93,259h79v1h-79zM205,259h60v1h-60zM279,259h164v1h-164zM0,260h60v1h-60zM93,260h79v1h-79zM205,260h60v1h-60zM279,260h165v1h-165zM0,261h60v1h-60zM93,261h79v1h-79zM205,261h60v1h-60zM279,261h165v1h-165zM0,262h60v1h-60zM93,262h79v1h-79zM205,262h60v1h-60zM280,262h164v1h-164zM0,263h60v1h-60zM93,263h79v1h-79zM205,263h60v1h-60zM280,263h165v1h-165zM0,264h60v1h-60zM93,264h79v1h-79zM205,264h60v1h-60zM281,264h164v1h-164zM0,265h60v1h-60zM93,265h79v1h-79zM205,265h60v1h-60zM281,265h165v1h-165zM0,266h60v1h-60zM93,266h79v1h-79zM205,266h60v1h-60zM281,266h165v1h-165zM0,267h60v1h-60zM93,267h79v1h-79zM205,267h60v1h-60zM282,267h164v1h-164zM0,268h60v1h-60zM93,268h79v1h-79zM205,268h60v1h-60zM282,268h165v1h-165zM0,269h60v1h-60zM93,269h79v1h-79zM205,269h60v1h-60zM282,269h165v1h-165zM0,270h60v1h-60zM93,270h79v1h-79zM205,270h60v1h-60zM283,270h164v1h-164zM0,271h60v1h-60zM93,271h79v1h-79zM205,271h60v1h-60zM283,271h165v1h-165zM0,272h60v1h-60zM93,272h79v1h-79zM205,272h60v1h-60zM284,272h164v1h-164zM0,273h60v1h-60zM93,273h79v1h-79zM205,273h60v1h-60zM284,273h165v1h-165zM0,274h60v1h-60zM93,274h79v1h-79zM205,274h60v1h-60zM284,274h165v1h-165zM0,275h60v1h-60zM93,275h79v1h-79zM205,275h60v1h-60zM285,275h164v1h-164zM0,276h60v1h-60zM93,276h79v1h-79zM205,276h60v1h-60zM285,276h165v1h-165zM0,277h60v1h-60zM93,277h79v1h-79zM205,277h60v1h-60zM285,277h165v1h-165zM0,278h60v1h-60zM93,278h79v1h-79zM205,278h60v1h-60zM286,278h164v1h-164zM0,279h60v1h-60zM93,279h79v1h-79zM205,279h60v1h-60zM286,279h165v1h-165zM0,280h60v1h-60zM93,280h79v1h-79zM205,280h60v1h-60zM287,280h164v1h-164zM0,281h60v1h-60zM93,281h79v1h-79zM205,281h60v1h-60zM287,281h165v1h-165zM0,282h60v1h-60zM93,282h79v1h-79zM205,282h60v1h-60zM287,282h165v1h-165zM0,283h60v1h-60zM93,283h79v1h-79zM205,283h60v1h-60zM288,283h164v1h-164zM0,284h60v1h-60zM93,284h79v1h-79zM205,284h60v1h-60zM288,284h165v1h-165zM0,285h60v1h-60zM93,285h79v1h-79zM205,285h60v1h-60zM288,285h165v1h-165zM0,286h60v1h-60zM93,286h79v1h-79zM205,286h60v1h-60zM289,286h164v1h-164zM0,287h60v1h-60zM93,287h79v1h-79zM205,287h60v1h-60zM289,287h165v1h-165zM0,288h60v1h-60zM93,288h79v1h-79zM205,288h60v1h-60zM289,288h165v1h-165zM0,289h60v1h-60zM93,289h79v1h-79zM205,289h60v1h-60zM290,289h165v1h-165zM0,290h60v1h-60zM93,290h79v1h-79zM205,290h60v1h-60zM290,290h165v1h-165zM0,291h60v1h-60zM93,291h79v1h-79zM205,291h60v1h-60zM291,291h164v1h-164zM0,292h60v1h-60zM93,292h79v1h-79zM205,292h60v1h-60zM291,292h165v1h-165zM0,293h60v1h-60zM93,293h79v1h-79zM205,293h60v1h-60zM291,293h165v1h-165zM0,294h60v1h-60zM93,294h79v1h-79zM205,294h60v1h-60zM292,294h164v1h-164zM0,295h60v1h-60zM93,295h79v1h-79zM205,295h60v1h-60zM292,295h165v1h-165zM0,296h60v1h-60zM93,296h79v1h-79zM205,296h60v1h-60zM293,296h164v1h-164zM0,297h60v1h-60zM93,297h79v1h-79zM205,297h60v1h-60zM293,297h165v1h-165zM0,298h60v1h-60zM93,298h79v1h-79zM205,298h60v1h-60zM293,298h165v1h-165zM0,299h60v1h-60zM93,299h79v1h-79zM205,299h60v1h-60zM294,299h164v1h-164zM0,300h60v1h-60zM93,300h79v1h-79zM205,300h60v1h-60zM294,300h165v1h-165zM0,301h60v1h-60zM93,301h79v1h-79zM205,301h60v1h-60zM294,301h165v1h-165zM0,302h60v1h-60zM93,302h79v1h-79zM205,302h60v1h-60zM295,302h164v1h-164zM0,303h60v1h-60zM93,303h79v1h-79zM205,303h60v1h-60zM295,303h165v1h-165zM0,304h60v1h-60zM93,304h79v1h-79zM205,304h60v1h-60zM295,304h165v1h-165zM0,305h60v1h-60zM93,305h79v1h-79zM205,305h60v1h-60zM296,305h164v1h-164zM0,306h60v1h-60zM93,306h79v1h-79zM205,306h60v1h-60zM296,306h165v1h-165zM0,307h60v1h-60zM93,307h79v1h-79zM205,307h60v1h-60zM297,307h164v1h-164zM0,308h60v1h-60zM93,308h79v1h-79zM205,308h60v1h-60zM297,308h165v1h-165zM0,309h60v1h-60zM93,309h79v1h-79zM205,309h60v1h-60zM297,309h165v1h-165zM0,310h60v1h-60zM93,310h79v1h-79zM205,310h60v1h-60zM298,310h164v1h-164zM0,311h60v1h-60zM93,311h79v1h-79zM205,311h60v1h-60zM298,311h165v1h-165zM0,312h60v1h-60zM93,312h79v1h-79zM205,312h60v1h-60zM298,312h165v1h-165zM0,313h60v1h-60zM93,313h79v1h-79zM205,313h60v1h-60zM299,313h164v1h-164zM0,314h60v1h-60zM93,314h79v1h-79zM205,314h60v1h-60zM299,314h165v1h-165zM0,315h60v1h-60zM93,315h79v1h-79zM205,315h60v1h-60zM300,315h164v1h-164zM0,316h60v1h-60zM93,316h79v1h-79zM205,316h60v1h-60zM300,316h165v1h-165zM0,317h60v1h-60zM93,317h79v1h-79zM205,317h60v1h-60zM300,317h165v1h-165zM0,318h60v1h-60zM93,318h79v1h-79zM205,318h60v1h-60zM301,318h164v1h-164zM0,319h60v1h-60zM93,319h79v1h-79zM205,319h60v1h-60zM301,319h165v1h-165zM0,320h60v1h-60zM93,320h79v1h-79zM205,320h60v1h-60zM301,320h165v1h-165zM0,321h60v1h-60zM93,321h79v1h-79zM205,321h60v1h-60zM302,321h164v1h-164zM0,322h60v1h-60zM93,322h79v1h-79zM205,322h60v1h-60zM302,322h165v1h-165zM0,323h60v1h-60zM93,323h79v1h-79zM205,323h60v1h-60zM303,323h164v1h-164zM0,324h60v1h-60zM93,324h79v1h-79zM205,324h60v1h-60zM303,324h165v1h-165zM0,325h60v1h-60zM93,325h79v1h-79zM205,325h60v1h-60zM303,325h165v1h-165zM0,326h60v1h-60zM93,326h79v1h-79zM205,326h60v1h-60zM304,326h164v1h-164zM0,327h60v1h-60zM93,327h79v1h-79zM205,327h60v1h-60zM304,327h165v1h-165zM0,328h60v1h-60zM93,328h79v1h-79zM205,328h60v1h-60zM304,328h165v1h-165zM0,329h60v1h-60zM93,329h79v1h-79zM205,329h60v1h-60zM305,329h164v1h-164zM0,330h60v1h-60zM93,330h79v1h-79zM205,330h60v1h-60zM305,330h165v1h-165zM0,331h60v1h-60zM93,331h79v1h-79zM205,331h60v1h-60zM305,331h165v1h-165zM0,332h60v1h-60zM93,332h79v1h-79zM205,332h60v1h-60zM306,332h165v1h-165zM0,333h60v1h-60zM93,333h79v1h-79zM205,333h60v1h-60zM306,333h165v1h-165zM0,334h60v1h-60zM93,334h79v1h-79zM205,334h60v1h-60zM307,334h164v1h-164zM0,335h60v1h-60zM93,335h79v1h-79zM205,335h60v1h-60zM307,335h165v1h-165zM0,336h60v1h-60zM93,336h79v1h-79zM205,336h60v1h-60zM307,336h165v1h-165zM0,337h60v1h-60zM93,337h79v1h-79zM205,337h60v1h-60zM308,337h164v1h-164zM0,338h60v1h-60zM93,338h79v1h-79zM205,338h60v1h-60zM308,338h165v1h-165zM0,339h60v1h-60zM93,339h79v1h-79zM205,339h60v1h-60zM308,339h165v1h-165zM0,340h60v1h-60zM93,340h79v1h-79zM205,340h60v1h-60zM309,340h165v1h-165zM0,341h60v1h-60zM93,341h79v1h-79zM205,341h60v1h-60zM309,341h165v1h-165zM0,342h60v1h-60zM93,342h79v1h-79zM205,342h60v1h-60zM310,342h164v1h-164zM0,343h60v1h-60zM93,343h79v1h-79zM205,343h60v1h-60zM310,343h165v1h-165zM0,344h60v1h-60zM93,344h79v1h-79zM205,344h60v1h-60zM310,344h165v1h-165zM0,345h60v1h-60zM93,345h79v1h-79zM205,345h60v1h-60zM311,345h164v1h-164zM0,346h60v1h-60zM93,346h79v1h-79zM205,346h60v1h-60zM311,346h165v1h-165zM0,347h60v1h-60zM93,347h79v1h-79zM205,347h60v1h-60zM312,347h164v1h-164zM0,348h60v1h-60zM93,348h79v1h-79zM205,348h60v1h-60zM312,348h165v1h-165zM0,349h60v1h-60zM93,349h79v1h-79zM205,349h60v1h-60zM312,349h165v1h-165zM0,350h60v1h-60zM93,350h79v1h-79zM205,350h60v1h-60zM313,350h164v1h-164zM0,351h60v1h-60zM93,351h79v1h-79zM205,351h60v1h-60zM313,351h165v1h-165zM0,352h60v1h-60zM93,352h79v1h-79zM205,352h60v1h-60zM313,352h165v1h-165zM0,353h60v1h-60zM93,353h79v1h-79zM205,353h60v1h-60zM314,353h164v1h-164zM0,354h60v1h-60zM93,354h79v1h-79zM205,354h60v1h-60zM314,354h165v1h-165zM0,355h60v1h-60zM93,355h79v1h-79zM205,355h60v1h-60zM314,355h165v1h-165zM0,356h60v1h-60zM93,356h79v1h-79zM205,356h60v1h-60zM315,356h164v1h-164zM0,357h60v1h-60zM93,357h79v1h-79zM205,357h60v1h-60zM315,357h165v1h-165zM0,358h60v1h-60zM93,358h79v1h-79zM205,358h60v1h-60zM316,358h164v1h-164zM0,359h60v1h-60zM93,359h79v1h-79zM205,359h60v1h-60zM316,359h165v1h-165zM0,360h60v1h-60zM93,360h79v1h-79zM205,360h60v1h-60zM316,360h165v1h-165zM0,361h60v1h-60zM93,361h79v1h-79zM205,361h60v1h-60zM317,361h164v1h-164zM0,362h60v1h-60zM93,362h79v1h-79zM205,362h60v1h-60zM317,362h165v1h-165zM0,363h60v1h-60zM93,363h79v1h-79zM205,363h60v1h-60zM317,363h165v1h-165zM0,364h60v1h-60zM93,364h79v1h-79zM205,364h60v1h-60zM318,364h164v1h-164zM0,365h60v1h-60zM93,365h79v1h-79zM205,365h60v1h-60zM318,365h165v1h-165zM0,366h60v1h-60zM93,366h79v1h-79zM205,366h60v1h-60zM319,366h164v1h-164zM0,367h60v1h-60zM93,367h79v1h-79zM205,367h60v1h-60zM319,367h165v1h-165zM0,368h60v1h-60zM93,368h79v1h-79zM205,368h60v1h-60zM319,368h165v1h-165zM0,369h60v1h-60zM93,369h79v1h-79zM205,369h60v1h-60zM320,369h164v1h-164zM0,370h60v1h-60zM93,370h79v1h-79zM205,370h60v1h-60zM320,370h165v1h-165zM0,371h60v1h-60zM93,371h79v1h-79zM205,371h60v1h-60zM320,371h165v1h-165zM0,372h60v1h-60zM93,372h79v1h-79zM205,372h60v1h-60zM321,372h164v1h-164zM0,373h60v1h-60zM93,373h79v1h-79zM205,373h60v1h-60zM321,373h165v1h-165zM0,374h60v1h-60zM93,374h79v1h-79zM205,374h60v1h-60zM322,374h164v1h-164zM0,375h60v1h-60zM93,375h79v1h-79zM205,375h60v1h-60zM322,375h165v1h-165zM0,376h60v1h-60zM93,376h79v1h-79zM205,376h60v1h-60zM322,376h165v1h-165zM0,377h60v1h-60zM93,377h79v1h-79zM205,377h60v1h-60zM323,377h164v1h-164zM0,378h60v1h-60zM93,378h79v1h-79zM205,378h60v1h-60zM323,378h165v1h-165zM0,379h60v1h-60zM93,379h79v1h-79zM205,379h60v1h-60zM323,379h165v1h-165zM0,380h60v1h-60zM93,380h79v1h-79zM205,380h60v1h-60zM324,380h164v1h-164zM0,381h60v1h-60zM93,381h79v1h-79zM205,381h60v1h-60zM324,381h165v1h-165zM0,382h60v1h-60zM93,382h79v1h-79zM205,382h60v1h-60zM325,382h164v1h-164zM0,383h60v1h-60zM93,383h79v1h-79zM205,383h60v1h-60zM325,383h164v1h-164zM0,384h60v1h-60zM93,384h79v1h-79zM205,384h60v1h-60zM325,384h165v1h-165zM0,385h60v1h-60zM93,385h79v1h-79zM205,385h60v1h-60zM326,385h164v1h-164zM0,386h60v1h-60zM93,386h79v1h-79zM205,386h60v1h-60zM326,386h165v1h-165zM0,387h60v1h-60zM93,387h79v1h-79zM205,387h60v1h-60zM326,387h165v1h-165zM0,388h60v1h-60zM93,388h79v1h-79zM205,388h60v1h-60zM327,388h164v1h-164zM0,389h60v1h-60zM93,389h79v1h-79zM205,389h60v1h-60zM327,389h165v1h-165zM0,390h60v1h-60zM93,390h79v1h-79zM205,390h60v1h-60zM328,390h164v1h-164zM0,391h60v1h-60zM93,391h79v1h-79zM205,391h60v1h-60zM328,391h164v1h-164zM0,392h60v1h-60zM93,392h79v1h-79zM205,392h60v1h-60zM328,392h165v1h-165zM0,393h60v1h-60zM93,393h79v1h-79zM205,393h60v1h-60zM329,393h164v1h-164zM0,394h60v1h-60zM93,394h79v1h-79zM205,394h60v1h-60zM329,394h165v1h-165zM0,395h60v1h-60zM93,395h79v1h-79zM205,395h60v1h-60zM329,395h165v1h-165zM0,396h60v1h-60zM93,396h79v1h-79zM205,396h60v1h-60zM330,396h164v1h-164zM0,397h60v1h-60zM93,397h79v1h-79zM205,397h60v1h-60zM330,397h165v1h-165zM0,398h60v1h-60zM93,398h79v1h-79zM205,398h60v1h-60zM331,398h164v1h-164zM0,399h60v1h-60zM93,399h79v1h-79zM205,399h60v1h-60zM331,399h164v1h-164zM0,400h60v1h-60zM93,400h79v1h-79zM205,400h60v1h-60zM331,400h165v1h-165zM0,401h60v1h-60zM93,401h79v1h-79zM205,401h60v1h-60zM332,401h164v1h-164zM0,402h60v1h-60zM93,402h79v1h-79zM205,402h60v1h-60zM332,402h165v1h-165zM0,403h60v1h-60zM93,403h79v1h-79zM205,403h60v1h-60zM332,403h165v1h-165zM0,404h60v1h-60zM93,404h79v1h-79zM205,404h60v1h-60zM333,404h164v1h-164zM0,405h60v1h-60zM93,405h79v1h-79zM205,405h60v1h-60zM333,405h165v1h-165zM0,406h60v1h-60zM93,406h79v1h-79zM205,406h60v1h-60zM333,406h165v1h-165zM0,407h60v1h-60zM93,407h79v1h-79zM205,407h60v1h-60zM334,407h164v1h-164zM0,408h60v1h-60zM93,408h79v1h-79zM205,408h60v1h-60zM334,408h165v1h-165zM0,409h60v1h-60zM93,409h79v1h-79zM205,409h60v1h-60zM335,409h164v1h-164zM0,410h60v1h-60zM93,410h79v1h-79zM205,410h60v1h-60zM335,410h165v1h-165zM0,411h60v1h-60zM93,411h79v1h-79zM205,411h60v1h-60zM335,411h165v1h-165zM0,412h60v1h-60zM93,412h79v1h-79zM205,412h60v1h-60zM336,412h164v1h-164zM0,413h60v1h-60zM93,413h79v1h-79zM205,413h60v1h-60zM336,413h165v1h-165zM0,414h60v1h-60zM93,414h79v1h-79zM205,414h60v1h-60zM337,414h164v1h-164zM0,415h60v1h-60zM93,415h79v1h-79zM205,415h60v1h-60zM337,415h164v1h-164zM0,416h60v1h-60zM93,416h79v1h-79zM205,416h60v1h-60zM337,416h165v1h-165zM0,417h60v1h-60zM93,417h79v1h-79zM205,417h60v1h-60zM338,417h164v1h-164zM0,418h60v1h-60zM93,418h79v1h-79zM205,418h60v1h-60zM338,418h165v1h-165zM0,419h60v1h-60zM93,419h79v1h-79zM205,419h60v1h-60zM338,419h165v1h-165zM0,420h60v1h-60zM93,420h79v1h-79zM205,420h60v1h-60zM339,420h164v1h-164zM0,421h60v1h-60zM93,421h79v1h-79zM205,421h60v1h-60zM339,421h165v1h-165zM0,422h60v1h-60zM93,422h79v1h-79zM205,422h60v1h-60zM339,422h165v1h-165zM0,423h60v1h-60zM93,423h79v1h-79zM205,423h60v1h-60zM340,423h164v1h-164zM0,424h60v1h-60zM93,424h79v1h-79zM205,424h60v1h-60zM340,424h165v1h-165zM0,425h60v1h-60zM93,425h79v1h-79zM205,425h60v1h-60zM341,425h164v1h-164zM0,426h60v1h-60zM93,426h79v1h-79zM205,426h60v1h-60zM341,426h165v1h-165zM0,427h60v1h-60zM93,427h79v1h-79zM205,427h60v1h-60zM341,427h165v1h-165zM0,428h60v1h-60zM93,428h79v1h-79zM205,428h60v1h-60zM342,428h164v1h-164zM0,429h60v1h-60zM93,429h79v1h-79zM205,429h60v1h-60zM342,429h165v1h-165zM0,430h60v1h-60zM93,430h79v1h-79zM205,430h60v1h-60zM342,430h165v1h-165zM0,431h60v1h-60zM93,431h79v1h-79zM205,431h60v1h-60zM343,431h164v1h-164zM0,432h60v1h-60zM93,432h79v1h-79zM205,432h60v1h-60zM343,432h165v1h-165zM0,433h60v1h-60zM93,433h79v1h-79zM205,433h60v1h-60zM344,433h164v1h-164zM0,434h60v1h-60zM93,434h79v1h-79zM205,434h60v1h-60zM344,434h164v1h-164zM0,435h60v1h-60zM93,435h79v1h-79zM205,435h60v1h-60zM344,435h165v1h-165zM0,436h60v1h-60zM93,436h79v1h-79zM205,436h60v1h-60zM345,436h164v1h-164zM0,437h60v1h-60zM93,437h79v1h-79zM205,437h60v1h-60zM345,437h164v1h-164zM0,438h60v1h-60zM93,438h79v1h-79zM205,438h60v1h-60zM345,438h164v1h-164zM0,439h60v1h-60zM93,439h79v1h-79zM205,439h60v1h-60zM346,439h166v1h-166zM0,440h60v1h-60zM93,440h79v1h-79zM205,440h60v1h-60zM346,440h166v1h-166zM0,441h60v1h-60zM93,441h79v1h-79zM205,441h60v1h-60zM347,441h165v1h-165zM0,442h60v1h-60zM93,442h79v1h-79zM205,442h60v1h-60zM347,442h165v1h-165zM0,443h60v1h-60zM93,443h79v1h-79zM205,443h60v1h-60zM347,443h165v1h-165zM0,444h60v1h-60zM93,444h79v1h-79zM205,444h60v1h-60zM348,444h164v1h-164zM0,445h60v1h-60zM93,445h79v1h-79zM205,445h60v1h-60zM348,445h164v1h-164zM0,446h60v1h-60zM93,446h79v1h-79zM205,446h60v1h-60zM348,446h164v1h-164zM0,447h60v1h-60zM93,447h79v1h-79zM205,447h60v1h-60zM349,447h163v1h-163zM0,448h60v1h-60zM93,448h79v1h-79zM205,448h60v1h-60zM349,448h163v1h-163zM0,449h60v1h-60zM93,449h79v1h-79zM205,449h60v1h-60zM350,449h162v1h-162zM0,450h60v1h-60zM93,450h79v1h-79zM205,450h60v1h-60zM350,450h162v1h-162zM0,451h61v1h-61zM93,451h80v1h-80zM204,451h61v1h-61zM350,451h162v1h-162zM0,452h265v1h-265zM351,452h161v1h-161zM0,453h265v1h-265zM351,453h158v1h-158zM0,454h265v1h-265zM351,454h158v1h-158zM0,455h265v1h-265zM352,455h157v1h-157zM0,456h265v1h-265zM352,456h157v1h-157zM0,457h265v1h-265zM352,457h156v1h-156zM0,458h265v1h-265zM353,458h155v1h-155zM0,459h265v1h-265zM353,459h155v1h-155zM0,460h265v1h-265zM354,460h153v1h-153zM0,461h265v1h-265zM354,461h153v1h-153zM0,462h265v1h-265zM354,462h152v1h-152zM0,463h265v1h-265zM355,463h151v1h-151zM0,464h265v1h-265zM355,464h150v1h-150zM0,465h265v1h-265zM355,465h150v1h-150zM0,466h265v1h-265zM356,466h148v1h-148zM0,467h265v1h-265zM356,467h148v1h-148zM0,468h265v1h-265zM357,468h146v1h-146zM0,469h265v1h-265zM357,469h145v1h-145zM0,470h265v1h-265zM357,470h145v1h-145zM0,471h265v1h-265zM358,471h143v1h-143zM0,472h265v1h-265zM358,472h142v1h-142zM0,473h265v1h-265zM358,473h141v1h-141zM0,474h265v1h-265zM359,474h139v1h-139zM0,475h265v1h-265zM359,475h138v1h-138zM0,476h265v1h-265zM360,476h136v1h-136zM0,477h265v1h-265zM360,477h135v1h-135zM0,478h265v1h-265zM360,478h133v1h-133zM0,479h265v1h-265zM361,479h131v1h-131zM0,480h265v1h-265zM361,480h129v1h-129zM0,481h265v1h-265zM361,481h127v1h-127zM0,482h264v1h-264zM362,482h124v1h-124zM0,483h264v1h-264zM362,483h121v1h-121zM0,484h264v1h-264zM363,484h117v1h-117zM0,485h263v1h-263zM363,485h115v1h-115zM0,486h263v1h-263zM363,486h112v1h-112zM3,487h260v1h-260zM364,487h108v1h-108zM3,488h259v1h-259zM364,488h106v1h-106zM4,489h258v1h-258zM365,489h102v1h-102zM4,490h257v1h-257zM365,490h99v1h-99zM5,491h256v1h-256zM365,491h97v1h-97zM5,492h255v1h-255zM366,492h93v1h-93zM6,493h253v1h-253zM367,493h89v1h-89zM6,494h253v1h-253zM367,494h87v1h-87zM7,495h251v1h-251zM368,495h83v1h-83zM8,496h249v1h-249zM369,496h79v1h-79zM9,497h248v1h-248zM369,497h77v1h-77zM9,498h247v1h-247zM370,498h73v1h-73zM10,499h245v1h-245zM371,499h69v1h-69zM11,500h243v1h-243zM372,500h66v1h-66zM12,501h241v1h-241zM373,501h62v1h-62zM14,502h238v1h-238zM374,502h58v1h-58zM15,503h236v1h-236zM376,503h54v1h-54zM16,504h233v1h-233zM377,504h50v1h-50zM17,505h231v1h-231zM379,505h45v1h-45zM19,506h227v1h-227zM380,506h41v1h-41zM20,507h225v1h-225zM382,507h37v1h-37zM23,508h219v1h-219zM384,508h32v1h-32zM25,509h104v1h-104zM137,509h103v1h-103zM387,509h26v1h-26zM25,510h104v1h-104zM137,510h103v1h-103zM387,510h26v1h-26zM25,511h104v1h-104zM137,511h103v1h-103zM387,511h26v1h-26z"/></svg>