<?xml version="1.0" encoding="UTF-8"?>
<svg xmlns="http://www.w3.org/2000/svg" viewBox="0 0 1024 1024" width="512" height="512"><path fill="#000" d="M57,0h193v1h-193zM280,0h193v1h-193zM620,0h33v1h-33zM57,1h193v1h-193zM280,1h193v1h-193zM620,1h33v1h-33zM57,2h193v1h-193zM280,2h193v1h-193zM620,2h33v1h-33zM54,3h199v1h-199zM278,3h198v1h-198zM618,3h40v1h-40zM51,4h204v1h-204zM275,4h203v1h-203zM615,4h46v1h-46zM49,5h209v1h-209zM273,5h208v1h-208zM612,5h52v1h-52zM47,6h213v1h-213zM271,6h212v1h-212zM609,6h58v1h-58zM44,7h218v1h-218zM268,7h217v1h-217zM606,7h63v1h-63zM42,8h446v1h-446zM603,8h69v1h-69zM41,9h448v1h-448zM601,9h72v1h-72zM39,10h452v1h-452zM598,10h77v1h-77zM37,11h456v1h-456zM596,11h81v1h-81zM36,12h459v1h-459zM593,12h86v1h-86zM34,13h462v1h-462zM590,13h90v1h-90zM33,14h464v1h-464zM587,14h95v1h-95zM32,15h466v1h-466zM585,15h98v1h-98zM30,16h470v1h-470zM582,16h103v1h-103zM29,17h472v1h-472zM579,17h107v1h-107zM28,18h474v1h-474zM576,18h111v1h-111zM27,19h476v1h-476zM574,19h115v1h-115zM26,20h478v1h-478zM571,20h119v1h-119zM24,21h481v1h-481zM569,21h122v1h-122zM23,22h484v1h-484zM566,22h126v1h-126zM22,23h485v1h-485zM564,23h129v1h-129zM21,24h487v1h-487zM560,24h134v1h-134zM20,25h489v1h-489zM558,25h137v1h-137zM19,26h491v1h-491zM555,26h141v1h-141zM19,27h492v1h-492zM553,27h144v1h-144zM18,28h494v1h-494zM550,28h148v1h-148zM17,29h496v1h-496zM547,29h152v1h-152zM16,30h498v1h-498zM544,30h155v1h-155zM15,31h500v1h-500zM542,31h158v1h-158zM15,32h500v1h-500zM539,32h162v1h-162zM14,33h502v1h-502zM537,33h165v1h-165zM13,34h504v1h-504zM534,34h168v1h-168zM13,35h504v1h-504zM532,35h171v1h-171zM12,36h506v1h-506zM528,36h176v1h-176zM12,37h507v1h-507zM526,37h179v1h-179zM11,38h694v1h-694zM10,39h696v1h-696zM10,40h696v1h-696zM9,41h698v1h-698zM9,42h699v1h-699zM8,43h700v1h-700zM8,44h701v1h-701zM7,45h702v1h-702zM7,46h703v1h-703zM6,47h704v1h-704zM6,48h705v1h-705zM5,49h706v1h-706zM5,50h706v1h-706zM4,51h708v1h-708zM4,52h708v1h-708zM4,53h709v1h-709zM3,54h710v1h-710zM3,55h710v1h-710zM3,56h711v1h-711zM0,57h714v1h-714zM0,58h715v1h-715zM0,59h715v1h-715zM0,60h715v1h-715zM0,61h716v1h-716zM0,62h716v1h-716zM0,63h716v1h-716zM0,64h717v1h-717zM0,65h717v1h-717zM0,66h718v1h-718zM0,67h718v1h-718zM0,68h718v1h-718zM0,69h719v1h-719zM0,70h719v1h-719zM0,71h719v1h-719zM0,72h720v1h-720zM0,73h720v1h-720zM0,74h721v1h-721zM0,75h721v1h-721zM0,76h721v1h-721zM0,77h722v1h-722zM0,78h722v1h-722zM0,79h722v1h-722zM0,80h723v1h-723zM0,81h723v1h-723zM0,82h723v1h-723zM0,83h724v1h-724zM0,84h724v1h-724zM0,85h725v1h-725zM0,86h110v1h-110zM212,86h126v1h-126zM423,86h302v1h-302zM0,87h87v1h-87zM220,87h90v1h-90zM430,87h295v1h-295zM0,88h87v1h-87zM220,88h90v1h-90zM430,88h296v1h-296zM0,89h87v1h-87zM220,89h90v1h-90zM430,89h296v1h-296zM0,90h87v1h-87zM220,90h90v1h-90zM430,90h296v1h-296zM0,91h87v1h-87zM220,91h90v1h-90zM430,91h199v1h-199zM634,91h93v1h-93zM0,92h87v1h-87zM220,92h90v1h-90zM429,92h197v1h-197zM634,92h93v1h-93zM0,93h87v1h-87zM220,93h90v1h-90zM429,93h195v1h-195zM635,93h93v1h-93zM0,94h87v1h-87zM220,94h90v1h-90zM428,94h193v1h-193zM635,94h93v1h-93zM0,95h87v1h-87zM220,95h90v1h-90zM428,95h190v1h-190zM635,95h93v1h-93zM0,96h87v1h-87zM220,96h90v1h-90zM427,96h189v1h-189zM636,96h93v1h-93zM0,97h87v1h-87zM220,97h90v1h-90zM427,97h186v1h-186zM636,97h93v1h-93zM0,98h87v1h-87zM220,98h90v1h-90zM426,98h184v1h-184zM637,98h92v1h-92zM0,99h87v1h-87zM220,99h90v1h-90zM426,99h181v1h-181zM637,99h93v1h-93zM0,100h86v1h-86zM220,100h90v1h-90zM425,100h180v1h-180zM637,100h93v1h-93zM0,101h86v1h-86zM220,101h90v1h-90zM425,101h177v1h-177zM638,101h93v1h-93zM0,102h86v1h-86zM220,102h90v1h-90zM425,102h174v1h-174zM638,102h93v1h-93zM0,103h86v1h-86zM220,103h90v1h-90zM424,103h173v1h-173zM638,103h93v1h-93zM0,104h86v1h-86zM220,104h90v1h-90zM424,104h170v1h-170zM639,104h93v1h-93zM0,105h86v1h-86zM220,105h90v1h-90zM423,105h168v1h-168zM639,105h93v1h-93zM0,106h86v1h-86zM220,106h90v1h-90zM423,106h166v1h-166zM640,106h92v1h-92zM0,107h86v1h-86zM220,107h90v1h-90zM423,107h163v1h-163zM640,107h93v1h-93zM0,108h86v1h-86zM220,108h90v1h-90zM422,108h161v1h-161zM640,108h93v1h-93zM0,109h86v1h-86zM220,109h90v1h-90zM422,109h158v1h-158zM641,109h93v1h-93zM0,110h86v1h-86zM220,110h90v1h-90zM422,110h156v1h-156zM641,110h93v1h-93zM0,111h86v1h-86zM220,111h90v1h-90zM421,111h154v1h-154zM641,111h93v1h-93zM0,112h86v1h-86zM220,112h90v1h-90zM421,112h152v1h-152zM642,112h93v1h-93zM0,113h86v1h-86zM220,113h90v1h-90zM421,113h149v1h-149zM642,113h93v1h-93zM0,114h86v1h-86zM220,114h90v1h-90zM421,114h146v1h-146zM642,114h93v1h-93zM0,115h86v1h-86zM220,115h90v1h-90zM420,115h145v1h-145zM643,115h93v1h-93zM0,116h86v1h-86zM220,116h90v1h-90zM420,116h142v1h-142zM643,116h93v1h-93zM0,117h86v1h-86zM220,117h90v1h-90zM420,117h139v1h-139zM644,117h93v1h-93zM0,118h86v1h-86zM220,118h90v1h-90zM420,118h137v1h-137zM644,118h93v1h-93zM0,119h86v1h-86zM220,119h90v1h-90zM420,119h134v1h-134zM644,119h93v1h-93zM0,120h86v1h-86zM220,120h90v1h-90zM420,120h131v1h-131zM645,120h93v1h-93zM0,121h86v1h-86zM220,121h90v1h-90zM419,121h129v1h-129zM645,121h93v1h-93zM0,122h86v1h-86zM220,122h90v1h-90zM419,122h127v1h-127zM645,122h94v1h-94zM0,123h86v1h-86zM220,123h90v1h-90zM419,123h124v1h-124zM646,123h93v1h-93zM0,124h86v1h-86zM220,124h90v1h-90zM419,124h121v1h-121zM646,124h93v1h-93zM0,125h86v1h-86zM220,125h90v1h-90zM419,125h119v1h-119zM647,125h93v1h-93zM0,126h86v1h-86zM220,126h90v1h-90zM419,126h116v1h-116zM647,126h93v1h-93zM0,127h86v1h-86zM220,127h90v1h-90zM419,127h113v1h-113zM647,127h93v1h-93zM0,128h86v1h-86zM220,128h90v1h-90zM419,128h112v1h-112zM648,128h93v1h-93zM0,129h86v1h-86zM220,129h90v1h-90zM419,129h112v1h-112zM648,129h93v1h-93zM0,130h86v1h-86zM220,130h90v1h-90zM419,130h112v1h-112zM648,130h93v1h-93zM0,131h86v1h-86zM220,131h90v1h-90zM419,131h112v1h-112zM649,131h93v1h-93zM0,132h86v1h-86zM220,132h90v1h-90zM419,132h112v1h-112zM649,132h93v1h-93zM0,133h86v1h-86zM220,133h90v1h-90zM419,133h112v1h-112zM650,133h93v1h-93zM0,134h86v1h-86zM220,134h90v1h-90zM419,134h112v1h-112zM650,134h93v1h-93zM0,135h86v1h-86zM220,135h90v1h-90zM419,135h112v1h-112zM650,135h93v1h-93zM0,136h86v1h-86zM220,136h90v1h-90zM419,136h112v1h-112zM651,136h93v1h-93zM0,137h86v1h-86zM220,137h90v1h-90zM419,137h112v1h-112zM651,137h93v1h-93zM0,138h86v1h-86zM220,138h90v1h-90zM419,138h112v1h-112zM652,138h92v1h-92zM0,139h86v1h-86zM220,139h90v1h-90zM419,139h112v1h-112zM652,139h93v1h-93zM0,140h86v1h-86zM220,140h90v1h-90zM419,140h112v1h-112zM652,140h93v1h-93zM0,141h86v1h-86zM220,141h90v1h-90zM419,141h112v1h-112zM653,141h92v1h-92zM0,142h86v1h-86zM220,142h90v1h-90zM419,142h112v1h-112zM653,142h93v1h-93zM0,143h86v1h-86zM220,143h90v1h-90zM420,143h111v1h-111zM653,143h93v1h-93zM0,144h86v1h-86zM220,144h90v1h-90zM420,144h111v1h-111zM654,144h93v1h-93zM0,145h86v1h-86zM220,145h90v1h-90zM420,145h111v1h-111zM654,145h93v1h-93zM0,146h86v1h-86zM220,146h90v1h-90zM420,146h111v1h-111zM655,146h92v1h-92zM0,147h86v1h-86zM220,147h90v1h-90zM420,147h111v1h-111zM655,147h93v1h-93zM0,148h86v1h-86zM220,148h90v1h-90zM420,148h111v1h-111zM655,148h93v1h-93zM0,149h86v1h-86zM220,149h90v1h-90zM421,149h110v1h-110zM656,149h93v1h-93zM0,150h86v1h-86zM220,150h90v1h-90zM421,150h110v1h-110zM656,150h93v1h-93zM0,151h86v1h-86zM220,151h90v1h-90zM421,151h110v1h-110zM656,151h93v1h-93zM0,152h86v1h-86zM220,152h90v1h-90zM421,152h110v1h-110zM657,152h93v1h-93zM0,153h86v1h-86zM220,153h90v1h-90zM421,153h110v1h-110zM657,153h93v1h-93zM0,154h86v1h-86zM220,154h90v1h-90zM422,154h109v1h-109zM657,154h93v1h-93zM0,155h86v1h-86zM220,155h90v1h-90zM422,155h109v1h-109zM658,155h93v1h-93zM0,156h86v1h-86zM220,156h90v1h-90zM423,156h108v1h-108zM658,156h93v1h-93zM0,157h86v1h-86zM220,157h90v1h-90zM423,157h108v1h-108zM658,157h93v1h-93zM0,158h86v1h-86zM220,158h90v1h-90zM423,158h108v1h-108zM659,158h93v1h-93zM0,159h86v1h-86zM220,159h90v1h-90zM424,159h107v1h-107zM659,159h93v1h-93zM0,160h86v1h-86zM220,160h90v1h-90zM424,160h107v1h-107zM660,160h93v1h-93zM0,161h86v1h-86zM220,161h90v1h-90zM424,161h107v1h-107zM660,161h93v1h-93zM0,162h86v1h-86zM220,162h90v1h-90zM425,162h106v1h-106zM660,162h93v1h-93zM0,163h86v1h-86zM220,163h90v1h-90zM425,163h106v1h-106zM661,163h93v1h-93zM0,164h86v1h-86zM220,164h90v1h-90zM426,164h105v1h-105zM661,164h93v1h-93zM0,165h86v1h-86zM220,165h90v1h-90zM426,165h105v1h-105zM662,165h92v1h-92zM0,166h86v1h-86zM220,166h90v1h-90zM426,166h104v1h-104zM662,166h93v1h-93zM0,167h86v1h-86zM220,167h90v1h-90zM427,167h103v1h-103zM662,167h93v1h-93zM0,168h86v1h-86zM220,168h90v1h-90zM427,168h103v1h-103zM663,168h93v1h-93zM0,169h86v1h-86zM220,169h90v1h-90zM427,169h103v1h-103zM663,169h93v1h-93zM0,170h86v1h-86zM220,170h90v1h-90zM428,170h102v1h-102zM663,170h93v1h-93zM0,171h86v1h-86zM220,171h90v1h-90zM428,171h102v1h-102zM664,171h93v1h-93zM0,172h86v1h-86zM220,172h90v1h-90zM428,172h102v1h-102zM664,172h93v1h-93zM0,173h86v1h-86zM220,173h90v1h-90zM429,173h101v1h-101zM665,173h92v1h-92zM0,174h86v1h-86zM220,174h90v1h-90zM429,174h101v1h-101zM665,174h93v1h-93zM0,175h86v1h-86zM220,175h90v1h-90zM429,175h101v1h-101zM665,175h93v1h-93zM0,176h86v1h-86zM220,176h90v1h-90zM430,176h100v1h-100zM666,176h93v1h-93zM0,177h86v1h-86zM220,177h90v1h-90zM430,177h100v1h-100zM666,177h93v1h-93zM0,178h86v1h-86zM220,178h90v1h-90zM431,178h99v1h-99zM666,178h93v1h-93zM0,179h86v1h-86zM220,179h90v1h-90zM431,179h99v1h-99zM667,179h93v1h-93zM0,180h86v1h-86zM220,180h90v1h-90zM431,180h99v1h-99zM667,180h93v1h-93zM0,181h86v1h-86zM220,181h90v1h-90zM432,181h98v1h-98zM667,181h93v1h-93zM0,182h86v1h-86zM220,182h90v1h-90zM432,182h98v1h-98zM668,182h93v1h-93zM0,183h86v1h-86zM220,183h90v1h-90zM433,183h97v1h-97zM668,183h93v1h-93zM0,184h86v1h-86zM220,184h90v1h-90zM433,184h97v1h-97zM669,184h92v1h-92zM0,185h86v1h-86zM220,185h90v1h-90zM433,185h97v1h-97zM669,185h93v1h-93zM0,186h86v1h-86zM220,186h90v1h-90zM434,186h97v1h-97zM669,186h93v1h-93zM0,187h86v1h-86zM220,187h90v1h-90zM434,187h97v1h-97zM670,187h93v1h-93zM0,188h86v1h-86zM220,188h90v1h-90zM434,188h97v1h-97zM670,188h93v1h-93zM0,189h86v1h-86zM220,189h90v1h-90zM435,189h96v1h-96zM670,189h93v1h-93zM0,190h86v1h-86zM220,190h90v1h-90zM435,190h96v1h-96zM671,190h93v1h-93zM0,191h86v1h-86zM220,191h90v1h-90zM436,191h95v1h-95zM671,191h93v1h-93zM0,192h86v1h-86zM220,192h90v1h-90zM436,192h95v1h-95zM672,192h93v1h-93zM0,193h86v1h-86zM220,193h90v1h-90zM436,193h95v1h-95zM672,193h93v1h-93zM0,194h86v1h-86zM220,194h90v1h-90zM437,194h94v1h-94zM672,194h93v1h-93zM0,195h86v1h-86zM220,195h90v1h-90zM437,195h94v1h-94zM673,195h93v1h-93zM0,196h86v1h-86zM220,196h90v1h-90zM437,196h94v1h-94zM673,196h93v1h-93zM0,197h86v1h-86zM220,197h90v1h-90zM438,197h93v1h-93zM673,197h93v1h-93zM0,198h86v1h-86zM220,198h90v1h-90zM438,198h93v1h-93zM674,198h93v1h-93zM0,199h86v1h-86zM220,199h90v1h-90zM439,199h93v1h-93zM674,199h93v1h-93zM0,200h86v1h-86zM220,200h90v1h-90zM439,200h93v1h-93zM675,200h93v1h-93zM0,201h86v1h-86zM220,201h90v1h-90zM439,201h93v1h-93zM675,201h93v1h-93zM0,202h86v1h-86zM220,202h90v1h-90zM440,202h93v1h-93zM675,202h93v1h-93zM0,203h86v1h-86zM220,203h90v1h-90zM440,203h93v1h-93zM676,203h93v1h-93zM0,204h86v1h-86zM220,204h90v1h-90zM440,204h93v1h-93zM676,204h93v1h-93zM0,205h86v1h-86zM220,205h90v1h-90zM441,205h93v1h-93zM676,205h93v1h-93zM0,206h86v1h-86zM220,206h90v1h-90zM441,206h93v1h-93zM677,206h93v1h-93zM0,207h86v1h-86zM220,207h90v1h-90zM442,207h92v1h-92zM677,207h93v1h-93zM0,208h86v1h-86zM220,208h90v1h-90zM442,208h93v1h-93zM678,208h93v1h-93zM0,209h86v1h-86zM220,209h90v1h-90zM442,209h93v1h-93zM678,209h93v1h-93zM0,210h86v1h-86zM220,210h90v1h-90zM443,210h92v1h-92zM678,210h93v1h-93zM0,211h86v1h-86zM220,211h90v1h-90zM443,211h93v1h-93zM679,211h93v1h-93zM0,212h86v1h-86zM220,212h90v1h-90zM443,212h93v1h-93zM679,212h93v1h-93zM0,213h86v1h-86zM220,213h90v1h-90zM443,213h94v1h-94zM679,213h93v1h-93zM0,214h86v1h-86zM220,214h90v1h-90zM443,214h94v1h-94zM680,214h93v1h-93zM0,215h86v1h-86zM220,215h90v1h-90zM443,215h94v1h-94zM680,215h93v1h-93zM0,216h86v1h-86zM220,216h90v1h-90zM443,216h95v1h-95zM681,216h93v1h-93zM0,217h86v1h-86zM220,217h90v1h-90zM443,217h95v1h-95zM681,217h93v1h-93zM0,218h86v1h-86zM220,218h90v1h-90zM443,218h95v1h-95zM681,218h93v1h-93zM0,219h86v1h-86zM220,219h90v1h-90zM443,219h96v1h-96zM682,219h93v1h-93zM0,220h86v1h-86zM220,220h90v1h-90zM443,220h96v1h-96zM682,220h93v1h-93zM0,221h86v1h-86zM220,221h90v1h-90zM443,221h97v1h-97zM682,221h93v1h-93zM0,222h86v1h-86zM220,222h90v1h-90zM443,222h97v1h-97zM683,222h93v1h-93zM0,223h86v1h-86zM220,223h90v1h-90zM443,223h97v1h-97zM683,223h93v1h-93zM0,224h86v1h-86zM220,224h90v1h-90zM443,224h98v1h-98zM684,224h93v1h-93zM0,225h86v1h-86zM220,225h90v1h-90zM443,225h98v1h-98zM684,225h93v1h-93zM0,226h86v1h-86zM220,226h90v1h-90zM443,226h98v1h-98zM684,226h93v1h-93zM0,227h86v1h-86zM220,227h90v1h-90zM443,227h99v1h-99zM685,227h93v1h-93zM0,228h86v1h-86zM220,228h90v1h-90zM443,228h99v1h-99zM685,228h93v1h-93zM0,229h86v1h-86zM220,229h90v1h-90zM443,229h100v1h-100zM685,229h94v1h-94zM0,230h86v1h-86zM220,230h90v1h-90zM443,230h100v1h-100zM686,230h93v1h-93zM0,231h86v1h-86zM220,231h90v1h-90zM443,231h100v1h-100zM686,231h93v1h-93zM0,232h86v1h-86zM220,232h90v1h-90zM443,232h101v1h-101zM687,232h92v1h-92zM0,233h86v1h-86zM220,233h90v1h-90zM443,233h101v1h-101zM687,233h93v1h-93zM0,234h86v1h-86zM220,234h90v1h-90zM443,234h101v1h-101zM687,234h93v1h-93zM0,235h86v1h-86zM220,235h90v1h-90zM443,235h102v1h-102zM688,235h93v1h-93zM0,236h86v1h-86zM220,236h90v1h-90zM443,236h102v1h-102zM688,236h93v1h-93zM0,237h86v1h-86zM220,237h90v1h-90zM443,237h102v1h-102zM688,237h93v1h-93zM0,238h86v1h-86zM220,238h90v1h-90zM443,238h103v1h-103zM689,238h93v1h-93zM0,239h86v1h-86zM220,239h90v1h-90zM443,239h103v1h-103zM689,239h93v1h-93zM0,240h86v1h-86zM220,240h90v1h-90zM443,240h104v1h-104zM690,240h92v1h-92zM0,241h86v1h-86zM220,241h90v1h-90zM443,241h104v1h-104zM690,241h93v1h-93zM0,242h86v1h-86zM220,242h90v1h-90zM443,242h104v1h-104zM690,242h93v1h-93zM0,243h86v1h-86zM220,243h90v1h-90zM443,243h105v1h-105zM691,243h93v1h-93zM0,244h86v1h-86zM220,244h90v1h-90zM443,244h105v1h-105zM691,244h93v1h-93zM0,245h86v1h-86zM220,245h90v1h-90zM443,245h106v1h-106zM691,245h93v1h-93zM0,246h86v1h-86zM220,246h90v1h-90zM443,246h106v1h-106zM692,246h93v1h-93zM0,247h86v1h-86zM220,247h90v1h-90zM443,247h106v1h-106zM692,247h93v1h-93zM0,248h86v1h-86zM220,248h90v1h-90zM443,248h107v1h-107zM692,248h93v1h-93zM0,249h86v1h-86zM220,249h90v1h-90zM443,249h107v1h-107zM693,249h93v1h-93zM0,250h86v1h-86zM220,250h90v1h-90zM443,250h107v1h-107zM693,250h93v1h-93zM0,251h86v1h-86zM220,251h90v1h-90zM443,251h108v1h-108zM694,251h92v1h-92zM0,252h86v1h-86zM220,252h90v1h-90zM443,252h108v1h-108zM694,252h93v1h-93zM0,253h86v1h-86zM220,253h90v1h-90zM443,253h108v1h-108zM694,253h93v1h-93zM0,254h86v1h-86zM220,254h90v1h-90zM443,254h109v1h-109zM695,254h93v1h-93zM0,255h86v1h-86zM220,255h90v1h-90zM443,255h109v1h-109zM695,255h93v1h-93zM0,256h86v1h-86zM220,256h90v1h-90zM443,256h110v1h-110zM696,256h92v1h-92zM0,257h86v1h-86zM220,257h90v1h-90zM443,257h110v1h-110zM696,257h93v1h-93zM0,258h86v1h-86zM220,258h90v1h-90zM443,258h110v1h-110zM696,258h93v1h-93zM0,259h86v1h-86zM220,259h90v1h-90zM443,259h111v1h-111zM697,259h93v1h-93zM0,260h86v1h-86zM220,260h90v1h-90zM443,260h111v1h-111zM697,260h93v1h-93zM0,261h86v1h-86zM220,261h90v1h-90zM443,261h112v1h-112zM697,261h93v1h-93zM0,262h86v1h-86zM220,262h90v1h-90zM443,262h112v1h-112zM698,262h93v1h-93zM0,263h86v1h-86zM220,263h90v1h-90zM443,263h112v1h-112zM698,263h93v1h-93zM0,264h86v1h-86zM220,264h90v1h-90zM443,264h113v1h-113zM698,264h93v1h-93zM0,265h86v1h-86zM220,265h90v1h-90zM443,265h113v1h-113zM699,265h93v1h-93zM0,266h86v1h-86zM220,266h90v1h-90zM443,266h113v1h-113zM699,266h93v1h-93zM0,267h86v1h-86zM220,267h90v1h-90zM443,267h114v1h-114zM700,267h93v1h-93zM0,268h86v1h-86zM220,268h90v1h-90zM443,268h114v1h-114zM700,268h93v1h-93zM0,269h86v1h-86zM220,269h90v1h-90zM443,269h114v1h-114zM700,269h93v1h-93zM0,270h86v1h-86zM220,270h90v1h-90zM443,270h115v1h-115zM701,270h93v1h-93zM0,271h86v1h-86zM220,271h90v1h-90zM443,271h115v1h-115zM701,271h93v1h-93zM0,272h86v1h-86zM220,272h90v1h-90zM443,272h116v1h-116zM701,272h93v1h-93zM0,273h86v1h-86zM220,273h90v1h-90zM443,273h116v1h-116zM702,273h93v1h-93zM0,274h86v1h-86zM220,274h90v1h-90zM443,274h116v1h-116zM702,274h93v1h-93zM0,275h86v1h-86zM220,275h90v1h-90zM444,275h116v1h-116zM703,275h92v1h-92zM0,276h86v1h-86zM220,276h90v1h-90zM444,276h116v1h-116zM703,276h93v1h-93zM0,277h86v1h-86zM220,277h90v1h-90zM444,277h117v1h-117zM703,277h93v1h-93zM0,278h86v1h-86zM220,278h90v1h-90zM444,278h117v1h-117zM704,278h93v1h-93zM0,279h86v1h-86zM220,279h90v1h-90zM444,279h117v1h-117zM704,279h93v1h-93zM0,280h86v1h-86zM220,280h90v1h-90zM444,280h118v1h-118zM704,280h93v1h-93zM0,281h86v1h-86zM220,281h90v1h-90zM444,281h118v1h-118zM705,281h93v1h-93zM0,282h86v1h-86zM220,282h90v1h-90zM444,282h118v1h-118zM705,282h93v1h-93zM0,283h86v1h-86zM220,283h90v1h-90zM444,283h119v1h-119zM706,283h92v1h-92zM0,284h86v1h-86zM220,284h90v1h-90zM444,284h119v1h-119zM706,284h93v1h-93zM0,285h86v1h-86zM220,285h90v1h-90zM444,285h119v1h-119zM706,285h93v1h-93zM0,286h86v1h-86zM220,286h90v1h-90zM444,286h120v1h-120zM707,286h92v1h-92zM0,287h86v1h-86zM220,287h90v1h-90zM444,287h120v1h-120zM707,287h93v1h-93zM0,288h86v1h-86zM220,288h90v1h-90zM444,288h121v1h-121zM707,288h93v1h-93zM0,289h86v1h-86zM220,289h90v1h-90zM444,289h121v1h-121zM708,289h93v1h-93zM0,290h86v1h-86zM220,290h90v1h-90zM444,290h121v1h-121zM708,290h93v1h-93zM0,291h86v1h-86zM220,291h90v1h-90zM444,291h122v1h-122zM709,291h92v1h-92zM0,292h86v1h-86zM220,292h90v1h-90zM444,292h122v1h-122zM709,292h93v1h-93zM0,293h86v1h-86zM220,293h90v1h-90zM444,293h122v1h-122zM709,293h93v1h-93zM0,294h86v1h-86zM220,294h90v1h-90zM444,294h123v1h-123zM710,294h93v1h-93zM0,295h86v1h-86zM220,295h90v1h-90zM444,295h123v1h-123zM710,295h93v1h-93zM0,296h86v1h-86zM220,296h90v1h-90zM444,296h123v1h-123zM710,296h93v1h-93zM0,297h86v1h-86zM220,297h90v1h-90zM444,297h124v1h-124zM711,297h93v1h-93zM0,298h86v1h-86zM220,298h90v1h-90zM444,298h124v1h-124zM711,298h93v1h-93zM0,299h86v1h-86zM220,299h90v1h-90zM444,299h125v1h-125zM711,299h93v1h-93zM0,300h86v1h-86zM220,300h90v1h-90zM444,300h125v1h-125zM712,300h93v1h-93zM0,301h86v1h-86zM220,301h90v1h-90zM444,301h125v1h-125zM712,301h93v1h-93zM0,302h86v1h-86zM220,302h90v1h-90zM444,302h126v1h-126zM713,302h93v1h-93zM0,303h86v1h-86zM220,303h90v1h-90zM444,303h126v1h-126zM713,303h93v1h-93zM0,304h86v1h-86zM220,304h90v1h-90zM444,304h126v1h-126zM713,304h93v1h-93zM0,305h86v1h-86zM220,305h90v1h-90zM444,305h127v1h-127zM714,305h93v1h-93zM0,306h86v1h-86zM220,306h90v1h-90zM444,306h127v1h-127zM714,306h93v1h-93zM0,307h86v1h-86zM220,307h90v1h-90zM444,307h128v1h-128zM714,307h93v1h-93zM0,308h86v1h-86zM220,308h90v1h-90zM444,308h128v1h-128zM715,308h93v1h-93zM0,309h86v1h-86zM220,309h90v1h-90zM444,309h128v1h-128zM715,309h93v1h-93zM0,310h86v1h-86zM220,310h90v1h-90zM444,310h129v1h-129zM716,310h93v1h-93zM0,311h86v1h-86zM220,311h90v1h-90zM444,311h129v1h-129zM716,311h93v1h-93zM0,312h86v1h-86zM220,312h90v1h-90zM444,312h129v1h-129zM716,312h93v1h-93zM0,313h86v1h-86zM220,313h90v1h-90zM444,313h130v1h-130zM717,313h93v1h-93zM0,314h86v1h-86zM220,314h90v1h-90zM444,314h130v1h-130zM717,314h93v1h-93zM0,315h86v1h-86zM220,315h90v1h-90zM444,315h131v1h-131zM717,315h93v1h-93zM0,316h86v1h-86zM220,316h90v1h-90zM444,316h131v1h-131zM718,316h93v1h-93zM0,317h86v1h-86zM220,317h90v1h-90zM444,317h131v1h-131zM718,317h93v1h-93zM0,318h86v1h-86zM220,318h90v1h-90zM444,318h132v1h-132zM719,318h92v1h-92zM0,319h86v1h-86zM220,319h90v1h-90zM444,319h132v1h-132zM719,319h93v1h-93zM0,320h86v1h-86zM220,320h90v1h-90zM444,320h133v1h-133zM719,320h93v1h-93zM0,321h86v1h-86zM220,321h90v1h-90zM444,321h133v1h-133zM720,321h93v1h-93zM0,322h86v1h-86zM220,322h90v1h-90zM444,322h133v1h-133zM720,322h93v1h-93zM0,323h86v1h-86zM220,323h90v1h-90zM444,323h134v1h-134zM720,323h93v1h-93zM0,324h86v1h-86zM220,324h90v1h-90zM444,324h134v1h-134zM721,324h93v1h-93zM0,325h86v1h-86zM220,325h90v1h-90zM444,325h134v1h-134zM721,325h93v1h-93zM0,326h86v1h-86zM220,326h90v1h-90zM444,326h135v1h-135zM722,326h92v1h-92zM0,327h86v1h-86zM220,327h90v1h-90zM444,327h135v1h-135zM722,327h93v1h-93zM0,328h86v1h-86zM220,328h90v1h-90zM444,328h135v1h-135zM722,328h93v1h-93zM0,329h86v1h-86zM220,329h90v1h-90zM444,329h136v1h-136zM723,329h93v1h-93zM0,330h86v1h-86zM220,330h90v1h-90zM444,330h136v1h-136zM723,330h93v1h-93zM0,331h86v1h-86zM220,331h90v1h-90zM444,331h137v1h-137zM723,331h93v1h-93zM0,332h86v1h-86zM220,332h90v1h-90zM444,332h137v1h-137zM724,332h93v1h-93zM0,333h86v1h-86zM220,333h90v1h-90zM444,333h137v1h-137zM724,333h93v1h-93zM0,334h86v1h-86zM220,334h90v1h-90zM444,334h138v1h-138zM725,334h92v1h-92zM0,335h86v1h-86zM220,335h90v1h-90zM444,335h138v1h-138zM725,335h93v1h-93zM0,336h86v1h-86zM220,336h90v1h-90zM444,336h138v1h-138zM725,336h93v1h-93zM0,337h86v1h-86zM220,337h90v1h-90zM444,337h139v1h-139zM726,337h93v1h-93zM0,338h86v1h-86zM220,338h90v1h-90zM444,338h139v1h-139zM726,338h93v1h-93zM0,339h86v1h-86zM220,339h90v1h-90zM444,339h140v1h-140zM726,339h93v1h-93zM0,340h86v1h-86zM220,340h90v1h-90zM444,340h140v1h-140zM727,340h93v1h-93zM0,341h86v1h-86zM220,341h90v1h-90zM444,341h140v1h-140zM727,341h93v1h-93zM0,342h86v1h-86zM220,342h90v1h-90zM444,342h141v1h-141zM727,342h93v1h-93zM0,343h86v1h-86zM220,343h90v1h-90zM444,343h141v1h-141zM728,343h93v1h-93zM0,344h86v1h-86zM220,344h90v1h-90zM444,344h141v1h-141zM728,344h93v1h-93zM0,345h86v1h-86zM220,345h90v1h-90zM444,345h142v1h-142zM729,345h93v1h-93zM0,346h86v1h-86zM220,346h90v1h-90zM444,346h142v1h-142zM729,346h93v1h-93zM0,347h86v1h-86zM220,347h90v1h-90zM444,347h143v1h-143zM729,347h93v1h-93zM0,348h86v1h-86zM220,348h90v1h-90zM444,348h143v1h-143zM730,348h93v1h-93zM0,349h86v1h-86zM220,349h90v1h-90zM444,349h143v1h-143zM730,349h93v1h-93zM0,350h86v1h-86zM220,350h90v1h-90zM444,350h144v1h-144zM730,350h93v1h-93zM0,351h86v1h-86zM220,351h90v1h-90zM444,351h144v1h-144zM731,351h93v1h-93zM0,352h86v1h-86zM220,352h90v1h-90zM444,352h144v1h-144zM731,352h93v1h-93zM0,353h86v1h-86zM220,353h90v1h-90zM444,353h145v1h-145zM732,353h92v1h-92zM0,354h86v1h-86zM220,354h90v1h-90zM444,354h145v1h-145zM732,354h93v1h-93zM0,355h86v1h-86zM220,355h90v1h-90zM444,355h146v1h-146zM732,355h93v1h-93zM0,356h86v1h-86zM220,356h90v1h-90zM444,356h146v1h-146zM733,356h93v1h-93zM0,357h86v1h-86zM220,357h90v1h-90zM444,357h146v1h-146zM733,357h93v1h-93zM0,358h86v1h-86zM220,358h90v1h-90zM444,358h147v1h-147zM734,358h92v1h-92zM0,359h86v1h-86zM220,359h90v1h-90zM444,359h147v1h-147zM734,359h93v1h-93zM0,360h86v1h-86zM220,360h90v1h-90zM444,360h147v1h-147zM734,360h93v1h-93zM0,361h86v1h-86zM220,361h90v1h-90zM444,361h148v1h-148zM735,361h92v1h-92zM0,362h86v1h-86zM220,362h90v1h-90zM444,362h148v1h-148zM735,362h93v1h-93zM0,363h86v1h-86zM220,363h90v1h-90zM444,363h148v1h-148zM735,363h93v1h-93zM0,364h86v1h-86zM220,364h90v1h-90zM444,364h149v1h-149zM736,364h93v1h-93zM0,365h86v1h-86zM220,365h90v1h-90zM444,365h149v1h-149zM736,365h93v1h-93zM0,366h86v1h-86zM220,366h90v1h-90zM444,366h150v1h-150zM736,366h93v1h-93zM0,367h86v1h-86zM220,367h90v1h-90zM444,367h150v1h-150zM737,367h93v1h-93zM0,368h86v1h-86zM220,368h90v1h-90zM444,368h150v1h-150zM737,368h93v1h-93zM0,369h86v1h-86zM220,369h90v1h-90zM444,369h151v1h-151zM738,369h92v1h-92zM0,370h86v1h-86zM220,370h90v1h-90zM444,370h151v1h-151zM738,370h93v1h-93zM0,371h86v1h-86zM220,371h90v1h-90zM444,371h151v1h-151zM738,371h93v1h-93zM0,372h86v1h-86zM220,372h90v1h-90zM444,372h152v1h-152zM739,372h93v1h-93zM0,373h86v1h-86zM220,373h90v1h-90zM444,373h152v1h-152zM739,373h93v1h-93zM0,374h86v1h-86zM220,374h90v1h-90zM444,374h153v1h-153zM739,374h93v1h-93zM0,375h86v1h-86zM220,375h90v1h-90zM444,375h153v1h-153zM740,375h93v1h-93zM0,376h86v1h-86zM220,376h90v1h-90zM444,376h153v1h-153zM740,376h93v1h-93zM0,377h86v1h-86zM220,377h90v1h-90zM444,377h154v1h-154zM741,377h92v1h-92zM0,378h86v1h-86zM220,378h90v1h-90zM444,378h154v1h-154zM741,378h93v1h-93zM0,379h86v1h-86zM220,379h90v1h-90zM444,379h154v1h-154zM741,379h93v1h-93zM0,380h86v1h-86zM220,380h90v1h-90zM444,380h155v1h-155zM742,380h93v1h-93zM0,381h86v1h-86zM220,381h90v1h-90zM444,381h155v1h-155zM742,381h93v1h-93zM0,382h86v1h-86zM220,382h90v1h-90zM444,382h156v1h-156zM742,382h93v1h-93zM0,383h86v1h-86zM220,383h90v1h-90zM444,383h156v1h-156zM743,383h93v1h-93zM0,384h86v1h-86zM220,384h90v1h-90zM444,384h156v1h-156zM743,384h93v1h-93zM0,385h86v1h-86zM220,385h90v1h-90zM444,385h157v1h-157zM744,385h92v1h-92zM0,386h86v1h-86zM220,386h90v1h-90zM444,386h157v1h-157zM744,386h93v1h-93zM0,387h86v1h-86zM220,387h90v1h-90zM444,387h157v1h-157zM744,387h93v1h-93zM0,388h86v1h-86zM220,388h90v1h-90zM444,388h158v1h-158zM745,388h93v1h-93zM0,389h86v1h-86zM220,389h90v1h-90zM444,389h158v1h-158zM745,389h93v1h-93zM0,390h86v1h-86zM220,390h90v1h-90zM444,390h159v1h-159zM745,390h93v1h-93zM0,391h86v1h-86zM220,391h90v1h-90zM444,391h159v1h-159zM746,391h93v1h-93zM0,392h86v1h-86zM220,392h90v1h-90zM444,392h159v1h-159zM746,392h93v1h-93zM0,393h86v1h-86zM220,393h90v1h-90zM444,393h160v1h-160zM746,393h93v1h-93zM0,394h86v1h-86zM220,394h90v1h-90zM444,394h160v1h-160zM747,394h93v1h-93zM0,395h86v1h-86zM220,395h90v1h-90zM444,395h160v1h-160zM747,395h93v1h-93zM0,396h86v1h-86zM220,396h90v1h-90zM444,396h161v1h-161zM748,396h93v1h-93zM0,397h86v1h-86zM220,397h90v1h-90zM444,397h161v1h-161zM748,397h93v1h-93zM0,398h86v1h-86zM220,398h90v1h-90zM444,398h162v1h-162zM748,398h93v1h-93zM0,399h86v1h-86zM220,399h90v1h-90zM444,399h162v1h-162zM749,399h93v1h-93zM0,400h86v1h-86zM220,400h90v1h-90zM444,400h162v1h-162zM749,400h93v1h-93zM0,401h86v1h-86zM220,401h90v1h-90zM444,401h163v1h-163zM750,401h92v1h-92zM0,402h86v1h-86zM220,402h90v1h-90zM444,402h163v1h-163zM750,402h93v1h-93zM0,403h86v1h-86zM220,403h90v1h-90zM444,403h163v1h-163zM750,403h93v1h-93zM0,404h86v1h-86zM220,404h90v1h-90zM444,404h164v1h-164zM751,404h93v1h-93zM0,405h86v1h-86zM220,405h90v1h-90zM444,405h164v1h-164zM751,405h93v1h-93zM0,406h86v1h-86zM220,406h90v1h-90zM444,406h165v1h-165zM751,406h93v1h-93zM0,407h86v1h-86zM220,407h90v1h-90zM444,407h165v1h-165zM752,407h93v1h-93zM0,408h86v1h-86zM220,408h90v1h-90zM444,408h165v1h-165zM752,408h93v1h-93zM0,409h86v1h-86zM220,409h90v1h-90zM444,409h166v1h-166zM752,409h93v1h-93zM0,410h86v1h-86zM220,410h90v1h-90zM444,410h166v1h-166zM753,410h93v1h-93zM0,411h86v1h-86zM220,411h90v1h-90zM444,411h166v1h-166zM753,411h93v1h-93zM0,412h86v1h-86zM220,412h90v1h-90zM443,412h168v1h-168zM754,412h92v1h-92zM0,413h86v1h-86zM220,413h90v1h-90zM443,413h168v1h-168zM754,413h93v1h-93zM0,414h86v1h-86zM220,414h90v1h-90zM443,414h168v1h-168zM754,414h93v1h-93zM0,415h86v1h-86zM220,415h90v1h-90zM443,415h169v1h-169zM755,415h93v1h-93zM0,416h86v1h-86zM220,416h90v1h-90zM443,416h169v1h-169zM755,416h93v1h-93zM0,417h86v1h-86zM220,417h90v1h-90zM443,417h170v1h-170zM756,417h92v1h-92zM0,418h86v1h-86zM220,418h90v1h-90zM443,418h170v1h-170zM756,418h93v1h-93zM0,419h86v1h-86zM220,419h90v1h-90zM443,419h170v1h-170zM756,419h93v1h-93zM0,420h86v1h-86zM220,420h90v1h-90zM443,420h171v1h-171zM757,420h92v1h-92zM0,421h86v1h-86zM220,421h90v1h-90zM443,421h171v1h-171zM757,421h93v1h-93zM0,422h86v1h-86zM220,422h90v1h-90zM443,422h171v1h-171zM757,422h93v1h-93zM0,423h86v1h-86zM220,423h90v1h-90zM443,423h172v1h-172zM758,423h93v1h-93zM0,424h86v1h-86zM220,424h90v1h-90zM443,424h172v1h-172zM758,424h93v1h-93zM0,425h86v1h-86zM220,425h90v1h-90zM443,425h173v1h-173zM758,425h93v1h-93zM0,426h86v1h-86zM220,426h90v1h-90zM443,426h173v1h-173zM759,426h93v1h-93zM0,427h86v1h-86zM220,427h90v1h-90zM443,427h173v1h-173zM759,427h93v1h-93zM0,428h86v1h-86zM220,428h90v1h-90zM443,428h174v1h-174zM760,428h92v1h-92zM0,429h86v1h-86zM220,429h90v1h-90zM443,429h174v1h-174zM760,429h93v1h-93zM0,430h86v1h-86zM220,430h90v1h-90zM443,430h174v1h-174zM760,430h93v1h-93zM0,431h86v1h-86zM220,431h90v1h-90zM443,431h175v1h-175zM761,431h93v1h-93zM0,432h86v1h-86zM220,432h90v1h-90zM443,432h175v1h-175zM761,432h93v1h-93zM0,433h86v1h-86zM220,433h90v1h-90zM443,433h176v1h-176zM761,433h93v1h-93zM0,434h86v1h-86zM220,434h90v1h-90zM443,434h176v1h-176zM762,434h93v1h-93zM0,435h86v1h-86zM220,435h90v1h-90zM443,435h176v1h-176zM762,435h93v1h-93zM0,436h86v1h-86zM220,436h90v1h-90zM443,436h177v1h-177zM763,436h92v1h-92zM0,437h86v1h-86zM220,437h90v1h-90zM443,437h177v1h-177zM763,437h93v1h-93zM0,438h86v1h-86zM220,438h90v1h-90zM443,438h177v1h-177zM763,438h93v1h-93zM0,439h86v1h-86zM220,439h90v1h-90zM443,439h178v1h-178zM764,439h93v1h-93zM0,440h86v1h-86zM220,440h90v1h-90zM443,440h178v1h-178zM764,440h93v1h-93zM0,441h86v1h-86zM220,441h90v1h-90zM443,441h179v1h-179zM764,441h93v1h-93zM0,442h86v1h-86zM220,442h90v1h-90zM443,442h179v1h-179zM765,442h93v1h-93zM0,443h86v1h-86zM220,443h90v1h-90zM443,443h179v1h-179zM765,443h93v1h-93zM0,444h86v1h-86zM220,444h90v1h-90zM443,444h180v1h-180zM766,444h92v1h-92zM0,445h86v1h-86zM220,445h90v1h-90zM443,445h180v1h-180zM766,445h93v1h-93zM0,446h86v1h-86zM220,446h90v1h-90zM443,446h180v1h-180zM766,446h93v1h-93zM0,447h86v1h-86zM220,447h90v1h-90zM443,447h181v1h-181zM767,447h93v1h-93zM0,448h86v1h-86zM220,448h90v1h-90zM443,448h181v1h-181zM767,448h93v1h-93zM0,449h86v1h-86zM220,449h90v1h-90zM443,449h182v1h-182zM767,449h93v1h-93zM0,450h86v1h-86zM220,450h90v1h-90zM443,450h182v1h-182zM768,450h93v1h-93zM0,451h86v1h-86zM220,451h90v1h-90zM443,451h182v1h-182zM768,451h93v1h-93zM0,452h86v1h-86zM220,452h90v1h-90zM443,452h183v1h-183zM768,452h93v1h-93zM0,453h86v1h-86zM220,453h90v1h-90zM443,453h183v1h-183zM769,453h93v1h-93zM0,454h86v1h-86zM220,454h90v1h-90zM443,454h183v1h-183zM769,454h93v1h-93zM0,455h86v1h-86zM220,455h90v1h-90zM443,455h184v1h-184zM770,455h92v1h-92zM0,456h86v1h-86zM220,456h90v1h-90zM443,456h184v1h-184zM770,456h93v1h-93zM0,457h86v1h-86zM220,457h90v1h-90zM443,457h185v1h-185zM770,457h93v1h-93zM0,458h86v1h-86zM220,458h90v1h-90zM443,458h185v1h-185zM771,458h93v1h-93zM0,459h86v1h-86zM220,459h90v1h-90zM443,459h185v1h-185zM771,459h93v1h-93zM0,460h86v1h-86zM220,460h90v1h-90zM443,460h88v1h-88zM536,460h93v1h-93zM772,460h93v1h-93zM0,461h86v1h-86zM220,461h90v1h-90zM443,461h88v1h-88zM536,461h93v1h-93zM772,461h93v1h-93zM0,462h86v1h-86zM220,462h90v1h-90zM443,462h88v1h-88zM537,462h92v1h-92zM772,462h93v1h-93zM0,463h86v1h-86zM220,463h90v1h-90zM443,463h88v1h-88zM537,463h93v1h-93zM773,463h92v1h-92zM0,464h86v1h-86zM220,464h90v1h-90zM443,464h88v1h-88zM537,464h93v1h-93zM773,464h93v1h-93zM0,465h86v1h-86zM220,465h90v1h-90zM443,465h88v1h-88zM538,465h93v1h-93zM773,465h93v1h-93zM0,466h86v1h-86zM220,466h90v1h-90zM443,466h88v1h-88zM538,466h93v1h-93zM774,466h93v1h-93zM0,467h86v1h-86zM220,467h90v1h-90zM443,467h88v1h-88zM538,467h93v1h-93zM774,467h93v1h-93zM0,468h86v1h-86zM220,468h90v1h-90zM443,468h88v1h-88zM539,468h93v1h-93zM774,468h93v1h-93zM0,469h86v1h-86zM220,469h90v1h-90zM443,469h88v1h-88zM539,469h93v1h-93zM775,469h93v1h-93zM0,470h86v1h-86zM220,470h90v1h-90zM443,470h88v1h-88zM539,470h93v1h-93zM775,470h93v1h-93zM0,471h86v1h-86zM220,471h90v1h-90zM443,471h88v1h-88zM540,471h93v1h-93zM776,471h92v1h-92zM0,472h86v1h-86zM220,472h90v1h-90zM443,472h88v1h-88zM540,472h93v1h-93zM776,472h93v1h-93zM0,473h86v1h-86zM220,473h90v1h-90zM443,473h88v1h-88zM541,473h92v1h-92zM776,473h93v1h-93zM0,474h86v1h-86zM220,474h90v1h-90zM443,474h88v1h-88zM541,474h93v1h-93zM777,474h93v1h-93zM0,475h86v1h-86zM220,475h90v1h-90zM443,475h88v1h-88zM541,475h93v1h-93zM777,475h93v1h-93zM0,476h86v1h-86zM220,476h90v1h-90zM443,476h88v1h-88zM542,476h93v1h-93zM778,476h92v1h-92zM0,477h86v1h-86zM220,477h90v1h-90zM443,477h88v1h-88zM542,477h93v1h-93zM778,477h93v1h-93zM0,478h86v1h-86zM220,478h90v1h-90zM443,478h88v1h-88zM543,478h92v1h-92zM778,478h93v1h-93zM0,479h86v1h-86zM220,479h90v1h-90zM443,479h88v1h-88zM543,479h93v1h-93zM778,479h94v1h-94zM0,480h86v1h-86zM220,480h90v1h-90zM443,480h88v1h-88zM543,480h93v1h-93zM779,480h93v1h-93zM0,481h86v1h-86zM220,481h90v1h-90zM443,481h88v1h-88zM544,481h92v1h-92zM779,481h93v1h-93zM0,482h86v1h-86zM220,482h90v1h-90zM443,482h88v1h-88zM544,482h93v1h-93zM780,482h93v1h-93zM0,483h86v1h-86zM220,483h90v1h-90zM443,483h88v1h-88zM544,483h93v1h-93zM780,483h93v1h-93zM0,484h86v1h-86zM220,484h90v1h-90zM443,484h88v1h-88zM545,484h93v1h-93zM780,484h93v1h-93zM0,485h86v1h-86zM220,485h90v1h-90zM443,485h88v1h-88zM545,485h93v1h-93zM781,485h93v1h-93zM0,486h86v1h-86zM220,486h90v1h-90zM443,486h88v1h-88zM546,486h92v1h-92zM781,486h93v1h-93zM0,487h86v1h-86zM220,487h90v1h-90zM443,487h88v1h-88zM546,487h93v1h-93zM782,487h92v1h-92zM0,488h86v1h-86zM220,488h90v1h-90zM443,488h88v1h-88zM546,488h93v1h-93zM782,488h93v1h-93zM0,489h86v1h-86zM220,489h90v1h-90zM443,489h88v1h-88zM547,489h92v1h-92zM782,489h93v1h-93zM0,490h86v1h-86zM220,490h90v1h-90zM443,490h88v1h-88zM547,490h93v1h-93zM783,490h93v1h-93zM0,491h86v1h-86zM220,491h90v1h-90zM443,491h88v1h-88zM547,491h93v1h-93zM783,491h93v1h-93zM0,492h86v1h-86zM220,492h90v1h-90zM443,492h88v1h-88zM548,492h93v1h-93zM783,492h93v1h-93zM0,493h86v1h-86zM220,493h90v1h-90zM443,493h88v1h-88zM548,493h93v1h-93zM784,493h93v1h-93zM0,494h86v1h-86zM220,494h90v1h-90zM443,494h88v1h-88zM549,494h92v1h-92zM784,494h93v1h-93zM0,495h86v1h-86zM220,495h90v1h-90zM443,495h88v1h-88zM549,495h93v1h-93zM784,495h93v1h-93zM0,496h86v1h-86zM220,496h90v1h-90zM443,496h88v1h-88zM549,496h93v1h-93zM785,496h93v1h-93zM0,497h86v1h-86zM220,497h90v1h-90zM443,497h88v1h-88zM550,497h92v1h-92zM785,497h93v1h-93zM0,498h86v1h-86zM220,498h90v1h-90zM443,498h88v1h-88zM550,498h93v1h-93zM786,498h92v1h-92zM0,499h86v1h-86zM220,499h90v1h-90zM443,499h88v1h-88zM550,499h93v1h-93zM786,499h93v1h-93zM0,500h86v1h-86zM220,500h90v1h-90zM443,500h88v1h-88zM551,500h93v1h-93zM786,500h93v1h-93zM0,501h86v1h-86zM220,501h90v1h-90zM443,501h88v1h-88zM551,501h93v1h-93zM787,501h93v1h-93zM0,502h86v1h-86zM220,502h90v1h-90zM443,502h88v1h-88zM551,502h93v1h-93zM787,502h93v1h-93zM0,503h86v1h-86zM220,503h90v1h-90zM443,503h88v1h-88zM552,503h93v1h-93zM788,503h92v1h-92zM0,504h86v1h-86zM220,504h90v1h-90zM443,504h88v1h-88zM552,504h93v1h-93zM788,504h93v1h-93zM0,505h86v1h-86zM220,505h90v1h-90zM443,505h88v1h-88zM553,505h92v1h-92zM788,505h93v1h-93zM0,506h86v1h-86zM220,506h90v1h-90zM443,506h88v1h-88zM553,506h93v1h-93zM789,506h92v1h-92zM0,507h86v1h-86zM220,507h90v1h-90zM443,507h88v1h-88zM553,507h93v1h-93zM789,507h93v1h-93zM0,508h86v1h-86zM220,508h90v1h-90zM443,508h88v1h-88zM554,508h92v1h-92zM789,508h93v1h-93zM0,509h86v1h-86zM220,509h90v1h-90zM443,509h88v1h-88zM554,509h93v1h-93zM790,509h93v1h-93zM0,510h86v1h-86zM220,510h90v1h-90zM443,510h88v1h-88zM554,510h93v1h-93zM790,510h93v1h-93zM0,511h86v1h-86zM220,511h90v1h-90zM443,511h88v1h-88zM555,511h93v1h-93zM791,511h92v1h-92zM0,512h86v1h-86zM220,512h90v1h-90zM444,512h87v1h-87zM555,512h93v1h-93zM791,512h93v1h-93zM0,513h86v1h-86zM220,513h90v1h-90zM444,513h87v1h-87zM556,513h92v1h-92zM791,513h93v1h-93zM0,514h86v1h-86zM220,514h90v1h-90zM444,514h87v1h-87zM556,514h93v1h-93zM792,514h93v1h-93zM0,515h86v1h-86zM220,515h90v1h-90zM444,515h87v1h-87zM556,515h93v1h-93zM792,515h93v1h-93zM0,516h86v1h-86zM220,516h90v1h-90zM444,516h87v1h-87zM557,516h93v1h-93zM792,516h93v1h-93zM0,517h86v1h-86zM220,517h90v1h-90zM444,517h87v1h-87zM557,517h93v1h-93zM793,517h93v1h-93zM0,518h86v1h-86zM220,518h90v1h-90zM444,518h87v1h-87zM557,518h93v1h-93zM793,518h93v1h-93zM0,519h86v1h-86zM220,519h90v1h-90zM444,519h87v1h-87zM558,519h93v1h-93zM793,519h93v1h-93zM0,520h86v1h-86zM220,520h90v1h-90zM444,520h87v1h-87zM558,520h93v1h-93zM794,520h93v1h-93zM0,521h86v1h-86zM220,521h90v1h-90zM444,521h87v1h-87zM559,521h92v1h-92zM794,521h93v1h-93zM0,522h86v1h-86zM220,522h90v1h-90zM444,522h87v1h-87zM559,522h93v1h-93zM795,522h92v1h-92zM0,523h86v1h-86zM220,523h90v1h-90zM444,523h87v1h-87zM559,523h93v1h-93zM795,523h93v1h-93zM0,524h86v1h-86zM220,524h90v1h-90zM444,524h87v1h-87zM560,524h92v1h-92zM795,524h93v1h-93zM0,525h86v1h-86zM220,525h90v1h-90zM444,525h87v1h-87zM560,525h93v1h-93zM796,525h93v1h-93zM0,526h86v1h-86zM220,526h90v1h-90zM444,526h87v1h-87zM560,526h93v1h-93zM796,526h93v1h-93zM0,527h86v1h-86zM220,527h90v1h-90zM444,527h87v1h-87zM561,527h93v1h-93zM796,527h93v1h-93zM0,528h86v1h-86zM220,528h90v1h-90zM444,528h87v1h-87zM561,528h93v1h-93zM797,528h93v1h-93zM0,529h86v1h-86zM220,529h90v1h-90zM444,529h87v1h-87zM562,529h92v1h-92zM797,529h93v1h-93zM0,530h86v1h-86zM220,530h90v1h-90zM444,530h87v1h-87zM562,530h93v1h-93zM798,530h93v1h-93zM0,531h86v1h-86zM220,531h90v1h-90zM444,531h87v1h-87zM562,531h93v1h-93zM798,531h93v1h-93zM0,532h86v1h-86zM220,532h90v1h-90zM444,532h87v1h-87zM563,532h93v1h-93zM798,532h93v1h-93zM0,533h86v1h-86zM220,533h90v1h-90zM444,533h87v1h-87zM563,533h93v1h-93zM799,533h93v1h-93zM0,534h86v1h-86zM220,534h90v1h-90zM444,534h87v1h-87zM563,534h93v1h-93zM799,534h93v1h-93zM0,535h86v1h-86zM220,535h90v1h-90zM444,535h87v1h-87zM564,535h93v1h-93zM799,535h93v1h-93zM0,536h86v1h-86zM220,536h90v1h-90zM444,536h87v1h-87zM564,536h93v1h-93zM800,536h93v1h-93zM0,537h86v1h-86zM220,537h90v1h-90zM444,537h87v1h-87zM565,537h92v1h-92zM800,537h93v1h-93zM0,538h86v1h-86zM220,538h90v1h-90zM444,538h87v1h-87zM565,538h93v1h-93zM801,538h92v1h-92zM0,539h86v1h-86zM220,539h90v1h-90zM444,539h87v1h-87zM565,539h93v1h-93zM801,539h93v1h-93zM0,540h86v1h-86zM220,540h90v1h-90zM444,540h87v1h-87zM566,540h92v1h-92zM801,540h93v1h-93zM0,541h86v1h-86zM220,541h90v1h-90zM444,541h87v1h-87zM566,541h93v1h-93zM802,541h93v1h-93zM0,542h86v1h-86zM220,542h90v1h-90zM444,542h87v1h-87zM566,542h93v1h-93zM802,542h93v1h-93zM0,543h86v1h-86zM220,543h90v1h-90zM444,543h87v1h-87zM567,543h93v1h-93zM802,543h93v1h-93zM0,544h86v1h-86zM220,544h90v1h-90zM444,544h87v1h-87zM567,544h93v1h-93zM803,544h93v1h-93zM0,545h86v1h-86zM220,545h90v1h-90zM444,545h87v1h-87zM568,545h92v1h-92zM803,545h93v1h-93zM0,546h86v1h-86zM220,546h90v1h-90zM444,546h87v1h-87zM568,546h93v1h-93zM804,546h93v1h-93zM0,547h86v1h-86zM220,547h90v1h-90zM444,547h87v1h-87zM568,547h93v1h-93zM804,547h93v1h-93zM0,548h86v1h-86zM220,548h90v1h-90zM444,548h87v1h-87zM569,548h92v1h-92zM804,548h93v1h-93zM0,549h86v1h-86zM220,549h90v1h-90zM444,549h87v1h-87zM569,549h93v1h-93zM805,549h92v1h-92zM0,550h86v1h-86zM220,550h90v1h-90zM444,550h87v1h-87zM569,550h93v1h-93zM805,550h93v1h-93zM0,551h86v1h-86zM220,551h90v1h-90zM444,551h87v1h-87zM570,551h93v1h-93zM805,551h93v1h-93zM0,552h86v1h-86zM220,552h90v1h-90zM444,552h87v1h-87zM570,552h93v1h-93zM806,552h93v1h-93zM0,553h86v1h-86zM220,553h90v1h-90zM444,553h87v1h-87zM570,553h93v1h-93zM806,553h93v1h-93zM0,554h86v1h-86zM220,554h90v1h-90zM444,554h87v1h-87zM571,554h93v1h-93zM806,554h93v1h-93zM0,555h86v1h-86zM220,555h90v1h-90zM444,555h87v1h-87zM571,555h93v1h-93zM807,555h93v1h-93zM0,556h86v1h-86zM220,556h90v1h-90zM444,556h87v1h-87zM572,556h92v1h-92zM807,556h93v1h-93zM0,557h86v1h-86zM220,557h90v1h-90zM444,557h87v1h-87zM572,557h93v1h-93zM808,557h93v1h-93zM0,558h86v1h-86zM220,558h90v1h-90zM444,558h87v1h-87zM572,558h93v1h-93zM808,558h93v1h-93zM0,559h86v1h-86zM220,559h90v1h-90zM444,559h87v1h-87zM573,559h92v1h-92zM808,559h93v1h-93zM0,560h86v1h-86zM220,560h90v1h-90zM444,560h87v1h-87zM573,560h93v1h-93zM809,560h93v1h-93zM0,561h86v1h-86zM220,561h90v1h-90zM444,561h87v1h-87zM574,561h92v1h-92zM809,561h93v1h-93zM0,562h86v1h-86zM220,562h90v1h-90zM444,562h87v1h-87zM574,562h93v1h-93zM810,562h92v1h-92zM0,563h86v1h-86zM220,563h90v1h-90zM444,563h87v1h-87zM574,563h93v1h-93zM810,563h93v1h-93zM0,564h86v1h-86zM220,564h90v1h-90zM444,564h87v1h-87zM575,564h92v1h-92zM810,564h93v1h-93zM0,565h86v1h-86zM220,565h90v1h-90zM444,565h87v1h-87zM575,565h93v1h-93zM811,565h92v1h-92zM0,566h86v1h-86zM220,566h90v1h-90zM444,566h87v1h-87zM575,566h93v1h-93zM811,566h93v1h-93zM0,567h86v1h-86zM220,567h90v1h-90zM444,567h87v1h-87zM576,567h92v1h-92zM811,567h93v1h-93zM0,568h86v1h-86zM220,568h90v1h-90zM444,568h87v1h-87zM576,568h93v1h-93zM812,568h93v1h-93zM0,569h86v1h-86zM220,569h90v1h-90zM444,569h87v1h-87zM576,569h93v1h-93zM812,569h93v1h-93zM0,570h86v1h-86zM220,570h90v1h-90zM444,570h87v1h-87zM577,570h93v1h-93zM813,570h92v1h-92zM0,571h86v1h-86zM220,571h90v1h-90zM444,571h87v1h-87zM577,571h93v1h-93zM813,571h93v1h-93zM0,572h86v1h-86zM220,572h90v1h-90zM444,572h87v1h-87zM578,572h92v1h-92zM813,572h93v1h-93zM0,573h86v1h-86zM220,573h90v1h-90zM444,573h87v1h-87zM578,573h93v1h-93zM814,573h93v1h-93zM0,574h86v1h-86zM220,574h90v1h-90zM444,574h87v1h-87zM578,574h93v1h-93zM814,574h93v1h-93zM0,575h86v1h-86zM220,575h90v1h-90zM444,575h87v1h-87zM579,575h92v1h-92zM814,575h93v1h-93zM0,576h86v1h-86zM220,576h90v1h-90zM444,576h87v1h-87zM579,576h93v1h-93zM815,576h93v1h-93zM0,577h86v1h-86zM220,577h90v1h-90zM444,577h87v1h-87zM579,577h93v1h-93zM815,577h93v1h-93zM0,578h86v1h-86zM220,578h90v1h-90zM444,578h87v1h-87zM580,578h93v1h-93zM815,578h93v1h-93zM0,579h86v1h-86zM220,579h90v1h-90zM444,579h87v1h-87zM580,579h93v1h-93zM816,579h93v1h-93zM0,580h86v1h-86zM220,580h90v1h-90zM444,580h87v1h-87zM581,580h92v1h-92zM816,580h93v1h-93zM0,581h86v1h-86zM220,581h90v1h-90zM444,581h87v1h-87zM581,581h93v1h-93zM817,581h92v1h-92zM0,582h86v1h-86zM220,582h90v1h-90zM444,582h87v1h-87zM581,582h93v1h-93zM817,582h93v1h-93zM0,583h86v1h-86zM220,583h90v1h-90zM444,583h87v1h-87zM582,583h92v1h-92zM817,583h93v1h-93zM0,584h86v1h-86zM220,584h90v1h-90zM444,584h87v1h-87zM582,584h93v1h-93zM818,584h93v1h-93zM0,585h86v1h-86zM220,585h90v1h-90zM444,585h87v1h-87zM582,585h93v1h-93zM818,585h93v1h-93zM0,586h86v1h-86zM220,586h90v1h-90zM444,586h87v1h-87zM583,586h92v1h-92zM818,586h93v1h-93zM0,587h86v1h-86zM220,587h90v1h-90zM444,587h87v1h-87zM583,587h93v1h-93zM819,587h93v1h-93zM0,588h86v1h-86zM220,588h90v1h-90zM444,588h87v1h-87zM583,588h93v1h-93zM819,588h93v1h-93zM0,589h86v1h-86zM220,589h90v1h-90zM444,589h87v1h-87zM584,589h93v1h-93zM820,589h93v1h-93zM0,590h86v1h-86zM220,590h90v1h-90zM444,590h87v1h-87zM584,590h93v1h-93zM820,590h93v1h-93zM0,591h86v1h-86zM220,591h90v1h-90zM444,591h87v1h-87zM585,591h93v1h-93zM820,591h93v1h-93zM0,592h86v1h-86zM220,592h90v1h-90zM444,592h87v1h-87zM585,592h93v1h-93zM821,592h93v1h-93zM0,593h86v1h-86zM220,593h90v1h-90zM444,593h87v1h-87zM585,593h93v1h-93zM821,593h93v1h-93zM0,594h86v1h-86zM220,594h90v1h-90zM444,594h87v1h-87zM586,594h93v1h-93zM821,594h93v1h-93zM0,595h86v1h-86zM220,595h90v1h-90zM444,595h87v1h-87zM586,595h93v1h-93zM822,595h93v1h-93zM0,596h86v1h-86zM220,596h90v1h-90zM444,596h87v1h-87zM587,596h92v1h-92zM822,596h93v1h-93zM0,597h86v1h-86zM220,597h90v1h-90zM444,597h87v1h-87zM587,597h93v1h-93zM823,597h92v1h-92zM0,598h86v1h-86zM220,598h90v1h-90zM444,598h87v1h-87zM587,598h93v1h-93zM823,598h93v1h-93zM0,599h86v1h-86zM220,599h90v1h-90zM444,599h87v1h-87zM588,599h92v1h-92zM823,599h93v1h-93zM0,600h86v1h-86zM220,600h90v1h-90zM444,600h87v1h-87zM588,600h93v1h-93zM824,600h93v1h-93zM0,601h86v1h-86zM220,601h90v1h-90zM444,601h87v1h-87zM588,601h93v1h-93zM824,601h93v1h-93zM0,602h86v1h-86zM220,602h90v1h-90zM444,602h87v1h-87zM589,602h92v1h-92zM824,602h93v1h-93zM0,603h86v1h-86zM220,603h90v1h-90zM444,603h87v1h-87zM589,603h93v1h-93zM825,603h93v1h-93zM0,604h86v1h-86zM220,604h90v1h-90zM444,604h87v1h-87zM590,604h92v1h-92zM825,604h93v1h-93zM0,605h86v1h-86zM220,605h90v1h-90zM444,605h87v1h-87zM590,605h93v1h-93zM826,605h92v1h-92zM0,606h86v1h-86zM220,606h90v1h-90zM444,606h87v1h-87zM590,606h93v1h-93zM826,606h93v1h-93zM0,607h86v1h-86zM220,607h90v1h-90zM444,607h87v1h-87zM591,607h92v1h-92zM826,607h93v1h-93zM0,608h86v1h-86zM220,608h90v1h-90zM444,608h87v1h-87zM591,608h93v1h-93zM827,608h92v1h-92zM0,609h86v1h-86zM220,609h90v1h-90zM444,609h87v1h-87zM591,609h93v1h-93zM827,609h93v1h-93zM0,610h86v1h-86zM220,610h90v1h-90zM444,610h87v1h-87zM592,610h93v1h-93zM827,610h93v1h-93zM0,611h86v1h-86zM220,611h90v1h-90zM444,611h87v1h-87zM592,611h93v1h-93zM828,611h93v1h-93zM0,612h86v1h-86zM220,612h90v1h-90zM444,612h87v1h-87zM593,612h92v1h-92zM828,612h93v1h-93zM0,613h86v1h-86zM220,613h90v1h-90zM444,613h87v1h-87zM593,613h93v1h-93zM829,613h92v1h-92zM0,614h86v1h-86zM220,614h90v1h-90zM444,614h87v1h-87zM593,614h93v1h-93zM829,614h93v1h-93zM0,615h86v1h-86zM220,615h90v1h-90zM444,615h87v1h-87zM594,615h92v1h-92zM829,615h93v1h-93zM0,616h86v1h-86zM220,616h90v1h-90zM444,616h87v1h-87zM594,616h93v1h-93zM830,616h92v1h-92zM0,617h86v1h-86zM220,617h90v1h-90zM444,617h87v1h-87zM594,617h93v1h-93zM830,617h93v1h-93zM0,618h86v1h-86zM220,618h90v1h-90zM444,618h87v1h-87zM595,618h92v1h-92zM830,618h93v1h-93zM0,619h86v1h-86zM220,619h90v1h-90zM444,619h87v1h-87zM595,619h93v1h-93zM831,619h93v1h-93zM0,620h86v1h-86zM220,620h90v1h-90zM444,620h87v1h-87zM595,620h93v1h-93zM831,620h93v1h-93zM0,621h86v1h-86zM220,621h90v1h-90zM444,621h87v1h-87zM596,621h93v1h-93zM831,621h93v1h-93zM0,622h86v1h-86zM220,622h90v1h-90zM444,622h87v1h-87zM596,622h93v1h-93zM832,622h93v1h-93zM0,623h86v1h-86zM220,623h90v1h-90zM444,623h87v1h-87zM597,623h92v1h-92zM832,623h93v1h-93zM0,624h86v1h-86zM220,624h90v1h-90zM444,624h87v1h-87zM597,624h93v1h-93zM833,624h93v1h-93zM0,625h86v1h-86zM220,625h90v1h-90zM444,625h87v1h-87zM597,625h93v1h-93zM833,625h93v1h-93zM0,626h86v1h-86zM220,626h90v1h-90zM444,626h87v1h-87zM598,626h92v1h-92zM833,626h93v1h-93zM0,627h86v1h-86zM220,627h90v1h-90zM444,627h87v1h-87zM598,627h93v1h-93zM834,627h93v1h-93zM0,628h86v1h-86zM220,628h90v1h-90zM444,628h87v1h-87zM598,628h93v1h-93zM834,628h93v1h-93zM0,629h86v1h-86zM220,629h90v1h-90zM444,629h87v1h-87zM599,629h93v1h-93zM834,629h93v1h-93zM0,630h86v1h-86zM220,630h90v1h-90zM444,630h87v1h-87zM599,630h93v1h-93zM835,630h93v1h-93zM0,631h86v1h-86zM220,631h90v1h-90zM444,631h87v1h-87zM599,631h93v1h-93zM835,631h93v1h-93zM0,632h86v1h-86zM220,632h90v1h-90zM444,632h87v1h-87zM600,632h93v1h-93zM836,632h93v1h-93zM0,633h86v1h-86zM220,633h90v1h-90zM444,633h87v1h-87zM600,633h93v1h-93zM836,633h93v1h-93zM0,634h86v1h-86zM220,634h90v1h-90zM444,634h87v1h-87zM601,634h92v1h-92zM836,634h93v1h-93zM0,635h86v1h-86zM220,635h90v1h-90zM444,635h87v1h-87zM601,635h93v1h-93zM837,635h93v1h-93zM0,636h86v1h-86zM220,636h90v1h-90zM444,636h87v1h-87zM601,636h93v1h-93zM837,636h93v1h-93zM0,637h86v1h-86zM220,637h90v1h-90zM444,637h87v1h-87zM602,637h93v1h-93zM837,637h93v1h-93zM0,638h86v1h-86zM220,638h90v1h-90zM444,638h87v1h-87zM602,638h93v1h-93zM838,638h93v1h-93zM0,639h86v1h-86zM220,639h90v1h-90zM444,639h87v1h-87zM603,639h92v1h-92zM838,639h93v1h-93zM0,640h86v1h-86zM220,640h90v1h-90zM444,640h87v1h-87zM603,640h93v1h-93zM839,640h92v1h-92zM0,641h86v1h-86zM220,641h90v1h-90zM444,641h87v1h-87zM603,641h93v1h-93zM839,641h93v1h-93zM0,642h86v1h-86zM220,642h90v1h-90zM444,642h87v1h-87zM604,642h92v1h-92zM839,642h93v1h-93zM0,643h86v1h-86zM220,643h90v1h-90zM444,643h87v1h-87zM604,643h93v1h-93zM840,643h93v1h-93zM0,644h86v1h-86zM220,644h90v1h-90zM444,644h87v1h-87zM604,644h93v1h-93zM840,644h93v1h-93zM0,645h86v1h-86zM220,645h90v1h-90zM444,645h87v1h-87zM605,645h93v1h-93zM840,645h93v1h-93zM0,646h86v1h-86zM220,646h90v1h-90zM444,646h87v1h-87zM605,646h93v1h-93zM841,646h93v1h-93zM0,647h86v1h-86zM220,647h90v1h-90zM444,647h87v1h-87zM606,647h92v1h-92zM841,647h93v1h-93zM0,648h86v1h-86zM220,648h90v1h-90zM444,648h87v1h-87zM606,648h93v1h-93zM842,648h92v1h-92zM0,649h86v1h-86zM220,649h90v1h-90zM444,649h87v1h-87zM606,649h93v1h-93zM842,649h93v1h-93zM0,650h86v1h-86zM220,650h90v1h-90zM444,650h87v1h-87zM607,650h92v1h-92zM842,650h93v1h-93zM0,651h86v1h-86zM220,651h90v1h-90zM444,651h87v1h-87zM607,651h93v1h-93zM843,651h93v1h-93zM0,652h86v1h-86zM220,652h90v1h-90zM444,652h87v1h-87zM607,652h93v1h-93zM843,652h93v1h-93zM0,653h86v1h-86zM220,653h90v1h-90zM444,653h87v1h-87zM608,653h93v1h-93zM843,653h93v1h-93zM0,654h86v1h-86zM220,654h90v1h-90zM444,654h87v1h-87zM608,654h93v1h-93zM844,654h93v1h-93zM0,655h86v1h-86zM220,655h90v1h-90zM444,655h87v1h-87zM608,655h93v1h-93zM844,655h93v1h-93zM0,656h86v1h-86zM220,656h90v1h-90zM444,656h87v1h-87zM609,656h93v1h-93zM845,656h92v1h-92zM0,657h86v1h-86zM220,657h90v1h-90zM444,657h87v1h-87zM609,657h93v1h-93zM845,657h93v1h-93zM0,658h86v1h-86zM220,658h90v1h-90zM444,658h87v1h-87zM610,658h92v1h-92zM845,658h93v1h-93zM0,659h86v1h-86zM220,659h90v1h-90zM444,659h87v1h-87zM610,659h93v1h-93zM846,659h93v1h-93zM0,660h86v1h-86zM220,660h90v1h-90zM444,660h87v1h-87zM610,660h93v1h-93zM846,660h93v1h-93zM0,661h86v1h-86zM220,661h90v1h-90zM444,661h87v1h-87zM611,661h93v1h-93zM846,661h93v1h-93zM0,662h86v1h-86zM220,662h90v1h-90zM444,662h87v1h-87zM611,662h93v1h-93zM847,662h93v1h-93zM0,663h86v1h-86zM220,663h90v1h-90zM444,663h87v1h-87zM611,663h93v1h-93zM847,663h93v1h-93zM0,664h86v1h-86zM220,664h90v1h-90zM444,664h87v1h-87zM612,664h93v1h-93zM848,664h92v1h-92zM0,665h86v1h-86zM220,665h90v1h-90zM444,665h87v1h-87zM612,665h93v1h-93zM848,665h93v1h-93zM0,666h86v1h-86zM220,666h90v1h-90zM444,666h87v1h-87zM613,666h92v1h-92zM848,666h93v1h-93zM0,667h86v1h-86zM220,667h90v1h-90zM444,667h87v1h-87zM613,667h93v1h-93zM849,667h92v1h-92zM0,668h86v1h-86zM220,668h90v1h-90zM444,668h87v1h-87zM613,668h93v1h-93zM849,668h93v1h-93zM0,669h86v1h-86zM220,669h90v1h-90zM444,669h87v1h-87zM614,669h92v1h-92zM849,669h93v1h-93zM0,670h86v1h-86zM220,670h90v1h-90zM444,670h87v1h-87zM614,670h93v1h-93zM850,670h93v1h-93zM0,671h86v1h-86zM220,671h90v1h-90zM444,671h87v1h-87zM615,671h92v1h-92zM850,671h93v1h-93zM0,672h86v1h-86zM220,672h90v1h-90zM444,672h87v1h-87zM615,672h93v1h-93zM851,672h92v1h-92zM0,673h86v1h-86zM220,673h90v1h-90zM444,673h87v1h-87zM615,673h93v1h-93zM851,673h93v1h-93zM0,674h86v1h-86zM220,674h90v1h-90zM444,674h87v1h-87zM616,674h92v1h-92zM851,674h93v1h-93zM0,675h86v1h-86zM220,675h90v1h-90zM444,675h87v1h-87zM616,675h93v1h-93zM852,675h93v1h-93zM0,676h86v1h-86zM220,676h90v1h-90zM444,676h87v1h-87zM616,676h93v1h-93zM852,676h93v1h-93zM0,677h86v1h-86zM220,677h90v1h-90zM444,677h87v1h-87zM617,677h92v1h-92zM852,677h93v1h-93zM0,678h86v1h-86zM220,678h90v1h-90zM444,678h87v1h-87zM617,678h93v1h-93zM853,678h93v1h-93zM0,679h86v1h-86zM220,679h90v1h-90zM444,679h87v1h-87zM617,679h93v1h-93zM853,679h93v1h-93zM0,680h86v1h-86zM220,680h90v1h-90zM444,680h87v1h-87zM618,680h92v1h-92zM853,680h93v1h-93zM0,681h86v1h-86zM220,681h90v1h-90zM444,681h87v1h-87zM618,681h93v1h-93zM854,681h93v1h-93zM0,682h86v1h-86zM220,682h90v1h-90zM444,682h87v1h-87zM618,682h93v1h-93zM854,682h93v1h-93zM0,683h86v1h-86zM220,683h90v1h-90zM444,683h87v1h-87zM619,683h93v1h-93zM855,683h92v1h-92zM0,684h86v1h-86zM220,684h90v1h-90zM444,684h87v1h-87zM619,684h93v1h-93zM855,684h93v1h-93zM0,685h86v1h-86zM220,685h90v1h-90zM444,685h87v1h-87zM620,685h92v1h-92zM855,685h93v1h-93zM0,686h86v1h-86zM220,686h90v1h-90zM444,686h87v1h-87zM620,686h93v1h-93zM856,686h93v1h-93zM0,687h86v1h-86zM220,687h90v1h-90zM444,687h87v1h-87zM620,687h93v1h-93zM856,687h93v1h-93zM0,688h86v1h-86zM220,688h90v1h-90zM444,688h87v1h-87zM621,688h93v1h-93zM856,688h93v1h-93zM0,689h86v1h-86zM220,689h90v1h-90zM444,689h87v1h-87zM621,689h93v1h-93zM857,689h93v1h-93zM0,690h86v1h-86zM220,690h90v1h-90zM444,690h87v1h-87zM622,690h92v1h-92zM857,690h93v1h-93zM0,691h86v1h-86zM220,691h90v1h-90zM444,691h87v1h-87zM622,691h93v1h-93zM858,691h92v1h-92zM0,692h86v1h-86zM220,692h90v1h-90zM444,692h87v1h-87zM622,692h93v1h-93zM858,692h93v1h-93zM0,693h86v1h-86zM220,693h90v1h-90zM444,693h87v1h-87zM623,693h92v1h-92zM858,693h93v1h-93zM0,694h86v1h-86zM220,694h90v1h-90zM444,694h87v1h-87zM623,694h93v1h-93zM859,694h93v1h-93zM0,695h86v1h-86zM220,695h90v1h-90zM444,695h87v1h-87zM623,695h93v1h-93zM859,695h93v1h-93zM0,696h86v1h-86zM220,696h90v1h-90zM444,696h87v1h-87zM624,696h93v1h-93zM859,696h93v1h-93zM0,697h86v1h-86zM220,697h90v1h-90zM444,697h87v1h-87zM624,697h93v1h-93zM860,697h93v1h-93zM0,698h86v1h-86zM220,698h90v1h-90zM444,698h87v1h-87zM625,698h92v1h-92zM860,698h93v1h-93zM0,699h86v1h-86zM220,699h90v1h-90zM444,699h87v1h-87zM625,699h93v1h-93zM861,699h92v1h-92zM0,700h86v1h-86zM220,700h90v1h-90zM444,700h87v1h-87zM625,700h93v1h-93zM861,700h93v1h-93zM0,701h86v1h-86zM220,701h90v1h-90zM444,701h87v1h-87zM626,701h92v1h-92zM861,701h93v1h-93zM0,702h86v1h-86zM220,702h90v1h-90zM444,702h87v1h-87zM626,702h93v1h-93zM862,702h93v1h-93zM0,703h86v1h-86zM220,703h90v1h-90zM444,703h87v1h-87zM626,703h93v1h-93zM862,703h93v1h-93zM0,704h86v1h-86zM220,704h90v1h-90zM444,704h87v1h-87zM627,704h93v1h-93zM862,704h93v1h-93zM0,705h86v1h-86zM220,705h90v1h-90zM444,705h87v1h-87zM627,705h93v1h-93zM863,705h93v1h-93zM0,706h86v1h-86zM220,706h90v1h-90zM444,706h87v1h-87zM628,706h92v1h-92zM863,706h93v1h-93zM0,707h86v1h-86zM220,707h90v1h-90zM444,707h87v1h-87zM628,707h93v1h-93zM864,707h92v1h-92zM0,708h86v1h-86zM220,708h90v1h-90zM444,708h87v1h-87zM628,708h93v1h-93zM864,708h93v1h-93zM0,709h86v1h-86zM220,709h90v1h-90zM444,709h87v1h-87zM629,709h92v1h-92zM864,709h93v1h-93zM0,710h86v1h-86zM220,710h90v1h-90zM444,710h87v1h-87zM629,710h93v1h-93zM865,710h92v1h-92zM0,711h86v1h-86zM220,711h90v1h-90zM444,711h87v1h-87zM629,711h93v1h-93zM865,711h93v1h-93zM0,712h86v1h-86zM220,712h90v1h-90zM444,712h87v1h-87zM630,712h92v1h-92zM865,712h93v1h-93zM0,713h86v1h-86zM220,713h90v1h-90zM444,713h87v1h-87zM630,713h93v1h-93zM866,713h93v1h-93zM0,714h86v1h-86zM220,714h90v1h-90zM444,714h87v1h-87zM631,714h92v1h-92zM866,714h93v1h-93zM0,715h86v1h-86zM220,715h90v1h-90zM444,715h87v1h-87zM631,715h93v1h-93zM867,715h92v1h-92zM0,716h86v1h-86zM220,716h90v1h-90zM444,716h87v1h-87zM631,716h93v1h-93zM867,716h93v1h-93zM0,717h86v1h-86zM220,717h90v1h-90zM444,717h87v1h-87zM632,717h92v1h-92zM867,717h93v1h-93zM0,718h86v1h-86zM220,718h90v1h-90zM444,718h87v1h-87zM632,718h93v1h-93zM868,718h93v1h-93zM0,719h86v1h-86zM220,719h90v1h-90zM444,719h87v1h-87zM632,719h93v1h-93zM868,719h93v1h-93zM0,720h86v1h-86zM220,720h90v1h-90zM444,720h87v1h-87zM633,720h93v1h-93zM868,720h93v1h-93zM0,721h86v1h-86zM220,721h90v1h-90zM444,721h87v1h-87zM633,721h93v1h-93zM869,721h93v1h-93zM0,722h86v1h-86zM220,722h90v1h-90zM444,722h87v1h-87zM634,722h92v1h-92zM869,722h93v1h-93zM0,723h86v1h-86zM220,723h90v1h-90zM444,723h87v1h-87zM634,723h93v1h-93zM869,723h93v1h-93zM0,724h86v1h-86zM220,724h90v1h-90zM444,724h87v1h-87zM634,724h93v1h-93zM870,724h93v1h-93zM0,725h86v1h-86zM220,725h90v1h-90zM444,725h87v1h-87zM635,725h92v1h-92zM870,725h93v1h-93zM0,726h86v1h-86zM220,726h90v1h-90zM444,726h87v1h-87zM635,726h93v1h-93zM871,726h92v1h-92zM0,727h86v1h-86zM220,727h90v1h-90zM444,727h87v1h-87zM635,727h93v1h-93zM871,727h93v1h-93zM0,728h86v1h-86zM220,728h90v1h-90zM444,728h87v1h-87zM636,728h93v1h-93zM871,728h93v1h-93zM0,729h86v1h-86zM220,729h90v1h-90zM444,729h87v1h-87zM636,729h93v1h-93zM872,729h93v1h-93zM0,730h86v1h-86zM220,730h90v1h-90zM444,730h87v1h-87zM636,730h93v1h-93zM872,730h93v1h-93zM0,731h86v1h-86zM220,731h90v1h-90zM444,731h87v1h-87zM637,731h93v1h-93zM872,731h93v1h-93zM0,732h86v1h-86zM220,732h90v1h-90zM444,732h87v1h-87zM637,732h93v1h-93zM873,732h93v1h-93zM0,733h86v1h-86zM220,733h90v1h-90zM444,733h87v1h-87zM638,733h92v1h-92zM873,733h93v1h-93zM0,734h86v1h-86zM220,734h90v1h-90zM444,734h87v1h-87zM638,734h93v1h-93zM874,734h92v1h-92zM0,735h86v1h-86zM220,735h90v1h-90zM444,735h87v1h-87zM638,735h93v1h-93zM874,735h93v1h-93zM0,736h86v1h-86zM220,736h90v1h-90zM444,736h87v1h-87zM639,736h93v1h-93zM874,736h93v1h-93zM0,737h86v1h-86zM220,737h90v1h-90zM444,737h87v1h-87zM639,737h93v1h-93zM875,737h93v1h-93zM0,738h86v1h-86zM220,738h90v1h-90zM444,738h87v1h-87zM639,738h93v1h-93zM875,738h93v1h-93zM0,739h86v1h-86zM220,739h90v1h-90zM444,739h87v1h-87zM640,739h93v1h-93zM875,739h93v1h-93zM0,740h86v1h-86zM220,740h90v1h-90zM444,740h87v1h-87zM640,740h93v1h-93zM876,740h93v1h-93zM0,741h86v1h-86zM220,741h90v1h-90zM444,741h87v1h-87zM641,741h92v1h-92zM876,741h93v1h-93zM0,742h86v1h-86zM220,742h90v1h-90zM444,742h87v1h-87zM641,742h93v1h-93zM877,742h92v1h-92zM0,743h86v1h-86zM220,743h90v1h-90zM444,743h87v1h-87zM641,743h93v1h-93zM877,743h93v1h-93zM0,744h86v1h-86zM220,744h90v1h-90zM444,744h87v1h-87zM642,744h92v1h-92zM877,744h93v1h-93zM0,745h86v1h-86zM220,745h90v1h-90zM444,745h87v1h-87zM642,745h93v1h-93zM878,745h93v1h-93zM0,746h86v1h-86zM220,746h90v1h-90zM444,746h87v1h-87zM642,746h93v1h-93zM878,746h93v1h-93zM0,747h86v1h-86zM220,747h90v1h-90zM444,747h87v1h-87zM643,747h93v1h-93zM878,747h93v1h-93zM0,748h86v1h-86zM220,748h90v1h-90zM444,748h87v1h-87zM643,748h93v1h-93zM879,748h93v1h-93zM0,749h86v1h-86zM220,749h90v1h-90zM444,749h87v1h-87zM644,749h92v1h-92zM879,749h93v1h-93zM0,750h86v1h-86zM220,750h90v1h-90zM444,750h87v1h-87zM644,750h93v1h-93zM880,750h92v1h-92zM0,751h86v1h-86zM220,751h90v1h-90zM444,751h87v1h-87zM644,751h93v1h-93zM880,751h93v1h-93zM0,752h86v1h-86zM220,752h90v1h-90zM444,752h87v1h-87zM645,752h92v1h-92zM880,752h93v1h-93zM0,753h86v1h-86zM220,753h90v1h-90zM444,753h87v1h-87zM645,753h93v1h-93zM881,753h93v1h-93zM0,754h86v1h-86zM220,754h90v1h-90zM444,754h87v1h-87zM645,754h93v1h-93zM881,754h93v1h-93zM0,755h86v1h-86zM220,755h90v1h-90zM444,755h87v1h-87zM646,755h93v1h-93zM881,755h93v1h-93zM0,756h86v1h-86zM220,756h90v1h-90zM444,756h87v1h-87zM646,756h93v1h-93zM882,756h93v1h-93zM0,757h86v1h-86zM220,757h90v1h-90zM444,757h87v1h-87zM647,757h92v1h-92zM882,757h93v1h-93zM0,758h86v1h-86zM220,758h90v1h-90zM444,758h87v1h-87zM647,758h93v1h-93zM883,758h92v1h-92zM0,759h86v1h-86zM220,759h90v1h-90zM444,759h87v1h-87zM647,759h93v1h-93zM883,759h93v1h-93zM0,760h86v1h-86zM220,760h90v1h-90zM444,760h87v1h-87zM648,760h92v1h-92zM883,760h93v1h-93zM0,761h86v1h-86zM220,761h90v1h-90zM444,761h87v1h-87zM648,761h93v1h-93zM884,761h93v1h-93zM0,762h86v1h-86zM220,762h90v1h-90zM444,762h87v1h-87zM648,762h93v1h-93zM884,762h93v1h-93zM0,763h86v1h-86zM220,763h90v1h-90zM444,763h87v1h-87zM649,763h93v1h-93zM884,763h93v1h-93zM0,764h86v1h-86zM220,764h90v1h-90zM444,764h87v1h-87zM649,764h93v1h-93zM885,764h93v1h-93zM0,765h86v1h-86zM220,765h90v1h-90zM444,765h87v1h-87zM650,765h92v1h-92zM885,765h93v1h-93zM0,766h86v1h-86zM220,766h90v1h-90zM444,766h87v1h-87zM650,766h93v1h-93zM885,766h93v1h-93zM0,767h86v1h-86zM220,767h90v1h-90zM444,767h87v1h-87zM650,767h93v1h-93zM886,767h93v1h-93zM0,768h86v1h-86zM220,768h90v1h-90zM444,768h87v1h-87zM651,768h92v1h-92zM886,768h93v1h-93zM0,769h86v1h-86zM220,769h90v1h-90zM444,769h87v1h-87zM651,769h93v1h-93zM887,769h92v1h-92zM0,770h86v1h-86zM220,770h90v1h-90zM444,770h87v1h-87zM651,770h93v1h-93zM887,770h93v1h-93zM0,771h86v1h-86zM220,771h90v1h-90zM444,771h87v1h-87zM652,771h93v1h-93zM887,771h93v1h-93zM0,772h86v1h-86zM220,772h90v1h-90zM444,772h87v1h-87zM652,772h93v1h-93zM888,772h93v1h-93zM0,773h86v1h-86zM220,773h90v1h-90zM444,773h87v1h-87zM652,773h93v1h-93zM888,773h93v1h-93zM0,774h86v1h-86zM220,774h90v1h-90zM444,774h87v1h-87zM653,774h93v1h-93zM889,774h92v1h-92zM0,775h86v1h-86zM220,775h90v1h-90zM444,775h87v1h-87zM653,775h93v1h-93zM889,775h93v1h-93zM0,776h86v1h-86zM220,776h90v1h-90zM444,776h87v1h-87zM654,776h92v1h-92zM889,776h93v1h-93zM0,777h86v1h-86zM220,777h90v1h-90zM444,777h87v1h-87zM654,777h93v1h-93zM890,777h92v1h-92zM0,778h86v1h-86zM220,778h90v1h-90zM444,778h87v1h-87zM654,778h93v1h-93zM890,778h93v1h-93zM0,779h86v1h-86zM220,779h90v1h-90zM444,779h87v1h-87zM655,779h92v1h-92zM890,779h93v1h-93zM0,780h86v1h-86zM220,780h90v1h-90zM444,780h87v1h-87zM655,780h93v1h-93zM891,780h93v1h-93zM0,781h86v1h-86zM220,781h90v1h-90zM444,781h87v1h-87zM655,781h93v1h-93zM891,781h93v1h-93zM0,782h86v1h-86zM220,782h90v1h-90zM444,782h87v1h-87zM656,782h93v1h-93zM891,782h93v1h-93zM0,783h86v1h-86zM220,783h90v1h-90zM444,783h87v1h-87zM656,783h93v1h-93zM892,783h93v1h-93zM0,784h86v1h-86zM220,784h90v1h-90zM444,784h87v1h-87zM657,784h92v1h-92zM892,784h93v1h-93zM0,785h86v1h-86zM220,785h90v1h-90zM444,785h87v1h-87zM657,785h93v1h-93zM893,785h92v1h-92zM0,786h86v1h-86zM220,786h90v1h-90zM444,786h87v1h-87zM657,786h93v1h-93zM893,786h93v1h-93zM0,787h86v1h-86zM220,787h90v1h-90zM444,787h87v1h-87zM658,787h92v1h-92zM893,787h93v1h-93zM0,788h86v1h-86zM220,788h90v1h-90zM444,788h87v1h-87zM658,788h93v1h-93zM894,788h93v1h-93zM0,789h86v1h-86zM220,789h90v1h-90zM444,789h87v1h-87zM658,789h93v1h-93zM894,789h93v1h-93zM0,790h86v1h-86zM220,790h90v1h-90zM444,790h87v1h-87zM659,790h93v1h-93zM894,790h93v1h-93zM0,791h86v1h-86zM220,791h90v1h-90zM444,791h87v1h-87zM659,791h93v1h-93zM895,791h93v1h-93zM0,792h86v1h-86zM220,792h90v1h-90zM444,792h87v1h-87zM660,792h92v1h-92zM895,792h93v1h-93zM0,793h86v1h-86zM220,793h90v1h-90zM444,793h87v1h-87zM660,793h93v1h-93zM896,793h92v1h-92zM0,794h86v1h-86zM220,794h90v1h-90zM444,794h87v1h-87zM660,794h93v1h-93zM896,794h93v1h-93zM0,795h86v1h-86zM220,795h90v1h-90zM444,795h87v1h-87zM661,795h92v1h-92zM896,795h93v1h-93zM0,796h86v1h-86zM220,796h90v1h-90zM444,796h87v1h-87zM661,796h93v1h-93zM897,796h93v1h-93zM0,797h86v1h-86zM220,797h90v1h-90zM444,797h87v1h-87zM661,797h93v1h-93zM897,797h93v1h-93zM0,798h86v1h-86zM220,798h90v1h-90zM444,798h87v1h-87zM662,798h93v1h-93zM898,798h92v1h-92zM0,799h86v1h-86zM220,799h90v1h-90zM444,799h87v1h-87zM662,799h93v1h-93zM898,799h93v1h-93zM0,800h86v1h-86zM220,800h90v1h-90zM444,800h87v1h-87zM663,800h92v1h-92zM898,800h93v1h-93zM0,801h86v1h-86zM220,801h90v1h-90zM444,801h87v1h-87zM663,801h93v1h-93zM899,801h92v1h-92zM0,802h86v1h-86zM220,802h90v1h-90zM444,802h87v1h-87zM663,802h93v1h-93zM899,802h93v1h-93zM0,803h86v1h-86zM220,803h90v1h-90zM444,803h87v1h-87zM664,803h92v1h-92zM899,803h93v1h-93zM0,804h86v1h-86zM220,804h90v1h-90zM444,804h87v1h-87zM664,804h93v1h-93zM900,804h93v1h-93zM0,805h86v1h-86zM220,805h90v1h-90zM444,805h87v1h-87zM664,805h93v1h-93zM900,805h93v1h-93zM0,806h86v1h-86zM220,806h90v1h-90zM444,806h87v1h-87zM665,806h93v1h-93zM900,806h93v1h-93zM0,807h86v1h-86zM220,807h90v1h-90zM444,807h87v1h-87zM665,807h93v1h-93zM901,807h93v1h-93zM0,808h86v1h-86zM220,808h90v1h-90zM444,808h87v1h-87zM666,808h92v1h-92zM901,808h93v1h-93zM0,809h86v1h-86zM220,809h90v1h-90zM444,809h87v1h-87zM666,809h93v1h-93zM901,809h93v1h-93zM0,810h86v1h-86zM220,810h90v1h-90zM444,810h87v1h-87zM666,810h93v1h-93zM902,810h93v1h-93zM0,811h86v1h-86zM220,811h90v1h-90zM444,811h87v1h-87zM667,811h92v1h-92zM902,811h93v1h-93zM0,812h86v1h-86zM220,812h90v1h-90zM444,812h87v1h-87zM667,812h93v1h-93zM903,812h92v1h-92zM0,813h86v1h-86zM220,813h90v1h-90zM444,813h87v1h-87zM667,813h93v1h-93zM903,813h93v1h-93zM0,814h86v1h-86zM220,814h90v1h-90zM444,814h87v1h-87zM668,814h93v1h-93zM903,814h93v1h-93zM0,815h86v1h-86zM220,815h90v1h-90zM444,815h87v1h-87zM668,815h93v1h-93zM904,815h93v1h-93zM0,816h86v1h-86zM220,816h90v1h-90zM444,816h87v1h-87zM669,816h92v1h-92zM904,816h93v1h-93zM0,817h86v1h-86zM220,817h90v1h-90zM444,817h87v1h-87zM669,817h93v1h-93zM904,817h93v1h-93zM0,818h86v1h-86zM220,818h90v1h-90zM444,818h87v1h-87zM669,818h93v1h-93zM905,818h93v1h-93zM0,819h86v1h-86zM220,819h90v1h-90zM444,819h87v1h-87zM670,819h92v1h-92zM905,819h93v1h-93zM0,820h86v1h-86zM220,820h90v1h-90zM444,820h87v1h-87zM670,820h93v1h-93zM906,820h92v1h-92zM0,821h86v1h-86zM220,821h90v1h-90zM444,821h87v1h-87zM670,821h93v1h-93zM906,821h93v1h-93zM0,822h86v1h-86zM220,822h90v1h-90zM444,822h87v1h-87zM671,822h93v1h-93zM906,822h93v1h-93zM0,823h86v1h-86zM220,823h90v1h-90zM444,823h87v1h-87zM671,823h93v1h-93zM907,823h93v1h-93zM0,824h86v1h-86zM220,824h90v1h-90zM444,824h87v1h-87zM672,824h92v1h-92zM907,824h93v1h-93zM0,825h86v1h-86zM220,825h90v1h-90zM444,825h87v1h-87zM672,825h93v1h-93zM908,825h92v1h-92zM0,826h86v1h-86zM220,826h90v1h-90zM444,826h87v1h-87zM672,826h93v1h-93zM908,826h93v1h-93zM0,827h86v1h-86zM220,827h90v1h-90zM444,827h87v1h-87zM673,827h92v1h-92zM908,827h93v1h-93zM0,828h86v1h-86zM220,828h90v1h-90zM444,828h87v1h-87zM673,828h93v1h-93zM909,828h92v1h-92zM0,829h86v1h-86zM220,829h90v1h-90zM444,829h87v1h-87zM673,829h93v1h-93zM909,829h93v1h-93zM0,830h86v1h-86zM220,830h90v1h-90zM444,830h87v1h-87zM674,830h93v1h-93zM909,830h93v1h-93zM0,831h86v1h-86zM220,831h90v1h-90zM444,831h87v1h-87zM674,831h93v1h-93zM910,831h93v1h-93zM0,832h86v1h-86zM220,832h90v1h-90zM444,832h87v1h-87zM674,832h93v1h-93zM910,832h93v1h-93zM0,833h86v1h-86zM220,833h90v1h-90zM444,833h87v1h-87zM675,833h93v1h-93zM910,833h93v1h-93zM0,834h86v1h-86zM220,834h90v1h-90zM444,834h87v1h-87zM675,834h93v1h-93zM911,834h93v1h-93zM0,835h86v1h-86zM220,835h90v1h-90zM444,835h87v1h-87zM675,835h93v1h-93zM911,835h93v1h-93zM0,836h86v1h-86zM220,836h90v1h-90zM444,836h87v1h-87zM676,836h93v1h-93zM912,836h92v1h-92zM0,837h86v1h-86zM220,837h90v1h-90zM444,837h87v1h-87zM676,837h93v1h-93zM912,837h93v1h-93zM0,838h86v1h-86zM220,838h90v1h-90zM444,838h87v1h-87zM677,838h92v1h-92zM912,838h93v1h-93zM0,839h86v1h-86zM220,839h90v1h-90zM444,839h87v1h-87zM677,839h93v1h-93zM913,839h93v1h-93zM0,840h86v1h-86zM220,840h90v1h-90zM444,840h87v1h-87zM677,840h93v1h-93zM913,840h93v1h-93zM0,841h86v1h-86zM220,841h90v1h-90zM444,841h87v1h-87zM678,841h93v1h-93zM913,841h93v1h-93zM0,842h86v1h-86zM220,842h90v1h-90zM444,842h87v1h-87zM678,842h93v1h-93zM914,842h93v1h-93zM0,843h86v1h-86zM220,843h90v1h-90zM444,843h87v1h-87zM679,843h92v1h-92zM914,843h93v1h-93zM0,844h86v1h-86zM220,844h90v1h-90zM444,844h87v1h-87zM679,844h93v1h-93zM915,844h92v1h-92zM0,845h86v1h-86zM220,845h90v1h-90zM444,845h87v1h-87zM679,845h93v1h-93zM915,845h93v1h-93zM0,846h86v1h-86zM220,846h90v1h-90zM444,846h87v1h-87zM680,846h92v1h-92zM915,846h93v1h-93zM0,847h86v1h-86zM220,847h90v1h-90zM444,847h87v1h-87zM680,847h93v1h-93zM916,847h93v1h-93zM0,848h86v1h-86zM220,848h90v1h-90zM444,848h87v1h-87zM680,848h93v1h-93zM916,848h93v1h-93zM0,849h86v1h-86zM220,849h90v1h-90zM444,849h87v1h-87zM681,849h93v1h-93zM916,849h93v1h-93zM0,850h86v1h-86zM220,850h90v1h-90zM444,850h87v1h-87zM681,850h93v1h-93zM917,850h93v1h-93zM0,851h86v1h-86zM220,851h90v1h-90zM444,851h87v1h-87zM682,851h92v1h-92zM917,851h93v1h-93zM0,852h86v1h-86zM220,852h90v1h-90zM444,852h87v1h-87zM682,852h93v1h-93zM918,852h92v1h-92zM0,853h86v1h-86zM220,853h90v1h-90zM444,853h87v1h-87zM682,853h93v1h-93zM918,853h93v1h-93zM0,854h86v1h-86zM220,854h90v1h-90zM444,854h87v1h-87zM683,854h92v1h-92zM918,854h93v1h-93zM0,855h86v1h-86zM220,855h90v1h-90zM444,855h87v1h-87zM683,855h93v1h-93zM919,855h92v1h-92zM0,856h86v1h-86zM220,856h90v1h-90zM444,856h87v1h-87zM683,856h93v1h-93zM919,856h93v1h-93zM0,857h86v1h-86zM220,857h90v1h-90zM444,857h87v1h-87zM684,857h93v1h-93zM919,857h93v1h-93zM0,858h86v1h-86zM220,858h90v1h-90zM444,858h87v1h-87zM684,858h93v1h-93zM920,858h93v1h-93zM0,859h86v1h-86zM220,859h90v1h-90zM444,859h87v1h-87zM685,859h92v1h-92zM920,859h93v1h-93zM0,860h86v1h-86zM220,860h90v1h-90zM444,860h87v1h-87zM685,860h93v1h-93zM921,860h92v1h-92zM0,861h86v1h-86zM220,861h90v1h-90zM444,861h87v1h-87zM685,861h93v1h-93zM921,861h93v1h-93zM0,862h86v1h-86zM220,862h90v1h-90zM444,862h87v1h-87zM686,862h93v1h-93zM921,862h93v1h-93zM0,863h86v1h-86zM220,863h90v1h-90zM444,863h87v1h-87zM686,863h93v1h-93zM922,863h92v1h-92zM0,864h86v1h-86zM220,864h90v1h-90zM444,864h87v1h-87zM686,864h93v1h-93zM922,864h93v1h-93zM0,865h86v1h-86zM220,865h90v1h-90zM444,865h87v1h-87zM687,865h93v1h-93zM922,865h93v1h-93zM0,866h86v1h-86zM220,866h90v1h-90zM444,866h87v1h-87zM687,866h93v1h-93zM923,866h92v1h-92zM0,867h86v1h-86zM220,867h90v1h-90zM444,867h87v1h-87zM687,867h93v1h-93zM923,867h93v1h-93zM0,868h86v1h-86zM220,868h90v1h-90zM444,868h87v1h-87zM688,868h93v1h-93zM924,868h92v1h-92zM0,869h86v1h-86zM220,869h90v1h-90zM444,869h87v1h-87zM688,869h93v1h-93zM924,869h92v1h-92zM0,870h86v1h-86zM220,870h90v1h-90zM444,870h87v1h-87zM689,870h92v1h-92zM924,870h93v1h-93zM0,871h86v1h-86zM220,871h90v1h-90zM444,871h87v1h-87zM689,871h93v1h-93zM925,871h92v1h-92zM0,872h86v1h-86zM220,872h90v1h-90zM444,872h87v1h-87zM689,872h93v1h-93zM925,872h92v1h-92zM0,873h86v1h-86zM220,873h90v1h-90zM444,873h87v1h-87zM690,873h92v1h-92zM925,873h92v1h-92zM0,874h86v1h-86zM220,874h90v1h-90zM444,874h87v1h-87zM690,874h93v1h-93zM926,874h92v1h-92zM0,875h86v1h-86zM220,875h90v1h-90zM444,875h87v1h-87zM691,875h92v1h-92zM926,875h92v1h-92zM0,876h86v1h-86zM220,876h90v1h-90zM444,876h87v1h-87zM691,876h93v1h-93zM927,876h91v1h-91zM0,877h86v1h-86zM220,877h90v1h-90zM444,877h87v1h-87zM691,877h93v1h-93zM927,877h92v1h-92zM0,878h86v1h-86zM220,878h90v1h-90zM444,878h87v1h-87zM692,878h92v1h-92zM927,878h92v1h-92zM0,879h86v1h-86zM220,879h90v1h-90zM444,879h87v1h-87zM692,879h93v1h-93zM928,879h91v1h-91zM0,880h86v1h-86zM220,880h90v1h-90zM444,880h87v1h-87zM692,880h93v1h-93zM928,880h91v1h-91zM0,881h86v1h-86zM220,881h90v1h-90zM444,881h87v1h-87zM693,881h92v1h-92zM928,881h91v1h-91zM0,882h86v1h-86zM220,882h90v1h-90zM444,882h87v1h-87zM693,882h93v1h-93zM929,882h90v1h-90zM0,883h86v1h-86zM220,883h90v1h-90zM444,883h87v1h-87zM693,883h93v1h-93zM929,883h90v1h-90zM0,884h86v1h-86zM220,884h90v1h-90zM444,884h87v1h-87zM694,884h93v1h-93zM929,884h90v1h-90zM0,885h86v1h-86zM220,885h90v1h-90zM444,885h87v1h-87zM694,885h93v1h-93zM929,885h90v1h-90zM0,886h86v1h-86zM220,886h90v1h-90zM444,886h87v1h-87zM695,886h92v1h-92zM929,886h90v1h-90zM0,887h86v1h-86zM220,887h90v1h-90zM444,887h87v1h-87zM695,887h93v1h-93zM929,887h91v1h-91zM0,888h86v1h-86zM220,888h90v1h-90zM444,888h87v1h-87zM695,888h93v1h-93zM926,888h94v1h-94zM0,889h86v1h-86zM220,889h90v1h-90zM444,889h87v1h-87zM696,889h93v1h-93zM924,889h96v1h-96zM0,890h86v1h-86zM220,890h90v1h-90zM444,890h87v1h-87zM696,890h93v1h-93zM921,890h99v1h-99zM0,891h86v1h-86zM220,891h90v1h-90zM444,891h87v1h-87zM696,891h93v1h-93zM919,891h101v1h-101zM0,892h86v1h-86zM220,892h90v1h-90zM444,892h87v1h-87zM697,892h93v1h-93zM916,892h104v1h-104zM0,893h86v1h-86zM220,893h90v1h-90zM444,893h87v1h-87zM697,893h93v1h-93zM913,893h107v1h-107zM0,894h86v1h-86zM220,894h90v1h-90zM444,894h87v1h-87zM698,894h92v1h-92zM911,894h109v1h-109zM0,895h86v1h-86zM220,895h90v1h-90zM444,895h87v1h-87zM698,895h93v1h-93zM908,895h112v1h-112zM0,896h86v1h-86zM220,896h90v1h-90zM444,896h87v1h-87zM698,896h93v1h-93zM905,896h114v1h-114zM0,897h86v1h-86zM220,897h90v1h-90zM444,897h87v1h-87zM699,897h92v1h-92zM903,897h116v1h-116zM0,898h86v1h-86zM220,898h90v1h-90zM444,898h87v1h-87zM699,898h93v1h-93zM900,898h119v1h-119zM0,899h86v1h-86zM220,899h90v1h-90zM444,899h87v1h-87zM699,899h93v1h-93zM898,899h121v1h-121zM0,900h86v1h-86zM220,900h90v1h-90zM444,900h87v1h-87zM700,900h93v1h-93zM895,900h124v1h-124zM0,901h86v1h-86zM220,901h90v1h-90zM444,901h87v1h-87zM700,901h93v1h-93zM892,901h127v1h-127zM0,902h86v1h-86zM220,902h90v1h-90zM444,902h87v1h-87zM701,902h92v1h-92zM889,902h130v1h-130zM0,903h86v1h-86zM220,903h90v1h-90zM444,903h87v1h-87zM701,903h93v1h-93zM887,903h132v1h-132zM0,904h86v1h-86zM220,904h90v1h-90zM444,904h87v1h-87zM701,904h93v1h-93zM884,904h134v1h-134zM0,905h86v1h-86zM220,905h90v1h-90zM444,905h87v1h-87zM702,905h92v1h-92zM882,905h136v1h-136zM0,906h86v1h-86zM220,906h90v1h-90zM444,906h87v1h-87zM702,906h93v1h-93zM878,906h140v1h-140zM0,907h86v1h-86zM220,907h90v1h-90zM444,907h87v1h-87zM702,907h93v1h-93zM876,907h142v1h-142zM0,908h86v1h-86zM220,908h90v1h-90zM444,908h87v1h-87zM703,908h93v1h-93zM873,908h144v1h-144zM0,909h86v1h-86zM220,909h90v1h-90zM444,909h87v1h-87zM703,909h93v1h-93zM871,909h146v1h-146zM0,910h86v1h-86zM220,910h90v1h-90zM444,910h87v1h-87zM703,910h93v1h-93zM868,910h149v1h-149zM0,911h86v1h-86zM220,911h90v1h-90zM444,911h87v1h-87zM704,911h93v1h-93zM865,911h152v1h-152zM0,912h86v1h-86zM220,912h90v1h-90zM444,912h87v1h-87zM704,912h93v1h-93zM862,912h154v1h-154zM0,913h86v1h-86zM220,913h90v1h-90zM444,913h87v1h-87zM705,913h92v1h-92zM860,913h156v1h-156zM0,914h86v1h-86zM220,914h90v1h-90zM444,914h87v1h-87zM705,914h93v1h-93zM857,914h159v1h-159zM0,915h86v1h-86zM220,915h90v1h-90zM444,915h87v1h-87zM705,915h93v1h-93zM855,915h161v1h-161zM0,916h86v1h-86zM220,916h90v1h-90zM444,916h87v1h-87zM706,916h92v1h-92zM852,916h163v1h-163zM0,917h86v1h-86zM220,917h90v1h-90zM444,917h87v1h-87zM706,917h93v1h-93zM849,917h166v1h-166zM0,918h86v1h-86zM220,918h90v1h-90zM444,918h87v1h-87zM707,918h92v1h-92zM846,918h169v1h-169zM0,919h86v1h-86zM220,919h90v1h-90zM444,919h87v1h-87zM707,919h93v1h-93zM844,919h170v1h-170zM0,920h86v1h-86zM220,920h90v1h-90zM444,920h87v1h-87zM707,920h93v1h-93zM841,920h173v1h-173zM0,921h86v1h-86zM220,921h90v1h-90zM444,921h87v1h-87zM708,921h92v1h-92zM839,921h174v1h-174zM0,922h86v1h-86zM220,922h90v1h-90zM444,922h87v1h-87zM708,922h93v1h-93zM836,922h177v1h-177zM0,923h86v1h-86zM220,923h90v1h-90zM444,923h87v1h-87zM708,923h93v1h-93zM833,923h180v1h-180zM0,924h86v1h-86zM220,924h90v1h-90zM444,924h87v1h-87zM709,924h92v1h-92zM830,924h182v1h-182zM0,925h86v1h-86zM220,925h90v1h-90zM444,925h87v1h-87zM709,925h93v1h-93zM828,925h184v1h-184zM0,926h86v1h-86zM220,926h90v1h-90zM444,926h87v1h-87zM709,926h93v1h-93zM825,926h186v1h-186zM0,927h86v1h-86zM220,927h90v1h-90zM444,927h87v1h-87zM710,927h93v1h-93zM823,927h188v1h-188zM0,928h86v1h-86zM220,928h90v1h-90zM444,928h87v1h-87zM710,928h93v1h-93zM820,928h190v1h-190zM0,929h86v1h-86zM220,929h90v1h-90zM444,929h87v1h-87zM711,929h92v1h-92zM817,929h193v1h-193zM0,930h86v1h-86zM220,930h90v1h-90zM444,930h87v1h-87zM711,930h93v1h-93zM814,930h195v1h-195zM0,931h86v1h-86zM220,931h90v1h-90zM444,931h87v1h-87zM711,931h93v1h-93zM812,931h196v1h-196zM0,932h86v1h-86zM220,932h90v1h-90zM444,932h87v1h-87zM712,932h296v1h-296zM0,933h86v1h-86zM220,933h90v1h-90zM444,933h87v1h-87zM712,933h295v1h-295zM0,934h86v1h-86zM220,934h90v1h-90zM444,934h87v1h-87zM713,934h293v1h-293zM0,935h86v1h-86zM220,935h90v1h-90zM444,935h87v1h-87zM713,935h293v1h-293zM0,936h86v1h-86zM220,936h90v1h-90zM443,936h88v1h-88zM713,936h292v1h-292zM0,937h531v1h-531zM714,937h291v1h-291zM0,938h531v1h-531zM714,938h290v1h-290zM0,939h531v1h-531zM714,939h289v1h-289zM0,940h531v1h-531zM715,940h287v1h-287zM0,941h531v1h-531zM715,941h287v1h-287zM0,942h531v1h-531zM715,942h286v1h-286zM0,943h531v1h-531zM716,943h284v1h-284zM0,944h530v1h-530zM716,944h283v1h-283zM0,945h530v1h-530zM717,945h281v1h-281zM0,946h530v1h-530zM717,946h280v1h-280zM0,947h530v1h-530zM717,947h279v1h-279zM0,948h530v1h-530zM718,948h277v1h-277zM0,949h530v1h-530zM718,949h276v1h-276zM0,950h530v1h-530zM718,950h275v1h-275zM0,951h530v1h-530zM719,951h273v1h-273zM0,952h530v1h-530zM719,952h272v1h-272zM0,953h530v1h-530zM719,953h271v1h-271zM0,954h530v1h-530zM720,954h269v1h-269zM0,955h530v1h-530zM720,955h267v1h-267zM0,956h530v1h-530zM721,956h265v1h-265zM0,957h530v1h-530zM721,957h263v1h-263zM0,958h529v1h-529zM721,958h262v1h-262zM0,959h529v1h-529zM722,959h259v1h-259zM0,960h529v1h-529zM722,960h257v1h-257zM0,961h529v1h-529zM723,961h254v1h-254zM0,962h529v1h-529zM723,962h252v1h-252zM0,963h529v1h-529zM723,963h250v1h-250zM0,964h528v1h-528zM724,964h247v1h-247zM0,965h528v1h-528zM724,965h244v1h-244zM0,966h528v1h-528zM724,966h242v1h-242zM3,967h524v1h-524zM725,967h239v1h-239zM3,968h524v1h-524zM725,968h236v1h-236zM3,969h524v1h-524zM725,969h233v1h-233zM4,970h522v1h-522zM726,970h229v1h-229zM4,971h522v1h-522zM726,971h226v1h-226zM5,972h521v1h-521zM727,972h223v1h-223zM5,973h520v1h-520zM727,973h220v1h-220zM5,974h520v1h-520zM727,974h218v1h-218zM6,975h518v1h-518zM728,975h214v1h-214zM6,976h518v1h-518zM728,976h211v1h-211zM7,977h516v1h-516zM729,977h207v1h-207zM7,978h516v1h-516zM729,978h205v1h-205zM8,979h514v1h-514zM730,979h201v1h-201zM8,980h514v1h-514zM730,980h198v1h-198zM9,981h512v1h-512zM731,981h194v1h-194zM9,982h512v1h-512zM731,982h192v1h-192zM10,983h510v1h-510zM732,983h188v1h-188zM10,984h510v1h-510zM732,984h186v1h-186zM11,985h508v1h-508zM733,985h182v1h-182zM12,986h506v1h-506zM733,986h180v1h-180zM12,987h506v1h-506zM734,987h176v1h-176zM13,988h504v1h-504zM735,988h172v1h-172zM14,989h503v1h-503zM736,989h168v1h-168zM14,990h502v1h-502zM736,990h166v1h-166zM15,991h500v1h-500zM737,991h162v1h-162zM16,992h498v1h-498zM738,992h159v1h-159zM16,993h498v1h-498zM739,993h155v1h-155zM17,994h496v1h-496zM739,994h152v1h-152zM18,995h494v1h-494zM740,995h148v1h-148zM19,996h492v1h-492zM741,996h145v1h-145zM20,997h490v1h-490zM742,997h141v1h-141zM21,998h488v1h-488zM743,998h137v1h-137zM22,999h486v1h-486zM744,999h134v1h-134zM23,1000h484v1h-484zM745,1000h130v1h-130zM24,1001h482v1h-482zM746,1001h126v1h-126zM25,1002h480v1h-480zM747,1002h123v1h-123zM26,1003h478v1h-478zM748,1003h119v1h-119zM27,1004h476v1h-476zM749,1004h116v1h-116zM28,1005h474v1h-474zM751,1005h110v1h-110zM29,1006h472v1h-472zM752,1006h107v1h-107zM30,1007h470v1h-470zM753,1007h103v1h-103zM32,1008h466v1h-466zM755,1008h99v1h-99zM33,1009h464v1h-464zM756,1009h95v1h-95zM34,1010h462v1h-462zM757,1010h91v1h-91zM36,1011h458v1h-458zM759,1011h86v1h-86zM37,1012h456v1h-456zM760,1012h83v1h-83zM39,1013h452v1h-452zM762,1013h78v1h-78zM41,1014h448v1h-448zM764,1014h73v1h-73zM43,1015h444v1h-444zM767,1015h67v1h-67zM45,1016h217v1h-217zM268,1016h216v1h-216zM769,1016h63v1h-63zM47,1017h212v1h-212zM271,1017h211v1h-211zM771,1017h58v1h-58zM50,1018h207v1h-207zM273,1018h207v1h-207zM774,1018h52v1h-52zM52,1019h203v1h-203zM276,1019h202v1h-202zM777,1019h46v1h-46zM54,1020h199v1h-199zM278,1020h197v1h-197zM780,1020h40v1h-40zM57,1021h193v1h-193zM280,1021h193v1h-193zM783,1021h35v1h-35zM57,1022h193v1h-193zM280,1022h193v1h-193zM783,1022h35v1h-35zM57,1023h193v1h-193zM280,1023h193v1h-193zM783,1023h35v1h-35z"/></svg>