<?xml version="1.0" encoding="UTF-8"?>
<svg xmlns="http://www.w3.org/2000/svg" viewBox="0 0 1024 1024" width="512" height="512"><path fill="#000" d="M384,0h113v1h-113zM384,1h113v1h-113zM384,2h113v1h-113zM373,3h135v1h-135zM370,4h142v1h-142zM363,5h157v1h-157zM359,6h164v1h-164zM351,7h179v1h-179zM348,8h185v1h-185zM343,9h196v1h-196zM340,10h202v1h-202zM334,11h213v1h-213zM331,12h219v1h-219zM326,13h229v1h-229zM324,14h234v1h-234zM319,15h243v1h-243zM317,16h248v1h-248zM312,17h258v1h-258zM310,18h262v1h-262zM306,19h270v1h-270zM304,20h274v1h-274zM300,21h282v1h-282zM298,22h286v1h-286zM294,23h294v1h-294zM292,24h298v1h-298zM288,25h305v1h-305zM286,26h309v1h-309zM283,27h316v1h-316zM281,28h319v1h-319zM278,29h326v1h-326zM276,30h329v1h-329zM273,31h335v1h-335zM271,32h339v1h-339zM268,33h345v1h-345zM267,34h348v1h-348zM264,35h354v1h-354zM262,36h358v1h-358zM259,37h363v1h-363zM258,38h366v1h-366zM255,39h372v1h-372zM253,40h375v1h-375zM250,41h381v1h-381zM249,42h384v1h-384zM246,43h389v1h-389zM245,44h392v1h-392zM243,45h396v1h-396zM241,46h399v1h-399zM239,47h404v1h-404zM237,48h407v1h-407zM235,49h412v1h-412zM233,50h415v1h-415zM231,51h420v1h-420zM229,52h423v1h-423zM227,53h427v1h-427zM226,54h430v1h-430zM224,55h434v1h-434zM222,56h437v1h-437zM220,57h441v1h-441zM219,58h444v1h-444zM217,59h448v1h-448zM215,60h451v1h-451zM213,61h455v1h-455zM212,62h457v1h-457zM210,63h461v1h-461zM209,64h464v1h-464zM207,65h467v1h-467zM206,66h470v1h-470zM204,67h474v1h-474zM203,68h476v1h-476zM201,69h480v1h-480zM199,70h483v1h-483zM198,71h486v1h-486zM196,72h489v1h-489zM195,73h492v1h-492zM193,74h495v1h-495zM192,75h498v1h-498zM190,76h501v1h-501zM189,77h504v1h-504zM187,78h507v1h-507zM186,79h241v1h-241zM453,79h242v1h-242zM185,80h230v1h-230zM466,80h231v1h-231zM183,81h217v1h-217zM482,81h216v1h-216zM182,82h213v1h-213zM487,82h212v1h-212zM180,83h205v1h-205zM497,83h204v1h-204zM179,84h203v1h-203zM500,84h202v1h-202zM178,85h195v1h-195zM508,85h196v1h-196zM176,86h194v1h-194zM511,86h194v1h-194zM175,87h189v1h-189zM518,87h188v1h-188zM174,88h187v1h-187zM521,88h187v1h-187zM172,89h183v1h-183zM526,89h183v1h-183zM171,90h181v1h-181zM530,90h180v1h-180zM170,91h177v1h-177zM535,91h177v1h-177zM169,92h176v1h-176zM537,92h176v1h-176zM167,93h173v1h-173zM542,93h172v1h-172zM166,94h172v1h-172zM544,94h171v1h-171zM165,95h168v1h-168zM549,95h168v1h-168zM164,96h167v1h-167zM551,96h167v1h-167zM162,97h165v1h-165zM555,97h164v1h-164zM161,98h164v1h-164zM557,98h163v1h-163zM160,99h161v1h-161zM561,99h161v1h-161zM159,100h160v1h-160zM563,100h160v1h-160zM157,101h158v1h-158zM566,101h158v1h-158zM156,102h158v1h-158zM568,102h157v1h-157zM155,103h156v1h-156zM571,103h155v1h-155zM154,104h155v1h-155zM573,104h154v1h-154zM153,105h152v1h-152zM577,105h152v1h-152zM152,106h152v1h-152zM578,106h152v1h-152zM150,107h150v1h-150zM581,107h150v1h-150zM149,108h150v1h-150zM583,108h149v1h-149zM148,109h148v1h-148zM586,109h147v1h-147zM147,110h147v1h-147zM588,110h147v1h-147zM146,111h145v1h-145zM590,111h146v1h-146zM145,112h145v1h-145zM592,112h145v1h-145zM144,113h143v1h-143zM595,113h143v1h-143zM143,114h142v1h-142zM596,114h143v1h-143zM141,115h142v1h-142zM599,115h141v1h-141zM141,116h140v1h-140zM600,116h141v1h-141zM139,117h140v1h-140zM603,117h139v1h-139zM138,118h139v1h-139zM604,118h139v1h-139zM137,119h138v1h-138zM607,119h137v1h-137zM136,120h137v1h-137zM608,120h137v1h-137zM135,121h136v1h-136zM611,121h135v1h-135zM134,122h135v1h-135zM612,122h135v1h-135zM133,123h134v1h-134zM614,123h134v1h-134zM132,124h134v1h-134zM616,124h133v1h-133zM131,125h133v1h-133zM444,125h4v1h-4zM618,125h133v1h-133zM130,126h132v1h-132zM419,126h52v1h-52zM620,126h132v1h-132zM129,127h131v1h-131zM403,127h83v1h-83zM621,127h132v1h-132zM128,128h131v1h-131zM399,128h92v1h-92zM623,128h131v1h-131zM127,129h130v1h-130zM391,129h108v1h-108zM625,129h130v1h-130zM126,130h129v1h-129zM388,130h115v1h-115zM626,130h129v1h-129zM125,131h128v1h-128zM381,131h130v1h-130zM628,131h128v1h-128zM124,132h128v1h-128zM378,132h136v1h-136zM630,132h127v1h-127zM123,133h127v1h-127zM372,133h147v1h-147zM631,133h127v1h-127zM122,134h127v1h-127zM369,134h152v1h-152zM633,134h126v1h-126zM121,135h126v1h-126zM363,135h163v1h-163zM635,135h125v1h-125zM120,136h126v1h-126zM360,136h169v1h-169zM636,136h125v1h-125zM119,137h125v1h-125zM357,137h177v1h-177zM638,137h124v1h-124zM118,138h125v1h-125zM355,138h181v1h-181zM639,138h124v1h-124zM117,139h124v1h-124zM350,139h190v1h-190zM641,139h123v1h-123zM117,140h122v1h-122zM348,140h195v1h-195zM642,140h123v1h-123zM115,141h123v1h-123zM344,141h203v1h-203zM644,141h122v1h-122zM115,142h122v1h-122zM342,142h207v1h-207zM645,142h122v1h-122zM114,143h121v1h-121zM338,143h215v1h-215zM647,143h121v1h-121zM113,144h121v1h-121zM335,144h220v1h-220zM648,144h121v1h-121zM112,145h120v1h-120zM332,145h226v1h-226zM649,145h121v1h-121zM111,146h120v1h-120zM330,146h230v1h-230zM651,146h120v1h-120zM110,147h119v1h-119zM327,147h236v1h-236zM652,147h119v1h-119zM109,148h119v1h-119zM326,148h239v1h-239zM653,148h119v1h-119zM108,149h119v1h-119zM323,149h245v1h-245zM655,149h118v1h-118zM107,150h118v1h-118zM321,150h249v1h-249zM656,150h118v1h-118zM106,151h118v1h-118zM318,151h254v1h-254zM658,151h117v1h-117zM106,152h117v1h-117zM317,152h257v1h-257zM659,152h117v1h-117zM105,153h116v1h-116zM314,153h263v1h-263zM660,153h117v1h-117zM104,154h116v1h-116zM312,154h267v1h-267zM662,154h115v1h-115zM103,155h116v1h-116zM310,155h271v1h-271zM663,155h115v1h-115zM102,156h116v1h-116zM308,156h275v1h-275zM664,156h115v1h-115zM101,157h115v1h-115zM305,157h281v1h-281zM665,157h115v1h-115zM101,158h114v1h-114zM304,158h283v1h-283zM667,158h114v1h-114zM100,159h114v1h-114zM302,159h288v1h-288zM668,159h114v1h-114zM99,160h114v1h-114zM300,160h291v1h-291zM669,160h114v1h-114zM98,161h113v1h-113zM298,161h296v1h-296zM671,161h112v1h-112zM97,162h113v1h-113zM296,162h299v1h-299zM672,162h112v1h-112zM96,163h113v1h-113zM294,163h303v1h-303zM673,163h112v1h-112zM96,164h112v1h-112zM292,164h307v1h-307zM674,164h112v1h-112zM95,165h112v1h-112zM290,165h311v1h-311zM675,165h112v1h-112zM94,166h111v1h-111zM289,166h313v1h-313zM676,166h111v1h-111zM93,167h111v1h-111zM287,167h317v1h-317zM677,167h111v1h-111zM93,168h110v1h-110zM285,168h320v1h-320zM678,168h111v1h-111zM92,169h110v1h-110zM283,169h324v1h-324zM680,169h110v1h-110zM91,170h110v1h-110zM282,170h327v1h-327zM681,170h109v1h-109zM90,171h109v1h-109zM280,171h330v1h-330zM682,171h109v1h-109zM89,172h110v1h-110zM278,172h334v1h-334zM683,172h109v1h-109zM89,173h108v1h-108zM276,173h338v1h-338zM684,173h109v1h-109zM88,174h108v1h-108zM275,174h340v1h-340zM685,174h108v1h-108zM87,175h108v1h-108zM273,175h344v1h-344zM687,175h107v1h-107zM86,176h108v1h-108zM272,176h346v1h-346zM687,176h108v1h-108zM85,177h108v1h-108zM270,177h350v1h-350zM689,177h107v1h-107zM85,178h107v1h-107zM269,178h352v1h-352zM689,178h108v1h-108zM84,179h107v1h-107zM267,179h356v1h-356zM691,179h106v1h-106zM83,180h107v1h-107zM266,180h358v1h-358zM692,180h106v1h-106zM83,181h106v1h-106zM264,181h362v1h-362zM693,181h106v1h-106zM82,182h106v1h-106zM263,182h364v1h-364zM694,182h105v1h-105zM81,183h106v1h-106zM261,183h368v1h-368zM695,183h105v1h-105zM81,184h105v1h-105zM260,184h370v1h-370zM696,184h105v1h-105zM80,185h105v1h-105zM259,185h373v1h-373zM697,185h104v1h-104zM79,186h105v1h-105zM257,186h376v1h-376zM698,186h104v1h-104zM79,187h104v1h-104zM256,187h379v1h-379zM699,187h104v1h-104zM78,188h104v1h-104zM255,188h381v1h-381zM700,188h104v1h-104zM77,189h104v1h-104zM253,189h384v1h-384zM701,189h103v1h-103zM76,190h104v1h-104zM252,190h386v1h-386zM701,190h104v1h-104zM76,191h103v1h-103zM251,191h389v1h-389zM703,191h103v1h-103zM75,192h103v1h-103zM249,192h392v1h-392zM703,192h104v1h-104zM74,193h103v1h-103zM248,193h394v1h-394zM705,193h102v1h-102zM73,194h103v1h-103zM247,194h397v1h-397zM705,194h103v1h-103zM73,195h102v1h-102zM246,195h399v1h-399zM706,195h103v1h-103zM72,196h102v1h-102zM245,196h401v1h-401zM707,196h102v1h-102zM71,197h102v1h-102zM243,197h404v1h-404zM708,197h102v1h-102zM71,198h102v1h-102zM242,198h407v1h-407zM709,198h102v1h-102zM70,199h102v1h-102zM241,199h409v1h-409zM710,199h101v1h-101zM70,200h101v1h-101zM240,200h411v1h-411zM711,200h101v1h-101zM69,201h101v1h-101zM238,201h414v1h-414zM712,201h100v1h-100zM69,202h100v1h-100zM237,202h416v1h-416zM713,202h100v1h-100zM68,203h100v1h-100zM236,203h418v1h-418zM713,203h101v1h-101zM67,204h100v1h-100zM235,204h420v1h-420zM714,204h100v1h-100zM66,205h101v1h-101zM234,205h423v1h-423zM715,205h100v1h-100zM66,206h100v1h-100zM233,206h425v1h-425zM716,206h99v1h-99zM65,207h100v1h-100zM232,207h427v1h-427zM717,207h99v1h-99zM65,208h99v1h-99zM231,208h429v1h-429zM718,208h99v1h-99zM64,209h99v1h-99zM229,209h432v1h-432zM719,209h98v1h-98zM63,210h99v1h-99zM229,210h211v1h-211zM450,210h212v1h-212zM719,210h99v1h-99zM63,211h98v1h-98zM227,211h192v1h-192zM472,211h191v1h-191zM720,211h99v1h-99zM62,212h99v1h-99zM227,212h187v1h-187zM476,212h188v1h-188zM721,212h98v1h-98zM61,213h99v1h-99zM225,213h179v1h-179zM486,213h180v1h-180zM722,213h98v1h-98zM61,214h98v1h-98zM224,214h176v1h-176zM490,214h177v1h-177zM723,214h98v1h-98zM60,215h98v1h-98zM223,215h171v1h-171zM496,215h172v1h-172zM723,215h98v1h-98zM60,216h97v1h-97zM222,216h170v1h-170zM499,216h170v1h-170zM724,216h98v1h-98zM59,217h98v1h-98zM221,217h165v1h-165zM504,217h166v1h-166zM725,217h97v1h-97zM59,218h97v1h-97zM220,218h164v1h-164zM506,218h164v1h-164zM726,218h97v1h-97zM58,219h97v1h-97zM219,219h160v1h-160zM511,219h160v1h-160zM727,219h96v1h-96zM57,220h97v1h-97zM218,220h159v1h-159zM513,220h160v1h-160zM727,220h97v1h-97zM57,221h96v1h-96zM217,221h156v1h-156zM517,221h157v1h-157zM728,221h97v1h-97zM56,222h97v1h-97zM216,222h156v1h-156zM519,222h156v1h-156zM729,222h96v1h-96zM56,223h96v1h-96zM215,223h153v1h-153zM523,223h153v1h-153zM730,223h96v1h-96zM55,224h96v1h-96zM214,224h152v1h-152zM525,224h151v1h-151zM730,224h96v1h-96zM55,225h95v1h-95zM213,225h149v1h-149zM529,225h148v1h-148zM731,225h96v1h-96zM54,226h96v1h-96zM213,226h147v1h-147zM530,226h148v1h-148zM732,226h95v1h-95zM53,227h96v1h-96zM211,227h146v1h-146zM534,227h145v1h-145zM733,227h95v1h-95zM53,228h95v1h-95zM211,228h144v1h-144zM536,228h144v1h-144zM733,228h96v1h-96zM52,229h95v1h-95zM209,229h143v1h-143zM539,229h142v1h-142zM734,229h95v1h-95zM52,230h95v1h-95zM209,230h141v1h-141zM541,230h141v1h-141zM735,230h95v1h-95zM51,231h95v1h-95zM208,231h140v1h-140zM543,231h140v1h-140zM735,231h95v1h-95zM51,232h94v1h-94zM207,232h139v1h-139zM545,232h138v1h-138zM736,232h95v1h-95zM50,233h95v1h-95zM206,233h137v1h-137zM547,233h137v1h-137zM737,233h94v1h-94zM49,234h95v1h-95zM205,234h137v1h-137zM549,234h136v1h-136zM738,234h94v1h-94zM49,235h94v1h-94zM204,235h135v1h-135zM551,235h135v1h-135zM738,235h94v1h-94zM49,236h94v1h-94zM203,236h135v1h-135zM553,236h134v1h-134zM739,236h94v1h-94zM48,237h94v1h-94zM203,237h132v1h-132zM555,237h133v1h-133zM740,237h93v1h-93zM47,238h94v1h-94zM202,238h132v1h-132zM557,238h132v1h-132zM740,238h94v1h-94zM47,239h93v1h-93zM201,239h131v1h-131zM559,239h131v1h-131zM741,239h93v1h-93zM47,240h93v1h-93zM200,240h131v1h-131zM560,240h130v1h-130zM742,240h93v1h-93zM46,241h93v1h-93zM199,241h130v1h-130zM562,241h129v1h-129zM742,241h93v1h-93zM45,242h94v1h-94zM199,242h128v1h-128zM564,242h128v1h-128zM743,242h93v1h-93zM45,243h93v1h-93zM198,243h127v1h-127zM565,243h128v1h-128zM744,243h93v1h-93zM45,244h92v1h-92zM197,244h127v1h-127zM567,244h127v1h-127zM744,244h93v1h-93zM44,245h93v1h-93zM196,245h126v1h-126zM569,245h125v1h-125zM745,245h92v1h-92zM43,246h93v1h-93zM195,246h125v1h-125zM570,246h125v1h-125zM745,246h93v1h-93zM43,247h92v1h-92zM194,247h125v1h-125zM572,247h124v1h-124zM746,247h93v1h-93zM43,248h92v1h-92zM193,248h124v1h-124zM574,248h123v1h-123zM747,248h92v1h-92zM42,249h92v1h-92zM193,249h122v1h-122zM575,249h123v1h-123zM747,249h92v1h-92zM41,250h92v1h-92zM192,250h122v1h-122zM577,250h121v1h-121zM748,250h92v1h-92zM41,251h92v1h-92zM191,251h122v1h-122zM578,251h121v1h-121zM749,251h91v1h-91zM41,252h91v1h-91zM191,252h120v1h-120zM579,252h121v1h-121zM749,252h92v1h-92zM40,253h91v1h-91zM190,253h120v1h-120zM581,253h120v1h-120zM750,253h91v1h-91zM40,254h91v1h-91zM189,254h119v1h-119zM582,254h119v1h-119zM751,254h91v1h-91zM39,255h91v1h-91zM188,255h119v1h-119zM583,255h119v1h-119zM751,255h91v1h-91zM39,256h91v1h-91zM188,256h118v1h-118zM585,256h118v1h-118zM752,256h91v1h-91zM38,257h91v1h-91zM187,257h117v1h-117zM586,257h117v1h-117zM752,257h91v1h-91zM38,258h91v1h-91zM186,258h117v1h-117zM588,258h116v1h-116zM753,258h90v1h-90zM37,259h91v1h-91zM185,259h117v1h-117zM589,259h116v1h-116zM753,259h91v1h-91zM37,260h90v1h-90zM185,260h115v1h-115zM590,260h116v1h-116zM754,260h91v1h-91zM37,261h90v1h-90zM184,261h115v1h-115zM592,261h114v1h-114zM755,261h90v1h-90zM36,262h90v1h-90zM183,262h115v1h-115zM593,262h114v1h-114zM755,262h90v1h-90zM35,263h91v1h-91zM183,263h113v1h-113zM594,263h114v1h-114zM756,263h90v1h-90zM35,264h90v1h-90zM182,264h113v1h-113zM595,264h113v1h-113zM756,264h90v1h-90zM35,265h90v1h-90zM181,265h113v1h-113zM597,265h112v1h-112zM757,265h90v1h-90zM34,266h90v1h-90zM181,266h112v1h-112zM597,266h113v1h-113zM757,266h90v1h-90zM34,267h89v1h-89zM180,267h112v1h-112zM599,267h112v1h-112zM758,267h90v1h-90zM33,268h90v1h-90zM179,268h112v1h-112zM600,268h111v1h-111zM759,268h89v1h-89zM33,269h90v1h-90zM179,269h111v1h-111zM601,269h111v1h-111zM759,269h90v1h-90zM33,270h89v1h-89zM178,270h111v1h-111zM602,270h111v1h-111zM760,270h89v1h-89zM32,271h89v1h-89zM177,271h111v1h-111zM603,271h110v1h-110zM760,271h89v1h-89zM32,272h89v1h-89zM177,272h110v1h-110zM604,272h110v1h-110zM761,272h89v1h-89zM31,273h89v1h-89zM176,273h109v1h-109zM605,273h110v1h-110zM761,273h89v1h-89zM31,274h89v1h-89zM175,274h110v1h-110zM606,274h109v1h-109zM762,274h89v1h-89zM31,275h88v1h-88zM175,275h108v1h-108zM607,275h109v1h-109zM762,275h89v1h-89zM30,276h89v1h-89zM174,276h108v1h-108zM608,276h108v1h-108zM763,276h88v1h-88zM30,277h88v1h-88zM173,277h108v1h-108zM609,277h108v1h-108zM763,277h89v1h-89zM29,278h89v1h-89zM173,278h107v1h-107zM610,278h107v1h-107zM764,278h88v1h-88zM29,279h88v1h-88zM172,279h107v1h-107zM611,279h107v1h-107zM764,279h89v1h-89zM29,280h88v1h-88zM171,280h107v1h-107zM612,280h107v1h-107zM765,280h88v1h-88zM28,281h88v1h-88zM171,281h106v1h-106zM613,281h106v1h-106zM765,281h88v1h-88zM28,282h88v1h-88zM170,282h107v1h-107zM614,282h106v1h-106zM766,282h88v1h-88zM27,283h88v1h-88zM170,283h105v1h-105zM615,283h106v1h-106zM766,283h88v1h-88zM27,284h88v1h-88zM169,284h106v1h-106zM616,284h105v1h-105zM767,284h88v1h-88zM27,285h87v1h-87zM169,285h105v1h-105zM617,285h105v1h-105zM767,285h88v1h-88zM26,286h88v1h-88zM168,286h105v1h-105zM618,286h104v1h-104zM768,286h87v1h-87zM26,287h87v1h-87zM167,287h105v1h-105zM619,287h104v1h-104zM768,287h87v1h-87zM25,288h88v1h-88zM167,288h104v1h-104zM620,288h103v1h-103zM769,288h87v1h-87zM25,289h88v1h-88zM166,289h104v1h-104zM621,289h103v1h-103zM769,289h87v1h-87zM25,290h87v1h-87zM166,290h103v1h-103zM621,290h104v1h-104zM769,290h88v1h-88zM25,291h86v1h-86zM165,291h103v1h-103zM622,291h103v1h-103zM770,291h87v1h-87zM24,292h87v1h-87zM165,292h102v1h-102zM623,292h103v1h-103zM770,292h87v1h-87zM24,293h87v1h-87zM164,293h102v1h-102zM624,293h102v1h-102zM771,293h87v1h-87zM23,294h87v1h-87zM163,294h102v1h-102zM625,294h102v1h-102zM771,294h87v1h-87zM23,295h87v1h-87zM163,295h102v1h-102zM626,295h101v1h-101zM772,295h87v1h-87zM23,296h86v1h-86zM163,296h101v1h-101zM627,296h101v1h-101zM772,296h87v1h-87zM23,297h86v1h-86zM162,297h101v1h-101zM627,297h102v1h-102zM773,297h86v1h-86zM22,298h87v1h-87zM161,298h101v1h-101zM628,298h101v1h-101zM773,298h86v1h-86zM22,299h86v1h-86zM161,299h100v1h-100zM629,299h100v1h-100zM773,299h87v1h-87zM21,300h86v1h-86zM161,300h100v1h-100zM630,300h100v1h-100zM774,300h86v1h-86zM21,301h86v1h-86zM160,301h100v1h-100zM631,301h99v1h-99zM775,301h86v1h-86zM21,302h86v1h-86zM159,302h100v1h-100zM631,302h100v1h-100zM775,302h86v1h-86zM21,303h86v1h-86zM159,303h100v1h-100zM632,303h99v1h-99zM775,303h86v1h-86zM20,304h86v1h-86zM159,304h99v1h-99zM633,304h99v1h-99zM775,304h86v1h-86zM20,305h85v1h-85zM158,305h99v1h-99zM633,305h99v1h-99zM776,305h86v1h-86zM19,306h86v1h-86zM157,306h99v1h-99zM634,306h99v1h-99zM776,306h86v1h-86zM19,307h86v1h-86zM157,307h98v1h-98zM635,307h98v1h-98zM777,307h86v1h-86zM19,308h86v1h-86zM157,308h98v1h-98zM636,308h98v1h-98zM777,308h86v1h-86zM19,309h85v1h-85zM156,309h98v1h-98zM636,309h98v1h-98zM777,309h86v1h-86zM18,310h86v1h-86zM156,310h97v1h-97zM637,310h98v1h-98zM778,310h85v1h-85zM18,311h85v1h-85zM155,311h98v1h-98zM638,311h97v1h-97zM778,311h86v1h-86zM17,312h86v1h-86zM155,312h97v1h-97zM639,312h96v1h-96zM779,312h85v1h-85zM17,313h86v1h-86zM154,313h97v1h-97zM639,313h97v1h-97zM779,313h85v1h-85zM17,314h85v1h-85zM154,314h97v1h-97zM640,314h97v1h-97zM779,314h86v1h-86zM17,315h85v1h-85zM153,315h97v1h-97zM641,315h96v1h-96zM780,315h85v1h-85zM16,316h85v1h-85zM153,316h96v1h-96zM641,316h96v1h-96zM780,316h85v1h-85zM16,317h85v1h-85zM153,317h96v1h-96zM642,317h96v1h-96zM781,317h84v1h-84zM16,318h85v1h-85zM152,318h96v1h-96zM642,318h96v1h-96zM781,318h85v1h-85zM15,319h85v1h-85zM152,319h95v1h-95zM643,319h96v1h-96zM781,319h85v1h-85zM15,320h85v1h-85zM151,320h96v1h-96zM643,320h96v1h-96zM781,320h85v1h-85zM15,321h84v1h-84zM151,321h95v1h-95zM644,321h95v1h-95zM782,321h85v1h-85zM15,322h84v1h-84zM151,322h95v1h-95zM645,322h95v1h-95zM782,322h85v1h-85zM15,323h84v1h-84zM150,323h95v1h-95zM645,323h95v1h-95zM783,323h84v1h-84zM14,324h85v1h-85zM150,324h95v1h-95zM646,324h95v1h-95zM783,324h84v1h-84zM14,325h84v1h-84zM149,325h95v1h-95zM647,325h94v1h-94zM783,325h85v1h-85zM13,326h85v1h-85zM149,326h94v1h-94zM647,326h94v1h-94zM784,326h84v1h-84zM13,327h84v1h-84zM149,327h94v1h-94zM648,327h94v1h-94zM784,327h84v1h-84zM13,328h84v1h-84zM148,328h94v1h-94zM648,328h94v1h-94zM784,328h85v1h-85zM13,329h84v1h-84zM148,329h93v1h-93zM649,329h94v1h-94zM785,329h84v1h-84zM13,330h84v1h-84zM147,330h94v1h-94zM650,330h93v1h-93zM785,330h84v1h-84zM12,331h84v1h-84zM147,331h93v1h-93zM650,331h93v1h-93zM785,331h84v1h-84zM12,332h84v1h-84zM147,332h93v1h-93zM651,332h93v1h-93zM785,332h84v1h-84zM12,333h83v1h-83zM146,333h93v1h-93zM651,333h93v1h-93zM786,333h84v1h-84zM11,334h84v1h-84zM146,334h93v1h-93zM652,334h93v1h-93zM786,334h84v1h-84zM11,335h84v1h-84zM145,335h93v1h-93zM652,335h93v1h-93zM787,335h83v1h-83zM11,336h84v1h-84zM145,336h93v1h-93zM653,336h92v1h-92zM787,336h84v1h-84zM11,337h84v1h-84zM145,337h92v1h-92zM653,337h93v1h-93zM787,337h84v1h-84zM11,338h83v1h-83zM145,338h92v1h-92zM654,338h92v1h-92zM787,338h84v1h-84zM10,339h84v1h-84zM144,339h92v1h-92zM654,339h93v1h-93zM788,339h83v1h-83zM10,340h83v1h-83zM144,340h92v1h-92zM655,340h92v1h-92zM788,340h83v1h-83zM10,341h83v1h-83zM143,341h92v1h-92zM655,341h92v1h-92zM789,341h83v1h-83zM9,342h84v1h-84zM143,342h92v1h-92zM656,342h91v1h-91zM789,342h83v1h-83zM9,343h84v1h-84zM143,343h91v1h-91zM656,343h92v1h-92zM789,343h83v1h-83zM9,344h84v1h-84zM143,344h91v1h-91zM657,344h91v1h-91zM789,344h84v1h-84zM9,345h83v1h-83zM142,345h91v1h-91zM657,345h91v1h-91zM789,345h84v1h-84zM9,346h83v1h-83zM142,346h91v1h-91zM658,346h91v1h-91zM790,346h83v1h-83zM9,347h82v1h-82zM141,347h92v1h-92zM658,347h91v1h-91zM790,347h83v1h-83zM8,348h83v1h-83zM141,348h91v1h-91zM659,348h90v1h-90zM790,348h83v1h-83zM8,349h83v1h-83zM141,349h90v1h-90zM659,349h90v1h-90zM791,349h82v1h-82zM8,350h83v1h-83zM141,350h90v1h-90zM659,350h91v1h-91zM791,350h83v1h-83zM7,351h84v1h-84zM140,351h91v1h-91zM660,351h90v1h-90zM791,351h83v1h-83zM7,352h83v1h-83zM140,352h90v1h-90zM661,352h90v1h-90zM791,352h83v1h-83zM7,353h83v1h-83zM140,353h89v1h-89zM661,353h90v1h-90zM791,353h83v1h-83zM7,354h83v1h-83zM139,354h90v1h-90zM661,354h90v1h-90zM792,354h83v1h-83zM7,355h82v1h-82zM139,355h90v1h-90zM662,355h89v1h-89zM792,355h83v1h-83zM7,356h82v1h-82zM139,356h90v1h-90zM662,356h90v1h-90zM792,356h83v1h-83zM7,357h82v1h-82zM139,357h89v1h-89zM663,357h89v1h-89zM793,357h82v1h-82zM6,358h83v1h-83zM138,358h90v1h-90zM663,358h89v1h-89zM793,358h82v1h-82zM6,359h83v1h-83zM138,359h89v1h-89zM663,359h90v1h-90zM793,359h82v1h-82zM6,360h83v1h-83zM137,360h90v1h-90zM663,360h90v1h-90zM793,360h82v1h-82zM6,361h82v1h-82zM137,361h90v1h-90zM664,361h89v1h-89zM793,361h83v1h-83zM5,362h83v1h-83zM137,362h89v1h-89zM664,362h89v1h-89zM793,362h83v1h-83zM5,363h83v1h-83zM137,363h89v1h-89zM665,363h89v1h-89zM794,363h82v1h-82zM5,364h82v1h-82zM137,364h88v1h-88zM665,364h89v1h-89zM794,364h82v1h-82zM5,365h82v1h-82zM136,365h89v1h-89zM665,365h89v1h-89zM794,365h83v1h-83zM5,366h82v1h-82zM136,366h89v1h-89zM666,366h89v1h-89zM795,366h82v1h-82zM5,367h82v1h-82zM136,367h89v1h-89zM666,367h89v1h-89zM795,367h82v1h-82zM5,368h82v1h-82zM135,368h89v1h-89zM667,368h88v1h-88zM795,368h82v1h-82zM5,369h82v1h-82zM135,369h89v1h-89zM667,369h88v1h-88zM795,369h82v1h-82zM4,370h82v1h-82zM135,370h88v1h-88zM667,370h88v1h-88zM795,370h82v1h-82zM4,371h82v1h-82zM135,371h88v1h-88zM667,371h88v1h-88zM795,371h82v1h-82zM4,372h82v1h-82zM135,372h88v1h-88zM668,372h88v1h-88zM795,372h83v1h-83zM3,373h82v1h-82zM135,373h87v1h-87zM668,373h88v1h-88zM796,373h82v1h-82zM3,374h82v1h-82zM134,374h88v1h-88zM669,374h87v1h-87zM796,374h82v1h-82zM3,375h82v1h-82zM134,375h88v1h-88zM669,375h88v1h-88zM796,375h82v1h-82zM3,376h82v1h-82zM134,376h87v1h-87zM669,376h88v1h-88zM796,376h82v1h-82zM3,377h82v1h-82zM133,377h88v1h-88zM669,377h88v1h-88zM797,377h82v1h-82zM3,378h82v1h-82zM133,378h88v1h-88zM669,378h88v1h-88zM797,378h82v1h-82zM3,379h82v1h-82zM133,379h88v1h-88zM670,379h87v1h-87zM797,379h82v1h-82zM3,380h82v1h-82zM133,380h88v1h-88zM670,380h87v1h-87zM797,380h82v1h-82zM3,381h81v1h-81zM133,381h87v1h-87zM671,381h87v1h-87zM797,381h82v1h-82zM3,382h81v1h-81zM133,382h87v1h-87zM671,382h87v1h-87zM797,382h82v1h-82zM3,383h81v1h-81zM132,383h88v1h-88zM671,383h87v1h-87zM797,383h82v1h-82zM0,384h84v1h-84zM132,384h87v1h-87zM671,384h88v1h-88zM798,384h81v1h-81zM0,385h83v1h-83zM132,385h87v1h-87zM671,385h88v1h-88zM798,385h81v1h-81zM0,386h83v1h-83zM132,386h87v1h-87zM672,386h87v1h-87zM798,386h81v1h-81zM0,387h83v1h-83zM131,387h88v1h-88zM672,387h87v1h-87zM798,387h81v1h-81zM0,388h83v1h-83zM131,388h87v1h-87zM672,388h87v1h-87zM799,388h81v1h-81zM0,389h83v1h-83zM131,389h87v1h-87zM673,389h86v1h-86zM799,389h81v1h-81zM0,390h83v1h-83zM131,390h87v1h-87zM673,390h86v1h-86zM799,390h81v1h-81zM0,391h83v1h-83zM131,391h86v1h-86zM673,391h86v1h-86zM799,391h81v1h-81zM0,392h83v1h-83zM131,392h86v1h-86zM673,392h86v1h-86zM799,392h81v1h-81zM0,393h83v1h-83zM131,393h86v1h-86zM673,393h87v1h-87zM799,393h82v1h-82zM0,394h83v1h-83zM131,394h86v1h-86zM674,394h86v1h-86zM799,394h82v1h-82zM0,395h83v1h-83zM131,395h86v1h-86zM674,395h86v1h-86zM799,395h82v1h-82zM0,396h82v1h-82zM130,396h87v1h-87zM674,396h86v1h-86zM799,396h82v1h-82zM0,397h82v1h-82zM130,397h86v1h-86zM675,397h86v1h-86zM799,397h82v1h-82zM0,398h82v1h-82zM130,398h86v1h-86zM675,398h86v1h-86zM799,398h82v1h-82zM0,399h82v1h-82zM130,399h86v1h-86zM675,399h86v1h-86zM800,399h81v1h-81zM0,400h81v1h-81zM129,400h86v1h-86zM675,400h86v1h-86zM800,400h81v1h-81zM0,401h81v1h-81zM129,401h86v1h-86zM675,401h86v1h-86zM800,401h81v1h-81zM0,402h81v1h-81zM129,402h86v1h-86zM675,402h86v1h-86zM800,402h81v1h-81zM0,403h81v1h-81zM129,403h86v1h-86zM675,403h86v1h-86zM800,403h81v1h-81zM0,404h81v1h-81zM129,404h86v1h-86zM675,404h86v1h-86zM801,404h80v1h-80zM0,405h81v1h-81zM129,405h86v1h-86zM675,405h86v1h-86zM801,405h80v1h-80zM0,406h81v1h-81zM129,406h86v1h-86zM676,406h85v1h-85zM801,406h80v1h-80zM0,407h81v1h-81zM129,407h86v1h-86zM676,407h85v1h-85zM801,407h80v1h-80zM0,408h81v1h-81zM129,408h86v1h-86zM676,408h86v1h-86zM801,408h81v1h-81zM0,409h81v1h-81zM129,409h85v1h-85zM676,409h86v1h-86zM801,409h81v1h-81zM0,410h81v1h-81zM129,410h85v1h-85zM676,410h86v1h-86zM801,410h81v1h-81zM0,411h81v1h-81zM128,411h86v1h-86zM677,411h85v1h-85zM801,411h81v1h-81zM0,412h81v1h-81zM128,412h86v1h-86zM677,412h85v1h-85zM801,412h81v1h-81zM0,413h81v1h-81zM128,413h86v1h-86zM677,413h85v1h-85zM801,413h81v1h-81zM0,414h81v1h-81zM128,414h85v1h-85zM677,414h86v1h-86zM801,414h81v1h-81zM0,415h81v1h-81zM128,415h85v1h-85zM677,415h86v1h-86zM801,415h81v1h-81zM0,416h80v1h-80zM128,416h85v1h-85zM677,416h86v1h-86zM801,416h82v1h-82zM0,417h80v1h-80zM127,417h86v1h-86zM677,417h86v1h-86zM801,417h82v1h-82zM0,418h80v1h-80zM127,418h86v1h-86zM677,418h86v1h-86zM801,418h82v1h-82zM0,419h80v1h-80zM127,419h86v1h-86zM677,419h86v1h-86zM801,419h82v1h-82zM0,420h80v1h-80zM127,420h86v1h-86zM678,420h85v1h-85zM801,420h82v1h-82zM0,421h80v1h-80zM127,421h86v1h-86zM678,421h85v1h-85zM801,421h82v1h-82zM0,422h80v1h-80zM127,422h86v1h-86zM678,422h85v1h-85zM802,422h81v1h-81zM0,423h80v1h-80zM127,423h86v1h-86zM678,423h85v1h-85zM802,423h81v1h-81zM0,424h80v1h-80zM127,424h86v1h-86zM678,424h85v1h-85zM802,424h81v1h-81zM0,425h80v1h-80zM127,425h86v1h-86zM678,425h85v1h-85zM802,425h81v1h-81zM0,426h80v1h-80zM127,426h86v1h-86zM678,426h85v1h-85zM802,426h81v1h-81zM0,427h79v1h-79zM127,427h86v1h-86zM678,427h85v1h-85zM802,427h81v1h-81zM0,428h79v1h-79zM127,428h86v1h-86zM678,428h85v1h-85zM802,428h81v1h-81zM0,429h79v1h-79zM127,429h86v1h-86zM678,429h85v1h-85zM802,429h81v1h-81zM0,430h79v1h-79zM127,430h85v1h-85zM678,430h85v1h-85zM802,430h81v1h-81zM0,431h79v1h-79zM127,431h85v1h-85zM678,431h85v1h-85zM802,431h81v1h-81zM0,432h79v1h-79zM127,432h85v1h-85zM679,432h84v1h-84zM802,432h81v1h-81zM0,433h79v1h-79zM127,433h85v1h-85zM679,433h84v1h-84zM802,433h81v1h-81zM0,434h79v1h-79zM127,434h85v1h-85zM679,434h84v1h-84zM802,434h81v1h-81zM0,435h79v1h-79zM127,435h85v1h-85zM679,435h84v1h-84zM802,435h81v1h-81zM0,436h79v1h-79zM127,436h85v1h-85zM679,436h84v1h-84zM802,436h81v1h-81zM0,437h79v1h-79zM127,437h85v1h-85zM679,437h84v1h-84zM802,437h81v1h-81zM0,438h79v1h-79zM127,438h85v1h-85zM679,438h84v1h-84zM802,438h81v1h-81zM0,439h79v1h-79zM127,439h85v1h-85zM679,439h84v1h-84zM802,439h81v1h-81zM0,440h79v1h-79zM127,440h85v1h-85zM679,440h84v1h-84zM802,440h81v1h-81zM0,441h79v1h-79zM127,441h85v1h-85zM679,441h84v1h-84zM802,441h81v1h-81zM0,442h79v1h-79zM127,442h85v1h-85zM679,442h84v1h-84zM802,442h81v1h-81zM0,443h79v1h-79zM127,443h85v1h-85zM679,443h84v1h-84zM802,443h81v1h-81zM0,444h79v1h-79zM127,444h85v1h-85zM679,444h84v1h-84zM802,444h81v1h-81zM0,445h79v1h-79zM127,445h85v1h-85zM679,445h84v1h-84zM802,445h81v1h-81zM0,446h79v1h-79zM127,446h85v1h-85zM679,446h84v1h-84zM802,446h81v1h-81zM0,447h79v1h-79zM127,447h85v1h-85zM679,447h84v1h-84zM802,447h81v1h-81zM0,448h79v1h-79zM127,448h85v1h-85zM679,448h84v1h-84zM802,448h81v1h-81zM0,449h79v1h-79zM127,449h85v1h-85zM679,449h84v1h-84zM802,449h81v1h-81zM0,450h79v1h-79zM127,450h85v1h-85zM679,450h84v1h-84zM802,450h81v1h-81zM0,451h79v1h-79zM127,451h85v1h-85zM679,451h84v1h-84zM802,451h81v1h-81zM0,452h79v1h-79zM127,452h85v1h-85zM679,452h84v1h-84zM802,452h81v1h-81zM0,453h79v1h-79zM127,453h85v1h-85zM679,453h84v1h-84zM802,453h81v1h-81zM0,454h79v1h-79zM127,454h85v1h-85zM679,454h84v1h-84zM802,454h81v1h-81zM0,455h80v1h-80zM127,455h85v1h-85zM678,455h85v1h-85zM802,455h81v1h-81zM0,456h80v1h-80zM127,456h85v1h-85zM678,456h85v1h-85zM802,456h81v1h-81zM0,457h80v1h-80zM127,457h86v1h-86zM678,457h85v1h-85zM802,457h81v1h-81zM0,458h80v1h-80zM127,458h86v1h-86zM678,458h85v1h-85zM802,458h81v1h-81zM0,459h80v1h-80zM127,459h86v1h-86zM678,459h85v1h-85zM802,459h81v1h-81zM0,460h80v1h-80zM127,460h86v1h-86zM678,460h85v1h-85zM801,460h82v1h-82zM0,461h80v1h-80zM127,461h86v1h-86zM678,461h85v1h-85zM801,461h82v1h-82zM0,462h80v1h-80zM127,462h86v1h-86zM678,462h85v1h-85zM801,462h82v1h-82zM0,463h80v1h-80zM127,463h86v1h-86zM678,463h85v1h-85zM801,463h82v1h-82zM0,464h80v1h-80zM127,464h86v1h-86zM678,464h85v1h-85zM801,464h81v1h-81zM0,465h81v1h-81zM127,465h86v1h-86zM678,465h85v1h-85zM801,465h81v1h-81zM0,466h81v1h-81zM127,466h86v1h-86zM678,466h85v1h-85zM801,466h81v1h-81zM0,467h81v1h-81zM127,467h86v1h-86zM677,467h86v1h-86zM801,467h81v1h-81zM0,468h81v1h-81zM127,468h86v1h-86zM677,468h86v1h-86zM801,468h81v1h-81zM0,469h81v1h-81zM127,469h86v1h-86zM677,469h86v1h-86zM801,469h81v1h-81zM0,470h81v1h-81zM128,470h85v1h-85zM677,470h86v1h-86zM801,470h81v1h-81zM0,471h81v1h-81zM128,471h85v1h-85zM677,471h86v1h-86zM801,471h81v1h-81zM0,472h81v1h-81zM128,472h85v1h-85zM677,472h86v1h-86zM801,472h80v1h-80zM0,473h81v1h-81zM128,473h85v1h-85zM677,473h85v1h-85zM801,473h80v1h-80zM0,474h81v1h-81zM128,474h86v1h-86zM677,474h85v1h-85zM801,474h80v1h-80zM0,475h81v1h-81zM128,475h86v1h-86zM677,475h85v1h-85zM801,475h80v1h-80zM0,476h81v1h-81zM128,476h86v1h-86zM677,476h85v1h-85zM801,476h80v1h-80zM0,477h81v1h-81zM129,477h85v1h-85zM676,477h86v1h-86zM800,477h81v1h-81zM0,478h81v1h-81zM129,478h86v1h-86zM676,478h86v1h-86zM800,478h81v1h-81zM0,479h81v1h-81zM129,479h86v1h-86zM676,479h85v1h-85zM800,479h81v1h-81zM0,480h81v1h-81zM129,480h86v1h-86zM676,480h85v1h-85zM800,480h81v1h-81zM0,481h81v1h-81zM129,481h86v1h-86zM675,481h86v1h-86zM800,481h81v1h-81zM0,482h82v1h-82zM129,482h86v1h-86zM675,482h86v1h-86zM800,482h81v1h-81zM0,483h82v1h-82zM129,483h86v1h-86zM675,483h86v1h-86zM799,483h82v1h-82zM0,484h82v1h-82zM129,484h86v1h-86zM675,484h86v1h-86zM799,484h82v1h-82zM0,485h82v1h-82zM129,485h86v1h-86zM675,485h86v1h-86zM799,485h82v1h-82zM0,486h83v1h-83zM129,486h86v1h-86zM675,486h86v1h-86zM799,486h82v1h-82zM0,487h83v1h-83zM129,487h87v1h-87zM675,487h86v1h-86zM799,487h82v1h-82zM0,488h83v1h-83zM130,488h86v1h-86zM675,488h86v1h-86zM799,488h81v1h-81zM0,489h83v1h-83zM130,489h86v1h-86zM675,489h86v1h-86zM799,489h81v1h-81zM0,490h83v1h-83zM130,490h87v1h-87zM674,490h87v1h-87zM799,490h81v1h-81zM0,491h83v1h-83zM130,491h87v1h-87zM674,491h86v1h-86zM799,491h81v1h-81zM0,492h83v1h-83zM130,492h87v1h-87zM674,492h86v1h-86zM799,492h81v1h-81zM0,493h83v1h-83zM131,493h86v1h-86zM673,493h87v1h-87zM798,493h82v1h-82zM0,494h83v1h-83zM131,494h86v1h-86zM673,494h87v1h-87zM798,494h81v1h-81zM0,495h83v1h-83zM131,495h86v1h-86zM673,495h86v1h-86zM798,495h81v1h-81zM0,496h84v1h-84zM131,496h87v1h-87zM673,496h86v1h-86zM798,496h81v1h-81zM3,497h81v1h-81zM131,497h87v1h-87zM673,497h86v1h-86zM797,497h82v1h-82zM3,498h81v1h-81zM131,498h88v1h-88zM672,498h87v1h-87zM797,498h82v1h-82zM3,499h81v1h-81zM131,499h88v1h-88zM672,499h87v1h-87zM797,499h82v1h-82zM3,500h82v1h-82zM131,500h88v1h-88zM672,500h87v1h-87zM797,500h82v1h-82zM3,501h82v1h-82zM132,501h87v1h-87zM671,501h88v1h-88zM797,501h82v1h-82zM3,502h82v1h-82zM132,502h87v1h-87zM671,502h88v1h-88zM797,502h82v1h-82zM3,503h82v1h-82zM132,503h88v1h-88zM671,503h87v1h-87zM797,503h82v1h-82zM3,504h82v1h-82zM133,504h87v1h-87zM671,504h87v1h-87zM797,504h81v1h-81zM3,505h82v1h-82zM133,505h87v1h-87zM671,505h87v1h-87zM796,505h82v1h-82zM3,506h82v1h-82zM133,506h88v1h-88zM670,506h87v1h-87zM796,506h82v1h-82zM3,507h82v1h-82zM133,507h88v1h-88zM670,507h87v1h-87zM796,507h82v1h-82zM3,508h83v1h-83zM133,508h88v1h-88zM669,508h88v1h-88zM796,508h82v1h-82zM4,509h82v1h-82zM133,509h88v1h-88zM669,509h88v1h-88zM795,509h82v1h-82zM4,510h82v1h-82zM133,510h88v1h-88zM669,510h88v1h-88zM795,510h82v1h-82zM4,511h82v1h-82zM134,511h88v1h-88zM669,511h88v1h-88zM795,511h82v1h-82zM5,512h82v1h-82zM134,512h88v1h-88zM669,512h88v1h-88zM795,512h82v1h-82zM5,513h82v1h-82zM134,513h89v1h-89zM668,513h88v1h-88zM795,513h82v1h-82zM5,514h82v1h-82zM135,514h88v1h-88zM668,514h88v1h-88zM795,514h82v1h-82zM5,515h82v1h-82zM135,515h88v1h-88zM667,515h89v1h-89zM794,515h83v1h-83zM5,516h82v1h-82zM135,516h88v1h-88zM667,516h88v1h-88zM794,516h83v1h-83zM5,517h82v1h-82zM135,517h89v1h-89zM667,517h88v1h-88zM794,517h82v1h-82zM5,518h83v1h-83zM135,518h89v1h-89zM667,518h88v1h-88zM794,518h82v1h-82zM6,519h82v1h-82zM136,519h89v1h-89zM666,519h89v1h-89zM793,519h83v1h-83zM6,520h82v1h-82zM136,520h89v1h-89zM665,520h90v1h-90zM793,520h82v1h-82zM6,521h83v1h-83zM136,521h89v1h-89zM665,521h89v1h-89zM793,521h82v1h-82zM6,522h83v1h-83zM137,522h88v1h-88zM665,522h89v1h-89zM793,522h82v1h-82zM7,523h82v1h-82zM137,523h89v1h-89zM665,523h89v1h-89zM793,523h82v1h-82zM7,524h82v1h-82zM137,524h89v1h-89zM664,524h89v1h-89zM792,524h83v1h-83zM7,525h82v1h-82zM137,525h90v1h-90zM664,525h89v1h-89zM792,525h83v1h-83zM7,526h83v1h-83zM137,526h90v1h-90zM663,526h90v1h-90zM792,526h83v1h-83zM7,527h83v1h-83zM138,527h89v1h-89zM663,527h90v1h-90zM791,527h84v1h-84zM7,528h83v1h-83zM138,528h90v1h-90zM663,528h90v1h-90zM791,528h83v1h-83zM7,529h84v1h-84zM138,529h90v1h-90zM663,529h89v1h-89zM791,529h83v1h-83zM8,530h83v1h-83zM139,530h90v1h-90zM662,530h90v1h-90zM791,530h83v1h-83zM8,531h83v1h-83zM139,531h90v1h-90zM662,531h89v1h-89zM791,531h82v1h-82zM8,532h83v1h-83zM139,532h90v1h-90zM661,532h90v1h-90zM791,532h82v1h-82zM9,533h82v1h-82zM139,533h90v1h-90zM661,533h90v1h-90zM790,533h83v1h-83zM9,534h83v1h-83zM140,534h90v1h-90zM661,534h90v1h-90zM790,534h83v1h-83zM9,535h83v1h-83zM140,535h90v1h-90zM660,535h91v1h-91zM789,535h84v1h-84zM9,536h83v1h-83zM140,536h91v1h-91zM660,536h90v1h-90zM789,536h84v1h-84zM9,537h84v1h-84zM141,537h90v1h-90zM659,537h91v1h-91zM789,537h84v1h-84zM9,538h84v1h-84zM141,538h91v1h-91zM659,538h90v1h-90zM789,538h83v1h-83zM10,539h83v1h-83zM141,539h91v1h-91zM658,539h91v1h-91zM789,539h83v1h-83zM10,540h83v1h-83zM142,540h91v1h-91zM658,540h91v1h-91zM788,540h83v1h-83zM10,541h84v1h-84zM142,541h91v1h-91zM657,541h92v1h-92zM788,541h83v1h-83zM11,542h83v1h-83zM143,542h90v1h-90zM657,542h91v1h-91zM787,542h84v1h-84zM11,543h83v1h-83zM143,543h91v1h-91zM656,543h92v1h-92zM787,543h84v1h-84zM11,544h84v1h-84zM143,544h92v1h-92zM656,544h91v1h-91zM787,544h84v1h-84zM11,545h84v1h-84zM143,545h92v1h-92zM655,545h92v1h-92zM787,545h84v1h-84zM11,546h84v1h-84zM144,546h91v1h-91zM655,546h92v1h-92zM787,546h83v1h-83zM11,547h84v1h-84zM144,547h92v1h-92zM654,547h93v1h-93zM786,547h84v1h-84zM12,548h83v1h-83zM145,548h92v1h-92zM654,548h92v1h-92zM786,548h83v1h-83zM12,549h84v1h-84zM145,549h92v1h-92zM653,549h93v1h-93zM785,549h84v1h-84zM13,550h83v1h-83zM145,550h92v1h-92zM653,550h92v1h-92zM785,550h84v1h-84zM13,551h84v1h-84zM145,551h93v1h-93zM652,551h93v1h-93zM785,551h84v1h-84zM13,552h84v1h-84zM146,552h93v1h-93zM652,552h93v1h-93zM785,552h84v1h-84zM13,553h84v1h-84zM146,553h93v1h-93zM651,553h94v1h-94zM784,553h84v1h-84zM13,554h84v1h-84zM147,554h92v1h-92zM651,554h93v1h-93zM784,554h84v1h-84zM14,555h84v1h-84zM147,555h93v1h-93zM650,555h94v1h-94zM783,555h85v1h-85zM14,556h84v1h-84zM147,556h94v1h-94zM650,556h93v1h-93zM783,556h84v1h-84zM14,557h85v1h-85zM148,557h93v1h-93zM649,557h94v1h-94zM783,557h84v1h-84zM15,558h84v1h-84zM148,558h94v1h-94zM649,558h94v1h-94zM783,558h84v1h-84zM15,559h84v1h-84zM149,559h93v1h-93zM648,559h94v1h-94zM782,559h85v1h-85zM15,560h85v1h-85zM149,560h94v1h-94zM647,560h95v1h-95zM782,560h85v1h-85zM15,561h85v1h-85zM149,561h94v1h-94zM647,561h94v1h-94zM781,561h85v1h-85zM16,562h84v1h-84zM150,562h94v1h-94zM646,562h95v1h-95zM781,562h85v1h-85zM16,563h85v1h-85zM150,563h95v1h-95zM646,563h95v1h-95zM781,563h84v1h-84zM16,564h85v1h-85zM151,564h94v1h-94zM645,564h95v1h-95zM781,564h84v1h-84zM17,565h84v1h-84zM151,565h95v1h-95zM644,565h96v1h-96zM780,565h85v1h-85zM17,566h85v1h-85zM151,566h96v1h-96zM644,566h95v1h-95zM780,566h85v1h-85zM17,567h85v1h-85zM152,567h95v1h-95zM643,567h96v1h-96zM779,567h86v1h-86zM17,568h86v1h-86zM152,568h96v1h-96zM643,568h96v1h-96zM779,568h85v1h-85zM18,569h85v1h-85zM153,569h95v1h-95zM642,569h96v1h-96zM779,569h85v1h-85zM18,570h85v1h-85zM153,570h96v1h-96zM641,570h96v1h-96zM778,570h85v1h-85zM19,571h85v1h-85zM153,571h97v1h-97zM641,571h96v1h-96zM778,571h85v1h-85zM19,572h85v1h-85zM154,572h96v1h-96zM640,572h97v1h-97zM777,572h86v1h-86zM19,573h86v1h-86zM155,573h96v1h-96zM639,573h97v1h-97zM777,573h86v1h-86zM19,574h86v1h-86zM155,574h96v1h-96zM639,574h97v1h-97zM777,574h85v1h-85zM19,575h86v1h-86zM155,575h97v1h-97zM638,575h97v1h-97zM776,575h86v1h-86zM20,576h86v1h-86zM156,576h97v1h-97zM637,576h98v1h-98zM776,576h86v1h-86zM20,577h86v1h-86zM156,577h98v1h-98zM637,577h98v1h-98zM775,577h86v1h-86zM21,578h86v1h-86zM157,578h98v1h-98zM636,578h98v1h-98zM775,578h86v1h-86zM21,579h86v1h-86zM157,579h98v1h-98zM635,579h98v1h-98zM775,579h86v1h-86zM21,580h86v1h-86zM157,580h99v1h-99zM634,580h99v1h-99zM774,580h86v1h-86zM21,581h87v1h-87zM158,581h99v1h-99zM634,581h99v1h-99zM774,581h86v1h-86zM22,582h86v1h-86zM159,582h98v1h-98zM633,582h99v1h-99zM773,582h86v1h-86zM22,583h87v1h-87zM159,583h99v1h-99zM632,583h99v1h-99zM773,583h86v1h-86zM23,584h86v1h-86zM159,584h100v1h-100zM631,584h100v1h-100zM772,584h87v1h-87zM23,585h86v1h-86zM160,585h100v1h-100zM631,585h100v1h-100zM772,585h87v1h-87zM23,586h87v1h-87zM161,586h100v1h-100zM630,586h100v1h-100zM771,586h87v1h-87zM23,587h87v1h-87zM161,587h100v1h-100zM629,587h100v1h-100zM771,587h87v1h-87zM24,588h87v1h-87zM162,588h100v1h-100zM629,588h100v1h-100zM771,588h86v1h-86zM24,589h87v1h-87zM162,589h101v1h-101zM628,589h101v1h-101zM770,589h87v1h-87zM25,590h87v1h-87zM163,590h100v1h-100zM627,590h101v1h-101zM770,590h87v1h-87zM25,591h87v1h-87zM163,591h101v1h-101zM626,591h101v1h-101zM769,591h88v1h-88zM25,592h88v1h-88zM164,592h101v1h-101zM625,592h102v1h-102zM769,592h87v1h-87zM26,593h87v1h-87zM164,593h102v1h-102zM624,593h103v1h-103zM768,593h88v1h-88zM26,594h87v1h-87zM165,594h102v1h-102zM623,594h103v1h-103zM768,594h87v1h-87zM27,595h87v1h-87zM165,595h103v1h-103zM623,595h102v1h-102zM767,595h88v1h-88zM27,596h88v1h-88zM166,596h103v1h-103zM622,596h103v1h-103zM767,596h88v1h-88zM27,597h88v1h-88zM167,597h102v1h-102zM621,597h103v1h-103zM766,597h88v1h-88zM28,598h87v1h-87zM167,598h103v1h-103zM620,598h104v1h-104zM766,598h88v1h-88zM28,599h88v1h-88zM167,599h104v1h-104zM619,599h104v1h-104zM765,599h88v1h-88zM29,600h88v1h-88zM168,600h104v1h-104zM618,600h105v1h-105zM765,600h88v1h-88zM29,601h88v1h-88zM169,601h104v1h-104zM617,601h105v1h-105zM765,601h88v1h-88zM29,602h88v1h-88zM169,602h105v1h-105zM617,602h104v1h-104zM764,602h88v1h-88zM30,603h88v1h-88zM170,603h105v1h-105zM616,603h105v1h-105zM763,603h89v1h-89zM30,604h89v1h-89zM170,604h106v1h-106zM615,604h105v1h-105zM763,604h88v1h-88zM31,605h88v1h-88zM171,605h106v1h-106zM614,605h105v1h-105zM762,605h89v1h-89zM31,606h88v1h-88zM171,606h106v1h-106zM613,606h106v1h-106zM762,606h89v1h-89zM31,607h89v1h-89zM172,607h106v1h-106zM612,607h107v1h-107zM761,607h89v1h-89zM32,608h89v1h-89zM173,608h106v1h-106zM611,608h107v1h-107zM761,608h89v1h-89zM32,609h89v1h-89zM173,609h107v1h-107zM610,609h107v1h-107zM760,609h89v1h-89zM33,610h88v1h-88zM174,610h107v1h-107zM609,610h108v1h-108zM760,610h89v1h-89zM33,611h89v1h-89zM175,611h107v1h-107zM608,611h108v1h-108zM759,611h90v1h-90zM33,612h90v1h-90zM175,612h108v1h-108zM607,612h108v1h-108zM759,612h89v1h-89zM34,613h89v1h-89zM176,613h109v1h-109zM606,613h109v1h-109zM758,613h90v1h-90zM34,614h90v1h-90zM176,614h110v1h-110zM605,614h109v1h-109zM757,614h90v1h-90zM35,615h89v1h-89zM177,615h110v1h-110zM604,615h109v1h-109zM757,615h90v1h-90zM35,616h90v1h-90zM178,616h110v1h-110zM603,616h110v1h-110zM756,616h91v1h-91zM35,617h90v1h-90zM178,617h111v1h-111zM601,617h111v1h-111zM756,617h90v1h-90zM36,618h90v1h-90zM179,618h111v1h-111zM600,618h112v1h-112zM755,618h90v1h-90zM37,619h90v1h-90zM179,619h112v1h-112zM599,619h112v1h-112zM755,619h90v1h-90zM37,620h90v1h-90zM180,620h112v1h-112zM598,620h112v1h-112zM754,620h91v1h-91zM37,621h91v1h-91zM181,621h113v1h-113zM597,621h112v1h-112zM754,621h90v1h-90zM38,622h90v1h-90zM182,622h113v1h-113zM596,622h113v1h-113zM753,622h91v1h-91zM38,623h91v1h-91zM182,623h114v1h-114zM594,623h114v1h-114zM753,623h90v1h-90zM39,624h90v1h-90zM183,624h114v1h-114zM593,624h114v1h-114zM752,624h91v1h-91zM39,625h91v1h-91zM184,625h114v1h-114zM592,625h115v1h-115zM752,625h91v1h-91zM40,626h91v1h-91zM184,626h115v1h-115zM591,626h115v1h-115zM751,626h91v1h-91zM40,627h91v1h-91zM185,627h116v1h-116zM590,627h115v1h-115zM751,627h90v1h-90zM41,628h91v1h-91zM186,628h116v1h-116zM588,628h117v1h-117zM751,628h90v1h-90zM41,629h92v1h-92zM187,629h117v1h-117zM587,629h117v1h-117zM751,629h90v1h-90zM41,630h92v1h-92zM187,630h118v1h-118zM586,630h117v1h-117zM751,630h89v1h-89zM42,631h92v1h-92zM188,631h118v1h-118zM584,631h119v1h-119zM751,631h88v1h-88zM42,632h92v1h-92zM189,632h118v1h-118zM583,632h119v1h-119zM751,632h88v1h-88zM43,633h92v1h-92zM189,633h120v1h-120zM581,633h120v1h-120zM751,633h88v1h-88zM43,634h93v1h-93zM190,634h120v1h-120zM580,634h120v1h-120zM750,634h88v1h-88zM44,635h92v1h-92zM191,635h121v1h-121zM579,635h120v1h-120zM750,635h87v1h-87zM44,636h93v1h-93zM192,636h121v1h-121zM577,636h122v1h-122zM750,636h87v1h-87zM45,637h93v1h-93zM193,637h122v1h-122zM576,637h122v1h-122zM750,637h87v1h-87zM45,638h93v1h-93zM193,638h123v1h-123zM575,638h122v1h-122zM750,638h86v1h-86zM46,639h93v1h-93zM194,639h124v1h-124zM573,639h124v1h-124zM750,639h85v1h-85zM46,640h93v1h-93zM195,640h124v1h-124zM571,640h125v1h-125zM750,640h85v1h-85zM47,641h93v1h-93zM196,641h125v1h-125zM569,641h126v1h-126zM750,641h85v1h-85zM47,642h94v1h-94zM197,642h126v1h-126zM568,642h126v1h-126zM750,642h84v1h-84zM48,643h93v1h-93zM197,643h127v1h-127zM566,643h127v1h-127zM750,643h83v1h-83zM49,644h93v1h-93zM198,644h128v1h-128zM565,644h128v1h-128zM750,644h83v1h-83zM49,645h94v1h-94zM199,645h129v1h-129zM563,645h129v1h-129zM750,645h83v1h-83zM49,646h94v1h-94zM200,646h129v1h-129zM561,646h130v1h-130zM751,646h81v1h-81zM50,647h94v1h-94zM201,647h130v1h-130zM560,647h130v1h-130zM751,647h80v1h-80zM51,648h94v1h-94zM202,648h130v1h-130zM558,648h131v1h-131zM751,648h80v1h-80zM51,649h95v1h-95zM203,649h132v1h-132zM556,649h133v1h-133zM751,649h80v1h-80zM51,650h96v1h-96zM203,650h133v1h-133zM554,650h134v1h-134zM751,650h79v1h-79zM52,651h95v1h-95zM204,651h135v1h-135zM552,651h135v1h-135zM751,651h78v1h-78zM53,652h95v1h-95zM205,652h135v1h-135zM550,652h136v1h-136zM751,652h78v1h-78zM53,653h96v1h-96zM206,653h137v1h-137zM548,653h137v1h-137zM752,653h77v1h-77zM54,654h95v1h-95zM207,654h137v1h-137zM546,654h138v1h-138zM752,654h76v1h-76zM54,655h96v1h-96zM208,655h139v1h-139zM544,655h139v1h-139zM753,655h74v1h-74zM55,656h96v1h-96zM209,656h139v1h-139zM542,656h141v1h-141zM753,656h74v1h-74zM55,657h96v1h-96zM209,657h142v1h-142zM539,657h142v1h-142zM753,657h74v1h-74zM56,658h96v1h-96zM210,658h143v1h-143zM538,658h143v1h-143zM754,658h72v1h-72zM57,659h96v1h-96zM211,659h145v1h-145zM535,659h145v1h-145zM755,659h70v1h-70zM57,660h97v1h-97zM212,660h145v1h-145zM533,660h146v1h-146zM755,660h70v1h-70zM58,661h97v1h-97zM213,661h148v1h-148zM530,661h148v1h-148zM756,661h68v1h-68zM58,662h97v1h-97zM214,662h149v1h-149zM528,662h149v1h-149zM756,662h68v1h-68zM59,663h97v1h-97zM215,663h151v1h-151zM524,663h152v1h-152zM757,663h66v1h-66zM59,664h98v1h-98zM216,664h152v1h-152zM522,664h153v1h-153zM758,664h64v1h-64zM60,665h98v1h-98zM217,665h155v1h-155zM519,665h155v1h-155zM759,665h62v1h-62zM61,666h98v1h-98zM218,666h156v1h-156zM517,666h156v1h-156zM760,666h60v1h-60zM61,667h98v1h-98zM219,667h160v1h-160zM512,667h160v1h-160zM761,667h58v1h-58zM62,668h98v1h-98zM219,668h162v1h-162zM509,668h162v1h-162zM762,668h56v1h-56zM63,669h98v1h-98zM221,669h165v1h-165zM504,669h166v1h-166zM763,669h54v1h-54zM63,670h99v1h-99zM221,670h168v1h-168zM502,670h167v1h-167zM764,670h52v1h-52zM64,671h99v1h-99zM223,671h171v1h-171zM496,671h172v1h-172zM765,671h50v1h-50zM64,672h99v1h-99zM224,672h172v1h-172zM494,672h173v1h-173zM766,672h48v1h-48zM65,673h99v1h-99zM225,673h179v1h-179zM487,673h179v1h-179zM768,673h44v1h-44zM66,674h99v1h-99zM226,674h181v1h-181zM483,674h182v1h-182zM769,674h42v1h-42zM66,675h100v1h-100zM227,675h189v1h-189zM474,675h190v1h-190zM771,675h38v1h-38zM67,676h100v1h-100zM228,676h192v1h-192zM470,676h193v1h-193zM773,676h34v1h-34zM67,677h101v1h-101zM229,677h433v1h-433zM776,677h28v1h-28zM68,678h101v1h-101zM230,678h431v1h-431zM778,678h24v1h-24zM69,679h100v1h-100zM231,679h428v1h-428zM69,680h101v1h-101zM232,680h427v1h-427zM70,681h101v1h-101zM233,681h424v1h-424zM71,682h101v1h-101zM235,682h421v1h-421zM71,683h102v1h-102zM236,683h419v1h-419zM718,683h13v1h-13zM72,684h102v1h-102zM237,684h417v1h-417zM715,684h19v1h-19zM73,685h102v1h-102zM238,685h415v1h-415zM711,685h27v1h-27zM73,686h103v1h-103zM239,686h413v1h-413zM710,686h29v1h-29zM74,687h103v1h-103zM241,687h410v1h-410zM708,687h33v1h-33zM75,688h103v1h-103zM242,688h407v1h-407zM706,688h37v1h-37zM75,689h104v1h-104zM243,689h405v1h-405zM704,689h40v1h-40zM76,690h103v1h-103zM244,690h403v1h-403zM703,690h42v1h-42zM77,691h104v1h-104zM246,691h400v1h-400zM701,691h46v1h-46zM77,692h104v1h-104zM247,692h398v1h-398zM700,692h48v1h-48zM78,693h104v1h-104zM248,693h395v1h-395zM699,693h50v1h-50zM79,694h104v1h-104zM249,694h393v1h-393zM698,694h52v1h-52zM80,695h104v1h-104zM251,695h390v1h-390zM697,695h54v1h-54zM80,696h105v1h-105zM252,696h387v1h-387zM696,696h56v1h-56zM81,697h105v1h-105zM253,697h385v1h-385zM695,697h58v1h-58zM82,698h105v1h-105zM254,698h383v1h-383zM694,698h60v1h-60zM83,699h106v1h-106zM256,699h379v1h-379zM693,699h62v1h-62zM83,700h106v1h-106zM257,700h377v1h-377zM692,700h64v1h-64zM84,701h107v1h-107zM259,701h373v1h-373zM691,701h66v1h-66zM85,702h106v1h-106zM260,702h371v1h-371zM690,702h68v1h-68zM85,703h108v1h-108zM261,703h368v1h-368zM689,703h70v1h-70zM86,704h108v1h-108zM263,704h365v1h-365zM688,704h72v1h-72zM87,705h108v1h-108zM264,705h363v1h-363zM687,705h74v1h-74zM88,706h108v1h-108zM266,706h359v1h-359zM686,706h76v1h-76zM88,707h109v1h-109zM267,707h357v1h-357zM684,707h79v1h-79zM89,708h109v1h-109zM268,708h354v1h-354zM683,708h81v1h-81zM90,709h109v1h-109zM270,709h351v1h-351zM682,709h83v1h-83zM91,710h109v1h-109zM272,710h347v1h-347zM681,710h85v1h-85zM91,711h110v1h-110zM273,711h344v1h-344zM680,711h87v1h-87zM92,712h111v1h-111zM275,712h341v1h-341zM679,712h89v1h-89zM93,713h111v1h-111zM277,713h338v1h-338zM678,713h91v1h-91zM94,714h111v1h-111zM278,714h335v1h-335zM677,714h93v1h-93zM95,715h111v1h-111zM280,715h331v1h-331zM675,715h96v1h-96zM95,716h112v1h-112zM281,716h329v1h-329zM674,716h98v1h-98zM96,717h112v1h-112zM283,717h325v1h-325zM673,717h100v1h-100zM97,718h112v1h-112zM285,718h322v1h-322zM672,718h102v1h-102zM98,719h113v1h-113zM287,719h318v1h-318zM671,719h104v1h-104zM99,720h113v1h-113zM288,720h315v1h-315zM670,720h106v1h-106zM99,721h114v1h-114zM290,721h311v1h-311zM668,721h109v1h-109zM100,722h114v1h-114zM291,722h309v1h-309zM667,722h111v1h-111zM101,723h115v1h-115zM293,723h304v1h-304zM666,723h113v1h-113zM102,724h115v1h-115zM295,724h301v1h-301zM665,724h115v1h-115zM103,725h115v1h-115zM297,725h296v1h-296zM663,725h118v1h-118zM104,726h115v1h-115zM298,726h294v1h-294zM662,726h120v1h-120zM105,727h116v1h-116zM301,727h289v1h-289zM661,727h122v1h-122zM105,728h117v1h-117zM302,728h286v1h-286zM659,728h125v1h-125zM106,729h117v1h-117zM305,729h281v1h-281zM658,729h127v1h-127zM107,730h118v1h-118zM306,730h278v1h-278zM657,730h129v1h-129zM108,731h118v1h-118zM309,731h273v1h-273zM655,731h132v1h-132zM109,732h118v1h-118zM311,732h270v1h-270zM654,732h134v1h-134zM110,733h119v1h-119zM314,733h264v1h-264zM652,733h137v1h-137zM111,734h119v1h-119zM316,734h260v1h-260zM651,734h139v1h-139zM111,735h121v1h-121zM319,735h254v1h-254zM650,735h141v1h-141zM112,736h121v1h-121zM320,736h252v1h-252zM648,736h144v1h-144zM113,737h121v1h-121zM323,737h246v1h-246zM647,737h146v1h-146zM114,738h122v1h-122zM325,738h242v1h-242zM646,738h148v1h-148zM115,739h122v1h-122zM328,739h236v1h-236zM644,739h151v1h-151zM116,740h123v1h-123zM330,740h232v1h-232zM643,740h154v1h-154zM117,741h123v1h-123zM333,741h225v1h-225zM641,741h157v1h-157zM118,742h124v1h-124zM335,742h221v1h-221zM640,742h159v1h-159zM119,743h124v1h-124zM338,743h215v1h-215zM638,743h162v1h-162zM120,744h125v1h-125zM340,744h211v1h-211zM637,744h164v1h-164zM121,745h126v1h-126zM344,745h203v1h-203zM635,745h168v1h-168zM122,746h126v1h-126zM346,746h199v1h-199zM633,746h170v1h-170zM123,747h127v1h-127zM350,747h191v1h-191zM632,747h173v1h-173zM124,748h127v1h-127zM352,748h187v1h-187zM630,748h175v1h-175zM125,749h128v1h-128zM357,749h178v1h-178zM628,749h179v1h-179zM125,750h129v1h-129zM359,750h173v1h-173zM627,750h180v1h-180zM127,751h129v1h-129zM364,751h164v1h-164zM625,751h184v1h-184zM127,752h131v1h-131zM367,752h158v1h-158zM624,752h185v1h-185zM128,753h132v1h-132zM373,753h147v1h-147zM622,753h189v1h-189zM129,754h132v1h-132zM376,754h141v1h-141zM620,754h191v1h-191zM131,755h132v1h-132zM382,755h129v1h-129zM618,755h195v1h-195zM131,756h134v1h-134zM385,756h123v1h-123zM617,756h196v1h-196zM133,757h134v1h-134zM392,757h109v1h-109zM615,757h200v1h-200zM134,758h134v1h-134zM396,758h102v1h-102zM613,758h202v1h-202zM135,759h135v1h-135zM406,759h80v1h-80zM611,759h206v1h-206zM136,760h136v1h-136zM411,760h71v1h-71zM610,760h207v1h-207zM137,761h137v1h-137zM607,761h212v1h-212zM138,762h138v1h-138zM606,762h213v1h-213zM139,763h139v1h-139zM603,763h218v1h-218zM140,764h140v1h-140zM602,764h219v1h-219zM141,765h141v1h-141zM599,765h224v1h-224zM142,766h142v1h-142zM598,766h225v1h-225zM143,767h144v1h-144zM595,767h230v1h-230zM144,768h144v1h-144zM593,768h232v1h-232zM145,769h146v1h-146zM591,769h236v1h-236zM146,770h147v1h-147zM589,770h238v1h-238zM148,771h148v1h-148zM586,771h243v1h-243zM149,772h148v1h-148zM585,772h244v1h-244zM150,773h150v1h-150zM582,773h248v1h-248zM151,774h151v1h-151zM580,774h251v1h-251zM152,775h153v1h-153zM577,775h255v1h-255zM153,776h154v1h-154zM575,776h258v1h-258zM155,777h155v1h-155zM572,777h262v1h-262zM156,778h156v1h-156zM570,778h265v1h-265zM157,779h158v1h-158zM567,779h269v1h-269zM158,780h159v1h-159zM565,780h272v1h-272zM159,781h162v1h-162zM561,781h277v1h-277zM160,782h163v1h-163zM559,782h280v1h-280zM162,783h165v1h-165zM555,783h165v1h-165zM727,783h113v1h-113zM163,784h166v1h-166zM553,784h166v1h-166zM727,784h114v1h-114zM165,785h168v1h-168zM549,785h168v1h-168zM729,785h113v1h-113zM166,786h169v1h-169zM547,786h169v1h-169zM729,786h114v1h-114zM167,787h173v1h-173zM542,787h173v1h-173zM731,787h113v1h-113zM168,788h174v1h-174zM540,788h174v1h-174zM732,788h113v1h-113zM169,789h177v1h-177zM535,789h177v1h-177zM733,789h113v1h-113zM171,790h178v1h-178zM533,790h178v1h-178zM734,790h113v1h-113zM172,791h182v1h-182zM527,791h183v1h-183zM735,791h113v1h-113zM173,792h184v1h-184zM525,792h184v1h-184zM736,792h113v1h-113zM175,793h188v1h-188zM519,793h188v1h-188zM737,793h113v1h-113zM176,794h190v1h-190zM516,794h190v1h-190zM738,794h113v1h-113zM177,795h196v1h-196zM509,795h195v1h-195zM739,795h113v1h-113zM178,796h199v1h-199zM505,796h198v1h-198zM740,796h113v1h-113zM180,797h205v1h-205zM497,797h205v1h-205zM741,797h113v1h-113zM181,798h208v1h-208zM493,798h207v1h-207zM742,798h113v1h-113zM183,799h216v1h-216zM482,799h217v1h-217zM743,799h113v1h-113zM184,800h220v1h-220zM477,800h221v1h-221zM744,800h113v1h-113zM186,801h236v1h-236zM460,801h236v1h-236zM745,801h113v1h-113zM187,802h508v1h-508zM746,802h113v1h-113zM188,803h505v1h-505zM747,803h113v1h-113zM190,804h502v1h-502zM748,804h113v1h-113zM191,805h499v1h-499zM749,805h113v1h-113zM193,806h496v1h-496zM750,806h113v1h-113zM194,807h493v1h-493zM751,807h113v1h-113zM195,808h491v1h-491zM752,808h113v1h-113zM197,809h487v1h-487zM753,809h113v1h-113zM199,810h484v1h-484zM754,810h113v1h-113zM200,811h481v1h-481zM755,811h113v1h-113zM202,812h478v1h-478zM756,812h113v1h-113zM203,813h475v1h-475zM757,813h113v1h-113zM205,814h472v1h-472zM758,814h113v1h-113zM207,815h468v1h-468zM759,815h113v1h-113zM208,816h466v1h-466zM760,816h113v1h-113zM210,817h462v1h-462zM761,817h113v1h-113zM211,818h459v1h-459zM762,818h113v1h-113zM213,819h456v1h-456zM763,819h113v1h-113zM215,820h452v1h-452zM764,820h113v1h-113zM217,821h448v1h-448zM765,821h113v1h-113zM218,822h446v1h-446zM766,822h113v1h-113zM220,823h442v1h-442zM767,823h113v1h-113zM221,824h439v1h-439zM768,824h113v1h-113zM223,825h435v1h-435zM769,825h113v1h-113zM225,826h432v1h-432zM770,826h113v1h-113zM227,827h428v1h-428zM771,827h113v1h-113zM228,828h425v1h-425zM772,828h113v1h-113zM230,829h421v1h-421zM773,829h113v1h-113zM232,830h418v1h-418zM774,830h113v1h-113zM234,831h413v1h-413zM775,831h113v1h-113zM236,832h410v1h-410zM776,832h113v1h-113zM238,833h406v1h-406zM777,833h113v1h-113zM240,834h402v1h-402zM778,834h113v1h-113zM242,835h398v1h-398zM779,835h113v1h-113zM244,836h394v1h-394zM780,836h113v1h-113zM246,837h390v1h-390zM781,837h113v1h-113zM248,838h386v1h-386zM782,838h113v1h-113zM250,839h381v1h-381zM783,839h113v1h-113zM252,840h378v1h-378zM784,840h113v1h-113zM255,841h372v1h-372zM785,841h113v1h-113zM256,842h370v1h-370zM786,842h113v1h-113zM259,843h364v1h-364zM787,843h113v1h-113zM261,844h360v1h-360zM788,844h113v1h-113zM263,845h356v1h-356zM789,845h113v1h-113zM265,846h352v1h-352zM790,846h113v1h-113zM268,847h346v1h-346zM791,847h113v1h-113zM269,848h343v1h-343zM792,848h113v1h-113zM273,849h336v1h-336zM793,849h113v1h-113zM275,850h332v1h-332zM794,850h113v1h-113zM278,851h326v1h-326zM795,851h113v1h-113zM280,852h323v1h-323zM796,852h113v1h-113zM283,853h316v1h-316zM797,853h113v1h-113zM285,854h312v1h-312zM798,854h113v1h-113zM288,855h306v1h-306zM799,855h113v1h-113zM290,856h302v1h-302zM800,856h113v1h-113zM293,857h296v1h-296zM801,857h113v1h-113zM296,858h290v1h-290zM802,858h113v1h-113zM299,859h284v1h-284zM803,859h113v1h-113zM302,860h278v1h-278zM804,860h113v1h-113zM305,861h271v1h-271zM805,861h113v1h-113zM308,862h266v1h-266zM806,862h113v1h-113zM312,863h258v1h-258zM807,863h113v1h-113zM314,864h254v1h-254zM808,864h113v1h-113zM319,865h244v1h-244zM809,865h113v1h-113zM321,866h240v1h-240zM810,866h113v1h-113zM326,867h230v1h-230zM811,867h113v1h-113zM328,868h225v1h-225zM812,868h113v1h-113zM333,869h215v1h-215zM813,869h113v1h-113zM337,870h208v1h-208zM814,870h113v1h-113zM342,871h198v1h-198zM815,871h113v1h-113zM345,872h192v1h-192zM816,872h113v1h-113zM351,873h180v1h-180zM817,873h113v1h-113zM354,874h174v1h-174zM818,874h113v1h-113zM362,875h159v1h-159zM819,875h113v1h-113zM365,876h152v1h-152zM820,876h113v1h-113zM373,877h135v1h-135zM821,877h113v1h-113zM378,878h126v1h-126zM822,878h113v1h-113zM388,879h105v1h-105zM823,879h113v1h-113zM394,880h94v1h-94zM824,880h113v1h-113zM409,881h64v1h-64zM825,881h113v1h-113zM417,882h47v1h-47zM826,882h113v1h-113zM827,883h113v1h-113zM828,884h113v1h-113zM829,885h113v1h-113zM830,886h113v1h-113zM831,887h113v1h-113zM832,888h113v1h-113zM833,889h113v1h-113zM834,890h113v1h-113zM835,891h113v1h-113zM836,892h113v1h-113zM837,893h113v1h-113zM838,894h113v1h-113zM839,895h113v1h-113zM840,896h113v1h-113zM841,897h113v1h-113zM842,898h113v1h-113zM843,899h113v1h-113zM844,900h113v1h-113zM845,901h113v1h-113zM846,902h113v1h-113zM847,903h113v1h-113zM848,904h113v1h-113zM849,905h113v1h-113zM850,906h113v1h-113zM851,907h113v1h-113zM852,908h113v1h-113zM853,909h113v1h-113zM854,910h113v1h-113zM855,911h113v1h-113zM856,912h113v1h-113zM857,913h113v1h-113zM858,914h113v1h-113zM859,915h113v1h-113zM860,916h113v1h-113zM861,917h113v1h-113zM862,918h113v1h-113zM863,919h113v1h-113zM864,920h113v1h-113zM865,921h113v1h-113zM866,922h113v1h-113zM867,923h113v1h-113zM868,924h113v1h-113zM869,925h113v1h-113zM870,926h113v1h-113zM871,927h113v1h-113zM872,928h113v1h-113zM873,929h113v1h-113zM874,930h113v1h-113zM875,931h113v1h-113zM876,932h113v1h-113zM877,933h113v1h-113zM878,934h113v1h-113zM879,935h114v1h-114zM880,936h113v1h-113zM881,937h114v1h-114zM882,938h113v1h-113zM883,939h114v1h-114zM884,940h113v1h-113zM885,941h114v1h-114zM886,942h113v1h-113zM887,943h114v1h-114zM888,944h113v1h-113zM889,945h113v1h-113zM890,946h113v1h-113zM891,947h113v1h-113zM892,948h113v1h-113zM893,949h114v1h-114zM894,950h113v1h-113zM895,951h114v1h-114zM896,952h113v1h-113zM897,953h114v1h-114zM898,954h113v1h-113zM899,955h114v1h-114zM900,956h113v1h-113zM901,957h113v1h-113zM902,958h113v1h-113zM903,959h113v1h-113zM904,960h113v1h-113zM905,961h113v1h-113zM906,962h113v1h-113zM907,963h112v1h-112zM908,964h112v1h-112zM909,965h111v1h-111zM910,966h111v1h-111zM911,967h110v1h-110zM912,968h112v1h-112zM913,969h111v1h-111zM914,970h110v1h-110zM915,971h109v1h-109zM916,972h108v1h-108zM917,973h107v1h-107zM918,974h106v1h-106zM919,975h105v1h-105zM920,976h104v1h-104zM921,977h103v1h-103zM922,978h102v1h-102zM923,979h101v1h-101zM924,980h100v1h-100zM925,981h99v1h-99zM926,982h98v1h-98zM927,983h97v1h-97zM928,984h96v1h-96zM929,985h95v1h-95zM930,986h94v1h-94zM931,987h93v1h-93zM932,988h92v1h-92zM933,989h91v1h-91zM934,990h90v1h-90zM935,991h89v1h-89zM935,992h89v1h-89zM937,993h87v1h-87zM937,994h87v1h-87zM939,995h85v1h-85zM939,996h85v1h-85zM941,997h83v1h-83zM941,998h83v1h-83zM943,999h81v1h-81zM944,1000h80v1h-80zM945,1001h79v1h-79zM945,1002h76v1h-76zM947,1003h74v1h-74zM947,1004h74v1h-74zM949,1005h71v1h-71zM949,1006h70v1h-70zM951,1007h68v1h-68zM951,1008h67v1h-67zM953,1009h64v1h-64zM954,1010h62v1h-62zM955,1011h60v1h-60zM956,1012h59v1h-59zM957,1013h57v1h-57zM958,1014h55v1h-55zM959,1015h52v1h-52zM960,1016h50v1h-50zM961,1017h48v1h-48zM963,1018h45v1h-45zM964,1019h42v1h-42zM966,1020h38v1h-38zM968,1021h34v1h-34zM968,1022h34v1h-34zM968,1023h34v1h-34z"/></svg>