<?xml version="1.0" encoding="UTF-8"?>
<svg xmlns="http://www.w3.org/2000/svg" viewBox="0 0 1024 1024" width="512" height="512"><path fill="#000" d="M386,0h110v1h-110zM386,1h110v1h-110zM386,2h110v1h-110zM374,3h133v1h-133zM371,4h140v1h-140zM364,5h154v1h-154zM359,6h164v1h-164zM352,7h177v1h-177zM349,8h184v1h-184zM343,9h195v1h-195zM341,10h200v1h-200zM335,11h211v1h-211zM332,12h217v1h-217zM327,13h227v1h-227zM325,14h232v1h-232zM320,15h242v1h-242zM317,16h247v1h-247zM313,17h256v1h-256zM310,18h261v1h-261zM307,19h268v1h-268zM304,20h273v1h-273zM301,21h280v1h-280zM299,22h284v1h-284zM295,23h292v1h-292zM292,24h297v1h-297zM289,25h304v1h-304zM287,26h308v1h-308zM284,27h314v1h-314zM281,28h319v1h-319zM278,29h325v1h-325zM277,30h328v1h-328zM274,31h334v1h-334zM272,32h338v1h-338zM269,33h344v1h-344zM267,34h348v1h-348zM264,35h353v1h-353zM262,36h357v1h-357zM260,37h362v1h-362zM258,38h366v1h-366zM255,39h371v1h-371zM254,40h374v1h-374zM251,41h380v1h-380zM249,42h383v1h-383zM247,43h388v1h-388zM245,44h391v1h-391zM243,45h396v1h-396zM241,46h399v1h-399zM239,47h404v1h-404zM237,48h407v1h-407zM235,49h411v1h-411zM234,50h414v1h-414zM231,51h419v1h-419zM230,52h422v1h-422zM228,53h426v1h-426zM226,54h429v1h-429zM224,55h433v1h-433zM223,56h436v1h-436zM220,57h441v1h-441zM219,58h443v1h-443zM217,59h447v1h-447zM216,60h450v1h-450zM214,61h454v1h-454zM212,62h457v1h-457zM210,63h461v1h-461zM209,64h464v1h-464zM207,65h467v1h-467zM206,66h469v1h-469zM204,67h473v1h-473zM203,68h476v1h-476zM201,69h479v1h-479zM200,70h482v1h-482zM198,71h485v1h-485zM197,72h488v1h-488zM195,73h491v1h-491zM193,74h495v1h-495zM192,75h497v1h-497zM191,76h500v1h-500zM189,77h503v1h-503zM188,78h506v1h-506zM186,79h239v1h-239zM456,79h239v1h-239zM185,80h229v1h-229zM467,80h230v1h-230zM183,81h216v1h-216zM482,81h216v1h-216zM182,82h213v1h-213zM488,82h211v1h-211zM181,83h204v1h-204zM497,83h204v1h-204zM179,84h202v1h-202zM501,84h201v1h-201zM178,85h195v1h-195zM508,85h196v1h-196zM177,86h193v1h-193zM513,86h192v1h-192zM175,87h188v1h-188zM519,87h187v1h-187zM174,88h186v1h-186zM522,88h185v1h-185zM173,89h182v1h-182zM527,89h182v1h-182zM171,90h181v1h-181zM530,90h180v1h-180zM170,91h177v1h-177zM535,91h176v1h-176zM169,92h175v1h-175zM538,92h175v1h-175zM168,93h172v1h-172zM542,93h172v1h-172zM166,94h171v1h-171zM545,94h170v1h-170zM165,95h168v1h-168zM549,95h167v1h-167zM164,96h167v1h-167zM551,96h167v1h-167zM162,97h165v1h-165zM555,97h164v1h-164zM161,98h164v1h-164zM557,98h163v1h-163zM160,99h161v1h-161zM561,99h160v1h-160zM159,100h160v1h-160zM563,100h160v1h-160zM158,101h157v1h-157zM567,101h157v1h-157zM157,102h156v1h-156zM569,102h156v1h-156zM155,103h155v1h-155zM572,103h154v1h-154zM154,104h154v1h-154zM574,104h153v1h-153zM153,105h152v1h-152zM577,105h151v1h-151zM152,106h151v1h-151zM579,106h150v1h-150zM151,107h149v1h-149zM582,107h149v1h-149zM149,108h149v1h-149zM584,108h148v1h-148zM148,109h148v1h-148zM586,109h147v1h-147zM147,110h147v1h-147zM588,110h146v1h-146zM146,111h145v1h-145zM591,111h144v1h-144zM145,112h145v1h-145zM593,112h144v1h-144zM144,113h143v1h-143zM595,113h143v1h-143zM143,114h142v1h-142zM597,114h142v1h-142zM142,115h141v1h-141zM599,115h141v1h-141zM141,116h140v1h-140zM601,116h140v1h-140zM140,117h139v1h-139zM603,117h139v1h-139zM139,118h138v1h-138zM605,118h138v1h-138zM137,119h138v1h-138zM607,119h137v1h-137zM137,120h136v1h-136zM609,120h136v1h-136zM135,121h136v1h-136zM611,121h135v1h-135zM134,122h135v1h-135zM613,122h134v1h-134zM133,123h134v1h-134zM615,123h133v1h-133zM132,124h134v1h-134zM616,124h133v1h-133zM131,125h133v1h-133zM429,125h33v1h-33zM618,125h132v1h-132zM130,126h132v1h-132zM418,126h54v1h-54zM620,126h131v1h-131zM129,127h131v1h-131zM402,127h86v1h-86zM622,127h130v1h-130zM128,128h131v1h-131zM398,128h94v1h-94zM623,128h130v1h-130zM127,129h130v1h-130zM390,129h110v1h-110zM625,129h129v1h-129zM126,130h129v1h-129zM387,130h116v1h-116zM627,130h128v1h-128zM125,131h128v1h-128zM380,131h132v1h-132zM629,131h127v1h-127zM124,132h128v1h-128zM377,132h137v1h-137zM630,132h127v1h-127zM123,133h127v1h-127zM371,133h148v1h-148zM632,133h126v1h-126zM122,134h127v1h-127zM369,134h153v1h-153zM633,134h126v1h-126zM121,135h126v1h-126zM362,135h165v1h-165zM635,135h125v1h-125zM121,136h125v1h-125zM360,136h170v1h-170zM636,136h125v1h-125zM120,137h124v1h-124zM356,137h178v1h-178zM638,137h124v1h-124zM119,138h123v1h-123zM354,138h182v1h-182zM639,138h124v1h-124zM118,139h123v1h-123zM350,139h191v1h-191zM641,139h123v1h-123zM117,140h122v1h-122zM348,140h195v1h-195zM642,140h123v1h-123zM116,141h122v1h-122zM344,141h203v1h-203zM644,141h122v1h-122zM115,142h121v1h-121zM341,142h208v1h-208zM645,142h122v1h-122zM114,143h121v1h-121zM337,143h216v1h-216zM647,143h121v1h-121zM113,144h121v1h-121zM335,144h221v1h-221zM648,144h121v1h-121zM112,145h120v1h-120zM332,145h227v1h-227zM650,145h120v1h-120zM111,146h120v1h-120zM330,146h230v1h-230zM651,146h119v1h-119zM110,147h119v1h-119zM327,147h236v1h-236zM653,147h118v1h-118zM109,148h119v1h-119zM325,148h240v1h-240zM654,148h118v1h-118zM108,149h118v1h-118zM322,149h246v1h-246zM655,149h118v1h-118zM108,150h117v1h-117zM321,150h249v1h-249zM657,150h117v1h-117zM107,151h117v1h-117zM318,151h255v1h-255zM658,151h117v1h-117zM106,152h117v1h-117zM316,152h258v1h-258zM659,152h116v1h-116zM105,153h116v1h-116zM314,153h263v1h-263zM661,153h115v1h-115zM104,154h116v1h-116zM312,154h267v1h-267zM662,154h115v1h-115zM103,155h116v1h-116zM309,155h272v1h-272zM663,155h115v1h-115zM103,156h114v1h-114zM307,156h276v1h-276zM664,156h115v1h-115zM102,157h114v1h-114zM305,157h280v1h-280zM666,157h114v1h-114zM101,158h114v1h-114zM303,158h284v1h-284zM667,158h114v1h-114zM100,159h113v1h-113zM301,159h289v1h-289zM668,159h114v1h-114zM99,160h113v1h-113zM300,160h291v1h-291zM669,160h113v1h-113zM98,161h113v1h-113zM297,161h296v1h-296zM671,161h112v1h-112zM97,162h113v1h-113zM296,162h299v1h-299zM672,162h112v1h-112zM97,163h112v1h-112zM293,163h304v1h-304zM673,163h112v1h-112zM96,164h112v1h-112zM292,164h307v1h-307zM674,164h111v1h-111zM95,165h111v1h-111zM290,165h311v1h-311zM675,165h111v1h-111zM94,166h111v1h-111zM288,166h314v1h-314zM676,166h111v1h-111zM93,167h111v1h-111zM286,167h318v1h-318zM678,167h110v1h-110zM93,168h110v1h-110zM285,168h321v1h-321zM679,168h110v1h-110zM92,169h110v1h-110zM283,169h325v1h-325zM680,169h109v1h-109zM91,170h110v1h-110zM281,170h328v1h-328zM681,170h109v1h-109zM90,171h109v1h-109zM279,171h332v1h-332zM682,171h109v1h-109zM90,172h108v1h-108zM278,172h334v1h-334zM683,172h109v1h-109zM89,173h108v1h-108zM276,173h338v1h-338zM685,173h108v1h-108zM88,174h108v1h-108zM275,174h340v1h-340zM685,174h108v1h-108zM87,175h108v1h-108zM273,175h344v1h-344zM687,175h107v1h-107zM87,176h107v1h-107zM272,176h347v1h-347zM688,176h107v1h-107zM86,177h107v1h-107zM270,177h350v1h-350zM689,177h107v1h-107zM85,178h107v1h-107zM269,178h353v1h-353zM690,178h106v1h-106zM84,179h107v1h-107zM267,179h356v1h-356zM691,179h106v1h-106zM83,180h107v1h-107zM265,180h360v1h-360zM692,180h106v1h-106zM83,181h106v1h-106zM264,181h362v1h-362zM693,181h106v1h-106zM82,182h106v1h-106zM263,182h365v1h-365zM694,182h105v1h-105zM81,183h106v1h-106zM261,183h368v1h-368zM695,183h105v1h-105zM81,184h105v1h-105zM260,184h371v1h-371zM696,184h105v1h-105zM80,185h105v1h-105zM258,185h374v1h-374zM697,185h104v1h-104zM79,186h105v1h-105zM257,186h376v1h-376zM698,186h104v1h-104zM79,187h104v1h-104zM256,187h379v1h-379zM699,187h104v1h-104zM78,188h104v1h-104zM255,188h381v1h-381zM700,188h103v1h-103zM77,189h104v1h-104zM253,189h385v1h-385zM701,189h103v1h-103zM77,190h103v1h-103zM252,190h387v1h-387zM702,190h103v1h-103zM76,191h103v1h-103zM250,191h390v1h-390zM703,191h103v1h-103zM75,192h103v1h-103zM249,192h392v1h-392zM704,192h102v1h-102zM74,193h103v1h-103zM248,193h394v1h-394zM705,193h102v1h-102zM74,194h102v1h-102zM247,194h397v1h-397zM706,194h102v1h-102zM73,195h102v1h-102zM246,195h399v1h-399zM707,195h101v1h-101zM72,196h102v1h-102zM244,196h402v1h-402zM707,196h102v1h-102zM72,197h101v1h-101zM243,197h405v1h-405zM708,197h102v1h-102zM71,198h101v1h-101zM242,198h407v1h-407zM709,198h101v1h-101zM71,199h100v1h-100zM240,199h410v1h-410zM710,199h101v1h-101zM70,200h101v1h-101zM239,200h412v1h-412zM711,200h100v1h-100zM69,201h101v1h-101zM238,201h414v1h-414zM712,201h100v1h-100zM69,202h100v1h-100zM237,202h416v1h-416zM713,202h100v1h-100zM68,203h100v1h-100zM236,203h418v1h-418zM713,203h100v1h-100zM67,204h100v1h-100zM235,204h420v1h-420zM714,204h100v1h-100zM67,205h99v1h-99zM234,205h423v1h-423zM715,205h100v1h-100zM66,206h99v1h-99zM233,206h425v1h-425zM716,206h99v1h-99zM65,207h100v1h-100zM232,207h427v1h-427zM717,207h99v1h-99zM65,208h99v1h-99zM231,208h429v1h-429zM718,208h99v1h-99zM64,209h99v1h-99zM229,209h432v1h-432zM719,209h98v1h-98zM63,210h99v1h-99zM229,210h433v1h-433zM720,210h98v1h-98zM63,211h98v1h-98zM227,211h437v1h-437zM721,211h98v1h-98zM62,212h98v1h-98zM226,212h439v1h-439zM721,212h98v1h-98zM62,213h97v1h-97zM225,213h441v1h-441zM722,213h98v1h-98zM61,214h98v1h-98zM224,214h443v1h-443zM723,214h97v1h-97zM61,215h97v1h-97zM223,215h445v1h-445zM724,215h97v1h-97zM60,216h97v1h-97zM222,216h447v1h-447zM724,216h97v1h-97zM59,217h97v1h-97zM221,217h449v1h-449zM725,217h97v1h-97zM59,218h97v1h-97zM220,218h451v1h-451zM726,218h97v1h-97zM58,219h97v1h-97zM219,219h453v1h-453zM727,219h96v1h-96zM57,220h97v1h-97zM218,220h455v1h-455zM728,220h96v1h-96zM57,221h96v1h-96zM217,221h457v1h-457zM728,221h96v1h-96zM56,222h97v1h-97zM216,222h459v1h-459zM729,222h96v1h-96zM56,223h96v1h-96zM215,223h461v1h-461zM730,223h95v1h-95zM55,224h96v1h-96zM214,224h463v1h-463zM731,224h95v1h-95zM55,225h95v1h-95zM213,225h464v1h-464zM731,225h96v1h-96zM54,226h95v1h-95zM212,226h466v1h-466zM732,226h95v1h-95zM53,227h96v1h-96zM211,227h468v1h-468zM733,227h95v1h-95zM53,228h95v1h-95zM211,228h469v1h-469zM733,228h95v1h-95zM53,229h94v1h-94zM209,229h472v1h-472zM734,229h95v1h-95zM52,230h95v1h-95zM209,230h473v1h-473zM735,230h94v1h-94zM51,231h95v1h-95zM208,231h475v1h-475zM736,231h94v1h-94zM51,232h94v1h-94zM207,232h477v1h-477zM736,232h95v1h-95zM50,233h95v1h-95zM206,233h479v1h-479zM737,233h94v1h-94zM50,234h94v1h-94zM205,234h480v1h-480zM738,234h94v1h-94zM49,235h94v1h-94zM204,235h482v1h-482zM739,235h93v1h-93zM49,236h93v1h-93zM203,236h484v1h-484zM739,236h94v1h-94zM48,237h94v1h-94zM202,237h486v1h-486zM740,237h93v1h-93zM48,238h93v1h-93zM201,238h488v1h-488zM741,238h93v1h-93zM47,239h93v1h-93zM200,239h490v1h-490zM741,239h93v1h-93zM47,240h93v1h-93zM200,240h491v1h-491zM742,240h93v1h-93zM46,241h93v1h-93zM199,241h492v1h-492zM743,241h92v1h-92zM46,242h92v1h-92zM198,242h494v1h-494zM743,242h93v1h-93zM45,243h93v1h-93zM197,243h496v1h-496zM744,243h92v1h-92zM45,244h92v1h-92zM197,244h497v1h-497zM744,244h93v1h-93zM44,245h93v1h-93zM196,245h499v1h-499zM745,245h92v1h-92zM44,246h92v1h-92zM195,246h500v1h-500zM746,246h92v1h-92zM43,247h92v1h-92zM194,247h502v1h-502zM746,247h92v1h-92zM43,248h92v1h-92zM193,248h504v1h-504zM747,248h92v1h-92zM42,249h92v1h-92zM193,249h505v1h-505zM748,249h91v1h-91zM42,250h91v1h-91zM192,250h507v1h-507zM748,250h92v1h-92zM41,251h92v1h-92zM191,251h508v1h-508zM749,251h91v1h-91zM41,252h91v1h-91zM190,252h510v1h-510zM750,252h91v1h-91zM40,253h91v1h-91zM190,253h511v1h-511zM750,253h91v1h-91zM40,254h91v1h-91zM189,254h512v1h-512zM751,254h90v1h-90zM39,255h91v1h-91zM188,255h514v1h-514zM751,255h91v1h-91zM39,256h91v1h-91zM187,256h516v1h-516zM752,256h91v1h-91zM39,257h90v1h-90zM187,257h517v1h-517zM753,257h90v1h-90zM38,258h91v1h-91zM186,258h518v1h-518zM753,258h90v1h-90zM37,259h91v1h-91zM185,259h520v1h-520zM754,259h90v1h-90zM37,260h90v1h-90zM185,260h521v1h-521zM754,260h90v1h-90zM37,261h90v1h-90zM184,261h523v1h-523zM755,261h90v1h-90zM36,262h90v1h-90zM183,262h524v1h-524zM755,262h90v1h-90zM36,263h90v1h-90zM183,263h525v1h-525zM756,263h90v1h-90zM35,264h90v1h-90zM182,264h527v1h-527zM757,264h89v1h-89zM35,265h90v1h-90zM181,265h528v1h-528zM757,265h90v1h-90zM35,266h89v1h-89zM181,266h529v1h-529zM758,266h89v1h-89zM34,267h89v1h-89zM180,267h531v1h-531zM758,267h89v1h-89zM33,268h90v1h-90zM179,268h532v1h-532zM759,268h89v1h-89zM33,269h89v1h-89zM178,269h534v1h-534zM759,269h89v1h-89zM33,270h89v1h-89zM178,270h535v1h-535zM760,270h89v1h-89zM32,271h89v1h-89zM177,271h536v1h-536zM760,271h89v1h-89zM32,272h89v1h-89zM177,272h537v1h-537zM761,272h88v1h-88zM31,273h89v1h-89zM176,273h539v1h-539zM761,273h89v1h-89zM31,274h89v1h-89zM175,274h540v1h-540zM762,274h88v1h-88zM31,275h88v1h-88zM174,275h542v1h-542zM762,275h89v1h-89zM30,276h89v1h-89zM174,276h543v1h-543zM763,276h88v1h-88zM30,277h88v1h-88zM173,277h544v1h-544zM763,277h88v1h-88zM29,278h89v1h-89zM173,278h545v1h-545zM764,278h88v1h-88zM29,279h88v1h-88zM172,279h546v1h-546zM764,279h88v1h-88zM29,280h88v1h-88zM171,280h548v1h-548zM765,280h88v1h-88zM28,281h88v1h-88zM171,281h549v1h-549zM765,281h88v1h-88zM28,282h88v1h-88zM170,282h550v1h-550zM766,282h87v1h-87zM27,283h88v1h-88zM170,283h551v1h-551zM766,283h88v1h-88zM27,284h88v1h-88zM169,284h552v1h-552zM767,284h87v1h-87zM27,285h87v1h-87zM169,285h553v1h-553zM767,285h88v1h-88zM26,286h88v1h-88zM168,286h555v1h-555zM768,286h87v1h-87zM26,287h87v1h-87zM167,287h556v1h-556zM768,287h87v1h-87zM25,288h88v1h-88zM167,288h556v1h-556zM769,288h87v1h-87zM25,289h87v1h-87zM166,289h558v1h-558zM769,289h87v1h-87zM25,290h87v1h-87zM165,290h560v1h-560zM770,290h87v1h-87zM25,291h86v1h-86zM165,291h560v1h-560zM770,291h87v1h-87zM24,292h87v1h-87zM165,292h561v1h-561zM771,292h86v1h-86zM24,293h87v1h-87zM164,293h562v1h-562zM771,293h87v1h-87zM23,294h87v1h-87zM163,294h564v1h-564zM771,294h87v1h-87zM23,295h87v1h-87zM163,295h564v1h-564zM772,295h86v1h-86zM23,296h86v1h-86zM163,296h565v1h-565zM772,296h87v1h-87zM23,297h86v1h-86zM162,297h567v1h-567zM773,297h86v1h-86zM22,298h86v1h-86zM161,298h568v1h-568zM773,298h86v1h-86zM22,299h86v1h-86zM161,299h568v1h-568zM774,299h86v1h-86zM21,300h86v1h-86zM161,300h569v1h-569zM774,300h86v1h-86zM21,301h86v1h-86zM160,301h571v1h-571zM775,301h85v1h-85zM21,302h86v1h-86zM159,302h572v1h-572zM775,302h86v1h-86zM21,303h85v1h-85zM159,303h572v1h-572zM775,303h86v1h-86zM20,304h86v1h-86zM158,304h574v1h-574zM776,304h85v1h-85zM20,305h85v1h-85zM158,305h575v1h-575zM776,305h86v1h-86zM19,306h86v1h-86zM157,306h576v1h-576zM777,306h85v1h-85zM19,307h86v1h-86zM157,307h576v1h-576zM777,307h85v1h-85zM19,308h85v1h-85zM157,308h577v1h-577zM777,308h86v1h-86zM19,309h85v1h-85zM156,309h578v1h-578zM778,309h85v1h-85zM18,310h85v1h-85zM155,310h580v1h-580zM778,310h85v1h-85zM18,311h85v1h-85zM155,311h580v1h-580zM779,311h84v1h-84zM17,312h86v1h-86zM155,312h581v1h-581zM779,312h85v1h-85zM17,313h85v1h-85zM154,313h582v1h-582zM779,313h85v1h-85zM17,314h85v1h-85zM154,314h583v1h-583zM780,314h85v1h-85zM17,315h84v1h-84zM153,315h584v1h-584zM780,315h85v1h-85zM16,316h85v1h-85zM153,316h584v1h-584zM781,316h84v1h-84zM16,317h85v1h-85zM152,317h586v1h-586zM781,317h84v1h-84zM16,318h85v1h-85zM152,318h587v1h-587zM781,318h84v1h-84zM15,319h85v1h-85zM151,319h588v1h-588zM781,319h85v1h-85zM15,320h85v1h-85zM151,320h588v1h-588zM782,320h84v1h-84zM15,321h84v1h-84zM151,321h589v1h-589zM782,321h84v1h-84zM15,322h84v1h-84zM150,322h590v1h-590zM783,322h84v1h-84zM15,323h84v1h-84zM150,323h591v1h-591zM783,323h84v1h-84zM14,324h85v1h-85zM149,324h592v1h-592zM783,324h84v1h-84zM14,325h84v1h-84zM149,325h592v1h-592zM783,325h84v1h-84zM14,326h84v1h-84zM149,326h592v1h-592zM784,326h84v1h-84zM13,327h84v1h-84zM148,327h594v1h-594zM784,327h84v1h-84zM13,328h84v1h-84zM148,328h595v1h-595zM785,328h83v1h-83zM13,329h84v1h-84zM147,329h596v1h-596zM785,329h84v1h-84zM13,330h84v1h-84zM147,330h596v1h-596zM785,330h84v1h-84zM12,331h84v1h-84zM147,331h596v1h-596zM785,331h84v1h-84zM12,332h84v1h-84zM146,332h598v1h-598zM786,332h83v1h-83zM12,333h83v1h-83zM146,333h598v1h-598zM786,333h83v1h-83zM12,334h83v1h-83zM145,334h600v1h-600zM787,334h83v1h-83zM11,335h84v1h-84zM145,335h600v1h-600zM787,335h83v1h-83zM11,336h84v1h-84zM145,336h600v1h-600zM787,336h83v1h-83zM11,337h83v1h-83zM145,337h601v1h-601zM787,337h84v1h-84zM11,338h83v1h-83zM144,338h602v1h-602zM788,338h83v1h-83zM11,339h83v1h-83zM144,339h603v1h-603zM788,339h83v1h-83zM10,340h83v1h-83zM143,340h604v1h-604zM788,340h83v1h-83zM10,341h83v1h-83zM143,341h604v1h-604zM789,341h82v1h-82zM10,342h83v1h-83zM143,342h604v1h-604zM789,342h83v1h-83zM9,343h84v1h-84zM143,343h605v1h-605zM789,343h83v1h-83zM9,344h83v1h-83zM142,344h606v1h-606zM789,344h83v1h-83zM9,345h83v1h-83zM142,345h607v1h-607zM790,345h83v1h-83zM9,346h83v1h-83zM141,346h608v1h-608zM790,346h83v1h-83zM9,347h82v1h-82zM141,347h608v1h-608zM790,347h83v1h-83zM9,348h82v1h-82zM141,348h608v1h-608zM791,348h82v1h-82zM8,349h83v1h-83zM141,349h609v1h-609zM791,349h82v1h-82zM8,350h83v1h-83zM140,350h610v1h-610zM791,350h82v1h-82zM8,351h83v1h-83zM140,351h610v1h-610zM791,351h83v1h-83zM7,352h83v1h-83zM140,352h611v1h-611zM791,352h83v1h-83zM7,353h83v1h-83zM139,353h612v1h-612zM792,353h82v1h-82zM7,354h83v1h-83zM139,354h612v1h-612zM792,354h82v1h-82zM7,355h82v1h-82zM139,355h612v1h-612zM792,355h83v1h-83zM7,356h82v1h-82zM139,356h613v1h-613zM792,356h83v1h-83zM7,357h82v1h-82zM138,357h614v1h-614zM793,357h82v1h-82zM7,358h82v1h-82zM138,358h615v1h-615zM793,358h82v1h-82zM6,359h83v1h-83zM138,359h615v1h-615zM793,359h82v1h-82zM6,360h82v1h-82zM137,360h616v1h-616zM793,360h82v1h-82zM6,361h82v1h-82zM137,361h616v1h-616zM793,361h82v1h-82zM6,362h82v1h-82zM137,362h616v1h-616zM794,362h82v1h-82zM5,363h82v1h-82zM137,363h617v1h-617zM794,363h82v1h-82zM5,364h82v1h-82zM136,364h618v1h-618zM794,364h82v1h-82zM5,365h82v1h-82zM136,365h618v1h-618zM794,365h82v1h-82zM5,366h82v1h-82zM136,366h619v1h-619zM795,366h82v1h-82zM5,367h82v1h-82zM135,367h620v1h-620zM795,367h82v1h-82zM5,368h82v1h-82zM135,368h620v1h-620zM795,368h82v1h-82zM5,369h81v1h-81zM135,369h620v1h-620zM795,369h82v1h-82zM4,370h82v1h-82zM135,370h620v1h-620zM795,370h82v1h-82zM4,371h82v1h-82zM135,371h620v1h-620zM795,371h82v1h-82zM4,372h82v1h-82zM135,372h621v1h-621zM796,372h81v1h-81zM4,373h81v1h-81zM134,373h622v1h-622zM796,373h82v1h-82zM3,374h82v1h-82zM134,374h623v1h-623zM796,374h82v1h-82zM3,375h82v1h-82zM134,375h623v1h-623zM796,375h82v1h-82zM3,376h82v1h-82zM133,376h624v1h-624zM797,376h81v1h-81zM3,377h82v1h-82zM133,377h624v1h-624zM797,377h81v1h-81zM3,378h82v1h-82zM133,378h624v1h-624zM797,378h82v1h-82zM3,379h82v1h-82zM133,379h624v1h-624zM797,379h82v1h-82zM3,380h82v1h-82zM133,380h625v1h-625zM797,380h82v1h-82zM3,381h81v1h-81zM133,381h625v1h-625zM797,381h82v1h-82zM3,382h81v1h-81zM132,382h626v1h-626zM797,382h82v1h-82zM3,383h81v1h-81zM132,383h627v1h-627zM798,383h81v1h-81zM3,384h80v1h-80zM132,384h627v1h-627zM798,384h81v1h-81zM0,385h83v1h-83zM132,385h627v1h-627zM798,385h81v1h-81zM0,386h83v1h-83zM131,386h628v1h-628zM798,386h81v1h-81zM0,387h83v1h-83zM131,387h628v1h-628zM799,387h80v1h-80zM0,388h83v1h-83zM131,388h628v1h-628zM799,388h81v1h-81zM0,389h83v1h-83zM131,389h628v1h-628zM799,389h81v1h-81zM0,390h83v1h-83zM131,390h628v1h-628zM799,390h81v1h-81zM0,391h83v1h-83zM131,391h628v1h-628zM799,391h81v1h-81zM0,392h83v1h-83zM131,392h629v1h-629zM799,392h81v1h-81zM0,393h83v1h-83zM131,393h629v1h-629zM799,393h81v1h-81zM0,394h83v1h-83zM130,394h630v1h-630zM799,394h82v1h-82zM0,395h82v1h-82zM130,395h630v1h-630zM799,395h82v1h-82zM0,396h82v1h-82zM130,396h631v1h-631zM799,396h82v1h-82zM0,397h82v1h-82zM130,397h631v1h-631zM800,397h81v1h-81zM0,398h82v1h-82zM130,398h631v1h-631zM800,398h81v1h-81zM0,399h81v1h-81zM129,399h632v1h-632zM800,399h81v1h-81zM0,400h81v1h-81zM129,400h632v1h-632zM800,400h81v1h-81zM0,401h81v1h-81zM129,401h632v1h-632zM800,401h81v1h-81zM0,402h81v1h-81zM129,402h632v1h-632zM800,402h81v1h-81zM0,403h81v1h-81zM129,403h632v1h-632zM801,403h80v1h-80zM0,404h81v1h-81zM129,404h632v1h-632zM801,404h80v1h-80zM0,405h81v1h-81zM129,405h632v1h-632zM801,405h80v1h-80zM0,406h81v1h-81zM129,406h632v1h-632zM801,406h80v1h-80zM0,407h81v1h-81zM129,407h633v1h-633zM801,407h80v1h-80zM0,408h81v1h-81zM129,408h633v1h-633zM801,408h80v1h-80zM0,409h81v1h-81zM128,409h634v1h-634zM801,409h81v1h-81zM0,410h81v1h-81zM128,410h634v1h-634zM801,410h81v1h-81zM0,411h81v1h-81zM128,411h635v1h-635zM801,411h81v1h-81zM0,412h81v1h-81zM128,412h635v1h-635zM801,412h81v1h-81zM0,413h81v1h-81zM128,413h635v1h-635zM801,413h81v1h-81zM0,414h80v1h-80zM128,414h635v1h-635zM801,414h81v1h-81zM0,415h80v1h-80zM127,415h636v1h-636zM801,415h81v1h-81zM0,416h80v1h-80zM127,416h636v1h-636zM801,416h81v1h-81zM0,417h80v1h-80zM127,417h636v1h-636zM801,417h81v1h-81zM0,418h80v1h-80zM127,418h636v1h-636zM801,418h82v1h-82zM0,419h80v1h-80zM127,419h636v1h-636zM802,419h81v1h-81zM0,420h80v1h-80zM127,420h636v1h-636zM802,420h81v1h-81zM0,421h80v1h-80zM127,421h636v1h-636zM802,421h81v1h-81zM0,422h80v1h-80zM127,422h636v1h-636zM802,422h81v1h-81zM0,423h80v1h-80zM127,423h636v1h-636zM802,423h81v1h-81zM0,424h80v1h-80zM127,424h636v1h-636zM802,424h81v1h-81zM0,425h79v1h-79zM127,425h636v1h-636zM802,425h81v1h-81zM0,426h79v1h-79zM127,426h636v1h-636zM802,426h81v1h-81zM0,427h79v1h-79zM127,427h636v1h-636zM802,427h81v1h-81zM0,428h79v1h-79zM127,428h636v1h-636zM802,428h81v1h-81zM0,429h79v1h-79zM127,429h636v1h-636zM802,429h81v1h-81zM0,430h79v1h-79zM127,430h636v1h-636zM802,430h81v1h-81zM0,431h79v1h-79zM127,431h636v1h-636zM802,431h81v1h-81zM0,432h79v1h-79zM127,432h636v1h-636zM802,432h81v1h-81zM0,433h79v1h-79zM127,433h636v1h-636zM802,433h81v1h-81zM0,434h79v1h-79zM127,434h636v1h-636zM802,434h81v1h-81zM0,435h79v1h-79zM127,435h636v1h-636zM802,435h81v1h-81zM0,436h79v1h-79zM127,436h636v1h-636zM802,436h81v1h-81zM0,437h79v1h-79zM127,437h636v1h-636zM802,437h81v1h-81zM0,438h79v1h-79zM127,438h636v1h-636zM802,438h81v1h-81zM0,439h79v1h-79zM127,439h636v1h-636zM802,439h81v1h-81zM0,440h79v1h-79zM127,440h636v1h-636zM802,440h81v1h-81zM0,441h79v1h-79zM127,441h636v1h-636zM802,441h81v1h-81zM0,442h79v1h-79zM127,442h636v1h-636zM802,442h81v1h-81zM0,443h79v1h-79zM127,443h636v1h-636zM802,443h81v1h-81zM0,444h79v1h-79zM127,444h636v1h-636zM802,444h81v1h-81zM0,445h79v1h-79zM127,445h636v1h-636zM802,445h81v1h-81zM0,446h79v1h-79zM127,446h636v1h-636zM802,446h81v1h-81zM0,447h79v1h-79zM127,447h636v1h-636zM802,447h81v1h-81zM0,448h79v1h-79zM127,448h636v1h-636zM802,448h81v1h-81zM0,449h79v1h-79zM127,449h636v1h-636zM802,449h81v1h-81zM0,450h79v1h-79zM127,450h636v1h-636zM802,450h81v1h-81zM0,451h79v1h-79zM127,451h636v1h-636zM802,451h81v1h-81zM0,452h79v1h-79zM127,452h636v1h-636zM802,452h81v1h-81zM0,453h79v1h-79zM127,453h636v1h-636zM802,453h81v1h-81zM0,454h79v1h-79zM127,454h636v1h-636zM802,454h81v1h-81zM0,455h79v1h-79zM127,455h636v1h-636zM802,455h81v1h-81zM0,456h80v1h-80zM127,456h636v1h-636zM802,456h81v1h-81zM0,457h80v1h-80zM127,457h636v1h-636zM802,457h81v1h-81zM0,458h80v1h-80zM127,458h636v1h-636zM802,458h81v1h-81zM0,459h80v1h-80zM127,459h636v1h-636zM802,459h81v1h-81zM0,460h80v1h-80zM127,460h636v1h-636zM802,460h81v1h-81zM0,461h80v1h-80zM127,461h636v1h-636zM802,461h80v1h-80zM0,462h80v1h-80zM127,462h636v1h-636zM802,462h80v1h-80zM0,463h80v1h-80zM127,463h636v1h-636zM801,463h81v1h-81zM0,464h80v1h-80zM127,464h636v1h-636zM801,464h81v1h-81zM0,465h80v1h-80zM127,465h636v1h-636zM801,465h81v1h-81zM0,466h80v1h-80zM127,466h636v1h-636zM801,466h81v1h-81zM0,467h81v1h-81zM127,467h636v1h-636zM801,467h81v1h-81zM0,468h81v1h-81zM127,468h636v1h-636zM801,468h81v1h-81zM0,469h81v1h-81zM127,469h636v1h-636zM801,469h81v1h-81zM0,470h81v1h-81zM127,470h636v1h-636zM801,470h81v1h-81zM0,471h81v1h-81zM127,471h636v1h-636zM801,471h80v1h-80zM0,472h81v1h-81zM128,472h635v1h-635zM801,472h80v1h-80zM0,473h81v1h-81zM128,473h635v1h-635zM801,473h80v1h-80zM0,474h81v1h-81zM128,474h635v1h-635zM801,474h80v1h-80zM0,475h81v1h-81zM128,475h635v1h-635zM801,475h80v1h-80zM0,476h81v1h-81zM128,476h634v1h-634zM801,476h80v1h-80zM0,477h81v1h-81zM128,477h634v1h-634zM801,477h80v1h-80zM0,478h81v1h-81zM129,478h633v1h-633zM801,478h80v1h-80zM0,479h81v1h-81zM129,479h633v1h-633zM800,479h81v1h-81zM0,480h81v1h-81zM129,480h633v1h-633zM800,480h81v1h-81zM0,481h81v1h-81zM129,481h632v1h-632zM800,481h81v1h-81zM0,482h81v1h-81zM129,482h632v1h-632zM800,482h81v1h-81zM0,483h82v1h-82zM129,483h632v1h-632zM800,483h81v1h-81zM0,484h82v1h-82zM129,484h632v1h-632zM799,484h82v1h-82zM0,485h82v1h-82zM129,485h632v1h-632zM799,485h82v1h-82zM0,486h82v1h-82zM129,486h632v1h-632zM799,486h82v1h-82zM0,487h83v1h-83zM129,487h632v1h-632zM799,487h81v1h-81zM0,488h83v1h-83zM129,488h632v1h-632zM799,488h81v1h-81zM0,489h83v1h-83zM129,489h632v1h-632zM799,489h81v1h-81zM0,490h83v1h-83zM130,490h631v1h-631zM799,490h81v1h-81zM0,491h83v1h-83zM130,491h631v1h-631zM799,491h81v1h-81zM0,492h83v1h-83zM130,492h630v1h-630zM799,492h81v1h-81zM0,493h83v1h-83zM130,493h630v1h-630zM799,493h80v1h-80zM0,494h83v1h-83zM131,494h629v1h-629zM798,494h81v1h-81zM0,495h83v1h-83zM131,495h628v1h-628zM798,495h81v1h-81zM3,496h80v1h-80zM131,496h628v1h-628zM798,496h81v1h-81zM3,497h81v1h-81zM131,497h628v1h-628zM798,497h81v1h-81zM3,498h81v1h-81zM131,498h628v1h-628zM798,498h81v1h-81zM3,499h81v1h-81zM131,499h628v1h-628zM797,499h82v1h-82zM3,500h82v1h-82zM131,500h628v1h-628zM797,500h82v1h-82zM3,501h82v1h-82zM131,501h628v1h-628zM797,501h82v1h-82zM3,502h82v1h-82zM132,502h627v1h-627zM797,502h82v1h-82zM3,503h82v1h-82zM132,503h627v1h-627zM797,503h81v1h-81zM3,504h82v1h-82zM132,504h626v1h-626zM797,504h81v1h-81zM3,505h82v1h-82zM133,505h625v1h-625zM796,505h82v1h-82zM3,506h82v1h-82zM133,506h625v1h-625zM796,506h82v1h-82zM3,507h82v1h-82zM133,507h624v1h-624zM796,507h82v1h-82zM4,508h82v1h-82zM133,508h624v1h-624zM796,508h81v1h-81zM4,509h82v1h-82zM133,509h624v1h-624zM796,509h81v1h-81zM4,510h82v1h-82zM133,510h624v1h-624zM795,510h82v1h-82zM4,511h82v1h-82zM134,511h623v1h-623zM795,511h82v1h-82zM5,512h81v1h-81zM134,512h623v1h-623zM795,512h82v1h-82zM5,513h82v1h-82zM134,513h623v1h-623zM795,513h82v1h-82zM5,514h82v1h-82zM135,514h621v1h-621zM795,514h82v1h-82zM5,515h82v1h-82zM135,515h621v1h-621zM795,515h82v1h-82zM5,516h82v1h-82zM135,516h620v1h-620zM794,516h82v1h-82zM5,517h82v1h-82zM135,517h620v1h-620zM794,517h82v1h-82zM6,518h81v1h-81zM135,518h620v1h-620zM794,518h82v1h-82zM6,519h82v1h-82zM135,519h620v1h-620zM793,519h83v1h-83zM6,520h82v1h-82zM136,520h619v1h-619zM793,520h82v1h-82zM6,521h82v1h-82zM136,521h619v1h-619zM793,521h82v1h-82zM7,522h82v1h-82zM136,522h618v1h-618zM793,522h82v1h-82zM7,523h82v1h-82zM137,523h617v1h-617zM793,523h82v1h-82zM7,524h82v1h-82zM137,524h616v1h-616zM793,524h82v1h-82zM7,525h82v1h-82zM137,525h616v1h-616zM792,525h83v1h-83zM7,526h82v1h-82zM137,526h616v1h-616zM792,526h83v1h-83zM7,527h83v1h-83zM137,527h616v1h-616zM792,527h82v1h-82zM7,528h83v1h-83zM138,528h615v1h-615zM791,528h83v1h-83zM8,529h82v1h-82zM138,529h614v1h-614zM791,529h83v1h-83zM8,530h83v1h-83zM139,530h613v1h-613zM791,530h82v1h-82zM8,531h83v1h-83zM139,531h613v1h-613zM791,531h82v1h-82zM8,532h83v1h-83zM139,532h612v1h-612zM791,532h82v1h-82zM9,533h82v1h-82zM139,533h612v1h-612zM790,533h83v1h-83zM9,534h82v1h-82zM139,534h612v1h-612zM790,534h83v1h-83zM9,535h83v1h-83zM140,535h611v1h-611zM790,535h83v1h-83zM9,536h83v1h-83zM140,536h610v1h-610zM789,536h84v1h-84zM9,537h83v1h-83zM141,537h609v1h-609zM789,537h83v1h-83zM9,538h84v1h-84zM141,538h608v1h-608zM789,538h83v1h-83zM10,539h83v1h-83zM141,539h608v1h-608zM789,539h83v1h-83zM10,540h83v1h-83zM141,540h608v1h-608zM788,540h83v1h-83zM11,541h82v1h-82zM142,541h607v1h-607zM788,541h83v1h-83zM11,542h83v1h-83zM142,542h607v1h-607zM788,542h83v1h-83zM11,543h83v1h-83zM143,543h605v1h-605zM787,543h84v1h-84zM11,544h84v1h-84zM143,544h605v1h-605zM787,544h84v1h-84zM11,545h84v1h-84zM143,545h604v1h-604zM787,545h83v1h-83zM11,546h84v1h-84zM143,546h604v1h-604zM787,546h83v1h-83zM12,547h83v1h-83zM144,547h603v1h-603zM786,547h84v1h-84zM12,548h83v1h-83zM144,548h602v1h-602zM786,548h83v1h-83zM12,549h84v1h-84zM145,549h601v1h-601zM785,549h84v1h-84zM13,550h83v1h-83zM145,550h600v1h-600zM785,550h84v1h-84zM13,551h84v1h-84zM145,551h600v1h-600zM785,551h84v1h-84zM13,552h84v1h-84zM145,552h600v1h-600zM785,552h84v1h-84zM13,553h84v1h-84zM146,553h599v1h-599zM784,553h84v1h-84zM13,554h84v1h-84zM146,554h598v1h-598zM784,554h84v1h-84zM14,555h84v1h-84zM147,555h597v1h-597zM783,555h84v1h-84zM14,556h84v1h-84zM147,556h596v1h-596zM783,556h84v1h-84zM15,557h84v1h-84zM147,557h596v1h-596zM783,557h84v1h-84zM15,558h84v1h-84zM148,558h595v1h-595zM783,558h84v1h-84zM15,559h84v1h-84zM148,559h594v1h-594zM782,559h85v1h-85zM15,560h84v1h-84zM149,560h593v1h-593zM782,560h84v1h-84zM15,561h85v1h-85zM149,561h592v1h-592zM781,561h85v1h-85zM16,562h84v1h-84zM149,562h592v1h-592zM781,562h85v1h-85zM16,563h85v1h-85zM150,563h591v1h-591zM781,563h84v1h-84zM17,564h84v1h-84zM150,564h590v1h-590zM781,564h84v1h-84zM17,565h84v1h-84zM151,565h589v1h-589zM780,565h85v1h-85zM17,566h85v1h-85zM151,566h588v1h-588zM780,566h85v1h-85zM17,567h85v1h-85zM151,567h588v1h-588zM779,567h85v1h-85zM17,568h86v1h-86zM152,568h587v1h-587zM779,568h85v1h-85zM18,569h85v1h-85zM153,569h585v1h-585zM779,569h84v1h-84zM18,570h85v1h-85zM153,570h585v1h-585zM778,570h85v1h-85zM19,571h85v1h-85zM153,571h584v1h-584zM778,571h85v1h-85zM19,572h85v1h-85zM154,572h583v1h-583zM777,572h86v1h-86zM19,573h86v1h-86zM154,573h583v1h-583zM777,573h86v1h-86zM19,574h86v1h-86zM155,574h581v1h-581zM777,574h85v1h-85zM20,575h85v1h-85zM155,575h580v1h-580zM776,575h86v1h-86zM20,576h85v1h-85zM155,576h580v1h-580zM776,576h85v1h-85zM21,577h85v1h-85zM156,577h579v1h-579zM775,577h86v1h-86zM21,578h85v1h-85zM157,578h577v1h-577zM775,578h86v1h-86zM21,579h86v1h-86zM157,579h577v1h-577zM775,579h86v1h-86zM21,580h86v1h-86zM157,580h576v1h-576zM774,580h86v1h-86zM22,581h85v1h-85zM158,581h575v1h-575zM774,581h86v1h-86zM22,582h86v1h-86zM158,582h574v1h-574zM773,582h86v1h-86zM23,583h86v1h-86zM159,583h573v1h-573zM773,583h86v1h-86zM23,584h86v1h-86zM159,584h572v1h-572zM773,584h86v1h-86zM23,585h86v1h-86zM160,585h571v1h-571zM772,585h87v1h-87zM23,586h87v1h-87zM160,586h570v1h-570zM771,586h87v1h-87zM24,587h86v1h-86zM161,587h569v1h-569zM771,587h87v1h-87zM24,588h87v1h-87zM161,588h568v1h-568zM771,588h86v1h-86zM25,589h86v1h-86zM162,589h567v1h-567zM770,589h87v1h-87zM25,590h86v1h-86zM162,590h566v1h-566zM770,590h87v1h-87zM25,591h87v1h-87zM163,591h564v1h-564zM769,591h87v1h-87zM25,592h88v1h-88zM163,592h564v1h-564zM769,592h87v1h-87zM26,593h87v1h-87zM164,593h563v1h-563zM768,593h88v1h-88zM26,594h87v1h-87zM165,594h561v1h-561zM768,594h87v1h-87zM27,595h87v1h-87zM165,595h560v1h-560zM767,595h88v1h-88zM27,596h87v1h-87zM166,596h559v1h-559zM767,596h88v1h-88zM27,597h88v1h-88zM166,597h558v1h-558zM767,597h87v1h-87zM28,598h87v1h-87zM167,598h557v1h-557zM766,598h88v1h-88zM28,599h88v1h-88zM167,599h556v1h-556zM765,599h88v1h-88zM29,600h87v1h-87zM168,600h555v1h-555zM765,600h88v1h-88zM29,601h88v1h-88zM169,601h553v1h-553zM765,601h88v1h-88zM29,602h88v1h-88zM169,602h552v1h-552zM764,602h88v1h-88zM30,603h88v1h-88zM169,603h552v1h-552zM763,603h89v1h-89zM30,604h88v1h-88zM170,604h550v1h-550zM763,604h88v1h-88zM31,605h88v1h-88zM171,605h549v1h-549zM763,605h88v1h-88zM31,606h88v1h-88zM171,606h548v1h-548zM762,606h89v1h-89zM31,607h89v1h-89zM172,607h547v1h-547zM761,607h89v1h-89zM32,608h88v1h-88zM172,608h546v1h-546zM761,608h89v1h-89zM32,609h89v1h-89zM173,609h544v1h-544zM761,609h88v1h-88zM33,610h88v1h-88zM174,610h543v1h-543zM760,610h89v1h-89zM33,611h89v1h-89zM174,611h542v1h-542zM759,611h90v1h-90zM33,612h89v1h-89zM175,612h541v1h-541zM759,612h89v1h-89zM34,613h89v1h-89zM175,613h540v1h-540zM758,613h90v1h-90zM34,614h89v1h-89zM176,614h538v1h-538zM758,614h89v1h-89zM35,615h89v1h-89zM177,615h537v1h-537zM757,615h90v1h-90zM35,616h90v1h-90zM177,616h536v1h-536zM757,616h89v1h-89zM36,617h89v1h-89zM178,617h535v1h-535zM756,617h90v1h-90zM36,618h90v1h-90zM179,618h533v1h-533zM755,618h90v1h-90zM37,619h89v1h-89zM179,619h532v1h-532zM755,619h90v1h-90zM37,620h90v1h-90zM180,620h531v1h-531zM754,620h91v1h-91zM37,621h90v1h-90zM181,621h529v1h-529zM754,621h90v1h-90zM38,622h90v1h-90zM181,622h528v1h-528zM753,622h91v1h-91zM38,623h91v1h-91zM182,623h527v1h-527zM753,623h90v1h-90zM39,624h90v1h-90zM183,624h525v1h-525zM753,624h90v1h-90zM39,625h91v1h-91zM183,625h524v1h-524zM752,625h90v1h-90zM40,626h91v1h-91zM184,626h522v1h-522zM752,626h90v1h-90zM40,627h91v1h-91zM185,627h520v1h-520zM751,627h90v1h-90zM41,628h91v1h-91zM186,628h519v1h-519zM751,628h90v1h-90zM41,629h91v1h-91zM186,629h518v1h-518zM751,629h90v1h-90zM41,630h92v1h-92zM187,630h516v1h-516zM751,630h89v1h-89zM42,631h91v1h-91zM188,631h515v1h-515zM751,631h88v1h-88zM43,632h91v1h-91zM188,632h514v1h-514zM751,632h88v1h-88zM43,633h92v1h-92zM189,633h512v1h-512zM751,633h88v1h-88zM43,634h92v1h-92zM190,634h511v1h-511zM751,634h87v1h-87zM44,635h92v1h-92zM191,635h509v1h-509zM750,635h87v1h-87zM45,636h92v1h-92zM191,636h508v1h-508zM750,636h87v1h-87zM45,637h92v1h-92zM192,637h506v1h-506zM750,637h87v1h-87zM45,638h93v1h-93zM193,638h504v1h-504zM750,638h86v1h-86zM46,639h93v1h-93zM194,639h503v1h-503zM750,639h85v1h-85zM47,640h92v1h-92zM195,640h501v1h-501zM750,640h85v1h-85zM47,641h93v1h-93zM195,641h500v1h-500zM750,641h85v1h-85zM47,642h94v1h-94zM196,642h498v1h-498zM750,642h84v1h-84zM48,643h93v1h-93zM197,643h496v1h-496zM750,643h83v1h-83zM49,644h93v1h-93zM198,644h495v1h-495zM750,644h83v1h-83zM49,645h94v1h-94zM199,645h493v1h-493zM750,645h83v1h-83zM50,646h93v1h-93zM200,646h491v1h-491zM751,646h81v1h-81zM50,647h94v1h-94zM201,647h489v1h-489zM751,647h80v1h-80zM51,648h94v1h-94zM201,648h488v1h-488zM751,648h80v1h-80zM51,649h95v1h-95zM202,649h487v1h-487zM751,649h79v1h-79zM52,650h94v1h-94zM203,650h485v1h-485zM751,650h79v1h-79zM52,651h95v1h-95zM204,651h483v1h-483zM751,651h78v1h-78zM53,652h95v1h-95zM205,652h481v1h-481zM751,652h78v1h-78zM53,653h95v1h-95zM205,653h480v1h-480zM752,653h77v1h-77zM54,654h95v1h-95zM206,654h478v1h-478zM752,654h76v1h-76zM55,655h95v1h-95zM207,655h476v1h-476zM753,655h74v1h-74zM55,656h96v1h-96zM208,656h475v1h-475zM753,656h74v1h-74zM56,657h95v1h-95zM209,657h473v1h-473zM754,657h73v1h-73zM56,658h96v1h-96zM210,658h471v1h-471zM754,658h72v1h-72zM57,659h96v1h-96zM211,659h469v1h-469zM755,659h70v1h-70zM57,660h96v1h-96zM212,660h467v1h-467zM755,660h70v1h-70zM58,661h96v1h-96zM213,661h465v1h-465zM756,661h68v1h-68zM59,662h96v1h-96zM214,662h463v1h-463zM757,662h66v1h-66zM59,663h97v1h-97zM215,663h461v1h-461zM757,663h66v1h-66zM60,664h97v1h-97zM215,664h460v1h-460zM758,664h64v1h-64zM60,665h97v1h-97zM217,665h457v1h-457zM759,665h62v1h-62zM61,666h97v1h-97zM217,666h456v1h-456zM760,666h60v1h-60zM61,667h98v1h-98zM218,667h454v1h-454zM761,667h58v1h-58zM62,668h98v1h-98zM219,668h452v1h-452zM762,668h56v1h-56zM63,669h98v1h-98zM220,669h450v1h-450zM763,669h54v1h-54zM63,670h98v1h-98zM221,670h448v1h-448zM764,670h52v1h-52zM64,671h98v1h-98zM222,671h446v1h-446zM765,671h50v1h-50zM65,672h98v1h-98zM223,672h444v1h-444zM767,672h46v1h-46zM65,673h99v1h-99zM225,673h441v1h-441zM768,673h44v1h-44zM66,674h99v1h-99zM225,674h440v1h-440zM770,674h41v1h-41zM66,675h100v1h-100zM227,675h437v1h-437zM772,675h36v1h-36zM67,676h100v1h-100zM228,676h435v1h-435zM773,676h34v1h-34zM68,677h100v1h-100zM229,677h433v1h-433zM776,677h28v1h-28zM68,678h100v1h-100zM230,678h431v1h-431zM778,678h24v1h-24zM69,679h100v1h-100zM231,679h429v1h-429zM70,680h100v1h-100zM232,680h427v1h-427zM70,681h101v1h-101zM233,681h424v1h-424zM71,682h101v1h-101zM234,682h422v1h-422zM71,683h102v1h-102zM236,683h419v1h-419zM719,683h12v1h-12zM72,684h102v1h-102zM237,684h417v1h-417zM716,684h18v1h-18zM73,685h102v1h-102zM238,685h415v1h-415zM712,685h25v1h-25zM73,686h102v1h-102zM239,686h413v1h-413zM710,686h29v1h-29zM74,687h103v1h-103zM241,687h410v1h-410zM708,687h33v1h-33zM75,688h102v1h-102zM242,688h407v1h-407zM707,688h36v1h-36zM75,689h104v1h-104zM243,689h405v1h-405zM705,689h39v1h-39zM76,690h103v1h-103zM244,690h403v1h-403zM703,690h42v1h-42zM77,691h103v1h-103zM245,691h400v1h-400zM702,691h45v1h-45zM78,692h103v1h-103zM247,692h397v1h-397zM700,692h48v1h-48zM78,693h104v1h-104zM248,693h395v1h-395zM699,693h50v1h-50zM79,694h104v1h-104zM249,694h393v1h-393zM698,694h52v1h-52zM80,695h104v1h-104zM251,695h390v1h-390zM697,695h54v1h-54zM81,696h104v1h-104zM252,696h387v1h-387zM696,696h56v1h-56zM81,697h105v1h-105zM253,697h385v1h-385zM695,697h58v1h-58zM82,698h105v1h-105zM254,698h383v1h-383zM694,698h60v1h-60zM83,699h105v1h-105zM256,699h379v1h-379zM693,699h62v1h-62zM83,700h106v1h-106zM257,700h377v1h-377zM692,700h64v1h-64zM84,701h106v1h-106zM258,701h374v1h-374zM691,701h66v1h-66zM85,702h106v1h-106zM260,702h371v1h-371zM690,702h68v1h-68zM85,703h107v1h-107zM261,703h368v1h-368zM689,703h70v1h-70zM86,704h107v1h-107zM262,704h366v1h-366zM688,704h72v1h-72zM87,705h107v1h-107zM264,705h363v1h-363zM687,705h74v1h-74zM88,706h107v1h-107zM265,706h361v1h-361zM686,706h76v1h-76zM89,707h108v1h-108zM267,707h357v1h-357zM685,707h78v1h-78zM89,708h109v1h-109zM268,708h354v1h-354zM684,708h80v1h-80zM90,709h109v1h-109zM270,709h351v1h-351zM683,709h82v1h-82zM91,710h109v1h-109zM271,710h349v1h-349zM681,710h85v1h-85zM92,711h109v1h-109zM273,711h345v1h-345zM680,711h87v1h-87zM92,712h110v1h-110zM274,712h342v1h-342zM679,712h89v1h-89zM93,713h111v1h-111zM276,713h339v1h-339zM678,713h91v1h-91zM94,714h111v1h-111zM278,714h335v1h-335zM677,714h93v1h-93zM95,715h111v1h-111zM279,715h332v1h-332zM676,715h95v1h-95zM96,716h111v1h-111zM281,716h329v1h-329zM675,716h97v1h-97zM96,717h112v1h-112zM283,717h325v1h-325zM673,717h100v1h-100zM97,718h112v1h-112zM284,718h323v1h-323zM672,718h102v1h-102zM98,719h112v1h-112zM286,719h319v1h-319zM671,719h104v1h-104zM99,720h112v1h-112zM287,720h316v1h-316zM670,720h106v1h-106zM99,721h114v1h-114zM289,721h312v1h-312zM669,721h108v1h-108zM100,722h114v1h-114zM291,722h309v1h-309zM667,722h111v1h-111zM101,723h114v1h-114zM293,723h305v1h-305zM666,723h113v1h-113zM102,724h115v1h-115zM294,724h302v1h-302zM665,724h115v1h-115zM103,725h115v1h-115zM297,725h297v1h-297zM664,725h117v1h-117zM104,726h115v1h-115zM298,726h294v1h-294zM662,726h120v1h-120zM105,727h116v1h-116zM301,727h289v1h-289zM661,727h122v1h-122zM106,728h116v1h-116zM302,728h287v1h-287zM660,728h124v1h-124zM107,729h116v1h-116zM305,729h281v1h-281zM658,729h127v1h-127zM107,730h117v1h-117zM306,730h279v1h-279zM657,730h129v1h-129zM108,731h118v1h-118zM309,731h273v1h-273zM656,731h131v1h-131zM109,732h118v1h-118zM310,732h271v1h-271zM654,732h134v1h-134zM110,733h119v1h-119zM313,733h265v1h-265zM653,733h136v1h-136zM111,734h119v1h-119zM315,734h261v1h-261zM651,734h139v1h-139zM111,735h120v1h-120zM318,735h255v1h-255zM650,735h141v1h-141zM112,736h121v1h-121zM320,736h252v1h-252zM649,736h143v1h-143zM113,737h121v1h-121zM323,737h246v1h-246zM647,737h146v1h-146zM114,738h121v1h-121zM324,738h243v1h-243zM646,738h148v1h-148zM115,739h122v1h-122zM327,739h237v1h-237zM644,739h151v1h-151zM116,740h122v1h-122zM329,740h233v1h-233zM643,740h153v1h-153zM117,741h123v1h-123zM332,741h227v1h-227zM641,741h157v1h-157zM118,742h123v1h-123zM334,742h223v1h-223zM640,742h159v1h-159zM119,743h124v1h-124zM337,743h216v1h-216zM638,743h162v1h-162zM120,744h125v1h-125zM339,744h213v1h-213zM637,744h164v1h-164zM121,745h125v1h-125zM343,745h204v1h-204zM635,745h167v1h-167zM122,746h126v1h-126zM345,746h201v1h-201zM634,746h169v1h-169zM123,747h126v1h-126zM349,747h192v1h-192zM632,747h172v1h-172zM124,748h127v1h-127zM351,748h189v1h-189zM631,748h174v1h-174zM125,749h128v1h-128zM356,749h179v1h-179zM629,749h177v1h-177zM126,750h128v1h-128zM359,750h174v1h-174zM627,750h180v1h-180zM127,751h129v1h-129zM364,751h163v1h-163zM625,751h183v1h-183zM127,752h130v1h-130zM366,752h159v1h-159zM624,752h185v1h-185zM129,753h131v1h-131zM373,753h147v1h-147zM622,753h188v1h-188zM130,754h131v1h-131zM375,754h142v1h-142zM621,754h190v1h-190zM131,755h132v1h-132zM382,755h129v1h-129zM619,755h193v1h-193zM132,756h133v1h-133zM384,756h124v1h-124zM617,756h196v1h-196zM133,757h133v1h-133zM392,757h108v1h-108zM615,757h199v1h-199zM134,758h134v1h-134zM394,758h104v1h-104zM614,758h201v1h-201zM135,759h135v1h-135zM406,759h80v1h-80zM611,759h205v1h-205zM136,760h136v1h-136zM409,760h74v1h-74zM610,760h207v1h-207zM137,761h137v1h-137zM608,761h210v1h-210zM138,762h138v1h-138zM606,762h213v1h-213zM139,763h139v1h-139zM604,763h216v1h-216zM140,764h140v1h-140zM602,764h219v1h-219zM141,765h141v1h-141zM600,765h222v1h-222zM142,766h142v1h-142zM598,766h225v1h-225zM143,767h143v1h-143zM595,767h229v1h-229zM144,768h144v1h-144zM594,768h231v1h-231zM146,769h144v1h-144zM591,769h235v1h-235zM147,770h145v1h-145zM589,770h238v1h-238zM148,771h147v1h-147zM587,771h241v1h-241zM149,772h148v1h-148zM585,772h244v1h-244zM150,773h149v1h-149zM582,773h248v1h-248zM151,774h150v1h-150zM580,774h251v1h-251zM153,775h152v1h-152zM577,775h255v1h-255zM154,776h153v1h-153zM575,776h258v1h-258zM155,777h154v1h-154zM572,777h262v1h-262zM156,778h155v1h-155zM570,778h265v1h-265zM157,779h157v1h-157zM567,779h269v1h-269zM158,780h158v1h-158zM565,780h272v1h-272zM159,781h161v1h-161zM562,781h276v1h-276zM161,782h161v1h-161zM560,782h161v1h-161zM726,782h113v1h-113zM162,783h164v1h-164zM556,783h164v1h-164zM727,783h113v1h-113zM163,784h165v1h-165zM553,784h165v1h-165zM728,784h113v1h-113zM165,785h167v1h-167zM550,785h167v1h-167zM729,785h113v1h-113zM166,786h168v1h-168zM547,786h169v1h-169zM730,786h113v1h-113zM167,787h172v1h-172zM543,787h172v1h-172zM731,787h113v1h-113zM168,788h173v1h-173zM540,788h173v1h-173zM732,788h113v1h-113zM170,789h176v1h-176zM536,789h176v1h-176zM733,789h113v1h-113zM171,790h178v1h-178zM533,790h178v1h-178zM734,790h113v1h-113zM172,791h182v1h-182zM528,791h181v1h-181zM735,791h113v1h-113zM173,792h183v1h-183zM525,792h183v1h-183zM736,792h113v1h-113zM175,793h187v1h-187zM520,793h187v1h-187zM737,793h113v1h-113zM176,794h190v1h-190zM516,794h190v1h-190zM738,794h113v1h-113zM177,795h195v1h-195zM510,795h194v1h-194zM739,795h113v1h-113zM179,796h197v1h-197zM505,796h198v1h-198zM740,796h113v1h-113zM180,797h204v1h-204zM498,797h203v1h-203zM741,797h113v1h-113zM181,798h207v1h-207zM494,798h206v1h-206zM742,798h113v1h-113zM183,799h215v1h-215zM484,799h215v1h-215zM743,799h113v1h-113zM184,800h219v1h-219zM479,800h218v1h-218zM744,800h113v1h-113zM186,801h233v1h-233zM463,801h233v1h-233zM745,801h113v1h-113zM187,802h508v1h-508zM746,802h113v1h-113zM189,803h504v1h-504zM747,803h113v1h-113zM190,804h502v1h-502zM748,804h113v1h-113zM191,805h499v1h-499zM749,805h113v1h-113zM193,806h496v1h-496zM750,806h113v1h-113zM194,807h493v1h-493zM751,807h113v1h-113zM196,808h490v1h-490zM752,808h113v1h-113zM197,809h487v1h-487zM753,809h113v1h-113zM199,810h484v1h-484zM754,810h113v1h-113zM201,811h480v1h-480zM755,811h113v1h-113zM202,812h478v1h-478zM756,812h113v1h-113zM204,813h474v1h-474zM757,813h113v1h-113zM205,814h472v1h-472zM758,814h113v1h-113zM207,815h468v1h-468zM759,815h113v1h-113zM208,816h466v1h-466zM760,816h113v1h-113zM210,817h462v1h-462zM761,817h113v1h-113zM211,818h459v1h-459zM762,818h113v1h-113zM213,819h455v1h-455zM763,819h113v1h-113zM215,820h452v1h-452zM764,820h113v1h-113zM217,821h448v1h-448zM765,821h113v1h-113zM218,822h446v1h-446zM766,822h113v1h-113zM220,823h442v1h-442zM767,823h113v1h-113zM222,824h438v1h-438zM768,824h113v1h-113zM224,825h434v1h-434zM769,825h113v1h-113zM225,826h432v1h-432zM770,826h113v1h-113zM227,827h428v1h-428zM771,827h113v1h-113zM229,828h424v1h-424zM772,828h113v1h-113zM231,829h420v1h-420zM773,829h113v1h-113zM232,830h417v1h-417zM774,830h113v1h-113zM234,831h413v1h-413zM775,831h113v1h-113zM236,832h410v1h-410zM776,832h113v1h-113zM238,833h405v1h-405zM777,833h113v1h-113zM240,834h402v1h-402zM778,834h113v1h-113zM242,835h397v1h-397zM779,835h113v1h-113zM244,836h394v1h-394zM780,836h113v1h-113zM246,837h389v1h-389zM781,837h113v1h-113zM248,838h386v1h-386zM782,838h113v1h-113zM250,839h381v1h-381zM783,839h113v1h-113zM252,840h378v1h-378zM784,840h113v1h-113zM255,841h372v1h-372zM785,841h113v1h-113zM256,842h369v1h-369zM786,842h113v1h-113zM259,843h364v1h-364zM787,843h113v1h-113zM261,844h360v1h-360zM788,844h113v1h-113zM263,845h355v1h-355zM789,845h113v1h-113zM265,846h352v1h-352zM790,846h113v1h-113zM268,847h346v1h-346zM791,847h113v1h-113zM270,848h342v1h-342zM792,848h113v1h-113zM273,849h336v1h-336zM793,849h113v1h-113zM275,850h332v1h-332zM794,850h113v1h-113zM278,851h326v1h-326zM795,851h113v1h-113zM280,852h322v1h-322zM796,852h113v1h-113zM283,853h316v1h-316zM797,853h113v1h-113zM285,854h312v1h-312zM798,854h113v1h-113zM288,855h306v1h-306zM799,855h113v1h-113zM290,856h302v1h-302zM800,856h113v1h-113zM294,857h294v1h-294zM801,857h113v1h-113zM296,858h290v1h-290zM802,858h113v1h-113zM300,859h282v1h-282zM803,859h113v1h-113zM302,860h278v1h-278zM804,860h113v1h-113zM306,861h270v1h-270zM805,861h113v1h-113zM308,862h266v1h-266zM806,862h113v1h-113zM312,863h258v1h-258zM807,863h113v1h-113zM315,864h252v1h-252zM808,864h113v1h-113zM319,865h244v1h-244zM809,865h113v1h-113zM322,866h238v1h-238zM810,866h113v1h-113zM326,867h230v1h-230zM811,867h113v1h-113zM329,868h224v1h-224zM812,868h113v1h-113zM334,869h214v1h-214zM813,869h113v1h-113zM337,870h208v1h-208zM814,870h113v1h-113zM342,871h198v1h-198zM815,871h113v1h-113zM345,872h192v1h-192zM816,872h113v1h-113zM351,873h179v1h-179zM817,873h113v1h-113zM355,874h172v1h-172zM818,874h113v1h-113zM362,875h158v1h-158zM819,875h113v1h-113zM366,876h150v1h-150zM820,876h113v1h-113zM374,877h134v1h-134zM821,877h113v1h-113zM379,878h124v1h-124zM822,878h113v1h-113zM389,879h103v1h-103zM823,879h113v1h-113zM395,880h92v1h-92zM824,880h113v1h-113zM410,881h62v1h-62zM825,881h113v1h-113zM421,882h40v1h-40zM826,882h113v1h-113zM827,883h113v1h-113zM828,884h113v1h-113zM829,885h113v1h-113zM830,886h113v1h-113zM831,887h113v1h-113zM832,888h113v1h-113zM833,889h113v1h-113zM834,890h113v1h-113zM835,891h113v1h-113zM836,892h113v1h-113zM837,893h113v1h-113zM838,894h113v1h-113zM839,895h113v1h-113zM840,896h113v1h-113zM841,897h113v1h-113zM842,898h113v1h-113zM843,899h113v1h-113zM844,900h113v1h-113zM845,901h113v1h-113zM846,902h113v1h-113zM847,903h113v1h-113zM848,904h113v1h-113zM849,905h113v1h-113zM850,906h113v1h-113zM851,907h113v1h-113zM852,908h113v1h-113zM853,909h113v1h-113zM854,910h113v1h-113zM855,911h113v1h-113zM856,912h113v1h-113zM857,913h113v1h-113zM858,914h113v1h-113zM859,915h113v1h-113zM860,916h113v1h-113zM861,917h113v1h-113zM862,918h113v1h-113zM863,919h113v1h-113zM864,920h113v1h-113zM865,921h113v1h-113zM866,922h113v1h-113zM867,923h113v1h-113zM868,924h113v1h-113zM869,925h113v1h-113zM870,926h113v1h-113zM871,927h113v1h-113zM872,928h113v1h-113zM873,929h113v1h-113zM874,930h113v1h-113zM875,931h113v1h-113zM876,932h113v1h-113zM877,933h113v1h-113zM878,934h113v1h-113zM879,935h113v1h-113zM880,936h113v1h-113zM881,937h113v1h-113zM882,938h113v1h-113zM883,939h113v1h-113zM884,940h113v1h-113zM885,941h113v1h-113zM886,942h113v1h-113zM887,943h113v1h-113zM888,944h113v1h-113zM889,945h113v1h-113zM890,946h113v1h-113zM891,947h113v1h-113zM892,948h113v1h-113zM893,949h113v1h-113zM894,950h113v1h-113zM895,951h113v1h-113zM896,952h113v1h-113zM897,953h113v1h-113zM898,954h113v1h-113zM899,955h113v1h-113zM900,956h113v1h-113zM901,957h113v1h-113zM902,958h113v1h-113zM903,959h113v1h-113zM904,960h113v1h-113zM905,961h113v1h-113zM906,962h112v1h-112zM907,963h112v1h-112zM908,964h112v1h-112zM909,965h111v1h-111zM910,966h111v1h-111zM911,967h110v1h-110zM912,968h112v1h-112zM913,969h111v1h-111zM914,970h110v1h-110zM915,971h109v1h-109zM916,972h108v1h-108zM917,973h107v1h-107zM918,974h106v1h-106zM919,975h105v1h-105zM920,976h104v1h-104zM921,977h103v1h-103zM922,978h102v1h-102zM923,979h101v1h-101zM924,980h100v1h-100zM925,981h99v1h-99zM926,982h98v1h-98zM927,983h97v1h-97zM928,984h96v1h-96zM929,985h95v1h-95zM930,986h94v1h-94zM931,987h93v1h-93zM932,988h92v1h-92zM933,989h91v1h-91zM934,990h90v1h-90zM935,991h89v1h-89zM936,992h88v1h-88zM937,993h87v1h-87zM938,994h86v1h-86zM939,995h85v1h-85zM940,996h84v1h-84zM941,997h83v1h-83zM942,998h82v1h-82zM943,999h81v1h-81zM944,1000h80v1h-80zM945,1001h79v1h-79zM946,1002h75v1h-75zM947,1003h74v1h-74zM948,1004h72v1h-72zM949,1005h71v1h-71zM950,1006h69v1h-69zM951,1007h68v1h-68zM952,1008h66v1h-66zM953,1009h64v1h-64zM954,1010h62v1h-62zM955,1011h60v1h-60zM956,1012h58v1h-58zM957,1013h56v1h-56zM958,1014h54v1h-54zM959,1015h52v1h-52zM960,1016h50v1h-50zM961,1017h48v1h-48zM963,1018h44v1h-44zM965,1019h41v1h-41zM966,1020h38v1h-38zM968,1021h34v1h-34zM968,1022h34v1h-34zM968,1023h34v1h-34z"/></svg>